<svg id="Layer_1" data-name="Layer 1" xmlns="http://www.w3.org/2000/svg" width="190" height="190" viewBox="0 0 190 190"><defs><style>.cls-1{fill:#999;}.cls-2{fill:#666;}.cls-3{fill:none;stroke:#4d4d4d;stroke-width:5px;}.cls-3,.cls-5{stroke-miterlimit:10;}.cls-4{fill:#333;}.cls-5{fill:#f15a24;stroke:#fcee21;stroke-width:4px;}</style></defs><title>daase_graa</title><path class="cls-1" d="M132.31,179.76c-5.56,14-35.6,15.25-67.1,2.76s-52.53-34-47-48"/><ellipse class="cls-2" cx="107.95" cy="52.08" rx="37.91" ry="64.06" transform="translate(19.75 133.23) rotate(-68.37)"/><ellipse class="cls-2" cx="100.71" cy="93.07" rx="37.4" ry="72.28" transform="translate(-22.93 152.39) rotate(-68.37)"/><ellipse class="cls-2" cx="80.39" cy="144.43" rx="29.7" ry="66.82" transform="translate(-83.5 165.93) rotate(-68.37)"/><ellipse class="cls-2" cx="92.4" cy="114.07" rx="36.06" ry="50.49" transform="translate(-47.7 157.93) rotate(-68.37)"/><rect class="cls-2" x="54.83" y="29.6" width="116.02" height="16.43" transform="translate(21.88 -38.93) rotate(21.63)"/><ellipse class="cls-1" cx="118.19" cy="26.57" rx="16.76" ry="59.65" transform="translate(49.93 126.64) rotate(-68.37)"/><ellipse class="cls-2" cx="117.46" cy="26.8" rx="14" ry="49.83" transform="matrix(0.37, -0.93, 0.93, 0.37, 49.26, 126.11)"/><path class="cls-3" d="M120.7,20c14.41-2.4,26.78-.26,27.62,4.79s-8.85,8.26-23.26,10.67"/><path class="cls-4" d="M126.33,39c-13.75-5-36.89-14.52-34.87-20.1S106.24,12.85,120,17.8"/><polygon class="cls-5" points="106.61 147.98 87.22 122.02 54.84 123.28 73.53 96.81 62.33 66.41 93.28 76.01 118.74 55.96 119.17 88.36 146.1 106.38 115.42 116.8 106.61 147.98"/></svg>
