<svg id="Layer_1" data-name="Layer 1" xmlns="http://www.w3.org/2000/svg" width="1160" height="670" viewBox="0 0 1160 670"><defs><style>.cls-1{opacity:0.79;}.cls-2{fill:#f15a24;}.cls-3{fill:#ed1c24;}.cls-4,.cls-6{fill:none;stroke-linecap:round;stroke-miterlimit:10;stroke-width:2px;}.cls-4{stroke:#ed1c24;}.cls-5{fill:#f7931e;}.cls-6{stroke:#f15a24;}</style></defs><title>indstillinger_skaerm</title><rect class="cls-1" x="3" y="3" width="1154" height="664" rx="12"/><circle class="cls-2" cx="336.04" cy="99.83" r="21.64" transform="translate(146.29 394.59) rotate(-73.78)"/><circle class="cls-2" cx="392.03" cy="142.35" r="21.64" transform="translate(145.82 478.99) rotate(-73.78)"/><circle class="cls-2" cx="401.11" cy="115.06" r="21.64" transform="translate(178.56 468.05) rotate(-73.78)"/><circle class="cls-2" cx="361.4" cy="128.79" r="21.64" transform="matrix(0.28, -0.96, 0.96, 0.28, 136.76, 439.81)"/><circle class="cls-2" cx="371.21" cy="99.74" r="21.64" transform="translate(171.73 428.29) rotate(-73.78)"/><path class="cls-3" d="M343.64,104c27,4.82,82.19,31.52,68.34,30"/><path class="cls-4" d="M418.26,148.38c2-7.23-1.05-14.35-6.73-15.9"/><circle class="cls-5" cx="840.19" cy="383.93" r="26.43"/><circle class="cls-5" cx="810.79" cy="464.57" r="26.43"/><circle class="cls-5" cx="783.43" cy="442.56" r="26.43"/><circle class="cls-5" cx="833.28" cy="430.42" r="26.43"/><circle class="cls-5" cx="804.01" cy="407.07" r="26.43"/><path class="cls-2" d="M835.11,393.21c-24.5,22.76-63.56,86.65-50.35,75.94"/><path class="cls-6" d="M787.84,488.1c-6.8-6.13-8.41-15.43-3.59-20.77"/></svg>
