<svg id="Layer_1" data-name="Layer 1" xmlns="http://www.w3.org/2000/svg" width="90" height="90" viewBox="0 0 90 90"><defs><style>.cls-1{fill:none;stroke:gray;stroke-miterlimit:10;stroke-width:20px;}.cls-2{fill:gray;}</style></defs><title>indstillinger_icon</title><circle class="cls-1" cx="44.51" cy="45" r="26"/><path class="cls-2" d="M7.62,38.78,2.74,34a2.8,2.8,0,0,1,1.2-4.69l6.56-1.84A2.79,2.79,0,0,1,14,30.87l-1.68,6.61A2.79,2.79,0,0,1,7.62,38.78Z"/><path class="cls-2" d="M10.09,29.33,6.68,23.42A2.79,2.79,0,0,1,9.1,19.24h6.82a2.78,2.78,0,0,1,2.41,4.18l-3.41,5.91A2.79,2.79,0,0,1,10.09,29.33Z"/><path class="cls-2" d="M14.55,20.31l-1.4-6.67a2.79,2.79,0,0,1,3.6-3.23l6.48,2.12a2.79,2.79,0,0,1,1,4.73l-5.07,4.56A2.8,2.8,0,0,1,14.55,20.31Z"/><path class="cls-2" d="M24.75,14.4V7.59a2.79,2.79,0,0,1,4.18-2.42l5.91,3.41a2.79,2.79,0,0,1,0,4.83l-5.91,3.41A2.79,2.79,0,0,1,24.75,14.4Z"/><path class="cls-2" d="M43.55,12.23l-6.76.95a2.79,2.79,0,0,1-3-3.81l2.55-6.32a2.79,2.79,0,0,1,4.79-.67l4.2,5.37A2.79,2.79,0,0,1,43.55,12.23Z"/><path class="cls-2" d="M53.58,13l-6.8-.47a2.79,2.79,0,0,1-2.13-4.34l3.81-5.66a2.79,2.79,0,0,1,4.82.33l3,6.13A2.79,2.79,0,0,1,53.58,13Z"/><path class="cls-2" d="M61.85,17.84,56.08,14.2a2.79,2.79,0,0,1,.19-4.83l6-3.17A2.79,2.79,0,0,1,66.4,8.78l-.27,6.81A2.79,2.79,0,0,1,61.85,17.84Z"/><path class="cls-2" d="M68.2,23.7l-4.52-5.11A2.79,2.79,0,0,1,65.22,14l6.68-1.36a2.79,2.79,0,0,1,3.2,3.63l-2.16,6.46A2.79,2.79,0,0,1,68.2,23.7Z"/><path class="cls-2" d="M75.38,31.45l-3.72-5.72a2.79,2.79,0,0,1,2.19-4.31l6.81-.36a2.8,2.8,0,0,1,2.64,4.05l-3.1,6.08A2.78,2.78,0,0,1,75.38,31.45Z"/><path class="cls-2" d="M77.55,39.31l-1.4-6.67a2.79,2.79,0,0,1,3.6-3.23l6.48,2.12a2.79,2.79,0,0,1,1,4.73l-5.07,4.56A2.8,2.8,0,0,1,77.55,39.31Z"/><path class="cls-2" d="M77.49,49l.55-6.8a2.79,2.79,0,0,1,4.37-2.07L88,44a2.79,2.79,0,0,1-.39,4.82l-6.17,2.92A2.79,2.79,0,0,1,77.49,49Z"/><path class="cls-2" d="M15.49,77l.55-6.8a2.79,2.79,0,0,1,4.37-2.07L26,72a2.79,2.79,0,0,1-.39,4.82l-6.17,2.92A2.79,2.79,0,0,1,15.49,77Z"/><path class="cls-2" d="M26.55,84.31l-1.4-6.67a2.79,2.79,0,0,1,3.6-3.23l6.48,2.12a2.79,2.79,0,0,1,1,4.73l-5.07,4.56A2.8,2.8,0,0,1,26.55,84.31Z"/><path class="cls-2" d="M40.09,87.33l-3.41-5.91a2.79,2.79,0,0,1,2.42-4.18h6.82a2.78,2.78,0,0,1,2.41,4.18l-3.41,5.91A2.79,2.79,0,0,1,40.09,87.33Z"/><path class="cls-2" d="M53.62,85.78,48.74,81a2.8,2.8,0,0,1,1.2-4.69l6.56-1.84A2.79,2.79,0,0,1,60,77.87l-1.68,6.61A2.79,2.79,0,0,1,53.62,85.78Z"/><path class="cls-2" d="M67.33,81.79l-6-3.15a2.79,2.79,0,0,1-.21-4.83l5.75-3.66a2.79,2.79,0,0,1,4.29,2.23l.3,6.81A2.79,2.79,0,0,1,67.33,81.79Z"/><path class="cls-2" d="M2.17,42.58l5.91-3.41a2.79,2.79,0,0,1,4.19,2.42v6.82a2.79,2.79,0,0,1-4.19,2.41L2.17,47.41A2.79,2.79,0,0,1,2.17,42.58Z"/><path class="cls-2" d="M3.72,55.1l4.77-4.87a2.79,2.79,0,0,1,4.68,1.2L15,58a2.79,2.79,0,0,1-3.38,3.45L5,59.76A2.79,2.79,0,0,1,3.72,55.1Z"/><path class="cls-2" d="M7.82,67.37l2.55-6.32a2.79,2.79,0,0,1,4.79-.67l4.2,5.37a2.79,2.79,0,0,1-1.81,4.48l-6.76,1A2.79,2.79,0,0,1,7.82,67.37Z"/><path class="cls-2" d="M74,59.06l1.76-6.59a2.79,2.79,0,0,1,4.67-1.25L85.28,56A2.79,2.79,0,0,1,84,60.71l-6.58,1.77A2.79,2.79,0,0,1,74,59.06Z"/><path class="cls-2" d="M69.65,69.17l3.81-5.66a2.79,2.79,0,0,1,4.82.33l3,6.13a2.79,2.79,0,0,1-2.7,4l-6.8-.47A2.79,2.79,0,0,1,69.65,69.17Z"/></svg>
