<svg id="Layer_1" data-name="Layer 1" xmlns="http://www.w3.org/2000/svg" width="1160" height="670" viewBox="0 0 1160 670"><defs><style>.cls-1{fill:#534741;opacity:0.73;}.cls-2{fill:#ff0;}.cls-3{fill:#fcee21;}.cls-4{fill:#f15a24;}.cls-5{fill:#ed1c24;}.cls-6,.cls-8{fill:none;stroke-linecap:round;stroke-miterlimit:10;stroke-width:2px;}.cls-6{stroke:#ed1c24;}.cls-7{fill:#f7931e;}.cls-8{stroke:#f15a24;}</style></defs><title>indstillinger_skaerm</title><rect class="cls-1" x="3" y="3" width="1154" height="664" rx="12"/><path class="cls-2" d="M406.81,79.75a4.72,4.72,0,0,1-.35,1.5c-.24.63-.39,1-.44,1.18a38.61,38.61,0,0,0-.95,4.9v48.51a3.09,3.09,0,0,0,.48,1.7,2.52,2.52,0,0,1,.47,1.22q0,5.06-1.89,5.45c-.48.11-2.32-.24-5.53-1q-5.07-1.26-5.85-2a4,4,0,0,1-1.74-2.77,1.22,1.22,0,0,1,.32-.71,2.18,2.18,0,0,0,.31-1.34V80.7a2.11,2.11,0,0,0-.27-1,2,2,0,0,1-.28-1c.1-1.26,1.08-2.11,2.92-2.53a20.61,20.61,0,0,1,3.64,0,29.9,29.9,0,0,1,5.69.87Q406.8,78,406.81,79.75Z"/><path class="cls-2" d="M449.94,136.15a7.58,7.58,0,0,1,.64,3,3.25,3.25,0,0,1-1.82,3.23,5.59,5.59,0,0,1-2,.24,30.09,30.09,0,0,1-6.39-.83q-3.72-.83-4.51-1.62a1.57,1.57,0,0,1-.39-1,6.54,6.54,0,0,1,1.18-2.81,6.57,6.57,0,0,0,1.19-2.8q.15-31.13-.48-31.37-1.1-.39-5.45,7.11-4.57,7.9-4.58,11.93V136a3.43,3.43,0,0,1,1,2.52,4.08,4.08,0,0,1-2.69,4.11,2.14,2.14,0,0,1-.95.16,29.15,29.15,0,0,1-6.24-1c-2.74-.66-4.26-1.2-4.58-1.62a2.27,2.27,0,0,1-.47-1.42,3.26,3.26,0,0,1,.9-1.9,3.65,3.65,0,0,0,.91-1.42V98.71a3.46,3.46,0,0,0-.63-1.66,2.11,2.11,0,0,1-.39-1.74,3,3,0,0,1,2.45-2.13q1.26-.32,5.92.87,5.06,1.26,5.53,2.6a4.33,4.33,0,0,1-.24,2.61,21.88,21.88,0,0,0-.87,3.16,6.57,6.57,0,0,0,.32,1.9,24.66,24.66,0,0,1,3.32-7c1.74-2.48,3.47-3.72,5.21-3.72a18.44,18.44,0,0,1,6.95,1.86q4.28,1.86,4.9,3.36Q449.95,103.85,449.94,136.15Z"/><path class="cls-2" d="M486.05,133.39a8.89,8.89,0,0,1-2.89,7c-1.92,1.74-4.62,2.63-8.09,2.69a11.09,11.09,0,0,1-2.77-.4c-1.79-.47-2.74-.74-2.84-.79-.95-.21-1.91-.43-2.89-.67a6,6,0,0,1-2.48-1.22,19.24,19.24,0,0,1-3.4-4.35q-1.35-2.21-2.61-4.5a10.28,10.28,0,0,1-1.26-2.77c0-.73.52-1.29,1.58-1.66a4.5,4.5,0,0,1,1.42-.15,43.79,43.79,0,0,1,6,.51c2.4.34,3.7.63,3.91.87s.5,1.75.87,4.54c.32,2.42.87,3.63,1.66,3.63q1.81,0,1.82-4.89,0-6.24-3.32-7.82-7.58-3.56-10-6.32-2.92-3.41-2.93-10.27a16.36,16.36,0,0,1,2.37-8.5q2.37-4,5.61-4.78,1.43-.31,9.17,3c.47.15,1.87.44,4.18.86A6,6,0,0,1,482.65,99q1.5,1.83,1.74,5.77c.05,1.95.08,3.9.08,5.85a26.71,26.71,0,0,1,.55,3.16,2.27,2.27,0,0,1-2.13,2.52,12.33,12.33,0,0,1-4.35-.86Q475,114.28,474,113q-.24-.32-.47-5.93-.24-5.3-1.11-5.29c-.79,0-1.53,1-2.21,3.08a20,20,0,0,0-1,6.4q0,4.19,1.82,5.29,3.87,2.13,7.7,4.31a15.22,15.22,0,0,1,5.33,4.46A14.46,14.46,0,0,1,486.05,133.39Z"/><path class="cls-2" d="M518,102.5a4.38,4.38,0,0,1-.95,2.53,2.42,2.42,0,0,1-1.89,1.1,1.52,1.52,0,0,1-.55-.08,19.2,19.2,0,0,0-5-.39v31.2a11.28,11.28,0,0,1,.51,1.27,6.79,6.79,0,0,1,.52,2.37c0,1.53-1.06,2.34-3.16,2.45a20.74,20.74,0,0,1-6.09-1.42c-3.21-1.06-4.92-2-5.13-2.93a4.73,4.73,0,0,1,.55-2.33,8.15,8.15,0,0,0,.71-2.72v-28H494.9c-1,0-2.24-.88-3.72-2.65S489,99.76,489,98.71a3,3,0,0,1,.91-2.14,2.72,2.72,0,0,1,2-.94h5.69V88.52a5.57,5.57,0,0,1-1.18-3.4,1.87,1.87,0,0,1,1.42-2.05,9.18,9.18,0,0,1,2-.16,30.56,30.56,0,0,1,6.84.91,14.43,14.43,0,0,1,5.09,1.85,1.44,1.44,0,0,1,.56,1.11A4.7,4.7,0,0,1,511,89.15a6,6,0,0,0-1.34,2.21v4.27h2.53c.52,0,1.63.94,3.31,2.84S518,101.71,518,102.5Z"/><path class="cls-2" d="M538.58,139.63q.31,2.85-2,3.55a5.48,5.48,0,0,1-1.11.08,26.63,26.63,0,0,1-7-1.18c-3-.84-4.77-1.74-5.29-2.69-.27-.42,0-1.23.71-2.45a9.24,9.24,0,0,0,.71-4.34V99.42a17.25,17.25,0,0,1-1-4c0-.68,1-1,2.92-1a22,22,0,0,1,6.6,1.46c2.82,1,4.52,1.83,5.1,2.57a1.34,1.34,0,0,1,.23.79,6.62,6.62,0,0,1-.91,2.37,6.52,6.52,0,0,0-.9,2.61v31.76a3.59,3.59,0,0,0,.9,2A4.57,4.57,0,0,1,538.58,139.63ZM538.82,85a1.72,1.72,0,0,1,.08.63,19.23,19.23,0,0,1-.71,4.51c-.53,2-1,3.1-1.5,3.31s-2.8-.35-6.8-1.7-6.13-2.3-6.4-2.88a2.32,2.32,0,0,1-.23-1.18,10.61,10.61,0,0,1,1.1-4.51q1.26-2.68,2.85-3c1.21-.21,3.31.25,6.32,1.38S538.29,83.88,538.82,85Z"/><path class="cls-2" d="M560.54,79.75a4.72,4.72,0,0,1-.35,1.5c-.24.63-.38,1-.44,1.18a37.24,37.24,0,0,0-.94,4.9v48.51a3.09,3.09,0,0,0,.47,1.7,2.42,2.42,0,0,1,.47,1.22q0,5.06-1.89,5.45-.72.16-5-1.07c-2.87-.81-4.59-1.46-5.17-1.93a4,4,0,0,1-1.74-2.77,1.2,1.2,0,0,1,.31-.71,2.18,2.18,0,0,0,.32-1.34V80.7a2,2,0,0,0-.28-1,2.11,2.11,0,0,1-.27-1c.1-1.26,1.08-2.11,2.92-2.53a17.15,17.15,0,0,1,3.32,0,25.22,25.22,0,0,1,5,.87C559.46,77.69,560.54,78.59,560.54,79.75Z"/><path class="cls-2" d="M582.5,79.75a4.46,4.46,0,0,1-.35,1.5c-.24.63-.38,1-.44,1.18a37.24,37.24,0,0,0-.94,4.9v48.51a3.09,3.09,0,0,0,.47,1.7,2.42,2.42,0,0,1,.47,1.22q0,5.06-1.89,5.45-.72.16-5-1.07c-2.87-.81-4.59-1.46-5.17-1.93a4,4,0,0,1-1.74-2.77,1.16,1.16,0,0,1,.32-.71,2.18,2.18,0,0,0,.31-1.34V80.7a2,2,0,0,0-.28-1,2.11,2.11,0,0,1-.27-1c.1-1.26,1.08-2.11,2.92-2.53a17.15,17.15,0,0,1,3.32,0,25.46,25.46,0,0,1,5.06.87C581.42,77.69,582.5,78.59,582.5,79.75Z"/><path class="cls-2" d="M604.62,139.63c.21,1.9-.44,3.08-2,3.55a5.36,5.36,0,0,1-1.11.08,26.69,26.69,0,0,1-7-1.18q-4.5-1.26-5.29-2.69c-.26-.42,0-1.23.71-2.45a9.24,9.24,0,0,0,.71-4.34V99.42a17.25,17.25,0,0,1-.95-4c0-.68,1-1,2.93-1a22,22,0,0,1,6.59,1.46c2.82,1,4.52,1.83,5.1,2.57a1.28,1.28,0,0,1,.24.79,6.83,6.83,0,0,1-.91,2.37,6.42,6.42,0,0,0-.91,2.61v31.76a3.54,3.54,0,0,0,.91,2A4.65,4.65,0,0,1,604.62,139.63ZM604.86,85a1.72,1.72,0,0,1,.08.63,19.23,19.23,0,0,1-.71,4.51c-.53,2-1,3.1-1.5,3.31s-2.79-.35-6.8-1.7-6.13-2.3-6.39-2.88a2.31,2.31,0,0,1-.24-1.18,10.76,10.76,0,0,1,1.1-4.51c.85-1.79,1.79-2.79,2.85-3q1.82-.31,6.32,1.38C602.57,82.74,604.33,83.88,604.86,85Z"/><path class="cls-2" d="M648.23,136.15a7.74,7.74,0,0,1,.63,3,3.24,3.24,0,0,1-1.81,3.23,5.59,5.59,0,0,1-2,.24,30.25,30.25,0,0,1-6.4-.83q-3.7-.83-4.5-1.62a1.58,1.58,0,0,1-.4-1,6.6,6.6,0,0,1,1.19-2.81,6.57,6.57,0,0,0,1.19-2.8q.15-31.13-.48-31.37-1.11-.39-5.45,7.11-4.59,7.9-4.58,11.93V136a3.42,3.42,0,0,1,1,2.52,4.07,4.07,0,0,1-2.68,4.11,2.14,2.14,0,0,1-1,.16,29.15,29.15,0,0,1-6.24-1q-4.11-1-4.58-1.62a2.28,2.28,0,0,1-.48-1.42,3.29,3.29,0,0,1,.91-1.9,3.65,3.65,0,0,0,.91-1.42V98.71a3.46,3.46,0,0,0-.63-1.66,2.15,2.15,0,0,1-.4-1.74A3,3,0,0,1,615,93.18q1.26-.32,5.93.87,5.05,1.26,5.53,2.6a4.33,4.33,0,0,1-.24,2.61,21.88,21.88,0,0,0-.87,3.16,6.57,6.57,0,0,0,.32,1.9,24.4,24.4,0,0,1,3.32-7q2.6-3.72,5.21-3.72a18.44,18.44,0,0,1,7,1.86q4.27,1.86,4.9,3.36Q648.23,103.85,648.23,136.15Z"/><path class="cls-2" d="M689.08,99.42a17.12,17.12,0,0,1-.87,1.58,4.3,4.3,0,0,0-.56,1.74v34.6q0,13.11-9.71,16.83a23.28,23.28,0,0,1-8.22,1.73,13.31,13.31,0,0,1-9.32-3.63,42.45,42.45,0,0,1-3.79-4.11l-1.51-1.5a3.07,3.07,0,0,1-.86-1.82q-.09-1.18,2.37-1.89a3.74,3.74,0,0,1,.94-.08,15.19,15.19,0,0,1,4.15.71,8.06,8.06,0,0,1,3.44,1.74l2.6,3.24a4.51,4.51,0,0,0,3.16,1.81q3.24.31,4.19-4.42a46.13,46.13,0,0,0,.48-8.14l-1.51,2.06a9.92,9.92,0,0,1-1.65,1.81,2.68,2.68,0,0,1-1.82.79,10.82,10.82,0,0,1-7-2.29q-8.46-7.11-8.46-20.93a32.76,32.76,0,0,1,3.72-15.72q3.87-7.43,10.11-9.33a2.89,2.89,0,0,1,.87-.15,4.91,4.91,0,0,1,2.84,1.18c.9.69,1.79,1.4,2.69,2.13.32-.89.64-1.77,1-2.64a2,2,0,0,1,1.62-1.46q1.65-.24,5.88,1.06t4.78,2.25A3.27,3.27,0,0,1,689.08,99.42Zm-14,19.43a80.79,80.79,0,0,0,.63-8.92q0-6.41-2.05-7.19-1.67-.63-4,5.61a32.33,32.33,0,0,0-2.37,11.37q0,9.33,2.13,14.77A36,36,0,0,0,675.09,118.85Z"/><path class="cls-2" d="M726.92,127.38q.71,1.19-3.09,7-4.1,6.24-8.05,8.45a3.29,3.29,0,0,1-1.43.24,24.06,24.06,0,0,1-8.05-1.9q-5.29-1.89-7-4.11-4.58-5.92-4.58-16.43a36.79,36.79,0,0,1,4-17.54q4.35-8.3,11.06-8.45a15.75,15.75,0,0,1,5.93,1.26,19.59,19.59,0,0,1,7,4.51c.47.47.92,1.89,1.34,4.26a36.19,36.19,0,0,1,.79,7.43q0,5.37-1.74,7.42a61.52,61.52,0,0,1-16.59,2.93,27.89,27.89,0,0,0,.95,8.13q1.11,4.27,2.29,4.35c1,.05,2.32-.82,3.79-2.61a11.56,11.56,0,0,0,2.45-3.87,40.46,40.46,0,0,1,1.5-4.9c.85-.1,2.5.32,5,1.27S726.49,126.65,726.92,127.38Zm-14.07-24.17q-1.33-.15-3.75,4.27a22.17,22.17,0,0,0-2.8,8.45,10.08,10.08,0,0,0,5.68-1.74q1.28-.94,1.27-7.9C713.25,104.34,713.12,103.32,712.85,103.21Z"/><path class="cls-2" d="M762.62,99.34a1.78,1.78,0,0,1-.87,2c-.63.32-1.23.66-1.81,1q-5,7.59-13.51,20.46c0,8.38,0,12.69.08,13s.25.93.59,2a9.16,9.16,0,0,1,.51,2.57,2,2,0,0,1-1.34,2.05,5.72,5.72,0,0,1-2.37.4,19.49,19.49,0,0,1-6.64-1.34q-4.57-1.59-4.58-4a7.14,7.14,0,0,1,.63-2.29,7.52,7.52,0,0,0,.64-2.61V101.31c-.58-2.94-.87-4.47-.87-4.58a2.87,2.87,0,0,1,2.21-3.08,9.41,9.41,0,0,1,2.29-.24,20.54,20.54,0,0,1,5.81.91c2,.61,3.22,1.25,3.59,1.94a1.68,1.68,0,0,1,.16.79,29.43,29.43,0,0,1-1.11,3.79v3.79c1.27-2.26,2.5-4.53,3.72-6.79q2.44-4.28,3.63-4.5,1.74-.32,5.29,2T762.62,99.34Z"/><path class="cls-3" d="M403.66,309.3a5.61,5.61,0,0,1-1,2.38,3.43,3.43,0,0,1-2.38,1.61A2.65,2.65,0,0,1,399,313a3.4,3.4,0,0,0-1.19-.31c-.84,0-2.84.67-6,2a33.81,33.81,0,0,0-7.49,4v12.81c.24-.1,1.33-.75,3.29-2a7.37,7.37,0,0,1,3.15-1.26c.84,0,2.41,1.26,4.69,3.92s3.39,4.43,3.29,5.32a4.31,4.31,0,0,1-1.4,2.52,4.66,4.66,0,0,1-2,1.26,1.63,1.63,0,0,1-1.12-.18,2.83,2.83,0,0,0-1-.31.78.78,0,0,0-.42.14c-1.35.56-2.54,1.07-3.57,1.54a19,19,0,0,0-5,2.87v10.22a2.54,2.54,0,0,0,.74,1.5,2.85,2.85,0,0,1,.73,1.86q-.13,3.92-3.71,4.69a33.7,33.7,0,0,1-6.65-4c-2-1.64-3-3.06-3-4.27V309.16a4,4,0,0,0-.8-2.28c-.54-.77-.76-1.34-.67-1.71A4,4,0,0,1,372.3,303a4.36,4.36,0,0,1,2.52-1.15c.42-.05,1.71.62,3.85,2a17.52,17.52,0,0,0,4.27,2.28l7.7-3.15a14.69,14.69,0,0,1,3.15-1.61q1.75-.21,5.88,3.11T403.66,309.3Z"/><path class="cls-3" d="M420.25,322.6a1.12,1.12,0,0,1,.21.7,5.85,5.85,0,0,1-.8,2.1,5.64,5.64,0,0,0-.81,2.31v34.23s0,.35.07.91v1.54q0,6.57-3.64,8.82a6.71,6.71,0,0,1-3.43.63,30.79,30.79,0,0,1-9.45-1.4,19.25,19.25,0,0,1-5.18-2.94c-2.42-1.78-3.64-3.2-3.64-4.27,0-.66.45-1.26,1.33-1.82a2,2,0,0,1,1-.14,15.48,15.48,0,0,1,7,1.4,18.38,18.38,0,0,1,1.26,1.68,3.76,3.76,0,0,0,3,1.33c.66,0,1-2.87,1-8.61V323.51a15.26,15.26,0,0,1-.84-3.57c0-.61.87-.91,2.59-.91a19.14,19.14,0,0,1,5.88,1.29C418.25,321.19,419.74,321.94,420.25,322.6Zm.49-11.83a3.87,3.87,0,0,1,.21,1.47,12,12,0,0,1-.56,3.57c-.42,1.35-.93,2.17-1.54,2.45s-2.46-.32-6-1.51-5.43-2-5.71-2.55a2.12,2.12,0,0,1-.21-1.05,9.5,9.5,0,0,1,1-4c.75-1.59,1.59-2.47,2.52-2.66s3,.22,5.64,1.22S420.32,309.74,420.74,310.77Z"/><path class="cls-3" d="M453.64,348.29c.42.7-.49,2.77-2.73,6.23q-3.63,5.53-7.14,7.49a2.92,2.92,0,0,1-1.26.21,21.27,21.27,0,0,1-7.14-1.68c-3.12-1.12-5.18-2.33-6.16-3.64q-4.05-5.25-4.06-14.56a32.63,32.63,0,0,1,3.57-15.54q3.86-7.35,9.8-7.49a13.58,13.58,0,0,1,5.25,1.12,17.24,17.24,0,0,1,6.23,4c.42.42.82,1.68,1.19,3.78a32,32,0,0,1,.7,6.58c0,3.17-.51,5.37-1.54,6.58a54.69,54.69,0,0,1-14.7,2.59,24.94,24.94,0,0,0,.84,7.21c.66,2.52,1.33,3.8,2,3.85q1.41.06,3.36-2.31a10.36,10.36,0,0,0,2.17-3.43,35.5,35.5,0,0,1,1.33-4.34c.75-.1,2.22.28,4.41,1.12S453.27,347.63,453.64,348.29Zm-12.46-21.42q-1.19-.15-3.32,3.78a19.79,19.79,0,0,0-2.49,7.49,9,9,0,0,0,5-1.54q1.13-.84,1.12-7C441.53,327.87,441.42,327,441.18,326.87Z"/><path class="cls-3" d="M485.28,323.44a1.57,1.57,0,0,1-.77,1.82,18,18,0,0,0-1.61.91q-4.41,6.72-12,18.13c0,7.42,0,11.24.07,11.48s.22.83.53,1.78a8.17,8.17,0,0,1,.45,2.28,1.81,1.81,0,0,1-1.19,1.82,5.2,5.2,0,0,1-2.1.35,17.22,17.22,0,0,1-5.88-1.19c-2.7-.94-4.06-2.13-4.06-3.57a6.44,6.44,0,0,1,.56-2,6.45,6.45,0,0,0,.56-2.31V325.19c-.51-2.62-.77-4-.77-4.06a2.55,2.55,0,0,1,2-2.73,8.5,8.5,0,0,1,2-.21,18.21,18.21,0,0,1,5.15.8c1.79.54,2.86,1.11,3.18,1.72a1.48,1.48,0,0,1,.14.7,25.26,25.26,0,0,1-1,3.36v3.36q1.68-3,3.29-6,2.17-3.78,3.22-4,1.55-.28,4.69,1.82C483.88,321.34,485.05,322.5,485.28,323.44Z"/><path class="cls-3" d="M521.26,356.06a6.66,6.66,0,0,1,.56,2.66,2.88,2.88,0,0,1-1.61,2.87,5,5,0,0,1-1.75.21,26.73,26.73,0,0,1-5.67-.74c-2.19-.49-3.52-1-4-1.43a1.42,1.42,0,0,1-.35-.91,5.87,5.87,0,0,1,1.05-2.49,5.8,5.8,0,0,0,1.05-2.48q.15-27.58-.42-27.79c-.65-.23-2.26,1.86-4.83,6.3q-4.05,7-4.06,10.57v13.09a3,3,0,0,1,.91,2.24,3.62,3.62,0,0,1-2.38,3.64,2,2,0,0,1-.84.14,25.55,25.55,0,0,1-5.53-.88c-2.42-.58-3.78-1.06-4.06-1.43a2.08,2.08,0,0,1-.42-1.26,2.85,2.85,0,0,1,.81-1.68,3.48,3.48,0,0,0,.8-1.26V322.88a3,3,0,0,0-.56-1.47,1.88,1.88,0,0,1-.35-1.54,2.7,2.7,0,0,1,2.17-1.89q1.13-.28,5.25.77c3,.75,4.62,1.51,4.9,2.31a3.78,3.78,0,0,1-.21,2.31,19.92,19.92,0,0,0-.77,2.8,6,6,0,0,0,.28,1.68,21.84,21.84,0,0,1,2.94-6.23c1.54-2.2,3.08-3.29,4.62-3.29A16.48,16.48,0,0,1,515,320q3.78,1.65,4.34,3Q521.27,327.44,521.26,356.06Z"/><path class="cls-3" d="M593.5,356.06a6.66,6.66,0,0,1,.56,2.66,2.88,2.88,0,0,1-1.61,2.87,5,5,0,0,1-1.75.21,26.73,26.73,0,0,1-5.67-.74c-2.19-.49-3.52-1-4-1.43a1.42,1.42,0,0,1-.35-.91,5.87,5.87,0,0,1,1-2.49,5.8,5.8,0,0,0,1-2.48q.15-27.58-.42-27.79-1.11-.34-4.55,5.53-3.78,6.43-3.78,11.2v13.72a9.14,9.14,0,0,1,.49,2.52,2.87,2.87,0,0,1-1.82,2.66,5,5,0,0,1-1.75.21,26.73,26.73,0,0,1-5.67-.74c-2.19-.49-3.52-1-4-1.43a1,1,0,0,1-.28-.7,6.59,6.59,0,0,1,1-2.52,6.61,6.61,0,0,0,1-2.66q.15-27.58-.42-27.79c-.65-.23-2.26,1.86-4.83,6.3q-4,7-4.06,10.57v13.09a3,3,0,0,1,.91,2.24,3.62,3.62,0,0,1-2.38,3.64,2,2,0,0,1-.84.14,25.55,25.55,0,0,1-5.53-.88c-2.42-.58-3.78-1.06-4.06-1.43a2.08,2.08,0,0,1-.42-1.26,2.85,2.85,0,0,1,.81-1.68,3.48,3.48,0,0,0,.8-1.26V322.88a3,3,0,0,0-.56-1.47,1.88,1.88,0,0,1-.35-1.54,2.7,2.7,0,0,1,2.17-1.89q1.13-.28,5.25.77c3,.75,4.62,1.51,4.9,2.31a3.78,3.78,0,0,1-.21,2.31,19.92,19.92,0,0,0-.77,2.8,6,6,0,0,0,.28,1.68,21.84,21.84,0,0,1,2.94-6.23c1.54-2.2,3.08-3.29,4.62-3.29a15.85,15.85,0,0,1,6.09,1.75c2.38,1.12,3.85,2.07,4.41,2.87q.63.84,1.4,5l3.29-6.09q2.38-3.57,4.55-3.57A16.48,16.48,0,0,1,587.2,320q3.78,1.65,4.34,3Q593.51,327.44,593.5,356.06Z"/><path class="cls-3" d="M631.86,320.57a2.38,2.38,0,0,1,.49,1.4,2.82,2.82,0,0,1-.8,1.68,3.27,3.27,0,0,0-.81,1.26v32.55a4.67,4.67,0,0,0,.46,1.47,4.5,4.5,0,0,1,.45,1.54c0,.84-.72,1.44-2.17,1.82-.74.18-2.49-.07-5.25-.77-3-.75-4.62-1.5-4.9-2.24a3.62,3.62,0,0,1,.21-2.45,8.64,8.64,0,0,0,.7-2.52,10.23,10.23,0,0,0-.21-1.82,22,22,0,0,1-2.94,6.23c-1.54,2.14-3.08,3.22-4.62,3.22a16.77,16.77,0,0,1-6.16-1.61c-2.52-1.08-4-2.06-4.34-2.94q-2-4.49-2-33.11a6.91,6.91,0,0,1-.56-2.66,2.94,2.94,0,0,1,1.61-2.94,5,5,0,0,1,1.75-.21,26.49,26.49,0,0,1,5.67.73c2.2.49,3.53,1,4,1.51a1.35,1.35,0,0,1,.35.91,5.8,5.8,0,0,1-1.05,2.48,5.83,5.83,0,0,0-1,2.49q-.13,27.59.42,27.79,1,.35,4.94-6.48T620,337.51V324.42a3.09,3.09,0,0,1-.91-2.24,3.67,3.67,0,0,1,2.38-3.71,2,2,0,0,1,.84-.14,26,26,0,0,1,5.53.87C630.3,319.79,631.63,320.24,631.86,320.57Z"/><path class="cls-3" d="M662.87,353.61a7.92,7.92,0,0,1-2.55,6.16,10.62,10.62,0,0,1-7.18,2.38,9.9,9.9,0,0,1-2.45-.35c-1.58-.42-2.42-.66-2.52-.7l-2.55-.6a5.32,5.32,0,0,1-2.21-1.08,17.42,17.42,0,0,1-3-3.85q-1.18-2-2.31-4a9.31,9.31,0,0,1-1.12-2.45c0-.65.47-1.15,1.4-1.47a3.72,3.72,0,0,1,1.26-.14,39.23,39.23,0,0,1,5.29.45c2.12.31,3.28.56,3.46.77a15.69,15.69,0,0,1,.77,4c.28,2.15.77,3.22,1.47,3.22,1.08,0,1.61-1.45,1.61-4.34q0-5.53-2.94-6.93-6.72-3.15-8.82-5.6c-1.72-2-2.59-5-2.59-9.1a14.52,14.52,0,0,1,2.1-7.53q2.1-3.53,5-4.23,1.26-.28,8.12,2.66c.42.14,1.66.39,3.71.77a5.27,5.27,0,0,1,3.08,1.47,8.82,8.82,0,0,1,1.54,5.11c.05,1.73.07,3.45.07,5.18a23.38,23.38,0,0,1,.49,2.8,2,2,0,0,1-1.89,2.24,11.27,11.27,0,0,1-3.85-.77c-2.1-.7-3.43-1.43-4-2.17a29.94,29.94,0,0,1-.42-5.25c-.14-3.13-.46-4.69-1-4.69-.7,0-1.35.91-2,2.73A18,18,0,0,0,648,334q0,3.71,1.61,4.69,3.43,1.89,6.83,3.81a13.43,13.43,0,0,1,4.72,4A12.79,12.79,0,0,1,662.87,353.61Z"/><path class="cls-3" d="M682.26,359.14c.19,1.68-.39,2.73-1.75,3.15a5.91,5.91,0,0,1-1,.07,23.71,23.71,0,0,1-6.23-1.05q-4-1.12-4.69-2.38c-.23-.38,0-1.1.63-2.17a8.19,8.19,0,0,0,.63-3.85v-29.4a15.26,15.26,0,0,1-.84-3.57c0-.61.87-.91,2.59-.91a19.47,19.47,0,0,1,5.85,1.29c2.49.87,4,1.62,4.51,2.28a1.12,1.12,0,0,1,.21.7,6.06,6.06,0,0,1-.8,2.1,5.64,5.64,0,0,0-.81,2.31v28.14a3.17,3.17,0,0,0,.81,1.75A4.07,4.07,0,0,1,682.26,359.14Zm.21-48.37a1.38,1.38,0,0,1,.07.56,16.81,16.81,0,0,1-.63,4c-.46,1.77-.91,2.75-1.33,2.94s-2.47-.32-6-1.51-5.43-2-5.67-2.55a2.12,2.12,0,0,1-.21-1.05,9.5,9.5,0,0,1,1-4c.75-1.59,1.59-2.47,2.52-2.66,1.08-.19,2.94.22,5.6,1.22S682,309.74,682.47,310.77Z"/><path class="cls-3" d="M722,353.68c.09.88-.79,2.49-2.66,4.83S716,361.94,715,361.8q-3-.42-12.74-16.24c-.47.51-1.26,1.33-2.38,2.45v8.26a7.87,7.87,0,0,0,.18,1.26l.24,1.33c.14,1.58-.19,2.61-1,3.08a4.45,4.45,0,0,1-2,.35,14.26,14.26,0,0,1-5.18-1c-2-.75-2.94-1.64-2.94-2.66V306.71a5.28,5.28,0,0,1,.7-2.45,3.3,3.3,0,0,1,1.61-1.68,1.74,1.74,0,0,1,.56-.07,15.84,15.84,0,0,1,5.08,1.22c2.17.82,3.37,1.53,3.6,2.14a2.19,2.19,0,0,1,.21.84,2.91,2.91,0,0,1-.56,1.43,3.13,3.13,0,0,0-.56,1.65v24.29l10.36-14.21a2.93,2.93,0,0,1,2.31-1.33c.89-.05,2.12.51,3.71,1.68,1.77,1.3,2.68,2.59,2.73,3.85q.07.76-3.29,5.46-5.18,7.43-6.09,8.82l9.1,12.53a5.67,5.67,0,0,0,2,1.47C721.46,352.77,721.9,353.21,722,353.68Z"/><path class="cls-3" d="M759.68,353.68c.09.88-.79,2.49-2.66,4.83s-3.31,3.43-4.34,3.29q-3-.42-12.74-16.24c-.47.51-1.26,1.33-2.38,2.45v8.26a7.87,7.87,0,0,0,.18,1.26l.24,1.33c.14,1.58-.19,2.61-1,3.08a4.45,4.45,0,0,1-2,.35,14.26,14.26,0,0,1-5.18-1c-2-.75-2.94-1.64-2.94-2.66V306.71a5.28,5.28,0,0,1,.7-2.45,3.3,3.3,0,0,1,1.61-1.68,1.74,1.74,0,0,1,.56-.07,15.84,15.84,0,0,1,5.08,1.22c2.17.82,3.37,1.53,3.6,2.14a2.19,2.19,0,0,1,.21.84,2.91,2.91,0,0,1-.56,1.43,3.13,3.13,0,0,0-.56,1.65v24.29l10.36-14.21a2.93,2.93,0,0,1,2.31-1.33c.89-.05,2.12.51,3.71,1.68,1.77,1.3,2.68,2.59,2.73,3.85q.07.76-3.29,5.46-5.17,7.43-6.09,8.82l9.1,12.53a5.67,5.67,0,0,0,2,1.47C759.19,352.77,759.63,353.21,759.68,353.68Z"/><path class="cls-3" d="M792,348.29c.42.7-.49,2.77-2.73,6.23q-3.65,5.53-7.14,7.49a2.92,2.92,0,0,1-1.26.21,21.27,21.27,0,0,1-7.14-1.68q-4.7-1.68-6.16-3.64-4.07-5.25-4.06-14.56A32.63,32.63,0,0,1,767,326.8q3.86-7.35,9.8-7.49a13.58,13.58,0,0,1,5.25,1.12,17.24,17.24,0,0,1,6.23,4c.42.42.82,1.68,1.19,3.78a32,32,0,0,1,.7,6.58c0,3.17-.51,5.37-1.54,6.58A54.83,54.83,0,0,1,774,344a24.94,24.94,0,0,0,.84,7.21c.65,2.52,1.33,3.8,2,3.85q1.39.06,3.36-2.31a10.36,10.36,0,0,0,2.17-3.43,35.5,35.5,0,0,1,1.33-4.34c.75-.1,2.22.28,4.41,1.12S791.58,347.63,792,348.29Zm-12.46-21.42q-1.18-.15-3.32,3.78a19.62,19.62,0,0,0-2.49,7.49,9,9,0,0,0,5-1.54q1.13-.84,1.12-7C779.84,327.87,779.72,327,779.49,326.87Z"/><path class="cls-3" d="M829,356.06a6.83,6.83,0,0,1,.56,2.66,2.9,2.9,0,0,1-1.61,2.87,5,5,0,0,1-1.75.21,26.58,26.58,0,0,1-5.67-.74c-2.19-.49-3.52-1-4-1.43a1.42,1.42,0,0,1-.35-.91,5.87,5.87,0,0,1,1.05-2.49,5.8,5.8,0,0,0,1-2.48q.13-27.58-.42-27.79c-.65-.23-2.26,1.86-4.83,6.3q-4.07,7-4.06,10.57v13.09a3,3,0,0,1,.91,2.24,3.62,3.62,0,0,1-2.38,3.64,2,2,0,0,1-.84.14,25.55,25.55,0,0,1-5.53-.88c-2.43-.58-3.78-1.06-4.06-1.43a2.08,2.08,0,0,1-.42-1.26,2.85,2.85,0,0,1,.81-1.68,3.48,3.48,0,0,0,.8-1.26V322.88a3.06,3.06,0,0,0-.56-1.47,1.88,1.88,0,0,1-.35-1.54,2.68,2.68,0,0,1,2.17-1.89q1.13-.28,5.25.77c3,.75,4.62,1.51,4.9,2.31a3.78,3.78,0,0,1-.21,2.31,19.92,19.92,0,0,0-.77,2.8,5.67,5.67,0,0,0,.28,1.68,21.84,21.84,0,0,1,2.94-6.23c1.54-2.2,3.08-3.29,4.62-3.29a16.48,16.48,0,0,1,6.16,1.64q3.78,1.65,4.34,3Q829,327.44,829,356.06Z"/><path class="cls-3" d="M403.66,442.3a5.61,5.61,0,0,1-1,2.38,3.43,3.43,0,0,1-2.38,1.61A2.65,2.65,0,0,1,399,446a3.4,3.4,0,0,0-1.19-.31c-.84,0-2.84.67-6,2a33.81,33.81,0,0,0-7.49,4v12.81c.24-.1,1.33-.75,3.29-2a7.37,7.37,0,0,1,3.15-1.26c.84,0,2.41,1.26,4.69,3.92s3.39,4.43,3.29,5.32a4.31,4.31,0,0,1-1.4,2.52,4.66,4.66,0,0,1-2,1.26,1.63,1.63,0,0,1-1.12-.18,2.83,2.83,0,0,0-1-.31.78.78,0,0,0-.42.14c-1.35.56-2.54,1.07-3.57,1.54a19,19,0,0,0-5,2.87v10.22a2.54,2.54,0,0,0,.74,1.5,2.85,2.85,0,0,1,.73,1.86q-.13,3.92-3.71,4.69a33.7,33.7,0,0,1-6.65-4c-2-1.64-3-3.06-3-4.27V442.16a4,4,0,0,0-.8-2.28c-.54-.77-.76-1.34-.67-1.71A4,4,0,0,1,372.3,436a4.36,4.36,0,0,1,2.52-1.15c.42-.05,1.71.62,3.85,2a17.52,17.52,0,0,0,4.27,2.28l7.7-3.15a14.69,14.69,0,0,1,3.15-1.61q1.75-.21,5.88,3.11T403.66,442.3Z"/><path class="cls-3" d="M420.25,455.6a1.12,1.12,0,0,1,.21.7,5.85,5.85,0,0,1-.8,2.1,5.64,5.64,0,0,0-.81,2.31v34.23s0,.35.07.91v1.54q0,6.57-3.64,8.82a6.71,6.71,0,0,1-3.43.63,30.79,30.79,0,0,1-9.45-1.4,19.25,19.25,0,0,1-5.18-2.94c-2.42-1.78-3.64-3.2-3.64-4.27,0-.66.45-1.26,1.33-1.82a2,2,0,0,1,1-.14,15.48,15.48,0,0,1,7,1.4,18.38,18.38,0,0,1,1.26,1.68,3.76,3.76,0,0,0,3,1.33c.66,0,1-2.87,1-8.61V456.51a15.26,15.26,0,0,1-.84-3.57c0-.61.87-.91,2.59-.91a19.14,19.14,0,0,1,5.88,1.29C418.25,454.19,419.74,454.94,420.25,455.6Zm.49-11.83a3.87,3.87,0,0,1,.21,1.47,12,12,0,0,1-.56,3.57c-.42,1.35-.93,2.17-1.54,2.45s-2.46-.32-6-1.51-5.43-2-5.71-2.55a2.12,2.12,0,0,1-.21-1.05,9.5,9.5,0,0,1,1-4c.75-1.59,1.59-2.47,2.52-2.66s3,.22,5.64,1.22S420.32,442.74,420.74,443.77Z"/><path class="cls-3" d="M453.64,481.29c.42.7-.49,2.77-2.73,6.23q-3.63,5.53-7.14,7.49a2.92,2.92,0,0,1-1.26.21,21.27,21.27,0,0,1-7.14-1.68c-3.12-1.12-5.18-2.33-6.16-3.64q-4.05-5.25-4.06-14.56a32.63,32.63,0,0,1,3.57-15.54q3.86-7.35,9.8-7.49a13.58,13.58,0,0,1,5.25,1.12,17.24,17.24,0,0,1,6.23,4c.42.42.82,1.68,1.19,3.78a32,32,0,0,1,.7,6.58c0,3.17-.51,5.37-1.54,6.58a54.69,54.69,0,0,1-14.7,2.59,24.94,24.94,0,0,0,.84,7.21c.66,2.52,1.33,3.8,2,3.85q1.41.06,3.36-2.31a10.36,10.36,0,0,0,2.17-3.43,35.5,35.5,0,0,1,1.33-4.34c.75-.1,2.22.28,4.41,1.12S453.27,480.63,453.64,481.29Zm-12.46-21.42q-1.19-.15-3.32,3.78a19.79,19.79,0,0,0-2.49,7.49,9,9,0,0,0,5-1.54q1.13-.84,1.12-7C441.53,460.87,441.42,460,441.18,459.87Z"/><path class="cls-3" d="M485.28,456.44a1.57,1.57,0,0,1-.77,1.82,18,18,0,0,0-1.61.91q-4.41,6.72-12,18.13c0,7.42,0,11.24.07,11.48s.22.83.53,1.78a8.17,8.17,0,0,1,.45,2.28,1.81,1.81,0,0,1-1.19,1.82,5.2,5.2,0,0,1-2.1.35,17.22,17.22,0,0,1-5.88-1.19c-2.7-.94-4.06-2.13-4.06-3.57a6.44,6.44,0,0,1,.56-2,6.45,6.45,0,0,0,.56-2.31V458.19c-.51-2.62-.77-4-.77-4.06a2.55,2.55,0,0,1,2-2.73,8.5,8.5,0,0,1,2-.21,18.21,18.21,0,0,1,5.15.8c1.79.54,2.86,1.11,3.18,1.72a1.48,1.48,0,0,1,.14.7,25.26,25.26,0,0,1-1,3.36v3.36q1.68-3,3.29-6,2.17-3.78,3.22-4,1.55-.28,4.69,1.82C483.88,454.34,485.05,455.5,485.28,456.44Z"/><path class="cls-3" d="M521.26,489.06a6.66,6.66,0,0,1,.56,2.66,2.88,2.88,0,0,1-1.61,2.87,5,5,0,0,1-1.75.21,26.73,26.73,0,0,1-5.67-.74c-2.19-.49-3.52-1-4-1.43a1.42,1.42,0,0,1-.35-.91,5.87,5.87,0,0,1,1.05-2.49,5.8,5.8,0,0,0,1.05-2.48q.15-27.58-.42-27.79c-.65-.23-2.26,1.86-4.83,6.3q-4.05,7-4.06,10.57v13.09a3,3,0,0,1,.91,2.24,3.62,3.62,0,0,1-2.38,3.64,2,2,0,0,1-.84.14,25.55,25.55,0,0,1-5.53-.88c-2.42-.58-3.78-1.06-4.06-1.43a2.08,2.08,0,0,1-.42-1.26,2.85,2.85,0,0,1,.81-1.68,3.48,3.48,0,0,0,.8-1.26V455.88a3,3,0,0,0-.56-1.47,1.88,1.88,0,0,1-.35-1.54,2.7,2.7,0,0,1,2.17-1.89q1.13-.28,5.25.77c3,.75,4.62,1.51,4.9,2.31a3.78,3.78,0,0,1-.21,2.31,19.92,19.92,0,0,0-.77,2.8,6,6,0,0,0,.28,1.68,21.84,21.84,0,0,1,2.94-6.23c1.54-2.2,3.08-3.29,4.62-3.29A16.48,16.48,0,0,1,515,453q3.78,1.65,4.34,3Q521.27,460.44,521.26,489.06Z"/><path class="cls-3" d="M555.42,439.08a4.07,4.07,0,0,1-.31,1.33l-.39,1a32.34,32.34,0,0,0-.84,4.34v43a2.73,2.73,0,0,0,.42,1.5,2.25,2.25,0,0,1,.42,1.09q0,4.47-1.68,4.83a16.63,16.63,0,0,1-4.44-.95,17,17,0,0,1-4.59-1.71,3.61,3.61,0,0,1-1.54-2.45,1.08,1.08,0,0,1,.28-.63,1.91,1.91,0,0,0,.28-1.19V439.92a1.91,1.91,0,0,0-.24-.88,1.75,1.75,0,0,1-.25-.87c.1-1.12,1-1.87,2.59-2.24a13.47,13.47,0,0,1,2.94,0,21.74,21.74,0,0,1,4.48.77C554.47,437.26,555.42,438.05,555.42,439.08Z"/><path class="cls-3" d="M597.28,455.67a4,4,0,0,1,.14,1.05,3.88,3.88,0,0,1-1,2.45,9.54,9.54,0,0,0-1.54,2.24L580.9,501.52c-.09.93-.18,1.86-.28,2.8-.18,1.49-.65,2.33-1.4,2.52a4.49,4.49,0,0,1-.77.07,14.27,14.27,0,0,1-4.69-1,11.65,11.65,0,0,1-3.88-2,2.91,2.91,0,0,1-1.09-2.13,5.31,5.31,0,0,1,1-2.56,13.2,13.2,0,0,0,1.12-2l2.31-7.91-11.34-27.86a8.57,8.57,0,0,0-1.26-1.4,5,5,0,0,1-1.19-2.8c-.09-.56,1.13-1.55,3.68-3s4.54-2.13,6-2.13a1.73,1.73,0,0,1,.91.21,3.91,3.91,0,0,1,1.68,2.38c.24,1,.49,2,.77,3l6.16,17,6.58-17.5c.28-.94.59-1.87.91-2.8a2.61,2.61,0,0,1,1.47-1.75,4.94,4.94,0,0,1,1.54-.21,14.3,14.3,0,0,1,5.11,1.08C596.07,454.26,597.1,455,597.28,455.67Z"/><path class="cls-3" d="M630.81,439.71a6.69,6.69,0,0,1-.52,2.73,16.53,16.53,0,0,0-.67,2.31v45.64a7,7,0,0,0,.35,2.87c.7,1.21.91,2,.63,2.45s-.84.56-1.82.56a29,29,0,0,1-4.9-.63c-2.47-.52-3.78-.77-3.92-.77a2.24,2.24,0,0,1-1.82-1.68,3.48,3.48,0,0,1-.07-.91,70,70,0,0,1,.77-8.54c-1.12,2.24-2.21,4.48-3.29,6.72-1.54,2.75-2.91,4-4.13,3.78q-13.78-2.81-13.79-16.94A34.82,34.82,0,0,1,602,460.92q4.28-8.06,9.38-10.5a3,3,0,0,1,1.33-.35c1.17,0,3.2,1.44,6.09,4.34V440.83a9.44,9.44,0,0,0-.63-2,6.66,6.66,0,0,1-.56-2.13c0-1,.66-1.47,2-1.47a19,19,0,0,1,5,1c1.4.46,2.78.91,4.13,1.33A2.56,2.56,0,0,1,630.81,439.71Zm-12.18,18.06q-3.92,1.75-7.1,7.7a23.7,23.7,0,0,0-3.19,11.06q0,6,4.62,6.51Q615.42,483.33,618.63,457.77Z"/><path class="cls-3" d="M663.3,481.29c.42.7-.49,2.77-2.73,6.23q-3.65,5.53-7.14,7.49a2.92,2.92,0,0,1-1.26.21,21.27,21.27,0,0,1-7.14-1.68q-4.69-1.68-6.16-3.64-4.07-5.25-4.07-14.56a32.52,32.52,0,0,1,3.58-15.54q3.84-7.35,9.8-7.49a13.66,13.66,0,0,1,5.25,1.12,17.32,17.32,0,0,1,6.23,4c.42.42.81,1.68,1.19,3.78a32.66,32.66,0,0,1,.7,6.58c0,3.17-.52,5.37-1.54,6.58a54.83,54.83,0,0,1-14.7,2.59,24.26,24.26,0,0,0,.84,7.21c.65,2.52,1.33,3.8,2,3.85q1.4.06,3.36-2.31a10.54,10.54,0,0,0,2.17-3.43,33.83,33.83,0,0,1,1.33-4.34c.74-.1,2.21.28,4.41,1.12S662.92,480.63,663.3,481.29Zm-12.46-21.42q-1.2-.15-3.33,3.78a19.76,19.76,0,0,0-2.48,7.49,9,9,0,0,0,5-1.54c.74-.56,1.12-2.89,1.12-7C651.19,460.87,651.07,460,650.84,459.87Z"/><path class="cls-3" d="M691,441a3.86,3.86,0,0,1-.63,2.38c-.52.88-1,1.3-1.61,1.26a2.39,2.39,0,0,1-1.33-.74,2.84,2.84,0,0,0-1.47-.8c-2.15-.38-3.22,1.61-3.22,5.95v2.17c0,.93.07,1.58.07,2h2.24c.51,0,1.51.84,3,2.52s2.21,2.87,2.17,3.57a4,4,0,0,1-.84,2.24,2.19,2.19,0,0,1-1.68,1,1.45,1.45,0,0,1-.49-.07,16,16,0,0,0-4.41-.35v27.65a2.73,2.73,0,0,0,.59,1.43,2,2,0,0,1,.46,1.51,2.81,2.81,0,0,1-2.94,2.45,19,19,0,0,1-5.39-1.26q-4.27-1.41-4.55-2.59a4.14,4.14,0,0,1,.49-2.07,7.16,7.16,0,0,0,.63-2.41V462h-2.38c-.89,0-2-.78-3.26-2.35s-1.92-2.81-1.92-3.74a2.7,2.7,0,0,1,.77-1.89,2.31,2.31,0,0,1,1.75-.84h5q0-7.71.91-10.71,2.1-6.58,9-6.58c.6,0,1.21,0,1.82.07a9.63,9.63,0,0,1,4.76,2.31C690.13,439.4,690.92,440.31,691,441Z"/><path class="cls-3" d="M720.77,441a3.86,3.86,0,0,1-.63,2.38c-.52.88-1,1.3-1.61,1.26a2.39,2.39,0,0,1-1.33-.74,2.84,2.84,0,0,0-1.47-.8c-2.15-.38-3.22,1.61-3.22,5.95v2.17c0,.93.07,1.58.07,2h2.24c.51,0,1.51.84,3,2.52s2.21,2.87,2.17,3.57a4,4,0,0,1-.84,2.24,2.19,2.19,0,0,1-1.68,1,1.45,1.45,0,0,1-.49-.07,16,16,0,0,0-4.41-.35v27.65a2.73,2.73,0,0,0,.59,1.43,2,2,0,0,1,.46,1.51,2.81,2.81,0,0,1-2.94,2.45,19,19,0,0,1-5.39-1.26q-4.27-1.41-4.55-2.59a4.14,4.14,0,0,1,.49-2.07,7.16,7.16,0,0,0,.63-2.41V462h-2.38c-.89,0-2-.78-3.26-2.35s-1.93-2.81-1.93-3.74a2.74,2.74,0,0,1,.77-1.89,2.34,2.34,0,0,1,1.75-.84h5q0-7.71.91-10.71,2.1-6.58,9-6.58c.6,0,1.21,0,1.82.07a9.63,9.63,0,0,1,4.76,2.31C719.88,439.4,720.67,440.31,720.77,441Z"/><path class="cls-3" d="M751.15,481.29c.42.7-.49,2.77-2.73,6.23q-3.64,5.53-7.14,7.49a2.92,2.92,0,0,1-1.26.21,21.27,21.27,0,0,1-7.14-1.68q-4.7-1.68-6.16-3.64-4.07-5.25-4.07-14.56a32.52,32.52,0,0,1,3.58-15.54q3.84-7.35,9.8-7.49a13.66,13.66,0,0,1,5.25,1.12,17.32,17.32,0,0,1,6.23,4c.42.42.81,1.68,1.19,3.78a32.66,32.66,0,0,1,.7,6.58c0,3.17-.52,5.37-1.54,6.58a54.83,54.83,0,0,1-14.7,2.59,24.57,24.57,0,0,0,.83,7.21c.66,2.52,1.34,3.8,2,3.85q1.4.06,3.36-2.31a10.54,10.54,0,0,0,2.17-3.43,33.83,33.83,0,0,1,1.33-4.34c.74-.1,2.21.28,4.41,1.12S750.77,480.63,751.15,481.29Zm-12.46-21.42q-1.2-.15-3.33,3.78a19.76,19.76,0,0,0-2.48,7.49,9,9,0,0,0,5-1.54c.74-.56,1.12-2.89,1.12-7C739,460.87,738.92,460,738.69,459.87Z"/><path class="cls-3" d="M790.14,486.68q.14,1.32-2.66,4.83t-4.34,3.29q-3-.42-12.75-16.24c-.46.51-1.26,1.33-2.38,2.45v8.26a7.87,7.87,0,0,0,.18,1.26c.12.6.2,1.05.24,1.33.14,1.58-.18,2.61-1,3.08a4.42,4.42,0,0,1-2,.35,14.26,14.26,0,0,1-5.18-1c-2-.75-2.94-1.64-2.94-2.66V439.71a5.4,5.4,0,0,1,.7-2.45,3.33,3.33,0,0,1,1.61-1.68,1.74,1.74,0,0,1,.56-.07,15.78,15.78,0,0,1,5.08,1.22c2.17.82,3.37,1.53,3.6,2.14a2.19,2.19,0,0,1,.21.84,2.81,2.81,0,0,1-.56,1.43,3.13,3.13,0,0,0-.56,1.65v24.29l10.36-14.21a2.93,2.93,0,0,1,2.31-1.33q1.33-.07,3.72,1.68c1.77,1.3,2.68,2.59,2.73,3.85,0,.51-1,2.33-3.29,5.46q-5.19,7.43-6.09,8.82l9.1,12.53a5.58,5.58,0,0,0,2,1.47C789.65,485.77,790.09,486.21,790.14,486.68Z"/><path class="cls-3" d="M817.51,459.24a4,4,0,0,1-.84,2.24,2.19,2.19,0,0,1-1.68,1,1.45,1.45,0,0,1-.49-.07,16.54,16.54,0,0,0-4.41-.35v27.65a8.67,8.67,0,0,1,.45,1.12,6.06,6.06,0,0,1,.46,2.1c0,1.35-.94,2.07-2.8,2.17a18.42,18.42,0,0,1-5.39-1.26q-4.27-1.41-4.55-2.59a4.14,4.14,0,0,1,.49-2.07,7.16,7.16,0,0,0,.63-2.41V462H797c-.89,0-2-.78-3.29-2.35s-2-2.81-2-3.74a2.65,2.65,0,0,1,.8-1.89,2.43,2.43,0,0,1,1.78-.84h5v-6.3a4.92,4.92,0,0,1-1-3,1.67,1.67,0,0,1,1.26-1.82,8,8,0,0,1,1.75-.14,27.61,27.61,0,0,1,6,.8,12.89,12.89,0,0,1,4.52,1.65,1.28,1.28,0,0,1,.49,1,4.21,4.21,0,0,1-1.12,2.1,5.18,5.18,0,0,0-1.19,2v3.78h2.24q.69,0,2.94,2.52C816.76,457.35,817.51,458.54,817.51,459.24Z"/><path class="cls-3" d="M848.66,481.29c.42.7-.49,2.77-2.73,6.23q-3.64,5.53-7.14,7.49a2.92,2.92,0,0,1-1.26.21,21.27,21.27,0,0,1-7.14-1.68q-4.7-1.68-6.16-3.64-4.07-5.25-4.06-14.56a32.63,32.63,0,0,1,3.57-15.54q3.84-7.35,9.8-7.49a13.66,13.66,0,0,1,5.25,1.12,17.32,17.32,0,0,1,6.23,4c.42.42.81,1.68,1.19,3.78a32.66,32.66,0,0,1,.7,6.58c0,3.17-.52,5.37-1.54,6.58a54.83,54.83,0,0,1-14.7,2.59,24.26,24.26,0,0,0,.84,7.21c.65,2.52,1.33,3.8,2,3.85q1.4.06,3.36-2.31a10.54,10.54,0,0,0,2.17-3.43,33.83,33.83,0,0,1,1.33-4.34c.74-.1,2.21.28,4.41,1.12S848.28,480.63,848.66,481.29ZM836.2,459.87q-1.2-.15-3.33,3.78a19.76,19.76,0,0,0-2.48,7.49,9,9,0,0,0,5-1.54c.74-.56,1.12-2.89,1.12-7C836.55,460.87,836.43,460,836.2,459.87Z"/><path class="cls-3" d="M880.3,456.44a1.59,1.59,0,0,1-.77,1.82,16.75,16.75,0,0,0-1.61.91q-4.41,6.72-12,18.13c0,7.42,0,11.24.06,11.48s.23.83.53,1.78a8.17,8.17,0,0,1,.45,2.28,1.81,1.81,0,0,1-1.19,1.82,5.2,5.2,0,0,1-2.1.35,17.22,17.22,0,0,1-5.88-1.19c-2.7-.94-4.06-2.13-4.06-3.57a6.44,6.44,0,0,1,.56-2,6.45,6.45,0,0,0,.56-2.31V458.19c-.51-2.62-.77-4-.77-4.06a2.55,2.55,0,0,1,2-2.73,8.5,8.5,0,0,1,2-.21,18.21,18.21,0,0,1,5.15.8c1.8.54,2.86,1.11,3.19,1.72a1.62,1.62,0,0,1,.13.7,25.26,25.26,0,0,1-1,3.36v3.36q1.68-3,3.3-6c1.44-2.52,2.52-3.85,3.22-4,1-.19,2.59.42,4.69,1.82S880.06,455.5,880.3,456.44Z"/><circle class="cls-4" cx="280.49" cy="133.43" r="21.64"/><circle class="cls-4" cx="346.13" cy="158.6" r="21.64"/><circle class="cls-4" cx="347.23" cy="129.87" r="21.64"/><circle class="cls-4" cx="312.94" cy="154.15" r="21.64"/><circle class="cls-4" cx="314.24" cy="123.51" r="21.64"/><path class="cls-5" d="M289,135.28c27.24-2.91,87.72,7.3,74,9.71"/><path class="cls-6" d="M373,157.07c-.13-7.49-5-13.48-10.91-13.38"/><circle class="cls-7" cx="835.38" cy="83.23" r="16.23"/><circle class="cls-7" cx="817.33" cy="132.77" r="16.23"/><circle class="cls-7" cx="800.52" cy="119.24" r="16.23"/><circle class="cls-7" cx="831.14" cy="111.79" r="16.23"/><circle class="cls-7" cx="813.17" cy="97.45" r="16.23"/><path class="cls-4" d="M832.27,88.93c-15,14-39,53.23-30.93,46.65"/><path class="cls-8" d="M803.23,147.22c-4.18-3.76-5.16-9.48-2.21-12.76"/></svg>
