<svg id="Layer_1" data-name="Layer 1" xmlns="http://www.w3.org/2000/svg" width="445" height="130" viewBox="0 0 445 130"><defs><style>.cls-1,.cls-2{fill:#00a99d;}.cls-2{opacity:0.9;}.cls-3{fill:#999;}.cls-4{fill:#666;stroke:gray;stroke-miterlimit:10;stroke-width:0.5px;}.cls-5{fill:#e6e6e6;}</style></defs><title>prov_igen</title><rect class="cls-1" x="211.05" y="-85.46" width="126.6" height="301.16" transform="translate(210.94 339.87) rotate(-90.36)"/><path class="cls-1" d="M124.17,129.36a63.3,63.3,0,1,1-.8-126.59"/><polyline class="cls-1" points="32.44 46.33 90.93 11.99 91.5 119.98 31.22 85.68"/><rect class="cls-2" x="6.76" y="60.9" width="44.12" height="9.59" rx="1.5" transform="translate(-36.7 94.93) rotate(-90.36)"/><rect class="cls-3" x="-11.47" y="54.29" width="47.95" height="23.02" rx="2.81" transform="translate(-53.21 78.72) rotate(-90.36)"/><line class="cls-4" x1="2.96" y1="71.62" x2="22.14" y2="71.5"/><line class="cls-4" x1="2.92" y1="65.86" x2="22.1" y2="65.74"/><line class="cls-4" x1="2.89" y1="60.11" x2="22.07" y2="59.99"/><line class="cls-4" x1="2.85" y1="54.35" x2="22.03" y2="54.23"/><line class="cls-4" x1="2.81" y1="48.6" x2="21.99" y2="48.48"/><line class="cls-4" x1="3.74" y1="42.84" x2="20.04" y2="42.73"/><rect class="cls-5" x="221.54" y="-78.67" width="101.66" height="289.53" rx="5.4" transform="translate(207.99 338.88) rotate(-90.36)"/><path class="cls-1" d="M421.82.64c11.63-.23,21.6,27.93,22.27,62.88s-8.21,63.47-19.84,63.69"/><ellipse class="cls-5" cx="415.19" cy="64.96" rx="9.82" ry="50.95" transform="translate(-0.4 2.6) rotate(-0.36)"/><path d="M168.56,38.35a2.53,2.53,0,0,1-3.38.19c-.5-.37-1.1-.76-1.79-1.17s-1.44-.8-2.25-1.18a20.51,20.51,0,0,0-2.45-.94,7.93,7.93,0,0,0-2.35-.37,7.74,7.74,0,0,0-3,.65,7.89,7.89,0,0,0-2.68,1.88q-2.16,2.36-1.55,4.56a7.74,7.74,0,0,0,3.25,4.09c1.12.82,2.35,1.65,3.66,2.49L160,51l3.67,2.35,3.05,2a31,31,0,0,1,3.2,2.44,16.07,16.07,0,0,1,2.63,3,14.24,14.24,0,0,1,1.79,3.72,15.42,15.42,0,0,1,.66,4.7,12.76,12.76,0,0,1-4.09,8.22,16.19,16.19,0,0,1-8,3.9,17,17,0,0,1-7.75-.28,13.07,13.07,0,0,1-6.44-4A6.27,6.27,0,0,1,147.6,75a2.22,2.22,0,0,1-.09-1.88,3.08,3.08,0,0,1,2-1.17,2.86,2.86,0,0,1,2.16.14A13.16,13.16,0,0,0,156.72,75a11.58,11.58,0,0,0,6.11.14A7.81,7.81,0,0,0,166.78,73a6.84,6.84,0,0,0,1.88-3.52,6.68,6.68,0,0,0-.52-4.28,10,10,0,0,0-3.52-4,82.11,82.11,0,0,0-8.23-5.46,103.41,103.41,0,0,1-8.88-5.82,11.9,11.9,0,0,1-3.15-4.14,11,11,0,0,1-1-4.42,9.93,9.93,0,0,1,.94-4.27,12.59,12.59,0,0,1,2.63-3.67,14,14,0,0,1,3.95-2.68,14.13,14.13,0,0,1,5-1.22,14.29,14.29,0,0,1,7.24,1.55,17.52,17.52,0,0,1,5.64,4.28,1.91,1.91,0,0,1,.42,1.41A2.84,2.84,0,0,1,168.56,38.35Z"/><path d="M197.42,88.64a3.2,3.2,0,0,1-.94,1.93,2.23,2.23,0,0,1-1.88.8,3.09,3.09,0,0,1-2.44-1.22,3.39,3.39,0,0,1-.85-1.88q0-3.57-.19-7.47t-.47-8a4,4,0,0,1-2.21-.24,2.42,2.42,0,0,1-1.36-1.36,2.79,2.79,0,0,1,.19-2.82A8.68,8.68,0,0,1,190,66q-.47-3.48-.89-6.86t-.89-6.58a2,2,0,0,1,.09-1,5,5,0,0,1,.47-.89,2.62,2.62,0,0,1,1-.8,2.83,2.83,0,0,1,2.77.75,6.08,6.08,0,0,1,2.11,3.11c.19,1.19.4,2.55.62,4.09s.42,3.21.61,5a35.79,35.79,0,0,0,3.71-2.63,19.46,19.46,0,0,0,3-3,12.23,12.23,0,0,0,1.92-3.33,7.06,7.06,0,0,0,.38-3.62,5,5,0,0,0-1.41-2.87A5.43,5.43,0,0,0,199.68,46a19.69,19.69,0,0,0-4.66.37,38.49,38.49,0,0,0-4.51,1.23,36.69,36.69,0,0,0-4.32,1.78c-1.41.69-2.78,1.38-4.09,2.07a4.19,4.19,0,0,1-2.59.61,1.9,1.9,0,0,1-1.64-.89,3.33,3.33,0,0,1,.14-3.39,10.13,10.13,0,0,1,3.05-2.82,44,44,0,0,1,4.28-2.11,43,43,0,0,1,5.27-1.88,34.56,34.56,0,0,1,5.64-1.13,19.69,19.69,0,0,1,5.49.1,12.16,12.16,0,0,1,4.75,1.78,9.85,9.85,0,0,1,3.43,4,14.63,14.63,0,0,1,.9,7.94A16.66,16.66,0,0,1,208,60.21a26.42,26.42,0,0,1-5.17,5.36,61.49,61.49,0,0,1-6.16,4.27q.47,5.09.66,10.06C197.45,83.22,197.48,86.14,197.42,88.64Z"/><path d="M233.14,40.05a1.28,1.28,0,0,1-1.32,1c-.75.06-1.38.09-1.88.09a43.67,43.67,0,0,0-10.05,1.6,3.13,3.13,0,0,1-2.45-.28,3.2,3.2,0,0,1-1.6-2.63,1.5,1.5,0,0,1,.57-1.22,6.29,6.29,0,0,1,1.31-.85,17.11,17.11,0,0,1,2.92-1,26.48,26.48,0,0,1,3.43-.61,25.51,25.51,0,0,1,3.34-.14,11.36,11.36,0,0,1,2.63.33,5.38,5.38,0,0,1,2.39,1.41A2.6,2.6,0,0,1,233.14,40.05ZM231,71.35a8.51,8.51,0,0,1,.7,3.24,2.56,2.56,0,0,1-1,2.4,2.46,2.46,0,0,1-2.82-.1,5.82,5.82,0,0,1-2.26-2.53,18.07,18.07,0,0,1-1.6-4.84c-.37-1.92-.66-3.81-.84-5.69s-.3-3.64-.33-5.27,0-2.85,0-3.66a5.57,5.57,0,0,1,.75-2.45,2.45,2.45,0,0,1,1.69-1.31A3.45,3.45,0,0,1,228,52.69a5.67,5.67,0,0,1,.94,3.62c0,1.13,0,2.38.09,3.76s.19,2.76.38,4.13.41,2.72.66,4A14,14,0,0,0,231,71.35Z"/><path d="M248,34.41q.47,10.25,1.6,21.19T252,76.52q.28,4.14-2.25,4.23a1.87,1.87,0,0,1-1.13-.42,5.17,5.17,0,0,1-1-1.09,13.62,13.62,0,0,1-.89-1.41,4.48,4.48,0,0,1-.52-1.31q-.75-4.8-1.41-10.15c-.43-3.58-.83-7.16-1.17-10.77S243,48.48,242.73,45s-.41-6.61-.47-9.5a18.51,18.51,0,0,1,.65-3.8,1.81,1.81,0,0,1,2-1.46,2.68,2.68,0,0,1,2.3,1.27A6.12,6.12,0,0,1,248,34.41Z"/><path d="M301.85,40.05a1.27,1.27,0,0,1-1.31,1c-.76.06-1.38.09-1.88.09a46,46,0,0,0-4.84.47,46.88,46.88,0,0,0-5.22,1.13,3.14,3.14,0,0,1-2.45-.28,3.2,3.2,0,0,1-1.59-2.63,1.49,1.49,0,0,1,.56-1.22,6.37,6.37,0,0,1,1.32-.85,16.69,16.69,0,0,1,2.91-1,26.48,26.48,0,0,1,3.43-.61,25.51,25.51,0,0,1,3.34-.14,11.36,11.36,0,0,1,2.63.33,5.47,5.47,0,0,1,2.4,1.41A2.59,2.59,0,0,1,301.85,40.05Zm-2.16,31.3a8.71,8.71,0,0,1,.71,3.24,2.54,2.54,0,0,1-1,2.4,2.46,2.46,0,0,1-2.82-.1,5.88,5.88,0,0,1-2.26-2.53,18.07,18.07,0,0,1-1.6-4.84c-.37-1.92-.65-3.81-.84-5.69s-.3-3.64-.33-5.27-.05-2.85-.05-3.66a5.57,5.57,0,0,1,.75-2.45,2.47,2.47,0,0,1,1.7-1.31,3.44,3.44,0,0,1,2.72,1.55,5.67,5.67,0,0,1,.94,3.62c0,1.13,0,2.38.1,3.76s.18,2.76.37,4.13.41,2.72.66,4A14,14,0,0,0,299.69,71.35Z"/><path d="M325.92,52.45A15.23,15.23,0,0,1,327.37,55a16.76,16.76,0,0,1,1.08,3.15q.57,2.54,1.27,5.5t1.41,6.15q.71,3.21,1.32,6.49c.41,2.19.76,4.29,1.08,6.3A18,18,0,0,1,329,97.39a19.91,19.91,0,0,1-6.77,4.79,24.55,24.55,0,0,1-9.12,2,4.35,4.35,0,0,1-2.35-1.08,2.7,2.7,0,0,1-1.22-2,1.64,1.64,0,0,1,1-1.64,6.48,6.48,0,0,1,2.21-.8,22.58,22.58,0,0,0,4.08-.8,17,17,0,0,0,4-1.74,16.61,16.61,0,0,0,3.43-2.73,11.21,11.21,0,0,0,2.4-3.76,11.53,11.53,0,0,0,.66-4.18,38.51,38.51,0,0,0-.33-4.93c-.22-1.63-.51-3.18-.85-4.66s-.64-2.58-.89-3.33a16.07,16.07,0,0,1-1.65,1.41,16.78,16.78,0,0,1-2.21,1.41,11.74,11.74,0,0,1-2.68,1,9.23,9.23,0,0,1-3,.28,5.33,5.33,0,0,1-3-1.13,9.7,9.7,0,0,1-2.39-2.67A14.38,14.38,0,0,1,308.76,69a16.42,16.42,0,0,1-.61-4.51,20,20,0,0,1,2.87-10,17.4,17.4,0,0,1,8.6-6.82c.31-.06.73-.12,1.27-.19a8.93,8.93,0,0,1,1.64,0,9.93,9.93,0,0,1,1.65.23,4.31,4.31,0,0,1,1.36.56,2.53,2.53,0,0,1,1,2.17A2.83,2.83,0,0,1,325.92,52.45ZM314.07,65.33a15.35,15.35,0,0,0,.19,2.31,2.35,2.35,0,0,0,1.22,1.83,3.46,3.46,0,0,0,2.77.19,8.82,8.82,0,0,0,3.06-1.6,5,5,0,0,0,1.74-2.3,6.78,6.78,0,0,0-.05-3.44c-.31-1.44-.66-2.94-1-4.51a30.14,30.14,0,0,1-.75-4.23,13,13,0,0,0-2.4,1.6,11.18,11.18,0,0,0-2.3,2.59,16,16,0,0,0-1.74,3.43A11.66,11.66,0,0,0,314.07,65.33Z"/><path d="M363.42,56.31a33,33,0,0,1-7.9,3.34,34.08,34.08,0,0,1-9.11,1.17A8.37,8.37,0,0,0,348.29,66a6.76,6.76,0,0,0,4.23,2.3,10.1,10.1,0,0,0,3.05-.09,12.34,12.34,0,0,0,2.91-.9A17,17,0,0,0,361,66a17.74,17.74,0,0,0,2-1.5,4.26,4.26,0,0,1,1.79-1,2.45,2.45,0,0,1,1.41,0c.87.32,1.19,1.26.94,2.82a14.48,14.48,0,0,1-4.33,5.13,14,14,0,0,1-6.3,2.67,13.78,13.78,0,0,1-6.2-.28,12.9,12.9,0,0,1-5.73-3.29,14.33,14.33,0,0,1-3.29-5.07,21.63,21.63,0,0,1-1.41-6,14.25,14.25,0,0,1,.51-5.55,13.21,13.21,0,0,1,2.49-4.65,13.65,13.65,0,0,1,4.23-3.34,14.72,14.72,0,0,1,5.93-1.5,13.13,13.13,0,0,1,7.33,1.5,9.89,9.89,0,0,1,4.6,5,5,5,0,0,1,.43,3.1A4.12,4.12,0,0,1,363.42,56.31Zm-10.81-6.39a9.79,9.79,0,0,0-2,.65,9.34,9.34,0,0,0-2,1.18,9.63,9.63,0,0,0-1.59,1.6,3.66,3.66,0,0,0-.8,2,25.63,25.63,0,0,0,3.52-.28c1.29-.19,2.54-.43,3.76-.71a27.85,27.85,0,0,0,3.39-1,13,13,0,0,0,2.58-1.22A3.62,3.62,0,0,0,356.7,50,10.62,10.62,0,0,0,352.61,49.92Z"/><path d="M379.68,47.38c.19.94.39,2,.61,3.15s.46,2.35.71,3.57.47,2.46.66,3.71.34,2.45.47,3.57c.75-1.62,1.56-3.35,2.44-5.17a40.15,40.15,0,0,1,2.87-5,18.76,18.76,0,0,1,3.29-3.81,5.7,5.7,0,0,1,3.8-1.51,6.89,6.89,0,0,1,5.22,2.26,19.45,19.45,0,0,1,3.57,5.59,40.55,40.55,0,0,1,2.31,7q.84,3.66,1.41,6.48c.37,1.69-.38,3-2.26,3.76-.88.44-1.54.5-2,.19a1.71,1.71,0,0,1-.76-.94,32.38,32.38,0,0,1-1.17-4q-.7-2.82-1.6-5.73a30.7,30.7,0,0,0-2-5.08c-.75-1.44-1.6-2.1-2.54-2-1.13.06-2.13.91-3,2.54q-1.12,2-2.3,4.37t-2.3,4.89q-1.12,2.49-2.21,5c-.72,1.66-1.4,3.18-2,4.56a3.5,3.5,0,0,1-3.67.75,3,3,0,0,1-1.5-.94,2,2,0,0,1-.57-1.32C376.58,68.43,376,64,375.4,60s-1.36-8.11-2.3-12.31a5.74,5.74,0,0,1-.23-3.43c.28-.85,1.2-1.18,2.77-1A4.76,4.76,0,0,1,379.68,47.38Z"/></svg>
