<svg id="Layer_1" data-name="Layer 1" xmlns="http://www.w3.org/2000/svg" width="240" height="260" viewBox="0 0 240 260"><defs><style>.cls-1{fill:#df3e00;stroke:#ff651f;stroke-width:7px;}.cls-1,.cls-2,.cls-3{stroke-miterlimit:10;}.cls-2,.cls-3{fill:none;stroke:#fff;stroke-width:11px;}.cls-2{stroke-linecap:round;}.cls-4{fill:#fff;}.cls-5{fill:#8cc63f;}</style></defs><title>prov_igen</title><circle class="cls-1" cx="120.09" cy="167.46" r="89"/><path class="cls-2" d="M70.59,169a49,49,0,0,1,49-49"/><path class="cls-3" d="M119.27,120.28a49,49,0,0,1,49.63,48.36"/><path class="cls-3" d="M168.61,168a49,49,0,0,1-49.05,49"/><path class="cls-4" d="M108.35,231.84,88.89,208.67a4.94,4.94,0,0,1,2.92-8l29.79-5.27a4.94,4.94,0,0,1,5.5,6.55l-10.33,28.44A4.94,4.94,0,0,1,108.35,231.84Z"/><path class="cls-5" d="M42.08,8.22q4.8,2.55,4.8,8.75,0,4.5-3.55,11.4-4,7.69-8,7.7a3,3,0,0,1-1.78-.78l-1.92-1.52v8.5a5.32,5.32,0,0,0,.25,1.5q.35,1.2.45,1.65A3.38,3.38,0,0,1,31.9,47c-.32.78-.77,1.21-1.37,1.28a10.57,10.57,0,0,1-3.9-1.25q-3.15-1.41-3.9-2.5a2.5,2.5,0,0,1,0-2.1,5.73,5.73,0,0,0,.35-1.65V9.92a3.52,3.52,0,0,0-.35-1.1,2.35,2.35,0,0,1-.3-1.15q.3-2.4,1.8-2.4a14.09,14.09,0,0,1,2,.57,11.72,11.72,0,0,0,2.83.63,10.84,10.84,0,0,0,3.82-.8,11.29,11.29,0,0,1,3.38-.85,4.93,4.93,0,0,1,1.2.15,5.75,5.75,0,0,1,2.4,1.5A12,12,0,0,0,42.08,8.22Zm-4.15,3.85a6.8,6.8,0,0,0-3.2,1.25,10.67,10.67,0,0,0-3.15,2.75V28.12q2.7-.86,5.1-6.15a20.48,20.48,0,0,0,2.2-8.15C38.88,12.65,38.56,12.07,37.93,12.07Z"/><path class="cls-5" d="M69,19.92a1.14,1.14,0,0,1-.55,1.3,10.68,10.68,0,0,0-1.15.65q-3.15,4.8-8.55,13c0,5.3,0,8,.05,8.2s.15.59.37,1.27a5.74,5.74,0,0,1,.33,1.63,1.31,1.31,0,0,1-.85,1.3,3.83,3.83,0,0,1-1.5.25,12.35,12.35,0,0,1-4.2-.85C51,46,50,45.1,50,44.07a4.42,4.42,0,0,1,.4-1.45,4.85,4.85,0,0,0,.4-1.65V21.17c-.37-1.87-.55-2.84-.55-2.9a1.8,1.8,0,0,1,1.4-1.95,6,6,0,0,1,1.45-.15,12.93,12.93,0,0,1,3.67.57c1.28.39,2,.79,2.28,1.23a1.2,1.2,0,0,1,.1.5,20.91,20.91,0,0,1-.7,2.4v2.4q1.2-2.16,2.35-4.3c1-1.8,1.8-2.75,2.3-2.85.73-.14,1.85.3,3.35,1.3S68.81,19.25,69,19.92Z"/><path class="cls-5" d="M86.88,17.27q2.75,1.29,4.25,5.25A24.18,24.18,0,0,1,92.48,31a27.59,27.59,0,0,1-2.3,11.7q-2.55,5.3-6.35,4.8c-.94-.24-2.34-.52-4.2-.85a26.54,26.54,0,0,1-3.7-.7q-2.85-.81-4.55-4.9a23.36,23.36,0,0,1-1.55-8.9,26,26,0,0,1,1.6-9.35,12.07,12.07,0,0,1,5-6.45,3.11,3.11,0,0,1,1.5-.3,22.59,22.59,0,0,1,4,.65A29,29,0,0,1,86.88,17.27Zm-3.4,6.4c-.7-1.27-1.47-1.9-2.3-1.9-1.14,0-2.05,1.6-2.75,4.8a23,23,0,0,0-.75,6.3Zm1.2,8.7-5.4,8.55c.43,1,.9,1.5,1.4,1.6q1.39.3,2.6-2.9A25.16,25.16,0,0,0,84.68,32.37Z"/><path class="cls-5" d="M117.48,18.82A126.29,126.29,0,0,0,113,34q-2.25,9.2-2.2,10.45v2.45c0,1.06-.44,1.68-1.2,1.85s-2.58-.19-5.43-.95-4.44-1.39-4.77-1.85a2.06,2.06,0,0,1-.25-1.1,3.14,3.14,0,0,0-.1-1q-2.31-7.3-3.35-11.9a91.73,91.73,0,0,1-1.8-12.6c0-.1,0-.39-.1-.85a5,5,0,0,1-.1-.9,1.42,1.42,0,0,1,1-1.5,14.29,14.29,0,0,1,3.85.67c2.26.55,3.5,1,3.7,1.48a1.54,1.54,0,0,1,.15.7,3.67,3.67,0,0,1-.3,1.27,3.79,3.79,0,0,0-.3,1q.54,3.9,1,6.9,1.2,7.2,1.9,8.55.75-4.35,2.65-11.3c.6-2.24,1.21-4.47,1.85-6.7l.3-1.8a1.79,1.79,0,0,1,1.25-1.25c.4-.14,1.46.16,3.2.9Q116.88,17.77,117.48,18.82Z"/><path class="cls-5" d="M141.43,45.42a1.84,1.84,0,0,1-1.25,2.25,4.12,4.12,0,0,1-.7,0A16.86,16.86,0,0,1,135,47c-1.9-.54-3-1.1-3.35-1.7-.17-.27,0-.79.45-1.55a5.85,5.85,0,0,0,.45-2.75V20a10.87,10.87,0,0,1-.6-2.55c0-.44.61-.65,1.85-.65a14,14,0,0,1,4.17.92,8.15,8.15,0,0,1,3.23,1.63.8.8,0,0,1,.15.5,4.44,4.44,0,0,1-.58,1.5,4.09,4.09,0,0,0-.57,1.65v20.1a2.27,2.27,0,0,0,.57,1.25A3.09,3.09,0,0,1,141.43,45.42Zm.15-34.55a1.09,1.09,0,0,1,0,.4,12,12,0,0,1-.45,2.85c-.34,1.26-.65,2-1,2.1s-1.77-.23-4.3-1.08-3.89-1.46-4.05-1.82a1.5,1.5,0,0,1-.15-.75,6.7,6.7,0,0,1,.7-2.85c.53-1.14,1.13-1.77,1.8-1.9a9.08,9.08,0,0,1,4,.87C140.13,9.41,141.24,10.13,141.58,10.87Z"/><path class="cls-5" d="M166.77,20s-.18.36-.54,1a2.6,2.6,0,0,0-.36,1.1V44q0,8.3-6.14,10.65a14.73,14.73,0,0,1-5.21,1.1,8.46,8.46,0,0,1-5.9-2.3,28.79,28.79,0,0,1-2.39-2.6l-1-1a1.94,1.94,0,0,1-.54-1.15q-.06-.75,1.5-1.2a2.25,2.25,0,0,1,.59-.05,9.52,9.52,0,0,1,2.63.45,5,5,0,0,1,2.17,1.1c.54.66,1.09,1.35,1.65,2a2.88,2.88,0,0,0,2,1.15c1.37.13,2.25-.8,2.65-2.8a29.33,29.33,0,0,0,.31-5.15c-.11.13-.42.56-1,1.3a7,7,0,0,1-1,1.15,1.72,1.72,0,0,1-1.16.5,6.92,6.92,0,0,1-4.45-1.45q-5.34-4.5-5.35-13.25a20.85,20.85,0,0,1,2.35-10q2.46-4.71,6.4-5.9a1.74,1.74,0,0,1,.55-.1,3.09,3.09,0,0,1,1.8.75c.57.43,1.14.88,1.7,1.35q.3-.86.63-1.68a1.29,1.29,0,0,1,1-.92,10.17,10.17,0,0,1,3.72.67c1.78.55,2.79,1,3,1.43A2,2,0,0,1,166.77,20Zm-8.85,12.3a50.31,50.31,0,0,0,.4-5.65c0-2.7-.43-4.22-1.3-4.55-.7-.27-1.54.91-2.54,3.55a20.45,20.45,0,0,0-1.5,7.2,26.35,26.35,0,0,0,1.34,9.35A22.85,22.85,0,0,0,157.92,32.27Z"/><path class="cls-5" d="M190.72,37.67q.45.75-1.95,4.45a16.17,16.17,0,0,1-5.1,5.35,2.09,2.09,0,0,1-.9.15,15.19,15.19,0,0,1-5.1-1.2q-3.34-1.2-4.4-2.6-2.9-3.75-2.9-10.4a23.31,23.31,0,0,1,2.55-11.1q2.76-5.25,7-5.35a9.62,9.62,0,0,1,3.75.8,12.27,12.27,0,0,1,4.45,2.85,6.19,6.19,0,0,1,.85,2.7,22.5,22.5,0,0,1,.5,4.7c0,2.26-.36,3.83-1.1,4.7a39.26,39.26,0,0,1-10.5,1.85,18.11,18.11,0,0,0,.6,5.15c.47,1.8.95,2.71,1.45,2.75q1,0,2.4-1.65a7.36,7.36,0,0,0,1.55-2.45,25.89,25.89,0,0,1,.95-3.1,8.3,8.3,0,0,1,3.15.8C189.54,36.67,190.46,37.2,190.72,37.67Zm-8.9-15.3q-.84-.11-2.37,2.7a14.12,14.12,0,0,0-1.78,5.35,6.49,6.49,0,0,0,3.6-1.1c.54-.4.8-2.07.8-5C182.07,23.08,182,22.43,181.82,22.37Z"/><path class="cls-5" d="M217.17,43.22a4.77,4.77,0,0,1,.4,1.9,2.06,2.06,0,0,1-1.15,2.05,3.55,3.55,0,0,1-1.25.15,19.08,19.08,0,0,1-4-.53,7.23,7.23,0,0,1-2.85-1,1,1,0,0,1-.25-.65,4.16,4.16,0,0,1,.75-1.78,4.14,4.14,0,0,0,.75-1.77q.1-19.71-.3-19.85-.69-.25-3.45,4.5-2.9,5-2.9,7.55v9.35a2.13,2.13,0,0,1,.65,1.6,2.58,2.58,0,0,1-1.7,2.6,1.48,1.48,0,0,1-.6.1,18.4,18.4,0,0,1-3.95-.63,7.74,7.74,0,0,1-2.9-1,1.48,1.48,0,0,1-.3-.9,2,2,0,0,1,.58-1.2,2.43,2.43,0,0,0,.57-.9V19.52a2.13,2.13,0,0,0-.4-1.05,1.36,1.36,0,0,1-.25-1.1A1.92,1.92,0,0,1,196.12,16a10.32,10.32,0,0,1,3.75.55c2.14.53,3.3,1.08,3.5,1.65a2.64,2.64,0,0,1-.15,1.65,14.53,14.53,0,0,0-.55,2,4.29,4.29,0,0,0,.2,1.2,15.62,15.62,0,0,1,2.1-4.45c1.1-1.57,2.2-2.35,3.3-2.35a11.72,11.72,0,0,1,4.4,1.17c1.8.79,2.84,1.49,3.1,2.13Q217.18,22.77,217.17,43.22Z"/></svg>
