<svg id="Layer_1" data-name="Layer 1" xmlns="http://www.w3.org/2000/svg" width="88.45" height="87.45" viewBox="0 0 88.45 87.45"><defs><style>.cls-1{fill:none;stroke-width:18px;}.cls-1,.cls-2{stroke:#b3b3b3;stroke-miterlimit:10;}.cls-2{fill:#b3b3b3;stroke-width:0;}</style></defs><title>setting_ikon</title><circle class="cls-1" cx="43.73" cy="43.72" r="26"/><path class="cls-2" d="M6.84,37.51,2,32.75a2.8,2.8,0,0,1,1.2-4.69l6.56-1.85a2.79,2.79,0,0,1,3.46,3.38L11.5,36.2A2.8,2.8,0,0,1,6.84,37.51Z"/><path class="cls-2" d="M9.31,28.05,5.9,22.15A2.8,2.8,0,0,1,8.32,18h6.82a2.8,2.8,0,0,1,2.42,4.19l-3.41,5.9A2.8,2.8,0,0,1,9.31,28.05Z"/><path class="cls-2" d="M14.77,19l-1.4-6.68A2.79,2.79,0,0,1,17,9.14l6.48,2.12a2.79,2.79,0,0,1,1,4.73l-5.08,4.55A2.8,2.8,0,0,1,14.77,19Z"/><path class="cls-2" d="M24,13.13V6.31a2.8,2.8,0,0,1,4.19-2.42l5.9,3.41a2.8,2.8,0,0,1,0,4.84l-5.9,3.41A2.8,2.8,0,0,1,24,13.13Z"/><path class="cls-2" d="M42.77,11,36,11.91A2.79,2.79,0,0,1,33,8.1l2.55-6.32a2.79,2.79,0,0,1,4.79-.68l4.2,5.37A2.8,2.8,0,0,1,42.77,11Z"/><path class="cls-2" d="M51.85,12.18l-6.61-1.69a2.8,2.8,0,0,1-1.3-4.66L48.71,1a2.79,2.79,0,0,1,4.68,1.2l1.84,6.57A2.79,2.79,0,0,1,51.85,12.18Z"/><path class="cls-2" d="M60.07,15.57,54.3,11.92a2.79,2.79,0,0,1,.2-4.83l6-3.17A2.79,2.79,0,0,1,64.62,6.5l-.27,6.82A2.8,2.8,0,0,1,60.07,15.57Z"/><path class="cls-2" d="M67.42,21.43,62.9,16.32a2.8,2.8,0,0,1,1.54-4.59l6.68-1.35A2.79,2.79,0,0,1,74.33,14l-2.17,6.47A2.8,2.8,0,0,1,67.42,21.43Z"/><path class="cls-2" d="M73.6,29.17l-3.72-5.71a2.79,2.79,0,0,1,2.19-4.31l6.81-.37a2.8,2.8,0,0,1,2.64,4.06l-3.09,6.08A2.79,2.79,0,0,1,73.6,29.17Z"/><path class="cls-2" d="M75.77,38l-1.4-6.68A2.79,2.79,0,0,1,78,28.14l6.48,2.12a2.79,2.79,0,0,1,1,4.73l-5.08,4.55A2.8,2.8,0,0,1,75.77,38Z"/><path class="cls-2" d="M76.71,47.73l.55-6.79a2.79,2.79,0,0,1,4.37-2.07l5.61,3.87a2.79,2.79,0,0,1-.39,4.82l-6.16,2.92A2.79,2.79,0,0,1,76.71,47.73Z"/><path class="cls-2" d="M14.71,75.73l.55-6.79a2.79,2.79,0,0,1,4.37-2.07l5.61,3.87a2.79,2.79,0,0,1-.39,4.82l-6.16,2.92A2.79,2.79,0,0,1,14.71,75.73Z"/><path class="cls-2" d="M25.77,83l-1.4-6.68A2.79,2.79,0,0,1,28,73.14l6.48,2.12a2.79,2.79,0,0,1,1,4.73l-5.08,4.55A2.8,2.8,0,0,1,25.77,83Z"/><path class="cls-2" d="M39.31,86.05l-3.41-5.9A2.8,2.8,0,0,1,38.32,76h6.82a2.8,2.8,0,0,1,2.42,4.19l-3.41,5.9A2.8,2.8,0,0,1,39.31,86.05Z"/><path class="cls-2" d="M52.84,84.51,48,79.75a2.8,2.8,0,0,1,1.2-4.69l6.56-1.85a2.79,2.79,0,0,1,3.46,3.38L57.5,83.2A2.8,2.8,0,0,1,52.84,84.51Z"/><path class="cls-2" d="M66.56,80.52l-6.05-3.15a2.79,2.79,0,0,1-.22-4.83l5.76-3.67a2.8,2.8,0,0,1,4.29,2.23l.29,6.82A2.79,2.79,0,0,1,66.56,80.52Z"/><path class="cls-2" d="M1.4,41.3l5.9-3.41a2.8,2.8,0,0,1,4.19,2.42v6.82A2.8,2.8,0,0,1,7.3,49.55L1.4,46.14A2.79,2.79,0,0,1,1.4,41.3Z"/><path class="cls-2" d="M2.94,53.83,7.71,49a2.79,2.79,0,0,1,4.68,1.2l1.84,6.57a2.79,2.79,0,0,1-3.38,3.46L4.24,58.49A2.8,2.8,0,0,1,2.94,53.83Z"/><path class="cls-2" d="M7,66.1l2.55-6.32a2.79,2.79,0,0,1,4.79-.68l4.2,5.37A2.8,2.8,0,0,1,16.77,69l-6.75,1A2.79,2.79,0,0,1,7,66.1Z"/><path class="cls-2" d="M73.25,57.78,75,51.19a2.79,2.79,0,0,1,4.67-1.25l4.83,4.82a2.8,2.8,0,0,1-1.26,4.68L76.67,61.2A2.79,2.79,0,0,1,73.25,57.78Z"/><path class="cls-2" d="M68.88,66.89l3.8-5.66a2.8,2.8,0,0,1,4.83.34l3,6.12a2.79,2.79,0,0,1-2.7,4L71,71.24A2.8,2.8,0,0,1,68.88,66.89Z"/></svg>
