<svg id="Layer_1" data-name="Layer 1" xmlns="http://www.w3.org/2000/svg" width="1920" height="1080" viewBox="0 0 1920 1080"><defs><style>.cls-1{fill:#b4e0f1;}.cls-2{fill:#fff;}.cls-3{fill:#a67c52;}.cls-4{fill:#009245;}.cls-5{opacity:0.12;}.cls-6{fill:#543813;}.cls-7{fill:#754c24;}.cls-8{opacity:0.16;}.cls-9{fill:#f7931e;}.cls-10,.cls-28{fill:#f15a24;}.cls-11,.cls-13,.cls-16,.cls-22,.cls-23,.cls-24,.cls-26,.cls-30,.cls-33,.cls-34,.cls-35,.cls-36,.cls-38,.cls-40,.cls-48,.cls-49,.cls-50{fill:none;}.cls-11{stroke:#f15a24;}.cls-11,.cls-13,.cls-16,.cls-48,.cls-49,.cls-50,.cls-51{stroke-linecap:round;}.cls-11,.cls-13,.cls-16,.cls-17,.cls-19,.cls-22,.cls-23,.cls-24,.cls-26,.cls-28,.cls-30,.cls-33,.cls-34,.cls-35,.cls-36,.cls-37,.cls-38,.cls-40,.cls-48,.cls-49,.cls-50,.cls-51{stroke-miterlimit:10;}.cls-11,.cls-13,.cls-16,.cls-19,.cls-48{stroke-width:2px;}.cls-12{fill:#ed1c24;}.cls-13{stroke:#ed1c24;}.cls-14{fill:#8cc63f;}.cls-15{fill:#39b54a;}.cls-16{stroke:#39b54a;}.cls-17,.cls-19,.cls-25{fill:#666;}.cls-17,.cls-19,.cls-24{stroke:gray;}.cls-17{stroke-width:0.5px;}.cls-18{fill:#999;}.cls-20{fill:#c1272d;}.cls-21{fill:#e6e6e6;}.cls-22{stroke:#999;}.cls-22,.cls-23,.cls-24,.cls-40{stroke-width:0.75px;}.cls-23{stroke:#9e005d;}.cls-26{stroke:#4d4d4d;stroke-width:5px;}.cls-27{fill:#333;}.cls-28{stroke:#fcee21;stroke-width:4px;}.cls-29{fill:#ccc;}.cls-30{stroke:#ccc;stroke-width:17px;}.cls-31,.cls-32{fill:#00a99d;}.cls-32{opacity:0.9;}.cls-33,.cls-34,.cls-35,.cls-36,.cls-37,.cls-38{stroke:#c7b299;}.cls-33,.cls-50{stroke-width:13px;}.cls-34{stroke-width:11px;}.cls-35,.cls-49{stroke-width:12px;}.cls-36{stroke-width:14px;}.cls-37{fill:#c7b299;}.cls-39{fill:red;}.cls-40{stroke:#c1272d;}.cls-41{fill:#534741;opacity:0.73;}.cls-42{fill:#ce7f1e;}.cls-43{fill:#ffbe28;}.cls-44{fill:#ffa78a;}.cls-45{fill:#d27543;}.cls-46{fill:#c69c6d;}.cls-47{fill:#805f14;}.cls-48{stroke:#8c6239;}.cls-49,.cls-50{stroke:#3fa9f5;}.cls-51{fill:#fbb03b;stroke:#f7931e;stroke-width:3px;}.cls-52{fill:#fcee21;}</style></defs><title>sluskaerm_tabt</title><rect class="cls-1" width="1920" height="1080"/><ellipse class="cls-2" cx="1166.24" cy="111.37" rx="94.24" ry="73.21"/><ellipse class="cls-2" cx="1382.76" cy="176.79" rx="94.24" ry="73.21"/><ellipse class="cls-2" cx="1303.32" cy="80.21" rx="94.24" ry="73.21"/><ellipse class="cls-2" cx="1230.11" cy="176.79" rx="94.24" ry="73.21"/><rect class="cls-3" x="1834.81" y="572.21" width="87.99" height="104.79" rx="9.46"/><polygon class="cls-4" points="2121 615.99 1922.8 615.97 1867.64 615.97 1834.81 615.96 1646.25 615.94 1728.15 474.13 1815.06 323.63 1867.64 232.56 1883.66 204.83 1952.25 323.65 2039.13 474.15 2121 615.99"/><polygon class="cls-4" points="2082.72 474.16 2039.13 474.15 1867.64 474.13 1728.15 474.13 1666.74 474.12 1753.64 323.63 1841.19 172.01 1867.64 126.22 1874.76 113.89 1908.31 172.02 1995.84 323.65 2082.72 474.16"/><polygon class="cls-4" points="2040.78 323.65 1995.84 323.65 1952.25 323.65 1867.64 323.64 1815.06 323.63 1753.64 323.63 1695.89 323.62 1783.44 172 1867.64 26.2 1868.36 24.95 1953.25 172.03 2040.78 323.65"/><polygon class="cls-4" points="1991.01 172.03 1953.25 172.03 1908.31 172.02 1867.64 172.01 1841.19 172.01 1783.44 172 1745 172 1867.64 -40.38 1868.02 -41.04 1991.01 172.03"/><rect class="cls-4" x="1806.06" y="-23.43" width="26" height="196.97" rx="12" transform="translate(281.24 -899.48) rotate(30)"/><path class="cls-5" d="M1867.64-40.38V677h-23.38a9.48,9.48,0,0,1-9.45-9.46V616l-188.56,0,81.9-141.82h-61.41l86.9-150.49h-57.75L1783.44,172H1745Z"/><rect class="cls-3" x="72.55" y="635.34" width="82.84" height="98.66" rx="8.9"/><polygon class="cls-4" points="342 676.56 155.39 676.54 103.46 676.54 72.55 676.53 -104.98 676.51 -27.87 542.99 53.95 401.3 103.46 315.56 118.54 289.45 183.12 401.31 264.92 543.01 342 676.56"/><polygon class="cls-4" points="305.95 543.02 264.92 543.01 103.46 543 -27.87 542.99 -85.69 542.98 -3.88 401.3 78.56 258.55 103.46 215.43 110.16 203.83 141.75 258.56 224.16 401.31 305.95 543.02"/><polygon class="cls-4" points="266.47 401.32 224.16 401.31 183.12 401.31 103.46 401.31 53.95 401.3 -3.88 401.3 -58.24 401.29 24.19 258.54 103.46 121.26 104.14 120.09 184.06 258.56 266.47 401.32"/><polygon class="cls-4" points="219.61 258.56 184.06 258.56 141.75 258.56 103.46 258.55 78.56 258.55 24.19 258.54 -12.01 258.54 103.46 58.58 103.82 57.96 219.61 258.56"/><rect class="cls-4" x="45.48" y="74.54" width="24.48" height="185.45" rx="12" transform="matrix(0.87, 0.5, -0.5, 0.87, 91.37, -6.45)"/><path class="cls-5" d="M103.46,58.58V734h-22a8.93,8.93,0,0,1-8.9-8.9V676.53l-177.53,0L-27.87,543H-85.69L-3.87,401.3H-58.24L24.19,258.54H-12Z"/><rect class="cls-3" x="1451.55" y="643.34" width="82.84" height="98.66" rx="8.9"/><polygon class="cls-4" points="1721 684.56 1534.39 684.54 1482.46 684.54 1451.55 684.53 1274.02 684.51 1351.13 550.99 1432.95 409.3 1482.46 323.56 1497.54 297.45 1562.12 409.31 1643.92 551.01 1721 684.56"/><polygon class="cls-4" points="1684.95 551.02 1643.92 551.01 1482.46 551 1351.13 550.99 1293.31 550.98 1375.13 409.3 1457.56 266.55 1482.46 223.43 1489.16 211.83 1520.75 266.56 1603.16 409.31 1684.95 551.02"/><polygon class="cls-4" points="1645.47 409.32 1603.16 409.31 1562.12 409.31 1482.46 409.31 1432.95 409.3 1375.13 409.3 1320.76 409.29 1403.19 266.54 1482.46 129.26 1483.14 128.09 1563.06 266.56 1645.47 409.32"/><polygon class="cls-4" points="1598.61 266.56 1563.06 266.56 1520.75 266.56 1482.46 266.55 1457.56 266.55 1403.19 266.54 1366.99 266.54 1482.46 66.58 1482.82 65.96 1598.61 266.56"/><rect class="cls-4" x="1424.48" y="82.54" width="24.48" height="185.45" rx="12" transform="translate(280.12 -694.88) rotate(30)"/><path class="cls-5" d="M1482.46,66.58V742h-22a8.93,8.93,0,0,1-8.9-8.9V684.53l-177.53,0L1351.13,551h-57.82l81.82-141.68h-54.37l82.43-142.75H1367Z"/><rect class="cls-6" x="-2" y="732" width="1925" height="348"/><rect class="cls-3" x="381.33" y="757" width="111.67" height="133" rx="12"/><polygon class="cls-4" points="744.55 812.57 493 812.54 423 812.54 381.33 812.53 142.02 812.51 245.96 632.52 356.26 441.52 423 325.94 443.33 290.74 530.38 441.54 640.64 632.55 744.55 812.57"/><polygon class="cls-4" points="695.96 632.56 640.64 632.55 423 632.53 245.96 632.52 168.02 632.51 278.31 441.52 389.43 249.09 423 190.97 432.03 175.33 474.61 249.1 585.7 441.54 695.96 632.56"/><polygon class="cls-4" points="642.74 441.55 585.7 441.54 530.38 441.54 423 441.53 356.26 441.52 278.31 441.52 205.02 441.51 316.14 249.08 423 64.03 423.91 62.45 531.65 249.11 642.74 441.55"/><polygon class="cls-4" points="579.57 249.11 531.65 249.11 474.61 249.1 423 249.09 389.43 249.09 316.14 249.08 267.35 249.08 423 -20.47 423.48 -21.3 579.57 249.11"/><rect class="cls-4" x="344.85" y="1.05" width="33" height="249.98" rx="12" transform="translate(111.43 -163.79) rotate(30)"/><path class="cls-5" d="M423-20.47V890H393.33a12,12,0,0,1-12-12V812.53l-239.31,0L246,632.52H168l110.29-191H205L316.14,249.08H267.35Z"/><rect class="cls-3" x="1663.32" y="848.11" width="131.73" height="156.89" rx="14.16"/><polygon class="cls-4" points="2091.78 913.66 1795.05 913.63 1712.47 913.63 1663.32 913.61 1381.02 913.59 1503.63 701.27 1633.74 475.96 1712.47 339.62 1736.45 298.09 1839.14 475.98 1969.21 701.3 2091.78 913.66"/><polygon class="cls-4" points="2034.47 701.32 1969.21 701.3 1712.47 701.28 1503.63 701.27 1411.69 701.26 1541.79 475.96 1672.87 248.96 1712.47 180.4 1723.13 161.95 1773.35 248.97 1904.4 475.98 2034.47 701.32"/><polygon class="cls-4" points="1971.69 475.99 1904.4 475.98 1839.14 475.98 1712.47 475.97 1633.74 475.96 1541.79 475.96 1455.34 475.95 1586.42 248.95 1712.47 30.66 1713.55 28.79 1840.64 248.99 1971.69 475.99"/><polygon class="cls-4" points="1897.17 248.99 1840.64 248.99 1773.35 248.97 1712.47 248.96 1672.87 248.96 1586.42 248.95 1528.86 248.95 1712.47 -69.02 1713.04 -70 1897.17 248.99"/><rect class="cls-4" x="1620.28" y="-43.64" width="38.93" height="294.89" rx="12" transform="translate(271.59 -805.96) rotate(30)"/><path class="cls-5" d="M1712.47-69V1005h-35a14.2,14.2,0,0,1-14.15-14.16V913.61l-282.3,0,122.61-212.32h-91.94L1541.79,476h-86.45l131.08-227h-57.56Z"/><path class="cls-7" d="M223.94,341.59l-105.41-135a2.44,2.44,0,0,1,1.15-3.82L915.62-63.33a2.44,2.44,0,0,1,2,4.43L227.09,342.19A2.43,2.43,0,0,1,223.94,341.59Z"/><path class="cls-7" d="M277.43,196.48,237,228l-7.48,5.82-17.76,13.84-38.05,29.65-3.72,2.9-35.28,27.49a3.16,3.16,0,0,1-3.34.33L102,293.42-194.66,146.26l-57.12-28.33L-377.19,55.71a3.16,3.16,0,0,1,2.07-5.91l169.2,36.66,39.72,8.61L31.13,137.82l108.2,23.44.65.15,30,6.5,32.77,7.1,26.77,5.8h.05l26.33,5.7,20.24,4.39A3.15,3.15,0,0,1,277.43,196.48Z"/><path class="cls-7" d="M235.87,175.88l-6.28,4.89-.05,0L179,220.19l-3,2.35-6,4.67-22,17.14-11.94,9.3-18,14a2.89,2.89,0,0,1-4.21-.73L102,248.38,31.13,137.82-53.33,6-229.16-268.44a2.89,2.89,0,0,1,4.44-3.65l175,168.41L-15.88-71l2.93,2.81L10-46.1l.58.56,16.63,16L64.16,6,157.3,95.66,170,107.89l10,9.65,50.17,48.3,1,.92,4.93,4.75A2.9,2.9,0,0,1,235.87,175.88Z"/><path class="cls-7" d="M293.38-390.83,244.53,46.88,231.3,165.47l-.14,1.29-1.57,14v0l-4.13,37a1.41,1.41,0,0,1-.88,1.14l-3.19,1.25-31.27,12.26L170,240.34l-19.23,7.55h0l-14.7,5.76L114,262.32a1.39,1.39,0,0,1-1.84-1.66l11.08-40.47,1.55-5.63,4-14.82,2.37-8.66h0L139,162.49l.34-1.23,18-65.6L169,52.81l1-3.55L185.52-7.41,199-56.68l7.89-28.79,2.19-8,.53-2h0l.28-1,6.34-23.14,74.41-271.74A1.39,1.39,0,0,1,293.38-390.83Z"/><path class="cls-7" d="M216.85,251.21,122.22,184.8a2.36,2.36,0,0,1-.39-3.51L460.69-189.9a2.36,2.36,0,0,1,3.8,2.74L220.25,250.43A2.35,2.35,0,0,1,216.85,251.21Z"/><path class="cls-7" d="M214.67,28.35l-40.43,29.4a2,2,0,0,1-2.88-.65L170,54.6l-1-1.79L143.58,6,68.45-132.19a2,2,0,0,1,3.18-2.24l47.29,52.75L143.2-54.61,170-24.72,185.52-7.41,215,25.45A2,2,0,0,1,214.67,28.35Z"/><path class="cls-7" d="M225.4,604.26,217,555.56A2.2,2.2,0,0,1,219,553l212.86-8.75a2.21,2.21,0,0,1,.69,4.34L228.18,606A2.21,2.21,0,0,1,225.4,604.26Z"/><path class="cls-7" d="M237.78,232.19V980a12,12,0,0,1-9.59,11.76h0a12.16,12.16,0,0,1-2.35.23H114a12,12,0,0,1-11.19-7.69,11.71,11.71,0,0,1-.8-3.92c0-.13,0-.26,0-.39V232.19a12,12,0,0,1,12-12H225.78a11.93,11.93,0,0,1,9,4.14,11.94,11.94,0,0,1,3,7.86Z"/><path class="cls-8" d="M170-24.72V992H114a12,12,0,0,1-11.19-7.69,11.71,11.71,0,0,1-.8-3.92c0-.13,0-.26,0-.39V293.42L-194.66,146.26l-198.62,60a2.68,2.68,0,0,1-2.12-4.89l143.62-83.42L-377.19,55.71a3.16,3.16,0,0,1,2.07-5.91l169.2,36.66a2.53,2.53,0,0,1-.86-2.15L-199.17,6l5.68-58.51a2.54,2.54,0,0,1,5-.13L-179.62,6l13.42,89.07L31.13,137.82-53.33,6-229.16-268.44a2.89,2.89,0,0,1,4.44-3.65l175,168.41L49-254.19a2.6,2.6,0,0,1,4.62,2.32L-12.95-68.23,10-46.1l.58.56,16.63,16L64.16,6,157.3,95.66,169,52.81,143.58,6,68.45-132.19a2,2,0,0,1,3.18-2.24l47.29,52.75,17.39-84.07a2.18,2.18,0,0,1,4.31.39L143.2-54.61Z"/><circle class="cls-9" cx="768.12" cy="78.82" r="20.17"/><circle class="cls-9" cx="705.42" cy="59.85" r="20.17"/><circle class="cls-9" cx="721.03" cy="38.07" r="20.17"/><circle class="cls-9" cx="732.4" cy="75.54" r="20.17"/><circle class="cls-9" cx="748.95" cy="52.24" r="20.17"/><path class="cls-10" d="M760.84,75.35c-18.39-17.7-68.75-44.75-60-35.14Z"/><path class="cls-11" d="M686.51,43.36c4.38-5.44,11.4-7.06,15.68-3.62"/><circle class="cls-9" cx="652.82" cy="175.73" r="20.17"/><circle class="cls-9" cx="619.87" cy="119.1" r="20.17"/><circle class="cls-9" cx="646.14" cy="113.8" r="20.17"/><circle class="cls-9" cx="628.92" cy="148.97" r="20.17"/><circle class="cls-9" cx="656.91" cy="143.21" r="20.17"/><path class="cls-10" d="M649.85,168.22c-1.38-25.49-19.79-79.6-20-66.62Z"/><path class="cls-11" d="M617.27,94.15c6.92-1,13.16,2.6,13.94,8"/><polygon class="cls-4" points="114.58 988.49 114.2 988.6 111.28 989.48 107.97 990.48 100.71 992.66 98.08 993.45 97.95 992.76 97.6 990.93 97.03 988 96.96 987.65 96.73 986.44 95.26 978.81 94.54 975.05 90.73 955.33 78.57 892.2 97.55 942.94 107.97 970.81 109.87 975.88 114.4 988 114.58 988.49"/><polygon class="cls-4" points="111.57 992.25 107.98 992.39 100.71 992.66 97.95 992.76 94.68 992.89 94.36 992.9 94.5 990.64 94.67 988 94.86 985.05 95.26 978.81 95.47 975.54 96.24 963.35 97.55 942.94 100.92 890 107.97 957.69 109.87 975.88 110.82 985.06 111.13 988 111.28 989.48 111.57 992.25"/><polygon class="cls-4" points="110.09 983.51 108.58 984.4 107.97 984.77 102.53 988 97.6 990.93 95.28 992.31 94.75 991.16 94.5 990.64 93.28 988 90.35 981.68 84.97 970.09 51.89 898.77 90.73 955.33 96.24 963.35 107.97 980.42 110.09 983.51"/><polygon class="cls-4" points="103.17 979.54 98.77 986.3 98.04 987.42 97.61 987.1 96.73 986.44 94.86 985.05 90.35 981.68 51.54 952.72 84.97 970.09 94.54 975.05 95.47 975.54 103.17 979.54"/><ellipse class="cls-4" cx="104.47" cy="990.93" rx="10" ry="6.5" transform="translate(-221.28 49.26) rotate(-13.06)"/><polygon class="cls-4" points="251.67 982.14 320.32 936.06 245.17 969.95 251.67 982.14"/><polygon class="cls-4" points="254.09 983.95 308.95 922.1 244.74 973.79 254.09 983.95"/><polygon class="cls-4" points="253.9 983.09 331.65 954.96 250.54 969.7 253.9 983.09"/><polygon class="cls-4" points="255.13 978.76 301.14 985.63 256.71 971.39 255.13 978.76"/><polygon class="cls-4" points="234.26 985.62 275.45 874.3 253.45 990.58 234.26 985.62"/><polygon class="cls-4" points="230.92 982.85 298.76 885.46 248.25 992.48 230.92 982.85"/><polygon class="cls-4" points="232.18 982.82 245.26 864.85 252 983 232.18 982.82"/><polygon class="cls-4" points="237.81 979.65 212.73 917.75 247.56 974.96 237.81 979.65"/><polygon class="cls-4" points="1671.43 997.94 1671.05 998.07 1668.17 999.05 1664.9 1000.18 1657.73 1002.63 1655.13 1003.52 1654.97 1002.83 1654.55 1001.02 1653.87 998.11 1653.79 997.76 1653.52 996.56 1651.76 988.99 1650.9 985.26 1646.36 965.7 1631.84 903.07 1652.71 953.06 1664.16 980.52 1666.25 985.52 1671.23 997.46 1671.43 997.94"/><polygon class="cls-4" points="1668.56 1001.81 1664.98 1002.09 1657.73 1002.63 1654.97 1002.83 1651.71 1003.08 1651.39 1003.11 1651.44 1000.84 1651.52 998.2 1651.6 995.24 1651.76 988.99 1651.85 985.72 1652.16 973.51 1652.71 953.06 1654.09 900.03 1663.67 967.41 1666.25 985.52 1667.54 994.65 1667.96 997.58 1668.17 999.05 1668.56 1001.81"/><polygon class="cls-4" points="1666.76 993.13 1665.28 994.08 1664.68 994.47 1659.37 997.9 1654.55 1001.02 1652.29 1002.48 1651.71 1001.35 1651.44 1000.84 1650.13 998.25 1646.96 992.04 1641.15 980.66 1605.42 910.63 1646.36 965.7 1652.16 973.51 1664.52 990.13 1666.76 993.13"/><polygon class="cls-4" points="1659.69 989.42 1655.55 996.35 1654.86 997.49 1654.42 997.19 1653.52 996.56 1651.6 995.24 1646.96 992.04 1607.1 964.56 1641.15 980.66 1650.9 985.26 1651.85 985.72 1659.69 989.42"/><ellipse class="cls-4" cx="1661.42" cy="1000.76" rx="10" ry="6.5" transform="translate(-204.35 470.92) rotate(-15.21)"/><circle class="cls-10" cx="724.87" cy="102.97" r="18.83"/><circle class="cls-10" cx="667.23" cy="82.52" r="18.83"/><circle class="cls-10" cx="682.75" cy="62.89" r="18.83"/><circle class="cls-10" cx="691.7" cy="98.34" r="18.83"/><circle class="cls-10" cx="708.16" cy="77.34" r="18.83"/><path class="cls-12" d="M718.22,99.41C701.86,82.1,656.09,54.66,663.8,64"/><path class="cls-13" d="M650.32,66.31c4.33-4.88,10.94-6.08,14.78-2.68"/><circle class="cls-10" cx="390.87" cy="57.97" r="18.83"/><circle class="cls-10" cx="333.23" cy="37.52" r="18.83"/><circle class="cls-10" cx="348.75" cy="17.89" r="18.83"/><circle class="cls-10" cx="357.7" cy="53.34" r="18.83"/><circle class="cls-10" cx="374.16" cy="32.34" r="18.83"/><path class="cls-12" d="M384.22,54.41C367.86,37.1,322.09,9.66,329.8,19"/><path class="cls-13" d="M316.32,21.31c4.33-4.88,10.94-6.08,14.78-2.68"/><circle class="cls-9" cx="314.51" cy="143.67" r="20.17"/><circle class="cls-9" cx="300.74" cy="79.62" r="20.17"/><circle class="cls-9" cx="327.36" cy="82.73" r="20.17"/><circle class="cls-9" cx="300.08" cy="110.83" r="20.17"/><circle class="cls-9" cx="328.48" cy="114.03" r="20.17"/><path class="cls-10" d="M314,135.62c6.58-24.66,5.86-81.82,1.68-69.53Z"/><path class="cls-11" d="M306,55.1c6.88,1.19,11.7,6.55,10.76,12"/><circle class="cls-14" cx="198.67" cy="44.69" r="17.07"/><circle class="cls-14" cx="253.65" cy="37.49" r="17.07"/><circle class="cls-14" cx="243.61" cy="17.15" r="17.07"/><circle class="cls-14" cx="228.96" cy="46.87" r="17.07"/><circle class="cls-14" cx="218.35" cy="25.14" r="17.07"/><path class="cls-15" d="M205.24,42.79c17.79-12.24,63.56-27.88,55-21.06"/><path class="cls-16" d="M269.79,24.68c-2.05-3.62-6-5.25-8.85-3.64"/><circle class="cls-9" cx="298.09" cy="1032.84" r="20.17"/><circle class="cls-9" cx="234.34" cy="1047.95" r="20.17"/><circle class="cls-9" cx="236.9" cy="1021.27" r="20.17"/><circle class="cls-9" cx="265.55" cy="1047.95" r="20.17"/><circle class="cls-9" cx="268.16" cy="1019.49" r="20.17"/><path class="cls-10" d="M290.05,1033.5c-24.8-6.06-81.92-4.15-69.55-.22Z"/><path class="cls-11" d="M209.71,1043.19c1-6.9,6.31-11.83,11.74-11"/><circle class="cls-9" cx="393.03" cy="977.08" r="20.17"/><circle class="cls-9" cx="360.35" cy="1033.87" r="20.17"/><circle class="cls-9" cx="342.67" cy="1013.73" r="20.17"/><circle class="cls-9" cx="381.74" cy="1011.14" r="20.17"/><circle class="cls-9" cx="362.79" cy="989.74" r="20.17"/><path class="cls-10" d="M388,983.39c-21.41,13.91-59.15,56.84-47.81,50.51Z"/><path class="cls-11" d="M340,1048.55c-4.31-5.49-4.3-12.7,0-16.09"/><circle class="cls-10" cx="466.08" cy="1016.57" r="17.85"/><circle class="cls-10" cx="408.97" cy="1026.59" r="17.85"/><circle class="cls-10" cx="420.38" cy="1047.39" r="17.85"/><circle class="cls-10" cx="434.34" cy="1015.67" r="17.85"/><circle class="cls-10" cx="446.42" cy="1037.89" r="17.85"/><path class="cls-12" d="M459.31,1018.85c-18,13.6-65.14,32-56.46,24.51"/><path class="cls-13" d="M390.61,1039.07c3.27,5.25,9.27,7.42,13.39,4.85"/><line class="cls-17" x1="885.45" y1="405.16" x2="885.45" y2="421.84"/><line class="cls-17" x1="890.46" y1="405.16" x2="890.46" y2="421.84"/><line class="cls-17" x1="880.44" y1="405.99" x2="880.44" y2="420.17"/><polygon class="cls-18" points="909.34 944.36 888.64 963.17 855.64 967 849.13 951.88 810.85 932.02 817.15 902.97 803.91 875.61 817.15 854.05 845.37 846.53 864.18 827.71 895.3 823.89 914.98 844.64 940.09 858.87 933.79 891.68 947.03 915.28 939.44 936.83 909.34 944.36"/><polyline class="cls-19" points="837.84 872.87 862.3 863.46 875.47 865.34"/><polyline class="cls-19" points="828.44 910.49 843.49 914.26 856.66 904.85"/><polyline class="cls-19" points="866.06 934.95 890.52 940.6 899.93 919.9"/><polyline class="cls-19" points="853.55 886.05 877.35 889.8 886.78 905.23"/><polyline class="cls-19" points="897.65 857.42 903.69 878.51 924.78 884.55"/><polyline class="cls-19" points="893.5 841.3 872.27 835.73 856.31 850.78"/><polyline class="cls-19" points="920.48 931.24 925.56 916.58 917.35 902.63"/><polyline class="cls-19" points="821.28 867.61 822.27 880.6 834.27 886.88"/><rect class="cls-20" x="760.39" y="960.58" width="68.74" height="27.29" transform="translate(-348.55 451.16) rotate(-26.21)"/><rect class="cls-20" x="836.97" y="1004.48" width="68.48" height="28.38" transform="translate(-360.32 489.49) rotate(-26.21)"/><polygon class="cls-20" points="908.22 1015.91 846.51 1046.63 769.67 1001.54 831.37 970.81 908.22 1015.91"/><polygon class="cls-21" points="895.33 990.86 833.89 1021.47 757.87 977.57 819.32 946.96 895.33 990.86"/><line class="cls-22" x1="793.25" y1="1015.64" x2="780.17" y2="990.2"/><line class="cls-23" x1="833.87" y1="1021.48" x2="846.75" y2="1046.53"/><polygon class="cls-20" points="884.13 988.67 832.08 1014.6 767.64 977.32 819.69 951.39 884.13 988.67"/><path class="cls-2" d="M770.67,978.46a12,12,0,0,1,1.53-.93,3.18,3.18,0,0,1,2-.45,1.63,1.63,0,0,1,1.17.89,1.76,1.76,0,0,1,.12,1.46,3.26,3.26,0,0,1-1.64,1.62,3.93,3.93,0,0,1-.69.29l1.16,2.25-.82.43Zm2.22,2.29a3,3,0,0,0,.71-.3c1-.51,1.39-1.25,1-2s-1.17-.8-2.08-.33a4.13,4.13,0,0,0-.74.46Z"/><path class="cls-2" d="M775.72,975.87a10.8,10.8,0,0,1,1.53-.93,3.12,3.12,0,0,1,2.08-.49,1.46,1.46,0,0,1,1,.81,1.69,1.69,0,0,1-.46,2v0a1.59,1.59,0,0,1,1.52.65,9.75,9.75,0,0,0,1.29,1.29l-.85.44a7.53,7.53,0,0,1-1.12-1.13,1.34,1.34,0,0,0-1.84-.43l-.78.4L779.4,981l-.82.42Zm2.15,2.14.84-.44c.88-.45,1.22-1.16.89-1.81s-1.13-.73-2-.29a4.3,4.3,0,0,0-.78.48Z"/><path class="cls-2" d="M781.61,972.74l2.9,5.63-.83.43-2.89-5.63Z"/><path class="cls-2" d="M786,977.63,783.06,972l.9-.46,3.51,1.79a17.5,17.5,0,0,1,2.09,1.24v0a24.29,24.29,0,0,1-1.28-2.26l-1.21-2.36.78-.4,2.89,5.63-.83.43-3.5-1.81a19.84,19.84,0,0,1-2.16-1.26l0,0c.42.68.78,1.35,1.26,2.29l1.24,2.4Z"/><path class="cls-2" d="M796.57,971.94a5.19,5.19,0,0,1-1.55,1.13c-1.8.93-3.68.63-4.62-1.22s-.17-3.65,1.81-4.67a4.29,4.29,0,0,1,1.65-.53l.11.69a3.83,3.83,0,0,0-1.41.43,2.52,2.52,0,0,0-1.31,3.61,2.47,2.47,0,0,0,3.63,1,4.24,4.24,0,0,0,1.22-.93Z"/><path class="cls-2" d="M799.65,967.25l-2.48,1.28,1,2,2.77-1.42.31.61-3.59,1.85L794.81,966l3.45-1.78.31.61-2.63,1.36.92,1.77,2.48-1.27Z"/><path class="cls-2" d="M801.49,962.52l.82-.42,2.58,5,2.73-1.41.32.61-3.56,1.83Z"/><path class="cls-2" d="M806.79,959.8l2.9,5.62-.83.43L806,960.22Z"/><path class="cls-2" d="M815.87,961.93a7.72,7.72,0,0,1-1.81,1.32,4,4,0,0,1-2.77.48,3,3,0,0,1-2-1.63c-.85-1.69-.18-3.59,2-4.69a5.11,5.11,0,0,1,1.72-.56l.11.7a4.17,4.17,0,0,0-1.54.48c-1.55.8-2.13,2.17-1.41,3.59a2.49,2.49,0,0,0,3.64,1,3.47,3.47,0,0,0,1-.72l-.86-1.68-1.3.67-.3-.58,2.1-1.09Z"/><path class="cls-2" d="M815.19,955.48l1.21,2.35,3.09-1.59-1.21-2.35.84-.43,2.89,5.63-.83.43-1.36-2.64-3.09,1.59,1.35,2.64-.82.42-2.9-5.63Z"/><path class="cls-2" d="M822.08,952.71l-1.94,1-.32-.61,4.74-2.44.31.62-2,1,2.58,5-.84.43Z"/><line class="cls-24" x1="779.74" y1="990.39" x2="840.01" y2="959.39"/><path class="cls-18" d="M1455,955.68c15.91,2.29,24.64,33.12,19.5,68.87s-22.2,62.88-38.11,60.59"/><ellipse class="cls-25" cx="1328.7" cy="1012.58" rx="68.28" ry="40.4" transform="translate(137.33 2183.65) rotate(-81.82)"/><ellipse class="cls-25" cx="1372.99" cy="1009.91" rx="77.04" ry="39.86" transform="translate(177.95 2225.2) rotate(-81.82)"/><ellipse class="cls-25" cx="1431.26" cy="1018.25" rx="71.22" ry="31.65" transform="matrix(0.14, -0.99, 0.99, 0.14, 219.68, 2290.03)"/><ellipse class="cls-25" cx="1396.82" cy="1013.32" rx="53.81" ry="38.43" transform="translate(195.02 2251.71) rotate(-81.82)"/><rect class="cls-25" x="1250.87" y="1002.28" width="123.66" height="17.51" transform="translate(125.13 2166.48) rotate(-81.82)"/><ellipse class="cls-18" cx="1299.72" cy="1008.28" rx="63.58" ry="17.87" transform="translate(116.73 2151.27) rotate(-81.82)"/><ellipse class="cls-25" cx="1300.14" cy="1008.98" rx="53.11" ry="14.92" transform="translate(116.4 2152.28) rotate(-81.82)"/><path class="cls-26" d="M1292.3,1007.31c-6.06-14.35-6.91-27.7-1.88-29.83s10.76,7.13,16.82,21.47"/><path class="cls-27" d="M1310.63,996.75c-1.73,15.48-5.91,41.84-12.19,41.13s-10-13.82-8.25-29.3"/><polygon class="cls-28" points="1428.45 990.19 1406.35 1016.73 1415.67 1049.98 1383.61 1037.16 1354.86 1056.31 1357.15 1021.85 1330.05 1000.43 1363.54 991.95 1375.53 959.57 1393.94 988.79 1428.45 990.19"/><path class="cls-29" d="M650.46,1059.87a48,48,0,0,1-67-10.59l-61.08-84-14.81-20.37h0a27,27,0,0,1,5.95-37.67l.66-.48,25.71-18.69,101.67-73.91a29.17,29.17,0,0,1,40.75,6.44L785.1,962Z"/><path class="cls-30" d="M700.1,846c8.94-6.5,30.78-.58,38.48,18.89,8.2,20.75,13,37.85,6.1,42.42"/><circle class="cls-29" cx="562.55" cy="938.01" r="63.13"/><circle class="cls-29" cx="618.73" cy="984.24" r="92.87"/><rect class="cls-31" x="1085.88" y="829.9" width="100.36" height="238.73" transform="translate(-338.64 1079.61) rotate(-44.93)"/><path class="cls-31" d="M1016.23,900.2a50.18,50.18,0,0,1,71-70.88"/><polyline class="cls-31" points="1012.09 802.21 1064.02 816.13 1003.36 876.53 989.19 823.41"/><rect class="cls-32" x="981.65" y="807.14" width="34.97" height="7.6" rx="1.5" transform="translate(-280.94 942.51) rotate(-44.93)"/><rect class="cls-18" x="971" y="792.67" width="38.01" height="18.25" rx="2.81" transform="translate(-277.14 933.39) rotate(-44.93)"/><line class="cls-17" x1="981.41" y1="799.63" x2="992.15" y2="810.39"/><line class="cls-17" x1="984.64" y1="796.41" x2="995.38" y2="807.17"/><line class="cls-17" x1="987.87" y1="793.18" x2="998.61" y2="803.95"/><line class="cls-17" x1="991.1" y1="789.96" x2="1001.84" y2="800.73"/><line class="cls-17" x1="994.33" y1="786.74" x2="1005.07" y2="797.51"/><line class="cls-17" x1="998.09" y1="784.06" x2="1007.22" y2="793.21"/><rect class="cls-21" x="1068.38" y="844.58" width="80.59" height="156.62" rx="5.4" transform="translate(-328.01 1052.57) rotate(-44.93)"/><path class="cls-31" d="M1254.53,996.66c6.59,6.45-3.76,27.75-23.12,47.57s-40.41,30.68-47,24.23"/><ellipse class="cls-21" cx="1161.65" cy="976.19" rx="40.39" ry="7.78" transform="translate(-350.18 1105.55) rotate(-44.93)"/><path class="cls-18" d="M741.5,1044.84c-4.77,15.35-36.6,19.1-71.09,8.38s-58.58-31.85-53.81-47.2"/><ellipse class="cls-9" cx="705.25" cy="911.12" rx="40.4" ry="68.28" transform="translate(-374.12 1314.2) rotate(-72.74)"/><ellipse class="cls-9" cx="700.89" cy="955.27" rx="39.86" ry="77.04" transform="translate(-419.35 1341.08) rotate(-72.74)"/><ellipse class="cls-9" cx="683.46" cy="1011.5" rx="31.65" ry="71.22" transform="translate(-485.3 1363.97) rotate(-72.74)"/><ellipse class="cls-9" cx="693.77" cy="978.27" rx="38.43" ry="53.81" transform="translate(-446.32 1350.44) rotate(-72.74)"/><rect class="cls-9" x="647.47" y="886.81" width="123.66" height="17.51" transform="translate(297.74 -170.16) rotate(17.26)"/><ellipse class="cls-18" cx="714.07" cy="883.18" rx="17.87" ry="63.58" transform="translate(-341.24 1302.97) rotate(-72.74)"/><ellipse class="cls-25" cx="713.32" cy="883.48" rx="14.92" ry="53.11" transform="translate(-342.06 1302.46) rotate(-72.74)"/><path class="cls-26" d="M716.21,876c15.12-3.73,28.44-2.45,29.74,2.84s-8.73,9.51-23.86,13.23"/><path class="cls-27" d="M723.73,895.77c-15-4.15-40.37-12.43-38.69-18.53s15.23-7.67,30.24-3.52"/><polygon class="cls-28" points="711.61 1013.15 688.9 987.13 654.59 991.1 672.31 961.45 657.94 930.05 691.61 937.74 717.04 914.37 720.12 948.77 750.21 965.73 718.45 979.3 711.61 1013.15"/><path class="cls-33" d="M963.6,992.14c5.63,5.66,8.18,17.76,7.75,24.74-.44,7.87-3.85,10.62-10.14,18.45-12.59,16.09-31.92,12.61-43.19,4.68-5.63-5.66-8.18-17.76-7.74-24.74.43-7.87,3.84-10.62,10.14-18.45C933,980.73,952.34,984.21,963.6,992.14Z"/><path class="cls-34" d="M957.33,937.52c5.11,6.15,7.47,8.89,7.16,16.64-.3,6.84-3.28,18.69-8.86,21.78-11.16,5.73-28.48,7.84-38.7-7.89-5.1-6.14-7.47-8.88-7.16-16.64.31-6.83,3.29-18.69,8.87-21.78C929.79,923.9,947.12,921.8,957.33,937.52Z"/><path class="cls-35" d="M1077.52,940c5.37,6.46,7.85,9.34,7.53,17.49-.33,7.19-3.46,19.65-9.32,22.9-11.73,6-29.94,8.24-40.68-8.29-5.37-6.47-7.86-9.34-7.53-17.5.32-7.18,3.45-19.65,9.32-22.9C1048.56,925.67,1066.78,923.46,1077.52,940Z"/><path class="cls-36" d="M1078,1001.32c5.08,6.56,7.41,5.58,7.09,14-.33,6.71-3.32,22.83-8.9,24.16-11.16,1.83-28.43,6.45-38.59-13-5.07-6.56-7.41-5.58-7.08-14,.33-6.71,3.32-22.83,8.9-24.16C1050.6,986.44,1067.88,981.83,1078,1001.32Z"/><path class="cls-35" d="M1016.21,943.51c5,6,7.28,8.65,7,16.21-.3,6.66-3.2,18.21-8.63,21.23-10.87,5.58-27.75,7.63-37.71-7.7-5-6-7.28-8.65-7-16.21.3-6.66,3.21-18.21,8.64-21.22C989.38,930.23,1006.26,928.19,1016.21,943.51Z"/><path class="cls-33" d="M1019.16,993.46c5.37,5.13,7.86,18.29,7.53,24.68-.32,7.58-3.45,8.38-9.32,16.35-11.72,16.56-29.94,12-40.68,6.24-5.37-5.13-7.85-18.29-7.53-24.68.33-7.57,3.46-8.38,9.32-16.35C990.21,983.14,1008.42,987.65,1019.16,993.46Z"/><rect class="cls-37" x="955.64" y="966.39" width="23.88" height="35.11" transform="translate(-410.52 911.76) rotate(-42.48)"/><rect class="cls-37" x="1013.68" y="972.32" width="26.94" height="26.51" transform="translate(973.97 -436.95) rotate(44.04)"/><polygon class="cls-37" points="936.01 984.02 916.72 994.03 917.14 973.24 936.01 984.02"/><path class="cls-37" d="M917,987.61a2.81,2.81,0,0,1-1.5,5.42"/><path class="cls-38" d="M915.39,974.71a2.81,2.81,0,1,1,1.71,5.35"/><path class="cls-38" d="M1069.26,983.38a2.81,2.81,0,0,1-1.51,5.41"/><polygon class="cls-37" points="1061.92 985.4 1080.06 975.79 1080.13 994.88 1061.92 985.4"/><path class="cls-38" d="M1079.8,983a2.81,2.81,0,0,1,1.31-5.46"/><path class="cls-38" d="M1082.07,994.68a2.81,2.81,0,1,1-2.62-5"/><path class="cls-39" d="M1126.68,1056l-6.84,14.61a1.6,1.6,0,0,1-2.13.77L955.56,995.48a1.22,1.22,0,0,1-.59-1.63L960.4,977c-2.12-9,2.91.41,3.59.73l161.78,75.71A1.89,1.89,0,0,1,1126.68,1056Z"/><ellipse class="cls-20" cx="1122.07" cy="1062.71" rx="9.81" ry="3.3" transform="translate(-316.05 1628.57) rotate(-64.92)"/><path class="cls-39" d="M964.21,977.9l-9,17.46-4.88-4.56L943.5,982l-1.27-5.4-.13-3.86a.63.63,0,0,1,.8-.63Z"/><path class="cls-39" d="M920.4,926.38h76.23a2.86,2.86,0,0,1,2.86,2.86V942.5a3.86,3.86,0,0,1-3.86,3.86H919.25a0,0,0,0,1,0,0V927.53a1.15,1.15,0,0,1,1.15-1.15Z" transform="matrix(0.19, -0.98, 0.98, 0.19, -144.25, 1697.42)"/><ellipse class="cls-20" cx="967.74" cy="899.41" rx="3.3" ry="9.81" transform="translate(-119.3 1650.29) rotate(-77.54)"/><line class="cls-40" x1="953.88" y1="993.77" x2="963.1" y2="976.39"/><line class="cls-40" x1="950.03" y1="990.57" x2="961.99" y2="975.7"/><line class="cls-40" x1="946.36" y1="986.03" x2="960.88" y2="975.02"/><line class="cls-40" x1="942.44" y1="977.45" x2="961.57" y2="973.9"/><rect class="cls-41" x="417.5" y="176.5" width="1154" height="664" rx="12"/><ellipse class="cls-42" cx="1565.4" cy="499.48" rx="287.5" ry="119" transform="translate(756.68 1929.84) rotate(-78.21)"/><path class="cls-42" d="M1769.62,298.42c31.27,71.92,36.05,199.85-25.26,190.58-70.38-10.64-144.31-31.34-175.58-103.26s-19.9-162.16,43.8-173.89C1672.06,200.91,1738.35,226.5,1769.62,298.42Z"/><path class="cls-43" d="M1334.32,388.4c-27.29,56.34-14.42,87.34,14,103,28.36,16.19,72.24,17,106.17,25.42a16.64,16.64,0,0,0,4.17.35c38.45-3.08,85.14,1.08,116.67-11.2,31.58-11.93,48-40.3,26.94-100.2a14.86,14.86,0,0,1-.79-3.27c-10.31-87.15-42.24-131.37-122.59-133.61-80.43-5.52-123.92,43.72-143.55,117A14,14,0,0,1,1334.32,388.4Z"/><path class="cls-43" d="M1303,599.92c-4.28,56.77,7.87,108.18,31.88,140.52,24,33.19,59.83,47.31,102.08,49,42.22.45,82.21-9.63,112.27-37.09,30.14-27,50.34-71.32,54.73-128.44,4.28-56.77-7.86-108.18-31.88-140.52-24-33.19-59.83-47.31-102.08-49-42.22-.44-82.21,9.64-112.27,37.09C1327.59,498.45,1307.39,542.79,1303,599.92Z"/><path class="cls-44" d="M1458,456.34l-13.06-.88a6,6,0,0,0-5.8,8.65l5.76,11.75a6,6,0,0,0,10.4.7l7.29-10.86A6,6,0,0,0,1458,456.34Z"/><path class="cls-43" d="M1300.27,299.85l12.23,33.44a26.9,26.9,0,0,0,45.9,8L1381.26,314a26.91,26.91,0,0,0-16-43.77l-35.08-6.13A26.91,26.91,0,0,0,1300.27,299.85Z"/><path class="cls-45" d="M1316.12,300l10.62,24a11.07,11.07,0,0,0,19.06,2.06l15.5-21.21a11.07,11.07,0,0,0-7.75-17.54l-26.11-2.82A11.07,11.07,0,0,0,1316.12,300Z"/><ellipse class="cls-9" cx="1479.21" cy="747.56" rx="50.45" ry="36.19" transform="translate(178.1 1774.2) rotate(-65.09)"/><ellipse class="cls-9" cx="1359.6" cy="737.99" rx="36.19" ry="50.45" transform="translate(-159.03 443.17) rotate(-17.51)"/><path class="cls-43" d="M1598,272.21l-27,2.61a29.35,29.35,0,0,0-21.06,46.27l15.78,22.09a29.35,29.35,0,0,0,50.6-4.89l11.24-24.71A29.35,29.35,0,0,0,1598,272.21Z"/><path class="cls-45" d="M1600.34,293.91l-22.59,2.18a11.08,11.08,0,0,0-8,17.46L1583,332a11.07,11.07,0,0,0,19.09-1.85l9.4-20.66A11.07,11.07,0,0,0,1600.34,293.91Z"/><path class="cls-43" d="M1609.77,282.25l12.65,14.17a2.52,2.52,0,0,0,3.87-.14L1655,259.2a2.52,2.52,0,0,0-3.22-3.75l-41.32,22.92A2.52,2.52,0,0,0,1609.77,282.25Z"/><path class="cls-43" d="M1304.75,286.52l11.8-14.74a2.56,2.56,0,0,0-.79-3.87l-41.07-22a2.57,2.57,0,0,0-3.22,3.87l29.27,36.71A2.57,2.57,0,0,0,1304.75,286.52Z"/><ellipse class="cls-2" cx="1518.78" cy="423.29" rx="47.5" ry="44" transform="translate(779.07 1815.66) rotate(-77.59)"/><circle cx="1517.39" cy="429.64" r="34"/><circle class="cls-2" cx="1530.05" cy="417" r="7.66"/><circle class="cls-2" cx="1540.17" cy="424.95" r="3.46"/><ellipse class="cls-2" cx="1394.25" cy="412.17" rx="44" ry="47.34" transform="translate(-30.28 121.42) rotate(-4.93)"/><circle cx="1394.82" cy="418.81" r="34"/><path class="cls-46" d="M1324.43,609.71c4.08,37,40,69.22,71.7,80.46,27.71-15.82,56.53-57.18,52.45-94.14s-35.16-63.86-69.45-60.08S1320.36,572.75,1324.43,609.71Z"/><path class="cls-3" d="M1445.77,579.41c1-26.31-28.2-60.22-67.07-43.83-43.52-8-59,29.43-55.92,57.39"/><path class="cls-47" d="M1379.13,535.62l9.6-27.13c.1-.28-.11-.55-.49-.64l-8.44-2c-.55-.13-1.18.15-1.25.55l-2.75,15.21c-.18.81.48,7.9.75,10.75a9.93,9.93,0,0,0,.46,2.15l.39,1.17C1377.6,536.33,1378.91,536.24,1379.13,535.62Z"/><path class="cls-3" d="M1321.47,594.27c.41,4.69,27.8,4.26,62.16,1.3s61.7-9.75,61.29-14.45-28.73-8.83-63.08-5.86S1321.07,589.57,1321.47,594.27Z"/><path class="cls-48" d="M1445.11,579.41c-.5,6.2-16.75,8.7-32,11.49-22.79,4.17-53.71,6.74-91.74,5.71"/><ellipse class="cls-9" cx="1337.12" cy="618.94" rx="26.5" ry="39" transform="translate(-131.22 496.63) rotate(-20.08)"/><ellipse class="cls-9" cx="1441.78" cy="627.3" rx="39" ry="26.5" transform="translate(-82.02 1014.93) rotate(-37.79)"/><circle class="cls-2" cx="1406.44" cy="407.12" r="7.66"/><circle class="cls-2" cx="1416.69" cy="414.04" r="3.5"/><path class="cls-49" d="M1367.59,444.81c16.82,15.39,30.94,14.51,47.84,3.82"/><path class="cls-50" d="M1493.56,456.38c17.91,14.48,31,14.51,50.06,1.11"/><path class="cls-51" d="M1567.59,397.94c-20.72-3.54-35.72-11.22-45.78-29.39"/><path class="cls-51" d="M1401.28,355.8c-13.84,15.82-28.22,24.61-49,23.7"/><path class="cls-52" d="M616.94,262.73q-2.24,1.71-6.68,7.79a58.73,58.73,0,0,1,3.51,20.81q0,13.69-4.79,23.54-5.15,10.71-14,11.73a10.89,10.89,0,0,1-4-.47c-1.49-.43-2.94-.87-4.37-1.33-1.66-.4-4.19-1.17-7.62-2.31a9.16,9.16,0,0,1-1,3.51,2.64,2.64,0,0,1-2.82,1.71c-1-.11-2.66-1.07-5-2.86s-3.76-3.23-4.07-4.29a3.39,3.39,0,0,1,0-2.44c.34-.68,1.4-2.51,3.16-5.47q-4-8.31-4-21a86.09,86.09,0,0,1,3.08-21q4.2-16.1,10.88-16.09a6.78,6.78,0,0,1,1.67.3,12,12,0,0,0,1.67.38c4.22-1.2,6.93-1.79,8.13-1.79a17.61,17.61,0,0,1,12.41,5.3q.69-.93,1.2-1.71c.91-2.51,2.23-3.77,3.94-3.77a6.06,6.06,0,0,1,1,.09q.93.25,4.41,4.07t3.46,5A.36.36,0,0,1,616.94,262.73Zm-20.29,5.4c-.86-2.52-1.92-3.94-3.17-4.28s-2.5,1.34-3.73,5-2.46,5.56-3.72,5.56a2.84,2.84,0,0,1-1.24-.47,4.48,4.48,0,0,0-1.33-.56q-3.26,7.11-2.91,20.29Q590.14,278.06,596.65,268.13Zm2,19.86q-7.8,12.24-14.39,24,1.89,3.51,4.45,4,4.29.78,7.11-8.21A80.7,80.7,0,0,0,598.62,288Z"/><path class="cls-52" d="M667.19,259.74q-4.46,11.38-10.1,34.58-5.13,21-5.05,23.8a32,32,0,0,0,.17,3.94,7,7,0,0,1-.6,3.6q-.86,2.05-2.31,2.31-2.49.51-10-1.88t-8.6-4.2a4.94,4.94,0,0,1-.6-2.22,12,12,0,0,0-.26-2.32q-9.75-30.9-11.72-55.39a8.54,8.54,0,0,0-.43-1.8,5.07,5.07,0,0,1-.17-1.79q.42-3,2.48-3.69,1-.33,7.19,1.63c4.34,1.37,6.73,2.54,7.19,3.51a8.84,8.84,0,0,1,0,3.6,5.61,5.61,0,0,1-.6,1.5,3,3,0,0,0-.43,1.66q1.29,9,2.4,15.84,2.75,16.44,4.28,19.52a202.27,202.27,0,0,1,5.14-20.37,196,196,0,0,0,5.14-20.72,23.59,23.59,0,0,1,.77-4.37,4.59,4.59,0,0,1,2.82-2.65c.91-.29,3.05.2,6.42,1.45C664,256.71,666.28,258.19,667.19,259.74Z"/><path class="cls-52" d="M674.81,315.13a6.25,6.25,0,0,1-1,3.25,9.53,9.53,0,0,0-1.37,4.11,10.55,10.55,0,0,1,0,2c-.22,1.65-.68,2.62-1.37,2.91s-2.68-.17-5.65-1.54-4.62-2.43-5-3.17q-.43-.77,1.2-4.79a38.53,38.53,0,0,1,2.39-5.14,2,2,0,0,1,1.89-.86,41.33,41.33,0,0,0,5.13,1C673.33,313.3,674.58,314,674.81,315.13Z"/><path class="cls-52" d="M695.78,315.13c.12.63-.22,1.71-1,3.25a9.39,9.39,0,0,0-1.37,4.11,12.66,12.66,0,0,1,0,2c-.23,1.65-.69,2.62-1.37,2.91s-2.69-.17-5.65-1.54-4.63-2.43-5-3.17q-.42-.77,1.2-4.79a37.12,37.12,0,0,1,2.4-5.14,2,2,0,0,1,1.88-.86,42,42,0,0,0,5.14,1C694.3,313.3,695.56,314,695.78,315.13Z"/><path class="cls-52" d="M716.76,315.13a6.25,6.25,0,0,1-1,3.25,9.53,9.53,0,0,0-1.37,4.11,10.55,10.55,0,0,1,0,2c-.23,1.65-.68,2.62-1.37,2.91s-2.68-.17-5.65-1.54-4.62-2.43-5-3.17q-.43-.77,1.19-4.79a39.64,39.64,0,0,1,2.4-5.14,2,2,0,0,1,1.88-.86,42.73,42.73,0,0,0,5.14,1Q716.41,313.5,716.76,315.13Z"/><path class="cls-52" d="M737.73,315.13c.12.63-.23,1.71-1,3.25a9.39,9.39,0,0,0-1.37,4.11,12.66,12.66,0,0,1,0,2c-.23,1.65-.69,2.62-1.37,2.91s-2.69-.17-5.66-1.54-4.62-2.43-5-3.17q-.44-.77,1.2-4.79a37.12,37.12,0,0,1,2.4-5.14,2,2,0,0,1,1.88-.86,42,42,0,0,0,5.14,1Q737.39,313.5,737.73,315.13Z"/><path class="cls-52" d="M758.71,315.13a6.25,6.25,0,0,1-1,3.25,9.53,9.53,0,0,0-1.37,4.11,10.55,10.55,0,0,1,0,2c-.23,1.65-.69,2.62-1.37,2.91s-2.68-.17-5.65-1.54-4.62-2.43-5-3.17q-.42-.77,1.2-4.79a37.12,37.12,0,0,1,2.4-5.14,2,2,0,0,1,1.88-.86,42,42,0,0,0,5.14,1Q758.36,313.5,758.71,315.13Z"/><path class="cls-52" d="M779.68,315.13a6.25,6.25,0,0,1-1,3.25,9.53,9.53,0,0,0-1.37,4.11,10.55,10.55,0,0,1,0,2c-.23,1.65-.68,2.62-1.37,2.91s-2.68-.17-5.65-1.54-4.62-2.43-5-3.17q-.43-.77,1.2-4.79a38.53,38.53,0,0,1,2.39-5.14,2,2,0,0,1,1.89-.86,41.33,41.33,0,0,0,5.13,1Q779.33,313.5,779.68,315.13Z"/><path class="cls-52" d="M847,282.42q0,9.34-5.05,20.29a82.67,82.67,0,0,1-10.1,16.61q-5.4,6.68-8,7.79a7.68,7.68,0,0,1-2.92.52,19.54,19.54,0,0,1-8.56-2.4A20.24,20.24,0,0,1,806,321V259.31a2.85,2.85,0,0,1,2.57-2.66,34.14,34.14,0,0,1,4.28.6c.52.06,2.21-.54,5.1-1.79a19.11,19.11,0,0,1,7.4-1.89,14.24,14.24,0,0,1,7.19,2,51.18,51.18,0,0,1,5.91,4.62q5.73,5,7.45,10.45Q847,274.28,847,282.42ZM832.76,265.9a2.78,2.78,0,0,0-1.37-.26q-4.54,0-10.87,3.94v38.53q5.82-3.35,9.93-16.35A68.87,68.87,0,0,0,834,271.38C834,268.18,833.56,266.36,832.76,265.9Z"/><path class="cls-52" d="M893.37,275.75a3,3,0,0,1,.6,1.71,3.54,3.54,0,0,1-1,2.05,4.13,4.13,0,0,0-1,1.54v39.81a5.51,5.51,0,0,0,.56,1.8,5.58,5.58,0,0,1,.56,1.89c0,1-.89,1.76-2.66,2.22q-1.37.35-6.42-.94c-3.65-.91-5.65-1.83-6-2.74a4.35,4.35,0,0,1,.26-3,10.49,10.49,0,0,0,.85-3.08,11.81,11.81,0,0,0-.26-2.22,26.77,26.77,0,0,1-3.59,7.62c-1.88,2.62-3.77,3.93-5.65,3.93a20.32,20.32,0,0,1-7.54-2q-4.62-2-5.3-3.59-2.4-5.47-2.4-40.5a8.26,8.26,0,0,1-.69-3.25,3.61,3.61,0,0,1,2-3.6,6.2,6.2,0,0,1,2.14-.25,32.58,32.58,0,0,1,6.94.9q4,.9,4.88,1.84a1.72,1.72,0,0,1,.43,1.11,7.09,7.09,0,0,1-1.29,3,7.17,7.17,0,0,0-1.28,3q-.18,33.74.51,34,1.2.42,6-7.92c3.22-5.57,4.83-9.8,4.83-12.72v-16a3.72,3.72,0,0,1-1.11-2.74,4.48,4.48,0,0,1,2.91-4.53,2.31,2.31,0,0,1,1-.17,31.23,31.23,0,0,1,6.76,1.07Q892.95,275.15,893.37,275.75Z"/><path class="cls-52" d="M957.58,322.75c-.28,1.65-.91,2.71-1.88,3.17a6.16,6.16,0,0,1-2.14.25,32.58,32.58,0,0,1-6.94-.9c-2.68-.6-4.31-1.18-4.87-1.75a1.6,1.6,0,0,1-.35-1,8.72,8.72,0,0,1,.77-2.57c.35-.45.72-.95,1.12-1.5a3.43,3.43,0,0,0,.6-2.09q.17-33.74-.52-34-1.27-.43-5.91,6.25-5,7.11-5,11.38v19a3.77,3.77,0,0,1,.94,3.6,4.57,4.57,0,0,1-2.74,3.59,2.31,2.31,0,0,1-1,.17,31.23,31.23,0,0,1-6.76-1.07q-4.45-1.06-4.88-1.58a3.12,3.12,0,0,1-.17-3.17,3.26,3.26,0,0,1,.81-.9,1.74,1.74,0,0,0,.73-1.24V257.85a3.79,3.79,0,0,0-.69-1.8,2.29,2.29,0,0,1-.42-1.88,3.27,3.27,0,0,1,2.65-2.31q1.37-.35,6.42.94c3.65.91,5.65,1.86,6,2.83a4.63,4.63,0,0,1-.25,2.82,15.42,15.42,0,0,0-.6,4.62v16q4.79-6.07,9.25-6.07a20,20,0,0,1,7.53,2q4.62,2,5.31,3.64,2.38,5.47,2.39,40.49A6.66,6.66,0,0,1,957.58,322.75Z"/><path class="cls-52" d="M1004.76,322.75a3,3,0,0,1-1,2.05,2.54,2.54,0,0,1-2.14.69q-10.62-1.46-11.82-4a1.52,1.52,0,0,1-.17-.68,1.59,1.59,0,0,1,.39-.94,2.79,2.79,0,0,0,.47-.9,1.94,1.94,0,0,1,.34-.73,13.82,13.82,0,0,0,.09-3,17.31,17.31,0,0,0-3.09,4.11,21.84,21.84,0,0,1-3.76,5.14,8.9,8.9,0,0,1-6.25,2.57,6.29,6.29,0,0,1-4-1.63,43.53,43.53,0,0,1-3.33-3.34q-4.11-4.62-4.46-5.05a7.67,7.67,0,0,1-1.79-4.54,5.41,5.41,0,0,1,.17-1.37q1.62-7.53,10.1-14.29,6.16-4.89,17.46-10.36c0-1.83-.45-3-1.37-3.51-.57-.35-2.56.3-6,1.92a36.51,36.51,0,0,0-7.19,4.16,27.61,27.61,0,0,1-2.23,1.88,3.34,3.34,0,0,1-2.65.51q-.94-.26-4-3.08t-3.34-3.77a2.87,2.87,0,0,1,1.45-3.59c.06-.06,1.2-.4,3.43-1l6.33-3.42q6.67-3.16,11.3-3.43c1.32,0,2.8.63,4.46,2.06q2.22,2,4.49,3.89t4.67,3.73c1.82,1.59,2.74,3.14,2.74,4.62v32.36A8.35,8.35,0,0,1,1004.76,322.75Zm-13.7-25a18.45,18.45,0,0,0-7.19,5c-1.49,1.83-3,3.63-4.46,5.4a21.17,21.17,0,0,0-3.38,4.66,10.43,10.43,0,0,0-1.58,4.24q0,.69.51.69,1.8,0,8-7.75T991.06,297.75Z"/><path class="cls-52" d="M1044.91,279.26a1.93,1.93,0,0,1-.94,2.22,21.88,21.88,0,0,0-2,1.11q-5.4,8.22-14.64,22.18,0,13.61.08,14c.06.29.27,1,.65,2.18a9.83,9.83,0,0,1,.55,2.78,2.21,2.21,0,0,1-1.45,2.23,6.27,6.27,0,0,1-2.57.43,20.91,20.91,0,0,1-7.19-1.46q-5-1.71-5-4.36a7.78,7.78,0,0,1,.69-2.49,8.09,8.09,0,0,0,.68-2.82V281.4c-.63-3.2-.94-4.85-.94-5a3.12,3.12,0,0,1,2.4-3.34,10.37,10.37,0,0,1,2.48-.26,21.86,21.86,0,0,1,6.29,1q3.3,1,3.9,2.1a2,2,0,0,1,.17.85,31.54,31.54,0,0,1-1.2,4.11V285c1.37-2.45,2.71-4.91,4-7.36,1.77-3.08,3.09-4.71,3.94-4.88q1.89-.35,5.74,2.23C1043.2,276.69,1044.62,278.11,1044.91,279.26Z"/><path class="cls-52" d="M1099.53,282.68a4.76,4.76,0,0,1-1,2.74,2.64,2.64,0,0,1-2,1.2,1.8,1.8,0,0,1-.6-.09,20.73,20.73,0,0,0-5.39-.43v33.82a13.82,13.82,0,0,1,.55,1.37,7.38,7.38,0,0,1,.56,2.57q0,2.49-3.43,2.65c-1.2.06-3.39-.45-6.59-1.54-3.48-1.14-5.34-2.19-5.56-3.16a5,5,0,0,1,.6-2.53,8.85,8.85,0,0,0,.77-2.95V286h-2.91q-1.64,0-4-2.87t-2.4-4.58a3.23,3.23,0,0,1,1-2.31,2.94,2.94,0,0,1,2.18-1h6.17v-7.7a6,6,0,0,1-1.29-3.68,2.06,2.06,0,0,1,1.54-2.23,10.77,10.77,0,0,1,2.14-.17,33.75,33.75,0,0,1,7.41,1c2.82.66,4.67,1.33,5.52,2a1.56,1.56,0,0,1,.6,1.2,5.09,5.09,0,0,1-1.37,2.57,6.39,6.39,0,0,0-1.45,2.4v4.62h2.73q.86,0,3.6,3.08C1098.62,280.37,1099.53,281.82,1099.53,282.68Z"/><path class="cls-52" d="M1145.42,322.75a3,3,0,0,1-1,2.05,2.54,2.54,0,0,1-2.14.69q-10.62-1.46-11.81-4a1.41,1.41,0,0,1-.18-.68,1.59,1.59,0,0,1,.39-.94,2.6,2.6,0,0,0,.47-.9,1.94,1.94,0,0,1,.34-.73,13.82,13.82,0,0,0,.09-3,17.37,17.37,0,0,0-3.08,4.11,22.11,22.11,0,0,1-3.77,5.14,8.9,8.9,0,0,1-6.25,2.57,6.25,6.25,0,0,1-4-1.63,41.28,41.28,0,0,1-3.34-3.34q-4.11-4.62-4.46-5.05a7.73,7.73,0,0,1-1.79-4.54,5.41,5.41,0,0,1,.17-1.37q1.62-7.53,10.1-14.29,6.17-4.89,17.47-10.36c0-1.83-.46-3-1.37-3.51-.58-.35-2.57.3-6,1.92A36.51,36.51,0,0,0,1118,289a28.93,28.93,0,0,1-2.22,1.88,3.37,3.37,0,0,1-2.66.51q-.95-.26-4-3.08t-3.34-3.77a2.87,2.87,0,0,1,1.45-3.59c.06-.06,1.2-.4,3.43-1l6.33-3.42q6.69-3.16,11.3-3.43c1.32,0,2.8.63,4.46,2.06q2.22,2,4.49,3.89t4.67,3.73c1.82,1.59,2.74,3.14,2.74,4.62v32.36A8.35,8.35,0,0,1,1145.42,322.75Zm-13.7-25a18.52,18.52,0,0,0-7.19,5q-2.23,2.75-4.45,5.4a20.87,20.87,0,0,0-3.39,4.66,10.43,10.43,0,0,0-1.58,4.24q0,.69.51.69,1.8,0,8.05-7.75T1131.72,297.75Z"/><path class="cls-52" d="M1190.54,281.4a23.51,23.51,0,0,1,2,10.18,54.28,54.28,0,0,1-3.16,17.38,47.81,47.81,0,0,1-7,13.7c-.29,1-.46,1.57-.52,1.8a3.72,3.72,0,0,1-1,1.54,7,7,0,0,1-4,1,9,9,0,0,1-4.88-1.54l-3.94-3a9.64,9.64,0,0,0,.6,1.88,2.41,2.41,0,0,1,0,1.55,2.71,2.71,0,0,1-2.22,2.05q-2,.16-7.11-1.33t-5.91-2.69c-.34-.52-.08-1.52.77-3a9.06,9.06,0,0,0,.43-3.6V259.82a3.81,3.81,0,0,0-.81-1.58,2.63,2.63,0,0,1-.64-2q.51-2.75,3.51-2.74a23.48,23.48,0,0,1,7.4,1.62c3,1.09,4.84,2.2,5.35,3.34.23.52,0,1.43-.55,2.74a12,12,0,0,0-1.07,3.25v14.05q6.93-6.94,11.13-6.43a13,13,0,0,1,6.25,2.92A16.78,16.78,0,0,1,1190.54,281.4Zm-10,.51a24.38,24.38,0,0,0-7.36,5.22c-2.74,2.63-4.49,4.83-5.23,6.59v23.12a8.56,8.56,0,0,0,2.06,1.54q2.82.51,6.85-12.58,3.93-12.76,3.94-21.07A12.88,12.88,0,0,0,1180.52,281.91Z"/><path class="cls-52" d="M1227.43,282.68a4.75,4.75,0,0,1-1,2.74,2.66,2.66,0,0,1-2.06,1.2,1.8,1.8,0,0,1-.6-.09,20.67,20.67,0,0,0-5.39-.43v33.82c0-.05.18.4.56,1.37a7.35,7.35,0,0,1,.55,2.57q0,2.49-3.42,2.65-1.8.09-6.59-1.54c-3.49-1.14-5.34-2.19-5.57-3.16a5.25,5.25,0,0,1,.6-2.53,8.85,8.85,0,0,0,.77-2.95V286h-2.91q-1.63,0-4-2.87t-2.4-4.58a3.26,3.26,0,0,1,1-2.31,3,3,0,0,1,2.19-1h6.16v-7.7a6,6,0,0,1-1.28-3.68,2,2,0,0,1,1.54-2.23,10.63,10.63,0,0,1,2.14-.17,33.59,33.59,0,0,1,7.4,1q4.25,1,5.52,2a1.56,1.56,0,0,1,.6,1.2,5,5,0,0,1-1.37,2.57,6.53,6.53,0,0,0-1.45,2.4v4.62h2.74q.86,0,3.59,3.08C1226.52,280.37,1227.43,281.82,1227.43,282.68Z"/><path class="cls-52" d="M1248.24,299.38c-.12,2.11-.66,3.28-1.63,3.51a4.91,4.91,0,0,1-.86.08,14.26,14.26,0,0,1-6.25-2,20.9,20.9,0,0,1-6.16-4.71q-1-1.11,0-4.11c.69-2,1-3,1-3.08V256.74c0-1.48.85-2.51,2.57-3.08a4.58,4.58,0,0,1,1.45-.17,17.68,17.68,0,0,1,5.48,1q3.09,1,3.85,2.23a25.33,25.33,0,0,1,.18,4.62v34.93a8.69,8.69,0,0,0,.17,1.5A10.28,10.28,0,0,1,1248.24,299.38Zm0,12.41a15.56,15.56,0,0,1,0,4.19c-.23,3-.34,4.8-.34,5.48a31.09,31.09,0,0,1-.35,5.31,2.52,2.52,0,0,1-2.14,2.23q-1,.25-5.91-1.71-5.13-2.15-6.16-3.69c-.4-.62-.26-1.65.43-3.08a7.79,7.79,0,0,0,.6-3.17,67.75,67.75,0,0,1,0-7.19c.23-2.05,1.08-3.05,2.57-3a23.46,23.46,0,0,1,6.67,1.92Q1247.9,310.85,1248.24,311.79Z"/></svg>
