<svg id="Layer_1" data-name="Layer 1" xmlns="http://www.w3.org/2000/svg" width="1920" height="1080" viewBox="0 0 1920 1080"><defs><style>.cls-1{fill:#b4e0f1;}.cls-2{fill:#fff;}.cls-3{fill:#a67c52;}.cls-4{fill:#009245;}.cls-5{opacity:0.12;}.cls-6{fill:#543813;}.cls-7{fill:#754c24;}.cls-8{opacity:0.16;}.cls-9{fill:#f7931e;}.cls-10{fill:#f15a24;}.cls-11,.cls-13,.cls-16,.cls-26,.cls-28,.cls-36{fill:none;stroke-linecap:round;}.cls-11{stroke:#f15a24;}.cls-11,.cls-13,.cls-16,.cls-17,.cls-26,.cls-28,.cls-36{stroke-miterlimit:10;}.cls-11,.cls-13,.cls-16,.cls-26{stroke-width:2px;}.cls-12{fill:#ed1c24;}.cls-13{stroke:#ed1c24;}.cls-14{fill:#8cc63f;}.cls-15{fill:#39b54a;}.cls-16{stroke:#39b54a;}.cls-17,.cls-34{fill:#666;}.cls-17{stroke:gray;stroke-width:0.5px;}.cls-18{fill:#534741;opacity:0.73;}.cls-19{fill:#fcee21;}.cls-20{fill:#ce7f1e;}.cls-21{fill:#ffbe28;}.cls-22{fill:#ffa78a;}.cls-23{fill:#d27543;}.cls-24{fill:#c69c6d;}.cls-25{fill:#805f14;}.cls-26,.cls-36{stroke:#8c6239;}.cls-27{fill:#736357;}.cls-28{stroke:#fbb03b;stroke-width:13px;}.cls-29{fill:#998675;}.cls-30{fill:#fbb03b;}.cls-31{fill:gray;}.cls-32{fill:#999;}.cls-33{fill:#ff7bac;}.cls-35{fill:#8c6239;}</style></defs><title>slutskaerm_vundet</title><rect class="cls-1" y="1" width="1920" height="1080"/><ellipse class="cls-2" cx="1168.24" cy="112.37" rx="94.24" ry="73.21"/><ellipse class="cls-2" cx="1384.76" cy="177.79" rx="94.24" ry="73.21"/><ellipse class="cls-2" cx="1305.32" cy="81.21" rx="94.24" ry="73.21"/><ellipse class="cls-2" cx="1232.11" cy="177.79" rx="94.24" ry="73.21"/><rect class="cls-3" x="1836.81" y="573.21" width="87.99" height="104.79" rx="9.46"/><polygon class="cls-4" points="2123 616.99 1924.8 616.97 1869.64 616.97 1836.81 616.96 1648.25 616.94 1730.15 475.13 1817.06 324.63 1869.64 233.56 1885.66 205.83 1954.25 324.65 2041.13 475.15 2123 616.99"/><polygon class="cls-4" points="2084.72 475.16 2041.13 475.15 1869.64 475.13 1730.15 475.13 1668.74 475.12 1755.64 324.63 1843.19 173.01 1869.64 127.22 1876.76 114.89 1910.31 173.02 1997.84 324.65 2084.72 475.16"/><polygon class="cls-4" points="2042.78 324.65 1997.84 324.65 1954.25 324.65 1869.64 324.64 1817.06 324.63 1755.64 324.63 1697.89 324.62 1785.44 173 1869.64 27.2 1870.36 25.95 1955.25 173.03 2042.78 324.65"/><polygon class="cls-4" points="1993.01 173.03 1955.25 173.03 1910.31 173.02 1869.64 173.01 1843.19 173.01 1785.44 173 1747 173 1869.64 -39.38 1870.02 -40.04 1993.01 173.03"/><rect class="cls-4" x="1808.06" y="-22.43" width="26" height="196.97" rx="12" transform="matrix(0.87, 0.5, -0.5, 0.87, 282, -900.34)"/><path class="cls-5" d="M1869.64-39.38V678h-23.38a9.48,9.48,0,0,1-9.45-9.46V617l-188.56,0,81.9-141.82h-61.41l86.9-150.49h-57.75L1785.44,173H1747Z"/><rect class="cls-3" x="74.55" y="636.34" width="82.84" height="98.66" rx="8.9"/><polygon class="cls-4" points="344 677.56 157.39 677.54 105.46 677.54 74.55 677.53 -102.98 677.51 -25.87 543.99 55.95 402.3 105.46 316.56 120.54 290.45 185.12 402.31 266.92 544.01 344 677.56"/><polygon class="cls-4" points="307.95 544.02 266.92 544.01 105.46 544 -25.87 543.99 -83.69 543.98 -1.88 402.3 80.56 259.55 105.46 216.43 112.16 204.83 143.75 259.56 226.16 402.31 307.95 544.02"/><polygon class="cls-4" points="268.47 402.32 226.16 402.31 185.12 402.31 105.46 402.31 55.95 402.3 -1.88 402.3 -56.24 402.29 26.19 259.54 105.46 122.26 106.14 121.09 186.06 259.56 268.47 402.32"/><polygon class="cls-4" points="221.61 259.56 186.06 259.56 143.75 259.56 105.46 259.55 80.56 259.55 26.19 259.54 -10.01 259.54 105.46 59.58 105.82 58.96 221.61 259.56"/><rect class="cls-4" x="47.48" y="75.54" width="24.48" height="185.45" rx="12" transform="translate(92.13 -7.32) rotate(30)"/><path class="cls-5" d="M105.46,59.58V735h-22a8.93,8.93,0,0,1-8.9-8.9V677.53l-177.53,0L-25.87,544H-83.69L-1.87,402.3H-56.24L26.19,259.54H-10Z"/><rect class="cls-3" x="1453.55" y="644.34" width="82.84" height="98.66" rx="8.9"/><polygon class="cls-4" points="1723 685.56 1536.39 685.54 1484.46 685.54 1453.55 685.53 1276.02 685.51 1353.13 551.99 1434.95 410.3 1484.46 324.56 1499.54 298.45 1564.12 410.31 1645.92 552.01 1723 685.56"/><polygon class="cls-4" points="1686.95 552.02 1645.92 552.01 1484.46 552 1353.13 551.99 1295.31 551.98 1377.13 410.3 1459.56 267.55 1484.46 224.43 1491.16 212.83 1522.75 267.56 1605.16 410.31 1686.95 552.02"/><polygon class="cls-4" points="1647.47 410.32 1605.16 410.31 1564.12 410.31 1484.46 410.31 1434.95 410.3 1377.13 410.3 1322.76 410.29 1405.19 267.54 1484.46 130.26 1485.14 129.09 1565.06 267.56 1647.47 410.32"/><polygon class="cls-4" points="1600.61 267.56 1565.06 267.56 1522.75 267.56 1484.46 267.55 1459.56 267.55 1405.19 267.54 1368.99 267.54 1484.46 67.58 1484.82 66.96 1600.61 267.56"/><rect class="cls-4" x="1426.48" y="83.54" width="24.48" height="185.45" rx="12" transform="translate(280.88 -695.75) rotate(30)"/><path class="cls-5" d="M1484.46,67.58V743h-22a8.93,8.93,0,0,1-8.9-8.9V685.53l-177.53,0L1353.13,552h-57.82l81.82-141.68h-54.37l82.43-142.75H1369Z"/><rect class="cls-6" y="733" width="1925" height="348"/><rect class="cls-3" x="383.33" y="758" width="111.67" height="133" rx="12"/><polygon class="cls-4" points="746.55 813.57 495 813.54 425 813.54 383.33 813.53 144.02 813.51 247.96 633.52 358.26 442.52 425 326.94 445.33 291.74 532.38 442.54 642.64 633.55 746.55 813.57"/><polygon class="cls-4" points="697.96 633.56 642.64 633.55 425 633.53 247.96 633.52 170.02 633.51 280.31 442.52 391.43 250.09 425 191.97 434.03 176.33 476.61 250.1 587.7 442.54 697.96 633.56"/><polygon class="cls-4" points="644.74 442.55 587.7 442.54 532.38 442.54 425 442.53 358.26 442.52 280.31 442.52 207.02 442.51 318.14 250.08 425 65.03 425.91 63.45 533.65 250.11 644.74 442.55"/><polygon class="cls-4" points="581.57 250.11 533.65 250.11 476.61 250.1 425 250.09 391.43 250.09 318.14 250.08 269.35 250.08 425 -19.47 425.48 -20.3 581.57 250.11"/><rect class="cls-4" x="346.85" y="2.05" width="33" height="249.98" rx="12" transform="translate(112.2 -164.65) rotate(30)"/><path class="cls-5" d="M425-19.47V891H395.33a12,12,0,0,1-12-12V813.53l-239.31,0L248,633.52H170l110.29-191H207L318.14,250.08H269.35Z"/><rect class="cls-3" x="1665.32" y="849.11" width="131.73" height="156.89" rx="14.16"/><polygon class="cls-4" points="2093.78 914.66 1797.05 914.63 1714.47 914.63 1665.32 914.61 1383.02 914.59 1505.63 702.27 1635.74 476.96 1714.47 340.62 1738.45 299.09 1841.14 476.98 1971.21 702.3 2093.78 914.66"/><polygon class="cls-4" points="2036.47 702.32 1971.21 702.3 1714.47 702.28 1505.63 702.27 1413.69 702.26 1543.79 476.96 1674.87 249.96 1714.47 181.4 1725.13 162.95 1775.35 249.97 1906.4 476.98 2036.47 702.32"/><polygon class="cls-4" points="1973.69 476.99 1906.4 476.98 1841.14 476.98 1714.47 476.97 1635.74 476.96 1543.79 476.96 1457.34 476.95 1588.42 249.95 1714.47 31.66 1715.55 29.79 1842.64 249.99 1973.69 476.99"/><polygon class="cls-4" points="1899.17 249.99 1842.64 249.99 1775.35 249.97 1714.47 249.96 1674.87 249.96 1588.42 249.95 1530.86 249.95 1714.47 -68.02 1715.04 -69 1899.17 249.99"/><rect class="cls-4" x="1622.28" y="-42.64" width="38.93" height="294.89" rx="12" transform="translate(272.35 -806.83) rotate(30)"/><path class="cls-5" d="M1714.47-68V1006h-35a14.2,14.2,0,0,1-14.15-14.16V914.61l-282.3,0,122.61-212.32h-91.94L1543.79,477h-86.45l131.08-227h-57.56Z"/><path class="cls-7" d="M225.94,342.59l-105.41-135a2.44,2.44,0,0,1,1.15-3.82L917.62-62.33a2.44,2.44,0,0,1,2,4.43L229.09,343.19A2.43,2.43,0,0,1,225.94,342.59Z"/><path class="cls-7" d="M279.43,197.48,239,229l-7.48,5.82-17.76,13.84-38.05,29.65-3.72,2.9-35.28,27.49a3.16,3.16,0,0,1-3.34.33L104,294.42-192.66,147.26l-57.12-28.33L-375.19,56.71a3.16,3.16,0,0,1,2.07-5.91l169.2,36.66,39.72,8.61L33.13,138.82l108.2,23.44.65.15,30,6.5,32.77,7.1,26.77,5.8h.05l26.33,5.7,20.24,4.39A3.15,3.15,0,0,1,279.43,197.48Z"/><path class="cls-7" d="M237.87,176.88l-6.28,4.89-.05,0L181,221.19l-3,2.35-6,4.67-22,17.14-11.94,9.3-18,14a2.89,2.89,0,0,1-4.21-.73L104,249.38,33.13,138.82-51.33,7-227.16-267.44a2.89,2.89,0,0,1,4.44-3.65l175,168.41L-13.88-70l2.93,2.81L12-45.1l.58.56,16.63,16L66.16,7,159.3,96.66,172,108.89l10,9.65,50.17,48.3,1,.92,4.93,4.75A2.9,2.9,0,0,1,237.87,176.88Z"/><path class="cls-7" d="M295.38-389.83,246.53,47.88,233.3,166.47l-.14,1.29-1.57,14v0l-4.13,37a1.41,1.41,0,0,1-.88,1.14l-3.19,1.25-31.27,12.26L172,241.34l-19.23,7.55h0l-14.7,5.76L116,263.32a1.39,1.39,0,0,1-1.84-1.66l11.08-40.47,1.55-5.63,4-14.82,2.37-8.66h0L141,163.49l.34-1.23,18-65.6L171,53.81l1-3.55L187.52-6.41,201-55.68l7.89-28.79,2.19-8,.53-2h0l.28-1,6.34-23.14,74.41-271.74A1.39,1.39,0,0,1,295.38-389.83Z"/><path class="cls-7" d="M218.85,252.21,124.22,185.8a2.36,2.36,0,0,1-.39-3.51L462.69-188.9a2.36,2.36,0,0,1,3.8,2.74L222.25,251.43A2.35,2.35,0,0,1,218.85,252.21Z"/><path class="cls-7" d="M216.67,29.35l-40.43,29.4a2,2,0,0,1-2.88-.65L172,55.6l-1-1.79L145.58,7,70.45-131.19a2,2,0,0,1,3.18-2.24l47.29,52.75L145.2-53.61,172-23.72,187.52-6.41,217,26.45A2,2,0,0,1,216.67,29.35Z"/><path class="cls-7" d="M227.4,605.26,219,556.56A2.2,2.2,0,0,1,221,554l212.86-8.75a2.21,2.21,0,0,1,.69,4.34L230.18,607A2.21,2.21,0,0,1,227.4,605.26Z"/><path class="cls-7" d="M239.78,233.19V981a12,12,0,0,1-9.59,11.76h0a12.16,12.16,0,0,1-2.35.23H116a12,12,0,0,1-11.19-7.69,11.71,11.71,0,0,1-.8-3.92c0-.13,0-.26,0-.39V233.19a12,12,0,0,1,12-12H227.78a11.93,11.93,0,0,1,9,4.14,11.94,11.94,0,0,1,3,7.86Z"/><path class="cls-8" d="M172-23.72V993H116a12,12,0,0,1-11.19-7.69,11.71,11.71,0,0,1-.8-3.92c0-.13,0-.26,0-.39V294.42L-192.66,147.26l-198.62,60a2.68,2.68,0,0,1-2.12-4.89l143.62-83.42L-375.19,56.71a3.16,3.16,0,0,1,2.07-5.91l169.2,36.66a2.53,2.53,0,0,1-.86-2.15L-197.17,7l5.68-58.51a2.54,2.54,0,0,1,5-.13L-177.62,7l13.42,89.07L33.13,138.82-51.33,7-227.16-267.44a2.89,2.89,0,0,1,4.44-3.65l175,168.41L51-253.19a2.6,2.6,0,0,1,4.62,2.32L-10.95-67.23,12-45.1l.58.56,16.63,16L66.16,7,159.3,96.66,171,53.81,145.58,7,70.45-131.19a2,2,0,0,1,3.18-2.24l47.29,52.75,17.39-84.07a2.18,2.18,0,0,1,4.31.39L145.2-53.61Z"/><circle class="cls-9" cx="770.12" cy="79.82" r="20.17"/><circle class="cls-9" cx="707.42" cy="60.85" r="20.17"/><circle class="cls-9" cx="723.03" cy="39.07" r="20.17"/><circle class="cls-9" cx="734.4" cy="76.54" r="20.17"/><circle class="cls-9" cx="750.95" cy="53.24" r="20.17"/><path class="cls-10" d="M762.84,76.35c-18.39-17.7-68.75-44.75-60-35.14Z"/><path class="cls-11" d="M688.51,44.36c4.38-5.44,11.4-7.06,15.68-3.62"/><circle class="cls-9" cx="654.82" cy="176.73" r="20.17"/><circle class="cls-9" cx="621.87" cy="120.1" r="20.17"/><circle class="cls-9" cx="648.14" cy="114.8" r="20.17"/><circle class="cls-9" cx="630.92" cy="149.97" r="20.17"/><circle class="cls-9" cx="658.91" cy="144.21" r="20.17"/><path class="cls-10" d="M651.85,169.22c-1.38-25.49-19.79-79.6-20-66.62Z"/><path class="cls-11" d="M619.27,95.15c6.92-1,13.16,2.6,13.94,8"/><polygon class="cls-4" points="116.58 989.49 116.2 989.6 113.28 990.48 109.97 991.48 102.71 993.66 100.08 994.45 99.95 993.76 99.6 991.93 99.03 989 98.96 988.65 98.73 987.44 97.26 979.81 96.54 976.05 92.73 956.33 80.57 893.2 99.55 943.94 109.97 971.81 111.87 976.88 116.4 989 116.58 989.49"/><polygon class="cls-4" points="113.57 993.25 109.98 993.39 102.71 993.66 99.95 993.76 96.68 993.89 96.36 993.9 96.5 991.64 96.67 989 96.86 986.05 97.26 979.81 97.47 976.54 98.24 964.35 99.55 943.94 102.92 891 109.97 958.69 111.87 976.88 112.82 986.06 113.13 989 113.28 990.48 113.57 993.25"/><polygon class="cls-4" points="112.09 984.51 110.58 985.4 109.97 985.77 104.53 989 99.6 991.93 97.28 993.31 96.75 992.16 96.5 991.64 95.28 989 92.35 982.68 86.97 971.09 53.89 899.77 92.73 956.33 98.24 964.35 109.97 981.42 112.09 984.51"/><polygon class="cls-4" points="105.17 980.54 100.77 987.3 100.04 988.42 99.61 988.1 98.73 987.44 96.86 986.05 92.35 982.68 53.54 953.72 86.97 971.09 96.54 976.05 97.47 976.54 105.17 980.54"/><ellipse class="cls-4" cx="106.47" cy="991.93" rx="10" ry="6.5" transform="translate(-221.45 49.74) rotate(-13.06)"/><polygon class="cls-4" points="253.67 983.14 322.32 937.06 247.17 970.95 253.67 983.14"/><polygon class="cls-4" points="256.09 984.95 310.95 923.1 246.74 974.79 256.09 984.95"/><polygon class="cls-4" points="255.9 984.09 333.65 955.96 252.54 970.7 255.9 984.09"/><polygon class="cls-4" points="257.13 979.76 303.14 986.63 258.71 972.39 257.13 979.76"/><polygon class="cls-4" points="236.26 986.62 277.45 875.3 255.45 991.58 236.26 986.62"/><polygon class="cls-4" points="232.92 983.85 300.76 886.46 250.25 993.48 232.92 983.85"/><polygon class="cls-4" points="234.18 983.82 247.26 865.85 254 984 234.18 983.82"/><polygon class="cls-4" points="239.81 980.65 214.73 918.75 249.56 975.96 239.81 980.65"/><polygon class="cls-4" points="1673.43 998.94 1673.05 999.07 1670.17 1000.05 1666.9 1001.18 1659.73 1003.63 1657.13 1004.52 1656.97 1003.83 1656.55 1002.02 1655.87 999.11 1655.79 998.76 1655.52 997.56 1653.76 989.99 1652.9 986.26 1648.36 966.7 1633.84 904.07 1654.71 954.06 1666.16 981.52 1668.25 986.52 1673.23 998.46 1673.43 998.94"/><polygon class="cls-4" points="1670.56 1002.81 1666.98 1003.09 1659.73 1003.63 1656.97 1003.83 1653.71 1004.08 1653.39 1004.11 1653.44 1001.84 1653.52 999.2 1653.6 996.24 1653.76 989.99 1653.85 986.72 1654.16 974.51 1654.71 954.06 1656.09 901.03 1665.67 968.41 1668.25 986.52 1669.54 995.65 1669.96 998.58 1670.17 1000.05 1670.56 1002.81"/><polygon class="cls-4" points="1668.76 994.13 1667.28 995.08 1666.68 995.47 1661.37 998.9 1656.55 1002.02 1654.29 1003.48 1653.71 1002.35 1653.44 1001.84 1652.13 999.25 1648.96 993.04 1643.15 981.66 1607.42 911.63 1648.36 966.7 1654.16 974.51 1666.52 991.13 1668.76 994.13"/><polygon class="cls-4" points="1661.69 990.42 1657.55 997.35 1656.86 998.49 1656.42 998.19 1655.52 997.56 1653.6 996.24 1648.96 993.04 1609.1 965.56 1643.15 981.66 1652.9 986.26 1653.85 986.72 1661.69 990.42"/><ellipse class="cls-4" cx="1663.42" cy="1001.76" rx="10" ry="6.5" transform="translate(-204.55 471.48) rotate(-15.21)"/><circle class="cls-10" cx="726.87" cy="103.97" r="18.83"/><circle class="cls-10" cx="669.23" cy="83.52" r="18.83"/><circle class="cls-10" cx="684.75" cy="63.89" r="18.83"/><circle class="cls-10" cx="693.7" cy="99.34" r="18.83"/><circle class="cls-10" cx="710.16" cy="78.34" r="18.83"/><path class="cls-12" d="M720.22,100.41C703.86,83.1,658.09,55.66,665.8,65"/><path class="cls-13" d="M652.32,67.31c4.33-4.88,10.94-6.08,14.78-2.68"/><circle class="cls-10" cx="392.87" cy="58.97" r="18.83"/><circle class="cls-10" cx="335.23" cy="38.52" r="18.83"/><circle class="cls-10" cx="350.75" cy="18.89" r="18.83"/><circle class="cls-10" cx="359.7" cy="54.34" r="18.83"/><circle class="cls-10" cx="376.16" cy="33.34" r="18.83"/><path class="cls-12" d="M386.22,55.41C369.86,38.1,324.09,10.66,331.8,20"/><path class="cls-13" d="M318.32,22.31c4.33-4.88,10.94-6.08,14.78-2.68"/><circle class="cls-9" cx="316.51" cy="144.67" r="20.17"/><circle class="cls-9" cx="302.74" cy="80.62" r="20.17"/><circle class="cls-9" cx="329.36" cy="83.73" r="20.17"/><circle class="cls-9" cx="302.08" cy="111.83" r="20.17"/><circle class="cls-9" cx="330.48" cy="115.03" r="20.17"/><path class="cls-10" d="M316,136.62c6.58-24.66,5.86-81.82,1.68-69.53Z"/><path class="cls-11" d="M308,56.1c6.88,1.19,11.7,6.55,10.76,12"/><circle class="cls-14" cx="200.67" cy="45.69" r="17.07"/><circle class="cls-14" cx="255.65" cy="38.49" r="17.07"/><circle class="cls-14" cx="245.61" cy="18.15" r="17.07"/><circle class="cls-14" cx="230.96" cy="47.87" r="17.07"/><circle class="cls-14" cx="220.35" cy="26.14" r="17.07"/><path class="cls-15" d="M207.24,43.79c17.79-12.24,63.56-27.88,55-21.06"/><path class="cls-16" d="M271.79,25.68c-2.05-3.62-6-5.25-8.85-3.64"/><circle class="cls-9" cx="300.09" cy="1033.84" r="20.17"/><circle class="cls-9" cx="236.34" cy="1048.95" r="20.17"/><circle class="cls-9" cx="238.9" cy="1022.27" r="20.17"/><circle class="cls-9" cx="267.55" cy="1048.95" r="20.17"/><circle class="cls-9" cx="270.16" cy="1020.49" r="20.17"/><path class="cls-10" d="M292.05,1034.5c-24.8-6.06-81.92-4.15-69.55-.22Z"/><path class="cls-11" d="M211.71,1044.19c1-6.9,6.31-11.83,11.74-11"/><circle class="cls-9" cx="395.03" cy="978.08" r="20.17"/><circle class="cls-9" cx="362.35" cy="1034.87" r="20.17"/><circle class="cls-9" cx="344.67" cy="1014.73" r="20.17"/><circle class="cls-9" cx="383.74" cy="1012.14" r="20.17"/><circle class="cls-9" cx="364.79" cy="990.74" r="20.17"/><path class="cls-10" d="M390,984.39c-21.41,13.91-59.15,56.84-47.81,50.51Z"/><path class="cls-11" d="M342,1049.55c-4.31-5.49-4.3-12.7,0-16.09"/><circle class="cls-10" cx="468.08" cy="1017.57" r="17.85"/><circle class="cls-10" cx="410.97" cy="1027.59" r="17.85"/><circle class="cls-10" cx="422.38" cy="1048.39" r="17.85"/><circle class="cls-10" cx="436.34" cy="1016.67" r="17.85"/><circle class="cls-10" cx="448.42" cy="1038.89" r="17.85"/><path class="cls-12" d="M461.31,1019.85c-18,13.6-65.14,32-56.46,24.51"/><path class="cls-13" d="M392.61,1040.07c3.27,5.25,9.27,7.42,13.39,4.85"/><line class="cls-17" x1="887.45" y1="406.16" x2="887.45" y2="422.84"/><line class="cls-17" x1="892.46" y1="406.16" x2="892.46" y2="422.84"/><line class="cls-17" x1="882.44" y1="406.99" x2="882.44" y2="421.17"/><rect class="cls-18" x="419.5" y="177.5" width="1154" height="664" rx="12"/><path class="cls-19" d="M540,254.3a4.94,4.94,0,0,1-1.88-.56,3.17,3.17,0,0,0-2-.38l-8.82,2.39v45a14.24,14.24,0,0,0,1.2,5.39,6.55,6.55,0,0,1-.17,3.25c-.34,1.77-.89,2.88-1.63,3.34a2.36,2.36,0,0,1-.85.09,38.76,38.76,0,0,1-7.88-1.12c-3.77-.85-6-1.68-6.68-2.48q-1.2-1.54.09-4.11a8.57,8.57,0,0,0,1.11-3.25V259.52l-6.08,1.54a5.18,5.18,0,0,0-1.41.73,2.2,2.2,0,0,1-1.67.47q-2-.51-5.39-5.09T495,251q.69-2,4-3a5.49,5.49,0,0,1,2.23-.08,6.85,6.85,0,0,0,2.14,0l29.79-7.62a18.84,18.84,0,0,0,2.49-1,4.52,4.52,0,0,1,2.48-.43,4.11,4.11,0,0,1,3.25,1.88,16.36,16.36,0,0,1,1.29,3.86,23.81,23.81,0,0,1,.85,5.82,6.81,6.81,0,0,1-.47,2.87C542.76,253.88,541.75,254.24,540,254.3Z"/><path class="cls-19" d="M565.63,308.92c.23,2.05-.49,3.34-2.14,3.85a6.23,6.23,0,0,1-1.2.09,28.89,28.89,0,0,1-7.62-1.29q-4.87-1.36-5.73-2.91c-.29-.45,0-1.34.77-2.65a10.07,10.07,0,0,0,.77-4.71v-36a18.28,18.28,0,0,1-1-4.36c0-.75,1-1.12,3.17-1.12a23.65,23.65,0,0,1,7.15,1.59q4.58,1.57,5.52,2.78a1.38,1.38,0,0,1,.25.85,7.07,7.07,0,0,1-1,2.57,7,7,0,0,0-1,2.83V304.9a3.83,3.83,0,0,0,1,2.14A5,5,0,0,1,565.63,308.92Zm.26-59.16a1.94,1.94,0,0,1,.08.68,20.12,20.12,0,0,1-.77,4.88q-.86,3.26-1.62,3.6c-.58.23-3-.38-7.37-1.84s-6.65-2.5-6.93-3.13a2.53,2.53,0,0,1-.26-1.28,11.54,11.54,0,0,1,1.2-4.88q1.37-2.91,3.08-3.25,2-.34,6.85,1.5C563.4,247.26,565.32,248.5,565.89,249.76Z"/><path class="cls-19" d="M589.43,244a4.91,4.91,0,0,1-.39,1.63l-.47,1.28a40.52,40.52,0,0,0-1,5.31v52.57a3.4,3.4,0,0,0,.51,1.84,2.69,2.69,0,0,1,.51,1.33q0,5.47-2.05,5.9c-.51.12-2.33-.27-5.44-1.15s-5-1.59-5.6-2.1q-1.89-1.62-1.89-3a1.37,1.37,0,0,1,.34-.77,2.33,2.33,0,0,0,.35-1.45V245.05A2.26,2.26,0,0,0,574,244a2.26,2.26,0,0,1-.3-1.07c.11-1.37,1.17-2.28,3.17-2.74a18.22,18.22,0,0,1,3.59,0,27.61,27.61,0,0,1,5.48.94Q589.43,242.15,589.43,244Z"/><path class="cls-19" d="M613.23,244a4.91,4.91,0,0,1-.39,1.63l-.47,1.28a40.52,40.52,0,0,0-1,5.31v52.57a3.4,3.4,0,0,0,.51,1.84,2.69,2.69,0,0,1,.51,1.33q0,5.47-2,5.9c-.52.12-2.33-.27-5.44-1.15s-5-1.59-5.6-2.1q-1.89-1.62-1.89-3a1.31,1.31,0,0,1,.34-.77,2.33,2.33,0,0,0,.35-1.45V245.05a2.26,2.26,0,0,0-.3-1.07,2.26,2.26,0,0,1-.3-1.07c.11-1.37,1.17-2.28,3.16-2.74a18.33,18.33,0,0,1,3.6,0,27.61,27.61,0,0,1,5.48.94Q613.23,242.15,613.23,244Z"/><path class="cls-19" d="M664.43,264.31a5.58,5.58,0,0,1,.17,1.29,4.7,4.7,0,0,1-1.29,3,11.77,11.77,0,0,0-1.88,2.74l-17,49.06c-.11,1.14-.23,2.28-.34,3.43-.23,1.82-.8,2.85-1.71,3.08a5.49,5.49,0,0,1-.94.08,17.44,17.44,0,0,1-5.74-1.24,14.45,14.45,0,0,1-4.75-2.48,3.58,3.58,0,0,1-1.33-2.61,6.48,6.48,0,0,1,1.2-3.13,16.18,16.18,0,0,0,1.37-2.44l2.83-9.67-13.87-34.08a12.8,12.8,0,0,0-1.55-1.71,6,6,0,0,1-1.45-3.42q-.18-1,4.49-3.64t7.32-2.61a2.19,2.19,0,0,1,1.12.25,4.88,4.88,0,0,1,2.05,2.92c.29,1.25.6,2.48.94,3.68l7.54,20.8,8-21.4c.34-1.14.71-2.28,1.11-3.43a3.18,3.18,0,0,1,1.8-2.14,6,6,0,0,1,1.88-.25,17.54,17.54,0,0,1,6.25,1.32Q664.08,263,664.43,264.31Z"/><path class="cls-19" d="M711.6,302.24c.11,1.09-1,3.05-3.25,5.91s-4.06,4.19-5.31,4q-3.69-.51-15.58-19.86c-.58.63-1.55,1.63-2.92,3v10.1a10.41,10.41,0,0,0,.22,1.54c.14.74.24,1.28.3,1.63.17,1.94-.23,3.19-1.2,3.76a5.29,5.29,0,0,1-2.48.43,17.36,17.36,0,0,1-6.34-1.2c-2.4-.91-3.59-2-3.59-3.25V244.79a6.48,6.48,0,0,1,.85-3,4.08,4.08,0,0,1,2-2.06,2.51,2.51,0,0,1,.69-.08,19.1,19.1,0,0,1,6.2,1.5c2.66,1,4.13,1.87,4.41,2.61a2.73,2.73,0,0,1,.26,1,3.51,3.51,0,0,1-.69,1.76,3.8,3.8,0,0,0-.68,2v29.71l12.67-17.38a3.59,3.59,0,0,1,2.83-1.63c1.08-.05,2.59.63,4.53,2.06q3.25,2.4,3.34,4.71c.06.62-1.28,2.85-4,6.67q-6.34,9.07-7.45,10.79l11.13,15.33a6.7,6.7,0,0,0,2.48,1.79C711,301.13,711.54,301.67,711.6,302.24Z"/><path class="cls-19" d="M757.74,302.24c.12,1.09-1,3.05-3.25,5.91s-4,4.19-5.31,4q-3.67-.51-15.58-19.86-.86.94-2.91,3v10.1a10,10,0,0,0,.21,1.54c.15.74.25,1.28.3,1.63.18,1.94-.23,3.19-1.2,3.76a5.29,5.29,0,0,1-2.48.43,17.27,17.27,0,0,1-6.33-1.2q-3.6-1.36-3.6-3.25V244.79a6.5,6.5,0,0,1,.86-3,4,4,0,0,1,2-2.06,2.43,2.43,0,0,1,.68-.08,19.2,19.2,0,0,1,6.21,1.5c2.65,1,4.12,1.87,4.41,2.61a2.68,2.68,0,0,1,.25,1,3.48,3.48,0,0,1-.68,1.76,3.73,3.73,0,0,0-.69,2v29.71l12.68-17.38a3.59,3.59,0,0,1,2.82-1.63c1.08-.05,2.6.63,4.54,2.06q3.25,2.4,3.34,4.71c0,.62-1.29,2.85-4,6.67q-6.33,9.07-7.45,10.79l11.13,15.33a6.67,6.67,0,0,0,2.49,1.79C757.14,301.13,757.69,301.67,757.74,302.24Z"/><path class="cls-19" d="M797.21,295.65q.76,1.28-3.34,7.62-4.46,6.76-8.73,9.16a3.59,3.59,0,0,1-1.54.26,26,26,0,0,1-8.73-2.06q-5.75-2.06-7.54-4.45-5-6.42-5-17.81a39.87,39.87,0,0,1,4.36-19q4.71-9,12-9.17a17,17,0,0,1,6.42,1.37,21.24,21.24,0,0,1,7.62,4.88c.51.52,1,2.06,1.45,4.63a39.43,39.43,0,0,1,.86,8q0,5.83-1.88,8.05a66.73,66.73,0,0,1-18,3.17,30,30,0,0,0,1,8.82q1.18,4.62,2.48,4.71c1.14.06,2.51-.89,4.11-2.83a12.63,12.63,0,0,0,2.65-4.19,42,42,0,0,1,1.63-5.31c.91-.11,2.71.34,5.39,1.37S796.75,294.85,797.21,295.65ZM782,269.45q-1.46-.17-4.07,4.62a24.13,24.13,0,0,0-3,9.16,11,11,0,0,0,6.16-1.88c.91-.68,1.37-3.54,1.37-8.56C782.4,270.68,782.26,269.57,782,269.45Z"/><path class="cls-19" d="M818.53,285.38c-.12,2.11-.66,3.28-1.63,3.51a4.89,4.89,0,0,1-.85.08,14.19,14.19,0,0,1-6.25-2,20.82,20.82,0,0,1-6.17-4.71q-1-1.11,0-4.11c.69-2,1-3,1-3.08V242.74c0-1.48.86-2.51,2.57-3.08a4.58,4.58,0,0,1,1.45-.17,17.68,17.68,0,0,1,5.48,1c2.06.69,3.34,1.43,3.86,2.23a27.22,27.22,0,0,1,.17,4.62v34.93a8.69,8.69,0,0,0,.17,1.5A10.28,10.28,0,0,1,818.53,285.38Zm0,12.41a15.56,15.56,0,0,1,0,4.19c-.23,3-.34,4.8-.34,5.48a31.09,31.09,0,0,1-.35,5.31A2.51,2.51,0,0,1,815.7,315q-1,.25-5.9-1.71c-3.43-1.43-5.48-2.66-6.17-3.69-.4-.62-.25-1.65.43-3.08a7.79,7.79,0,0,0,.6-3.17,67.75,67.75,0,0,1,0-7.19c.23-2.05,1.08-3.05,2.57-3a23.6,23.6,0,0,1,6.68,1.92Q818.19,296.85,818.53,297.79Z"/><path class="cls-19" d="M883.34,298.39a13.85,13.85,0,0,1-4.2,10.4q-4.2,4.06-11.64,4.24a15,15,0,0,1-4-.6c-2.62-.74-4-1.11-4.1-1.11l-4.16-.9a7.71,7.71,0,0,1-3.64-1.93,14.66,14.66,0,0,1-3.76-6.68,34.32,34.32,0,0,0-2.74-6.76,11.33,11.33,0,0,1-1.63-2.4,3.52,3.52,0,0,1,.47-2.52,3.33,3.33,0,0,1,1.76-1.59,7.05,7.05,0,0,1,1.88-.17,44.74,44.74,0,0,1,7.32.73c2.88.48,4.5.93,4.84,1.33s.8,2.45,1.37,6.16q.76,5.15,2.31,5.74a1.74,1.74,0,0,0,.77.17c1.08,0,2-.9,2.78-2.7a15.42,15.42,0,0,0,1.16-6.12q0-7.46-4.63-9.93-10.61-5.73-14.89-10.62a17.63,17.63,0,0,1-4.45-13.35,27.17,27.17,0,0,1,4.66-13q4.25-6.56,9-7.67,2-.42,12,3.77c1.66.63,3.33,1.28,5,2a9.56,9.56,0,0,1,4.07,3q2.4,3,2.4,10.36,0,1.36-.09,4c-.06,1.54-.08,2.63-.08,3.25a10.28,10.28,0,0,0,.59,2,3.74,3.74,0,0,1,.35,1.89c-.12,2.51-1.17,3.91-3.17,4.19q-1.71.26-6.34-1.28-5.13-1.63-6.5-3.51a4.53,4.53,0,0,1-.17-1.72c0-.85.09-2.79.3-5.82s.3-5.22.3-6.59c0-2.45-.29-3.65-.86-3.6q-2.65.18-4.41,3.81a18.81,18.81,0,0,0-1.75,8.27c0,5.13,1.51,8.79,4.53,10.95l10.28,6.51a21,21,0,0,1,6.76,6.34Q883.34,291,883.34,298.39Z"/><path class="cls-19" d="M931.11,302.24c.11,1.09-1,3.05-3.25,5.91s-4.06,4.19-5.31,4q-3.69-.51-15.58-19.86c-.58.63-1.55,1.63-2.92,3v10.1a10.41,10.41,0,0,0,.22,1.54c.14.74.24,1.28.3,1.63.17,1.94-.23,3.19-1.2,3.76a5.29,5.29,0,0,1-2.48.43,17.36,17.36,0,0,1-6.34-1.2c-2.4-.91-3.59-2-3.59-3.25V244.79a6.48,6.48,0,0,1,.85-3,4.08,4.08,0,0,1,2-2.06,2.51,2.51,0,0,1,.69-.08,19.1,19.1,0,0,1,6.2,1.5c2.66,1,4.13,1.87,4.41,2.61a2.73,2.73,0,0,1,.26,1,3.51,3.51,0,0,1-.69,1.76,3.8,3.8,0,0,0-.68,2v29.71l12.67-17.38a3.59,3.59,0,0,1,2.83-1.63c1.08-.05,2.59.63,4.53,2.06,2.17,1.6,3.29,3.17,3.34,4.71.06.62-1.28,2.85-4,6.67q-6.35,9.07-7.45,10.79L927,298.82a6.7,6.7,0,0,0,2.48,1.79C930.51,301.13,931.05,301.67,931.11,302.24Z"/><path class="cls-19" d="M964.93,261.57q4.7,2.24,7.27,9a41.45,41.45,0,0,1,2.32,14.56,47.24,47.24,0,0,1-3.94,20q-4.37,9.08-10.88,8.22-2.38-.6-7.19-1.45a38,38,0,0,1-6.33-1.29q-4.89-1.29-7.79-8.3a40.18,40.18,0,0,1-2.66-15.24,44.56,44.56,0,0,1,2.74-16q3.09-7.87,8.65-11.05a5.42,5.42,0,0,1,2.57-.51,39.75,39.75,0,0,1,6.76,1.11A50.87,50.87,0,0,1,964.93,261.57Zm-9.59,7.71q-2.31,0-4.28,5.61a32.22,32.22,0,0,0-2,10.74,51.39,51.39,0,0,0,1.45,12.16c1.09,4.34,2.34,6.68,3.77,7q2.75.6,4.88-6.16a47.65,47.65,0,0,0,2-14.39,34.38,34.38,0,0,0-1.11-8.65C959.1,271.39,957.51,269.28,955.34,269.28Z"/><path class="cls-19" d="M1020.4,263.37q-3.33,8.47-7.62,25.94-3.85,15.76-3.76,17.9v4.19c-.06,1.83-.75,2.88-2.06,3.17s-4.41-.32-9.29-1.63-7.6-2.37-8.17-3.17a3.47,3.47,0,0,1-.43-1.88,5.27,5.27,0,0,0-.17-1.63q-3.95-12.5-5.74-20.37a160.61,160.61,0,0,1-3.08-21.58c0-.17-.06-.65-.17-1.45a8.41,8.41,0,0,1-.17-1.54,2.45,2.45,0,0,1,1.71-2.57q.76-.25,6.59,1.15t6.34,2.53a2.65,2.65,0,0,1,.25,1.2,6.36,6.36,0,0,1-.51,2.18,6.52,6.52,0,0,0-.51,1.76q.93,6.68,1.79,11.81,2.05,12.33,3.26,14.64,1.27-7.44,4.54-19.35,1.53-5.73,3.16-11.47c.17-1,.35-2.05.52-3.08A3.09,3.09,0,0,1,1009,258q1-.35,5.48,1.54Q1019.38,261.58,1020.4,263.37Z"/><path class="cls-19" d="M1063.64,267.4a23.51,23.51,0,0,1,2,10.18,54.31,54.31,0,0,1-3.17,17.38,47.81,47.81,0,0,1-7,13.7q-.43,1.45-.51,1.8a3.74,3.74,0,0,1-1,1.54,7,7,0,0,1-4,1,9,9,0,0,1-4.88-1.54l-3.93-3a8.79,8.79,0,0,0,.59,1.88,2.29,2.29,0,0,1,0,1.55,2.7,2.7,0,0,1-2.22,2.05q-2,.16-7.11-1.33t-5.9-2.69c-.35-.52-.09-1.52.77-3a9.33,9.33,0,0,0,.42-3.6V245.82a3.81,3.81,0,0,0-.81-1.58,2.67,2.67,0,0,1-.64-2q.51-2.74,3.51-2.74a23.48,23.48,0,0,1,7.4,1.62c3.06,1.09,4.84,2.2,5.36,3.34.22.52,0,1.43-.56,2.74a12,12,0,0,0-1.07,3.25v14.05q6.93-6.94,11.13-6.43a13,13,0,0,1,6.25,2.92A16.78,16.78,0,0,1,1063.64,267.4Zm-10,.51a24.38,24.38,0,0,0-7.36,5.22q-4.11,3.94-5.22,6.59v23.12a8.26,8.26,0,0,0,2,1.54q2.82.51,6.85-12.58,3.93-12.76,3.94-21.07A12.88,12.88,0,0,0,1053.62,267.91Z"/><path class="cls-19" d="M1112,261.75a3,3,0,0,1,.6,1.71,3.5,3.5,0,0,1-1,2.05,4.19,4.19,0,0,0-1,1.54v39.81a5.42,5.42,0,0,0,.55,1.8,5.35,5.35,0,0,1,.56,1.89c0,1-.88,1.76-2.65,2.22q-1.38.35-6.42-.94c-3.66-.91-5.65-1.83-6-2.74a4.41,4.41,0,0,1,.26-3,10.61,10.61,0,0,0,.86-3.08,12.72,12.72,0,0,0-.26-2.22,27.06,27.06,0,0,1-3.6,7.62q-2.82,3.93-5.65,3.93a20.23,20.23,0,0,1-7.53-2q-4.62-2-5.31-3.59-2.4-5.47-2.4-40.5a8.42,8.42,0,0,1-.68-3.25,3.6,3.6,0,0,1,2-3.6,6.16,6.16,0,0,1,2.14-.25,32.42,32.42,0,0,1,6.93.9q4,.9,4.88,1.84a1.67,1.67,0,0,1,.43,1.11,7.17,7.17,0,0,1-1.28,3,7.09,7.09,0,0,0-1.29,3q-.17,33.74.52,34c.79.28,2.81-2.36,6-7.92s4.84-9.8,4.84-12.72v-16a3.72,3.72,0,0,1-1.11-2.74,4.48,4.48,0,0,1,2.91-4.53,2.26,2.26,0,0,1,1-.17,31.21,31.21,0,0,1,6.77,1.07Q1111.57,261.15,1112,261.75Z"/><path class="cls-19" d="M1159.27,305.15a8.47,8.47,0,0,1,.68,3.26,3.54,3.54,0,0,1-2,3.51,6.16,6.16,0,0,1-2.14.25,32.42,32.42,0,0,1-6.93-.9c-2.69-.6-4.31-1.18-4.88-1.75a1.67,1.67,0,0,1-.43-1.11,7.17,7.17,0,0,1,1.28-3,7.09,7.09,0,0,0,1.29-3q.16-33.74-.52-34-1.2-.43-5.9,7.7-5,8.56-5,12.93v16a3.73,3.73,0,0,1,1.11,2.74,4.41,4.41,0,0,1-2.91,4.45,2.29,2.29,0,0,1-1,.17,31.21,31.21,0,0,1-6.77-1.07q-4.45-1.06-5-1.75a2.47,2.47,0,0,1-.52-1.54,3.52,3.52,0,0,1,1-2.06,4.11,4.11,0,0,0,1-1.54V264.57a3.83,3.83,0,0,0-.68-1.8,2.27,2.27,0,0,1-.43-1.88,3.28,3.28,0,0,1,2.65-2.31c.91-.23,3.06.08,6.42.94,3.66.91,5.65,1.86,6,2.82a4.76,4.76,0,0,1-.26,2.83,23.57,23.57,0,0,0-.94,3.42,7,7,0,0,0,.34,2.06,26.79,26.79,0,0,1,3.6-7.62q2.82-4,5.65-4a20,20,0,0,1,7.53,2q4.62,2,5.31,3.64Q1159.27,270.14,1159.27,305.15Z"/><path class="cls-19" d="M1207.21,244.79a8.32,8.32,0,0,1-.64,3.34,18.89,18.89,0,0,0-.82,2.83v55.82a8.56,8.56,0,0,0,.43,3.51c.86,1.48,1.11,2.48.77,3s-1,.68-2.22.68a35.72,35.72,0,0,1-6-.77c-3-.63-4.62-.94-4.79-.94a2.72,2.72,0,0,1-2.23-2.06,4.18,4.18,0,0,1-.08-1.11,84.27,84.27,0,0,1,.94-10.44q-2.05,4.1-4,8.21-2.82,5.06-5,4.63-16.86-3.42-16.86-20.72a42.73,42.73,0,0,1,5.39-20q5.22-9.84,11.47-12.84a3.74,3.74,0,0,1,1.63-.43q2.14,0,7.45,5.31V246.16a13.31,13.31,0,0,0-.77-2.44,8.08,8.08,0,0,1-.69-2.61q0-1.8,2.4-1.8a23.49,23.49,0,0,1,6.16,1.2c1.72.57,3.4,1.12,5.06,1.63A3.15,3.15,0,0,1,1207.21,244.79Zm-14.9,22.09q-4.79,2.14-8.69,9.42t-3.89,13.53q0,7.28,5.65,8Q1188.38,298.14,1192.31,266.88Z"/><path class="cls-19" d="M1246.93,295.65q.78,1.28-3.34,7.62c-3,4.51-5.88,7.56-8.73,9.16a3.56,3.56,0,0,1-1.54.26,26,26,0,0,1-8.73-2.06q-5.74-2.06-7.54-4.45-5-6.42-5-17.81a39.76,39.76,0,0,1,4.37-19q4.69-9,12-9.17a17,17,0,0,1,6.42,1.37,21.24,21.24,0,0,1,7.62,4.88c.52.52,1,2.06,1.46,4.63a39.41,39.41,0,0,1,.85,8q0,5.83-1.88,8.05a66.66,66.66,0,0,1-18,3.17,30.3,30.3,0,0,0,1,8.82c.8,3.08,1.62,4.65,2.48,4.71,1.14.06,2.51-.89,4.11-2.83a12.46,12.46,0,0,0,2.65-4.19,43.71,43.71,0,0,1,1.63-5.31c.91-.11,2.71.34,5.39,1.37S1246.48,294.85,1246.93,295.65Zm-15.24-26.2q-1.45-.17-4.06,4.62a24.15,24.15,0,0,0-3,9.16,10.93,10.93,0,0,0,6.16-1.88c.92-.68,1.37-3.54,1.37-8.56C1232.12,270.68,1232,269.57,1231.69,269.45Z"/><path class="cls-19" d="M1292.22,305.15a8.31,8.31,0,0,1,.69,3.26,3.54,3.54,0,0,1-2,3.51,6.16,6.16,0,0,1-2.14.25,32.58,32.58,0,0,1-6.94-.9q-4-.9-4.88-1.75a1.71,1.71,0,0,1-.42-1.11,7,7,0,0,1,1.28-3,7,7,0,0,0,1.28-3q.18-33.74-.51-34-1.2-.43-5.91,7.7-5,8.56-5,12.93v16a3.73,3.73,0,0,1,1.11,2.74,4.41,4.41,0,0,1-2.91,4.45,2.31,2.31,0,0,1-1,.17,31.23,31.23,0,0,1-6.76-1.07c-3-.71-4.62-1.29-5-1.75a2.52,2.52,0,0,1-.51-1.54,3.56,3.56,0,0,1,1-2.06,4.05,4.05,0,0,0,1-1.54V264.57a3.76,3.76,0,0,0-.69-1.8,2.26,2.26,0,0,1-.42-1.88,3.27,3.27,0,0,1,2.65-2.31q1.36-.34,6.42.94c3.65.91,5.65,1.86,6,2.82a4.66,4.66,0,0,1-.25,2.83,23.57,23.57,0,0,0-.94,3.42,7,7,0,0,0,.34,2.06,26.77,26.77,0,0,1,3.59-7.62q2.84-4,5.65-4a20.08,20.08,0,0,1,7.54,2q4.62,2,5.31,3.64Q1292.22,270.14,1292.22,305.15Z"/><path class="cls-19" d="M531.73,398.39q.76,1.28-3.34,7.61-4.46,6.76-8.73,9.17a3.64,3.64,0,0,1-1.54.25,26,26,0,0,1-8.74-2.05c-3.82-1.37-6.33-2.86-7.53-4.45q-5-6.42-5-17.81a39.94,39.94,0,0,1,4.37-19q4.71-9,12-9.16a17.08,17.08,0,0,1,6.42,1.37,21.24,21.24,0,0,1,7.62,4.88c.51.51,1,2.06,1.45,4.62a39.53,39.53,0,0,1,.86,8.05c0,3.88-.63,6.57-1.88,8.05a67.12,67.12,0,0,1-18,3.17,30,30,0,0,0,1,8.82q1.2,4.62,2.49,4.7,1.71.09,4.11-2.82a12.65,12.65,0,0,0,2.65-4.2,41.88,41.88,0,0,1,1.63-5.3q1.36-.18,5.39,1.37C529.7,396.67,531.27,397.59,531.73,398.39Zm-15.24-26.2q-1.46-.18-4.07,4.62a24.33,24.33,0,0,0-3,9.16,11,11,0,0,0,6.17-1.88q1.37-1,1.37-8.56C516.92,373.42,516.77,372.3,516.49,372.19Z"/><path class="cls-19" d="M570.43,368a1.94,1.94,0,0,1-.95,2.23,22.2,22.2,0,0,0-2,1.11q-5.38,8.22-14.64,22.18,0,13.61.09,14c.06.28.27,1,.64,2.18a9.92,9.92,0,0,1,.56,2.78,2.21,2.21,0,0,1-1.46,2.23,6.41,6.41,0,0,1-2.57.43,21,21,0,0,1-7.19-1.46q-5-1.71-5-4.37a7.93,7.93,0,0,1,.68-2.48,7.92,7.92,0,0,0,.69-2.82V370.13c-.63-3.19-.94-4.85-.94-5a3.11,3.11,0,0,1,2.39-3.34,10.46,10.46,0,0,1,2.49-.26,21.91,21.91,0,0,1,6.29,1c2.19.65,3.49,1.35,3.89,2.09a1.86,1.86,0,0,1,.17.86,32.4,32.4,0,0,1-1.19,4.11v4.11c1.37-2.45,2.71-4.91,4-7.36,1.77-3.09,3.08-4.71,3.94-4.88,1.25-.23,3.17.51,5.73,2.22S570.14,366.85,570.43,368Z"/><path class="cls-19" d="M626.07,368a1.92,1.92,0,0,1-.94,2.23,22.2,22.2,0,0,0-2,1.11q-5.38,8.22-14.64,22.18,0,13.61.09,14c0,.28.27,1,.64,2.18a9.92,9.92,0,0,1,.56,2.78,2.21,2.21,0,0,1-1.46,2.23,6.41,6.41,0,0,1-2.57.43,21,21,0,0,1-7.19-1.46q-5-1.71-5-4.37a7.65,7.65,0,0,1,.68-2.48A7.92,7.92,0,0,0,595,404V370.13c-.63-3.19-1-4.85-1-5a3.12,3.12,0,0,1,2.4-3.34,10.43,10.43,0,0,1,2.48-.26,21.92,21.92,0,0,1,6.3,1c2.19.65,3.49,1.35,3.89,2.09a1.86,1.86,0,0,1,.17.86,31.54,31.54,0,0,1-1.2,4.11v4.11c1.37-2.45,2.71-4.91,4-7.36,1.77-3.09,3.08-4.71,3.94-4.88q1.88-.35,5.73,2.22T626.07,368Z"/><path class="cls-19" d="M663.14,398.39q.78,1.28-3.34,7.61-4.44,6.76-8.73,9.17a3.58,3.58,0,0,1-1.54.25,25.91,25.91,0,0,1-8.73-2.05c-3.83-1.37-6.34-2.86-7.54-4.45q-5-6.42-5-17.81a39.83,39.83,0,0,1,4.37-19q4.7-9,12-9.16a17,17,0,0,1,6.42,1.37,21.24,21.24,0,0,1,7.62,4.88c.52.51,1,2.06,1.46,4.62a39.5,39.5,0,0,1,.85,8.05c0,3.88-.62,6.57-1.88,8.05a67,67,0,0,1-18,3.17,30.37,30.37,0,0,0,1,8.82c.8,3.08,1.62,4.65,2.48,4.7q1.71.09,4.11-2.82a12.71,12.71,0,0,0,2.66-4.2,41.78,41.78,0,0,1,1.62-5.3q1.37-.18,5.4,1.37C661.12,396.67,662.69,397.59,663.14,398.39Zm-15.24-26.2q-1.46-.18-4.06,4.62a24.15,24.15,0,0,0-3,9.16,10.93,10.93,0,0,0,6.16-1.88c.92-.69,1.37-3.54,1.37-8.56C648.33,373.42,648.19,372.3,647.9,372.19Z"/><path class="cls-19" d="M708.43,407.89a8.26,8.26,0,0,1,.69,3.25,3.54,3.54,0,0,1-2,3.51,6.1,6.1,0,0,1-2.14.26,32.58,32.58,0,0,1-6.94-.9q-4-.9-4.88-1.76a1.71,1.71,0,0,1-.42-1.11,7,7,0,0,1,1.28-3,7,7,0,0,0,1.28-3q.18-33.72-.51-34-1.2-.42-5.91,7.71-5,8.57-5,12.93v16a3.72,3.72,0,0,1,1.11,2.74,4.41,4.41,0,0,1-2.91,4.45,2.46,2.46,0,0,1-1,.17,31.87,31.87,0,0,1-6.76-1.07c-3-.71-4.62-1.3-5-1.76a2.48,2.48,0,0,1-.51-1.54,3.54,3.54,0,0,1,1-2,4.05,4.05,0,0,0,1-1.54V367.31a3.72,3.72,0,0,0-.69-1.8,2.26,2.26,0,0,1-.42-1.88,3.29,3.29,0,0,1,2.65-2.32c.91-.22,3.05.09,6.42.95q5.48,1.37,6,2.82a4.66,4.66,0,0,1-.25,2.83,23.57,23.57,0,0,0-.94,3.42,7,7,0,0,0,.34,2.06,26.52,26.52,0,0,1,3.59-7.62q2.84-4,5.65-4a20.08,20.08,0,0,1,7.54,2q4.62,2,5.31,3.64Q708.43,372.88,708.43,407.89Z"/><ellipse class="cls-20" cx="1517.26" cy="551.62" rx="256.79" ry="106.29" transform="translate(673.94 1928.27) rotate(-78.49)"/><path class="cls-20" d="M1698.8,371.16c28.23,64.11,33,178.34-21.75,170.33-62.9-9.21-129-27.37-157.26-91.48s-18.47-144.75,38.38-155.49C1611.24,284.48,1670.56,307.06,1698.8,371.16Z"/><path class="cls-21" d="M1309.37,419.27c-24.14,50.48-12.51,78.05,12.93,91.89,25.42,14.31,64.65,14.89,95,22.28a14.55,14.55,0,0,0,3.73.3c34.33-2.88,76,.68,104.11-10.45,28.13-10.79,42.66-36.28,23.61-89.66a12.75,12.75,0,0,1-.71-2.91c-9.59-77.76-38.35-117-110.14-118.79-71.86-4.75-110.43,39.48-127.65,105A12.51,12.51,0,0,1,1309.37,419.27Z"/><path class="cls-21" d="M1283.32,642.45c-3.58,50.75,7.48,96.5,29.1,125.25,21.59,29.49,53.73,42,91.49,43.45,37.72.34,73.35-8.76,100-33.43,26.76-24.23,44.59-64.05,48.28-115.11,3.59-50.75-7.48-96.5-29.1-125.24-21.58-29.49-53.73-42-91.48-43.45-37.73-.34-73.35,8.75-100.05,33.42C1304.84,551.58,1287,591.39,1283.32,642.45Z"/><path class="cls-22" d="M1422.7,477.85l-9.44-.59a6,6,0,0,0-5.77,8.68l4.21,8.48a6,6,0,0,0,10.4.65l5.24-7.88A6,6,0,0,0,1422.7,477.85Z"/><path class="cls-21" d="M1487.53,284.81l-11.24,7.28a29.36,29.36,0,0,0,2.59,50.77L1490.8,349a29.35,29.35,0,0,0,42.67-27.63l-.68-13.36A29.35,29.35,0,0,0,1487.53,284.81Z"/><path class="cls-21" d="M1326.65,294.68l-3.06,21.64a26.91,26.91,0,0,0,36.7,28.72l20.27-8.17a26.9,26.9,0,0,0,6.52-46.14l-17.2-13.47A26.91,26.91,0,0,0,1326.65,294.68Z"/><path class="cls-23" d="M1501.13,299.23,1487.55,308a11.07,11.07,0,0,0,1,19.15l14.4,7.36a11.07,11.07,0,0,0,16.1-10.42L1518.2,308A11.06,11.06,0,0,0,1501.13,299.23Z"/><path class="cls-23" d="M1339.63,298.56l-1.45,19.31a11.07,11.07,0,0,0,15.84,10.8l17.45-8.4a11.07,11.07,0,0,0,1.44-19.12l-16-10.91A11.07,11.07,0,0,0,1339.63,298.56Z"/><ellipse class="cls-9" cx="1424.42" cy="772.29" rx="45.06" ry="32.33" transform="translate(128.61 1745.06) rotate(-65.36)"/><ellipse class="cls-9" cx="1333.09" cy="760.06" rx="32.33" ry="45.06" transform="translate(-173.18 1053.27) rotate(-40.71)"/><path class="cls-21" d="M1505.85,285.11l15.24,5.81a2.52,2.52,0,0,0,3.37-1.91l7.2-39.58a2.52,2.52,0,0,0-4.58-1.85l-22.43,33.79A2.51,2.51,0,0,0,1505.85,285.11Z"/><path class="cls-21" d="M1336.81,281l14.88-6.37a2.57,2.57,0,0,0,1.12-3.79l-22.17-33.22a2.57,2.57,0,0,0-4.66,1.89l7.29,39.6A2.57,2.57,0,0,0,1336.81,281Z"/><ellipse class="cls-2" cx="1479.26" cy="442.86" rx="42.43" ry="39.3" transform="translate(735.41 1796.01) rotate(-77.87)"/><circle cx="1478.04" cy="448.54" r="30.37"/><circle class="cls-2" cx="1491.37" cy="435.41" r="4.91"/><circle class="cls-2" cx="1498.63" cy="442" r="1.79"/><ellipse class="cls-2" cx="1365.95" cy="437.04" rx="39.3" ry="42.43" transform="translate(-34.03 125.79) rotate(-5.21)"/><circle cx="1366.47" cy="442.82" r="30.37"/><circle class="cls-2" cx="1375.28" cy="426.32" r="4.91"/><circle class="cls-2" cx="1384.18" cy="430.44" r="1.79"/><path class="cls-24" d="M1312.24,616.91c3.8,33,36,61.65,64.38,71.55,24.68-14.25,50.25-51.31,46.45-84.31s-31.68-56.89-62.29-53.36S1308.44,583.91,1312.24,616.91Z"/><path class="cls-3" d="M1420.49,589.32c.8-23.5-25.45-53.66-60.1-38.86-38.9-7-52.56,26.54-49.69,51.5"/><path class="cls-25" d="M1360.78,550.5l8.46-24.28c.08-.25-.1-.49-.45-.57l-7.54-1.71c-.49-.11-1,.15-1.12.5l-2.39,13.6c-.15.72.47,7.05.72,9.6a9.16,9.16,0,0,0,.42,1.92l.36,1C1359.42,551.13,1360.59,551.05,1360.78,550.5Z"/><path class="cls-3" d="M1309.53,603.12c.39,4.2,24.85,3.69,55.52.9s55.07-9,54.69-13.17-25.7-7.76-56.37-5S1309.15,598.93,1309.53,603.12Z"/><path class="cls-26" d="M1419.9,589.33c-.42,5.53-14.92,7.83-28.55,10.39-20.34,3.82-47.94,6.25-81.92,5.49"/><ellipse class="cls-9" cx="1314.37" cy="628.87" rx="23.67" ry="34.83" transform="translate(-129.26 431.44) rotate(-17.78)"/><ellipse class="cls-9" cx="1416.11" cy="633.83" rx="34.83" ry="23.67" transform="translate(-89.63 1007.8) rotate(-38.06)"/><path class="cls-27" d="M401.38,270.66,369,293.33l-21.79-35.91,52.2,5.42A4.31,4.31,0,0,1,401.38,270.66Z"/><path class="cls-28" d="M348,552.83a15.85,15.85,0,0,0-9.18-7.32,20.73,20.73,0,0,0-16.32,1.91"/><path class="cls-29" d="M266.82,528.06c-7.93-17.42-14.71-27-46.58-63.74-35.47-40.92,21.95-98.06,49-98.06"/><path class="cls-29" d="M351.18,528.06c7.93-17.42,14.71-27,46.58-63.74,35.47-40.92-21.95-98.06-49-98.06"/><path class="cls-28" d="M334.16,561.74a15.85,15.85,0,0,0-6.29-9.92,20.75,20.75,0,0,0-16-3.51"/><path class="cls-28" d="M275.05,561.74a15.89,15.89,0,0,1,6.29-9.92,20.78,20.78,0,0,1,16.05-3.51"/><path class="cls-28" d="M263.75,553.18a15.83,15.83,0,0,1,9-7.58,20.76,20.76,0,0,1,16.36,1.47"/><ellipse class="cls-27" cx="307.06" cy="447.16" rx="68.64" ry="105.41"/><circle class="cls-29" cx="307.06" cy="322.14" r="78.45"/><ellipse class="cls-2" cx="334.02" cy="328.27" rx="24.51" ry="35.55"/><ellipse class="cls-2" cx="285" cy="328.27" rx="24.51" ry="35.55"/><ellipse cx="348.73" cy="333.17" rx="9.81" ry="11.03"/><path class="cls-30" d="M313.07,401.55l20-30.78a1.19,1.19,0,0,0-.94-1.83L295.48,367a1.19,1.19,0,0,0-1.12,1.72L311,401.44A1.19,1.19,0,0,0,313.07,401.55Z"/><ellipse cx="297.25" cy="333.17" rx="9.81" ry="11.03"/><path class="cls-27" d="M221.12,261.52l17.65,18.8a9.53,9.53,0,0,0,13.9,0l11.91-12.73a7.15,7.15,0,0,0-4.48-12L225.82,252A5.65,5.65,0,0,0,221.12,261.52Z"/><polygon class="cls-27" points="210.72 959.85 162.22 991.53 104.55 997.04 50.93 975.12 13.63 930.79 1.21 874.21 16.51 818.33 56.02 775.96 110.69 756.81 168.01 765.26 214.83 799.38 240.43 851.35 238.95 909.26 210.72 959.85"/><ellipse class="cls-31" cx="143.64" cy="895.74" rx="72.52" ry="111.37"/><circle class="cls-32" cx="149.45" cy="779.76" r="66.76"/><ellipse class="cls-2" cx="135.65" cy="790.43" rx="23.46" ry="34.01"/><ellipse class="cls-2" cx="181.43" cy="790.43" rx="23.46" ry="34.01"/><ellipse cx="143.46" cy="798.51" rx="10.36" ry="11.66"/><ellipse cx="191.83" cy="798.51" rx="10.36" ry="11.66"/><path class="cls-33" d="M155.67,827.72h0a6,6,0,0,1,5.16-8.94h0a6,6,0,0,1,5.17,8.94h0A6,6,0,0,1,155.67,827.72Z"/><ellipse class="cls-34" cx="181.23" cy="883.01" rx="11.61" ry="18.7" transform="translate(-185.11 59.39) rotate(-12.38)"/><ellipse class="cls-34" cx="145.12" cy="883.01" rx="18.7" ry="11.61" transform="translate(-744.87 789.81) rotate(-74.69)"/><ellipse class="cls-34" cx="145.12" cy="1007.23" rx="11.61" ry="18.7" transform="translate(-95.15 18.37) rotate(-5.46)"/><ellipse class="cls-34" cx="181.66" cy="999.07" rx="11.61" ry="18.7" transform="translate(-829.92 910.46) rotate(-74.69)"/><ellipse class="cls-3" cx="1740.9" cy="1000.7" rx="12.95" ry="40.21" transform="translate(-267.11 1004.52) rotate(-30)"/><path class="cls-3" d="M1748.35,1041.5a16.29,16.29,0,0,1,32.57,0"/><ellipse class="cls-35" cx="1790.55" cy="935.03" rx="66.19" ry="101.65"/><circle class="cls-3" cx="1790.66" cy="807.27" r="75.65"/><ellipse class="cls-2" cx="1754.85" cy="817.96" rx="23.64" ry="34.28"/><ellipse cx="1744.98" cy="821.9" rx="9.46" ry="10.64"/><path class="cls-33" d="M1770.24,859.38h0a6.7,6.7,0,0,1,5.8-10h0a6.69,6.69,0,0,1,5.79,10h0A6.69,6.69,0,0,1,1770.24,859.38Z"/><ellipse class="cls-3" cx="1757.19" cy="926.94" rx="10.59" ry="20.6"/><ellipse class="cls-3" cx="1784.8" cy="926.94" rx="10.59" ry="20.6"/><path class="cls-3" d="M1747.22,757.87c-33.75-95.63-52.76-176.11-42.46-179.74s46,71,79.76,166.58"/><path class="cls-3" d="M1882.47,691.9c11.21,57.11,12.15,105,2.08,107s-27.31-42.72-38.52-99.83"/><path class="cls-3" d="M1856.72,672.95h0a5.79,5.79,0,0,1,5.79,5.79v72a5.79,5.79,0,0,1-5.79,5.79H1835.5a5.79,5.79,0,0,1-5.79-5.79V700a27,27,0,0,1,27-27Z" transform="translate(839.25 -989.73) rotate(38.26)"/><path class="cls-36" d="M1848.63,698.45a315.51,315.51,0,0,0,5,33.42"/><path class="cls-33" d="M1751,742.36c-19.09-55.2-30.23-101.46-24.88-103.31s25.16,41.41,44.25,96.62"/><rect class="cls-33" x="1827.49" y="715.89" width="17.47" height="28.5" transform="translate(846.68 -980.3) rotate(38.26)"/><polygon class="cls-33" points="1851.97 724.39 1836.54 715.71 1848.6 700.76 1851.97 724.39"/><ellipse class="cls-2" cx="1801.63" cy="817.96" rx="23.64" ry="34.28"/><ellipse cx="1791.76" cy="821.9" rx="9.46" ry="10.64"/><ellipse class="cls-3" cx="1839.37" cy="1000.7" rx="40.21" ry="12.95" transform="translate(100.66 2167.56) rotate(-62.41)"/><path class="cls-3" d="M1800.14,1041.5a16.28,16.28,0,0,1,32.56,0"/></svg>
