<svg id="Layer_1" data-name="Layer 1" xmlns="http://www.w3.org/2000/svg" width="240" height="260" viewBox="0 0 240 260"><defs><style>.cls-1{fill:#df3e00;stroke:#ff651f;stroke-width:7px;}.cls-1,.cls-2{stroke-miterlimit:10;}.cls-2{fill:none;stroke:#fff;stroke-linecap:round;stroke-width:12px;}.cls-3{fill:#f15a24;}</style></defs><title>slut_spillet</title><circle class="cls-1" cx="112.66" cy="166.97" r="89"/><line class="cls-2" x1="77.16" y1="123.47" x2="148.16" y2="213.47"/><line class="cls-2" x1="148.16" y1="123.47" x2="77.16" y2="213.47"/><path class="cls-3" d="M28.25,39.75a8.07,8.07,0,0,1-2.45,6.08A9.68,9.68,0,0,1,19,48.3,8.53,8.53,0,0,1,16.65,48c-1.53-.43-2.33-.65-2.4-.65-.8-.16-1.61-.34-2.42-.52A4.41,4.41,0,0,1,9.7,45.65a8.61,8.61,0,0,1-2.2-3.9,20,20,0,0,0-1.6-4,6.67,6.67,0,0,1-1-1.4,2,2,0,0,1,.28-1.47,2,2,0,0,1,1-.93,4.34,4.34,0,0,1,1.1-.1,27,27,0,0,1,4.28.43,7.28,7.28,0,0,1,2.82.77,13.38,13.38,0,0,1,.8,3.6c.3,2,.75,3.12,1.35,3.35a1,1,0,0,0,.45.1c.64,0,1.18-.52,1.63-1.57A9,9,0,0,0,19.35,37q0-4.35-2.7-5.8Q10.46,27.85,8,25a10.34,10.34,0,0,1-2.6-7.8A15.91,15.91,0,0,1,8.08,9.63q2.47-3.83,5.22-4.48,1.15-.24,7,2.2c1,.37,1.94.75,2.93,1.15a5.71,5.71,0,0,1,2.37,1.75c.94,1.17,1.4,3.19,1.4,6.05,0,.54,0,1.32-.05,2.35s-.05,1.54-.05,1.9a6.75,6.75,0,0,0,.35,1.15,2.07,2.07,0,0,1,.2,1.1c-.06,1.47-.68,2.29-1.85,2.45a9.79,9.79,0,0,1-3.7-.75c-2-.63-3.26-1.31-3.8-2.05a2.81,2.81,0,0,1-.1-1c0-.5.06-1.63.18-3.4s.17-3.05.17-3.85c0-1.43-.16-2.13-.5-2.1-1,.07-1.89.81-2.57,2.23a10.87,10.87,0,0,0-1,4.82c0,3,.89,5.14,2.65,6.4l6,3.8a12.3,12.3,0,0,1,4,3.7A13.31,13.31,0,0,1,28.25,39.75Z"/><path class="cls-3" d="M41.55,8a2.84,2.84,0,0,1-.22.95c-.15.4-.25.65-.28.75a23.29,23.29,0,0,0-.6,3.1V43.5a2,2,0,0,0,.3,1.08,1.58,1.58,0,0,1,.3.77q0,3.21-1.2,3.45a11.46,11.46,0,0,1-3.17-.67A12.29,12.29,0,0,1,33.4,46.9a2.54,2.54,0,0,1-1.1-1.75.79.79,0,0,1,.2-.45,1.39,1.39,0,0,0,.2-.85V8.6A1.38,1.38,0,0,0,32.53,8a1.32,1.32,0,0,1-.18-.63c.07-.8.68-1.33,1.85-1.6a11.42,11.42,0,0,1,2.1,0,16.42,16.42,0,0,1,3.2.55C40.87,6.7,41.55,7.27,41.55,8Z"/><path class="cls-3" d="M68.3,18.35a1.78,1.78,0,0,1,.35,1,2,2,0,0,1-.57,1.2,2.37,2.37,0,0,0-.58.9V44.7a3.2,3.2,0,0,0,.33,1,3.34,3.34,0,0,1,.32,1.1c0,.6-.52,1-1.55,1.3a10.36,10.36,0,0,1-3.75-.55c-2.13-.53-3.3-1.06-3.5-1.6a2.52,2.52,0,0,1,.15-1.75,6.18,6.18,0,0,0,.5-1.8,7.48,7.48,0,0,0-.15-1.3,15.62,15.62,0,0,1-2.1,4.45c-1.1,1.54-2.2,2.3-3.3,2.3a11.86,11.86,0,0,1-4.4-1.15c-1.8-.76-2.83-1.46-3.1-2.1Q45.56,41.46,45.55,21a4.77,4.77,0,0,1-.4-1.9A2.1,2.1,0,0,1,46.3,17a3.55,3.55,0,0,1,1.25-.15,19.08,19.08,0,0,1,4.05.53,6.47,6.47,0,0,1,2.85,1.07,1,1,0,0,1,.25.65A4.16,4.16,0,0,1,54,20.88a4.19,4.19,0,0,0-.75,1.77q-.11,19.71.3,19.85c.47.17,1.64-1.37,3.53-4.62s2.82-5.73,2.82-7.43V21.1a2.17,2.17,0,0,1-.65-1.6,2.62,2.62,0,0,1,1.7-2.65,1.48,1.48,0,0,1,.6-.1,18.31,18.31,0,0,1,4,.63A8.07,8.07,0,0,1,68.3,18.35Z"/><path class="cls-3" d="M91,22.4a2.72,2.72,0,0,1-.6,1.6,1.54,1.54,0,0,1-1.2.7,1,1,0,0,1-.35-.05,12.32,12.32,0,0,0-3.15-.25V44.15A8.12,8.12,0,0,1,86,45a4.45,4.45,0,0,1,.32,1.5c0,1-.67,1.49-2,1.55a12.45,12.45,0,0,1-3.85-.9c-2-.66-3.12-1.28-3.25-1.85a3,3,0,0,1,.35-1.47A5.15,5.15,0,0,0,78,42.05V24.35H76.3c-.63,0-1.42-.55-2.35-1.67A4.86,4.86,0,0,1,72.55,20a1.88,1.88,0,0,1,.58-1.35,1.72,1.72,0,0,1,1.27-.6H78v-4.5a3.49,3.49,0,0,1-.75-2.15,1.2,1.2,0,0,1,.9-1.3A6.6,6.6,0,0,1,79.4,10a19.76,19.76,0,0,1,4.33.58A9.07,9.07,0,0,1,87,11.75a.92.92,0,0,1,.35.7,2.94,2.94,0,0,1-.8,1.5,3.89,3.89,0,0,0-.85,1.4v2.7h1.6q.5,0,2.1,1.8C90.42,21.05,91,21.9,91,22.4Z"/><path class="cls-3" d="M123.7,42a5.65,5.65,0,0,1-1.82,4.4,7.56,7.56,0,0,1-5.13,1.7A6.77,6.77,0,0,1,115,47.8c-1.13-.3-1.73-.46-1.8-.5l-1.82-.42a3.73,3.73,0,0,1-1.58-.78,12,12,0,0,1-2.15-2.75Q106.79,42,106,40.5a6.53,6.53,0,0,1-.8-1.75c0-.46.33-.81,1-1a3,3,0,0,1,.9-.1,27.31,27.31,0,0,1,3.78.33,7.77,7.77,0,0,1,2.47.55,11.61,11.61,0,0,1,.55,2.87c.2,1.54.55,2.3,1,2.3.77,0,1.15-1,1.15-3.1q0-3.94-2.1-4.95-4.8-2.25-6.3-4-1.85-2.14-1.85-6.5a10.33,10.33,0,0,1,1.5-5.37,6,6,0,0,1,3.55-3q.9-.19,5.8,1.9a26.92,26.92,0,0,0,2.65.55,3.79,3.79,0,0,1,2.2,1.05,6.37,6.37,0,0,1,1.1,3.65c0,1.24,0,2.47,0,3.7a18.6,18.6,0,0,1,.35,2,1.43,1.43,0,0,1-1.35,1.6A7.61,7.61,0,0,1,119,30.6a6.07,6.07,0,0,1-2.85-1.55,21.23,21.23,0,0,1-.3-3.75c-.1-2.23-.33-3.35-.7-3.35s-1,.65-1.4,1.95a12.82,12.82,0,0,0-.65,4.05c0,1.77.38,2.89,1.15,3.35q2.44,1.35,4.88,2.73a9.74,9.74,0,0,1,3.37,2.82A9.21,9.21,0,0,1,123.7,42Z"/><path class="cls-3" d="M140.45,47.55a2.08,2.08,0,0,1-.95.25c-.87,0-2.32-1-4.35-3V54.4a6.72,6.72,0,0,0,.45,1.43,4.64,4.64,0,0,1,.4,1.52c0,.7-.47,1-1.4,1a14.18,14.18,0,0,1-3.65-.7c-1-.3-1.93-.61-2.9-1a1.84,1.84,0,0,1-1.45-1.55,4.75,4.75,0,0,1,.38-2,11.42,11.42,0,0,0,.47-1.65V19.05a5.29,5.29,0,0,0-.25-2.1c-.5-.83-.65-1.41-.45-1.75s.57-.4,1.3-.4a19.71,19.71,0,0,1,3.45.45c1.77.37,2.72.55,2.85.55a1.67,1.67,0,0,1,1.3,1.2,3.14,3.14,0,0,1,0,.7,45.5,45.5,0,0,1-.6,6.1q1.2-2.4,2.4-4.75,1.6-3,2.95-2.8,9.8,2.05,9.8,12.2A24.51,24.51,0,0,1,147.17,40Q144.1,45.85,140.45,47.55Zm-1.1-23.25q-1.8-.19-4,18.05,2.8-1.24,5.08-5.5a16.93,16.93,0,0,0,2.27-7.9Q142.65,24.71,139.35,24.3Z"/><path class="cls-3" d="M163.4,45.9a1.84,1.84,0,0,1-1.25,2.25,3.29,3.29,0,0,1-.7.05,16.92,16.92,0,0,1-4.45-.75c-1.9-.53-3-1.1-3.35-1.7-.17-.26,0-.78.45-1.55a5.82,5.82,0,0,0,.45-2.75v-21a10.66,10.66,0,0,1-.6-2.55c0-.43.62-.65,1.85-.65a13.83,13.83,0,0,1,4.18.93,8.25,8.25,0,0,1,3.22,1.62.82.82,0,0,1,.15.5,4.09,4.09,0,0,1-.58,1.5,4.18,4.18,0,0,0-.57,1.65v20.1a2.25,2.25,0,0,0,.57,1.25A2.86,2.86,0,0,1,163.4,45.9Zm.15-34.55a1.13,1.13,0,0,1,0,.4,11.89,11.89,0,0,1-.45,2.85c-.33,1.27-.65,2-1,2.1s-1.77-.22-4.3-1.07-3.88-1.46-4.05-1.83a1.45,1.45,0,0,1-.15-.75,6.7,6.7,0,0,1,.7-2.85c.53-1.13,1.13-1.76,1.8-1.9a9.11,9.11,0,0,1,4,.88C162.1,9.9,163.22,10.62,163.55,11.35Z"/><path class="cls-3" d="M177.3,8a2.9,2.9,0,0,1-.23.95q-.23.6-.27.75a23.29,23.29,0,0,0-.6,3.1V43.5a2,2,0,0,0,.3,1.08,1.58,1.58,0,0,1,.3.77q0,3.21-1.2,3.45a11.56,11.56,0,0,1-3.18-.67,12.32,12.32,0,0,1-3.27-1.23,2.54,2.54,0,0,1-1.1-1.75.79.79,0,0,1,.2-.45,1.39,1.39,0,0,0,.2-.85V8.6a1.28,1.28,0,0,0-.18-.62,1.42,1.42,0,0,1-.17-.63c.07-.8.68-1.33,1.85-1.6a11.42,11.42,0,0,1,2.1,0,16.42,16.42,0,0,1,3.2.55C176.62,6.7,177.3,7.27,177.3,8Z"/><path class="cls-3" d="M191.2,8A2.9,2.9,0,0,1,191,9q-.22.6-.27.75a23.29,23.29,0,0,0-.6,3.1V43.5a2,2,0,0,0,.3,1.08,1.58,1.58,0,0,1,.3.77q0,3.21-1.2,3.45a11.56,11.56,0,0,1-3.18-.67,12.16,12.16,0,0,1-3.27-1.23,2.5,2.5,0,0,1-1.1-1.75.73.73,0,0,1,.2-.45,1.39,1.39,0,0,0,.2-.85V8.6a1.28,1.28,0,0,0-.18-.62,1.42,1.42,0,0,1-.17-.63c.06-.8.68-1.33,1.85-1.6a11.42,11.42,0,0,1,2.1,0,16.42,16.42,0,0,1,3.2.55C190.51,6.7,191.2,7.27,191.2,8Z"/><path class="cls-3" d="M215,38.15c.3.5-.35,2-1.95,4.45A16.17,16.17,0,0,1,207.9,48a2.09,2.09,0,0,1-.9.15,15.19,15.19,0,0,1-5.1-1.2c-2.24-.8-3.7-1.66-4.4-2.6q-2.91-3.75-2.9-10.4a23.31,23.31,0,0,1,2.55-11.1q2.74-5.25,7-5.35a10.08,10.08,0,0,1,3.75.8,12.36,12.36,0,0,1,4.45,2.85,6.33,6.33,0,0,1,.85,2.7,23.27,23.27,0,0,1,.5,4.7c0,2.27-.37,3.84-1.1,4.7a39,39,0,0,1-10.5,1.85,17.38,17.38,0,0,0,.6,5.15c.46,1.8,1,2.72,1.45,2.75q1,.06,2.4-1.65a7.33,7.33,0,0,0,1.55-2.45,24.68,24.68,0,0,1,1-3.1,8.59,8.59,0,0,1,3.15.8A6,6,0,0,1,215,38.15Zm-8.9-15.3c-.57-.06-1.36.84-2.38,2.7a14.14,14.14,0,0,0-1.77,5.35,6.33,6.33,0,0,0,3.6-1.1c.53-.4.8-2.06.8-5C206.3,23.57,206.21,22.92,206.05,22.85Z"/><path class="cls-3" d="M235.2,22.4a2.86,2.86,0,0,1-.6,1.6,1.54,1.54,0,0,1-1.2.7.92.92,0,0,1-.35-.05,12.32,12.32,0,0,0-3.15-.25V44.15a7.22,7.22,0,0,1,.32.8,4.26,4.26,0,0,1,.33,1.5c0,1-.67,1.49-2,1.55a12.4,12.4,0,0,1-3.85-.9c-2-.66-3.12-1.28-3.25-1.85a3,3,0,0,1,.35-1.47,5.15,5.15,0,0,0,.45-1.73V24.35h-1.7c-.64,0-1.42-.55-2.35-1.67A4.8,4.8,0,0,1,216.8,20a1.91,1.91,0,0,1,.57-1.35,1.75,1.75,0,0,1,1.28-.6h3.6v-4.5a3.49,3.49,0,0,1-.75-2.15,1.2,1.2,0,0,1,.9-1.3,6.52,6.52,0,0,1,1.25-.1,19.68,19.68,0,0,1,4.32.58,9.14,9.14,0,0,1,3.23,1.17.92.92,0,0,1,.35.7,2.94,2.94,0,0,1-.8,1.5,3.74,3.74,0,0,0-.85,1.4v2.7h1.6q.5,0,2.1,1.8C234.66,21.05,235.2,21.9,235.2,22.4Z"/></svg>
