<svg id="Layer_1" data-name="Layer 1" xmlns="http://www.w3.org/2000/svg" width="1920" height="1080" viewBox="0 0 1920 1080"><defs><style>.cls-1{fill:#b4e0f1;}.cls-2{fill:#8c6239;}.cls-3{opacity:0.16;}.cls-4{fill:#39b54a;}.cls-5{fill:#a67c52;}.cls-6{fill:#009245;}.cls-7{opacity:0.12;}.cls-8{fill:#fff;}.cls-9{fill:#543813;}.cls-10{fill:#754c24;}.cls-11{fill:#f7931e;}.cls-12{fill:#f15a24;}.cls-13,.cls-15,.cls-17,.cls-19,.cls-20,.cls-29{fill:none;}.cls-13{stroke:#f15a24;}.cls-13,.cls-15,.cls-17,.cls-20,.cls-29{stroke-linecap:round;}.cls-13,.cls-15,.cls-17,.cls-19,.cls-20,.cls-23,.cls-29{stroke-miterlimit:10;}.cls-13,.cls-15,.cls-17,.cls-29{stroke-width:2px;}.cls-14{fill:#8cc63f;}.cls-15{stroke:#39b54a;}.cls-16{fill:#ed1c24;}.cls-17{stroke:#ed1c24;}.cls-18{fill:#736357;}.cls-19,.cls-29{stroke:#8c6239;}.cls-20{stroke:#754c24;}.cls-21{fill:#c69c6d;}.cls-22,.cls-23{fill:#666;}.cls-23{stroke:#4d4d4d;stroke-width:0.5px;}.cls-24{fill:#ce7f1e;}.cls-25{fill:#ffbe28;}.cls-26{fill:#ffa78a;}.cls-27{fill:#d27543;}.cls-28{fill:#805f14;}.cls-30{fill:#e6e6e6;}.cls-31{fill:#534741;}.cls-32{fill:#ccc;}.cls-33{fill:#998675;}</style></defs><title>spil_skaerm</title><rect class="cls-1" width="1920" height="1080"/><path class="cls-2" d="M708.12,793.72V852c0,1-8,1.72-17.69,1.72H642.61c-9.73,0-17.7-.77-17.7-1.72v-58.3c0-1,8-1.72,17.7-1.72h47.82C700.16,792,708.12,792.77,708.12,793.72Z"/><path class="cls-3" d="M666.77,792v61.74H642.61c-9.73,0-17.7-.77-17.7-1.72v-58.3c0-1,8-1.72,17.7-1.72Z"/><polygon class="cls-4" points="901.16 801.23 642.24 794.89 383.32 788.53 535.63 579.98 651.36 421.5 651.4 421.45 759.26 585.46 901.16 801.23"/><polygon class="cls-4" points="811.07 392.94 652.15 389.06 587.02 387.45 492.73 385.15 657.53 159.47 657.75 159.81 811.07 392.94"/><polygon class="cls-4" points="849.51 587.66 759.26 585.46 647.42 582.71 448 577.84 587.02 387.45 654.45 295.13 655.85 293.21 719.97 390.72 849.51 587.66"/><polygon class="cls-3" points="657.75 159.81 642.24 794.89 383.32 788.53 535.63 579.98 448 577.84 587.02 387.45 492.73 385.15 657.53 159.47 657.75 159.81"/><rect class="cls-5" x="96.55" y="751.34" width="82.84" height="98.66" rx="8.9"/><polygon class="cls-6" points="366 792.56 179.39 792.54 127.46 792.54 96.55 792.53 -80.98 792.51 -3.87 658.99 77.95 517.3 127.46 431.56 142.54 405.45 207.12 517.32 288.92 659.01 366 792.56"/><polygon class="cls-6" points="329.95 659.02 288.92 659.01 127.46 659 -3.87 658.99 -61.69 658.98 20.13 517.3 102.56 374.55 127.46 331.43 134.16 319.83 165.75 374.56 248.16 517.32 329.95 659.02"/><polygon class="cls-6" points="290.47 517.32 248.16 517.32 207.12 517.32 127.46 517.31 77.95 517.3 20.13 517.3 -34.24 517.29 48.19 374.54 127.46 237.26 128.14 236.09 208.06 374.56 290.47 517.32"/><polygon class="cls-6" points="243.61 374.56 208.06 374.56 165.75 374.56 127.46 374.55 102.56 374.55 48.19 374.54 11.99 374.54 127.46 174.58 127.82 173.96 243.61 374.56"/><rect class="cls-6" x="69.48" y="190.54" width="24.48" height="185.45" rx="12" transform="matrix(0.87, 0.5, -0.5, 0.87, 152.58, -2.91)"/><path class="cls-7" d="M127.46,174.58V850h-22a8.93,8.93,0,0,1-8.9-8.9V792.53l-177.53,0L-3.87,659H-61.69L20.13,517.3H-34.24L48.19,374.54H12Z"/><ellipse class="cls-8" cx="1178.24" cy="118.37" rx="94.24" ry="73.21"/><ellipse class="cls-8" cx="1394.76" cy="183.79" rx="94.24" ry="73.21"/><ellipse class="cls-8" cx="1315.32" cy="87.21" rx="94.24" ry="73.21"/><ellipse class="cls-8" cx="1242.11" cy="183.79" rx="94.24" ry="73.21"/><rect class="cls-5" x="1380.11" y="762.99" width="98.66" height="82.84" rx="8.9" transform="translate(583.14 2209.45) rotate(-88.31)"/><polygon class="cls-6" points="1657.61 803.04 1471.08 797.5 1419.18 795.97 1388.28 795.05 1210.83 789.79 1291.85 658.6 1377.82 519.39 1429.85 435.15 1445.69 409.49 1506.93 523.22 1584.51 667.28 1657.61 803.04"/><polygon class="cls-6" points="1625.53 668.5 1584.51 667.28 1423.12 662.49 1291.85 658.6 1234.05 656.88 1320.02 517.68 1406.64 377.43 1432.8 335.07 1439.84 323.67 1469.8 379.3 1547.95 524.43 1625.53 668.5"/><polygon class="cls-6" points="1590.25 525.69 1547.95 524.43 1506.93 523.22 1427.31 520.86 1377.82 519.39 1320.02 517.68 1265.68 516.07 1352.29 375.81 1435.59 240.94 1436.3 239.79 1512.1 380.56 1590.25 525.69"/><polygon class="cls-6" points="1547.63 381.61 1512.1 380.56 1469.8 379.3 1431.53 378.16 1406.64 377.43 1352.29 375.81 1316.11 374.74 1437.44 178.28 1437.81 177.68 1547.63 381.61"/><rect class="cls-6" x="1376.27" y="192.84" width="24.48" height="185.45" rx="12" transform="translate(357.1 -686.9) rotate(31.69)"/><path class="cls-7" d="M1437.44,178.28l-20,675.13-22-.65a8.94,8.94,0,0,1-8.64-9.16l1.44-48.55-177.45-5.26,81-131.19-57.8-1.71,86-139.21-54.34-1.61,86.61-140.26-36.18-1.07Z"/><rect class="cls-9" x="-3" y="848" width="1925" height="232"/><rect class="cls-5" x="367.69" y="805.89" width="111.67" height="133" rx="12" transform="translate(-38.49 19.76) rotate(-2.56)"/><polygon class="cls-6" points="730.12 847.76 478.82 858.95 408.89 862.07 367.26 863.92 128.19 874.57 224 690.12 325.67 494.39 387.19 375.95 405.93 339.88 499.61 486.65 618.28 672.55 730.12 847.76"/><polygon class="cls-6" points="673.55 670.09 618.28 672.55 400.86 682.24 224 690.12 146.13 693.59 247.79 497.87 350.22 300.68 381.17 241.12 389.49 225.09 435.32 296.89 554.88 484.18 673.55 670.09"/><polygon class="cls-6" points="611.86 481.65 554.88 484.18 499.61 486.65 392.34 491.43 325.67 494.39 247.79 497.87 174.58 501.13 277 303.94 375.5 114.3 376.34 112.68 492.3 294.35 611.86 481.65"/><polygon class="cls-6" points="540.17 292.22 492.3 294.35 435.32 296.89 383.76 299.18 350.22 300.68 277 303.94 228.26 306.11 371.73 29.89 372.18 29.04 540.17 292.22"/><rect class="cls-6" x="300.18" y="54.01" width="33" height="249.98" rx="12" transform="translate(118.13 -125.8) rotate(27.44)"/><path class="cls-7" d="M371.73,29.89l40.61,909.56-29.64,1.32a12,12,0,0,1-12.52-11.45l-2.92-65.4L128.19,874.57,224,690.12l-77.87,3.47L247.79,497.87l-73.21,3.26L277,303.94l-48.74,2.17Z"/><path class="cls-10" d="M186.94,302.59l-105.41-135a2.44,2.44,0,0,1,1.15-3.82L878.62-102.33a2.44,2.44,0,0,1,2,4.43L190.09,303.19A2.43,2.43,0,0,1,186.94,302.59Z"/><path class="cls-10" d="M240.43,157.48,200,189l-7.48,5.82-17.76,13.84-38.05,29.65-3.72,2.9L97.72,268.68a3.16,3.16,0,0,1-3.34.33L65,254.42-231.66,107.26l-57.12-28.33L-414.19,16.71a3.16,3.16,0,0,1,2.07-5.91l169.2,36.66,39.72,8.61L-5.87,98.82l108.2,23.44.65.15,30,6.5,32.77,7.1,26.77,5.8h.05l26.33,5.7,20.24,4.39A3.15,3.15,0,0,1,240.43,157.48Z"/><path class="cls-10" d="M198.87,136.88l-6.28,4.89-.05,0L142,181.19l-3,2.35-6,4.67-22,17.14-11.94,9.3-18,14a2.89,2.89,0,0,1-4.21-.73L65,209.38-5.87,98.82-90.33-33-266.16-307.44a2.89,2.89,0,0,1,4.44-3.65l175,168.41L-52.88-110l2.93,2.81L-27-85.1l.58.56,16.63,16L27.16-33,120.3,56.66,133,68.89l10,9.65,50.17,48.3,1,.92,4.93,4.75A2.9,2.9,0,0,1,198.87,136.88Z"/><path class="cls-10" d="M256.38-429.83,207.53,7.88,194.3,126.47l-.14,1.29-1.57,14v0l-4.13,37a1.41,1.41,0,0,1-.88,1.14l-3.19,1.25-31.27,12.26L133,201.34l-19.24,7.55-14.7,5.76L77,223.32a1.39,1.39,0,0,1-1.84-1.66l11.08-40.47,1.55-5.63,4.05-14.82,2.37-8.66L102,123.49l.34-1.23,18-65.6L132,13.81l1-3.55,15.52-56.67L162-95.68l7.89-28.79,2.19-8,.53-2h0l.28-1,6.34-23.14,74.41-271.74A1.39,1.39,0,0,1,256.38-429.83Z"/><path class="cls-10" d="M179.85,212.21,85.22,145.8a2.36,2.36,0,0,1-.39-3.51L423.69-228.9a2.36,2.36,0,0,1,3.8,2.74L183.25,211.43A2.35,2.35,0,0,1,179.85,212.21Z"/><path class="cls-10" d="M579.38,31.5l-40,29.08a2.21,2.21,0,0,1-3.24-.73L434.4-127.32a2.21,2.21,0,0,1,3.58-2.53L579.72,28.24A2.2,2.2,0,0,1,579.38,31.5Z"/><path class="cls-10" d="M396.18,160.29,423,121.47a3.22,3.22,0,0,1,4.81-.56L578.59,257.16a3.22,3.22,0,0,1-3.7,5.21L397.28,164.94A3.22,3.22,0,0,1,396.18,160.29Z"/><path class="cls-10" d="M177.67-10.65l-40.43,29.4a2,2,0,0,1-2.88-.65L133,15.6l-1-1.79L106.58-33,31.45-171.19a2,2,0,0,1,3.18-2.24l47.29,52.75L106.2-93.61l42.32,47.2L178-13.55A2,2,0,0,1,177.67-10.65Z"/><circle class="cls-11" cx="569.96" cy="993.4" r="17.03"/><circle class="cls-11" cx="517.02" cy="977.38" r="17.03"/><circle class="cls-11" cx="530.2" cy="958.98" r="17.03"/><circle class="cls-11" cx="539.8" cy="990.63" r="17.03"/><circle class="cls-11" cx="553.77" cy="970.95" r="17.03"/><path class="cls-12" d="M563.81,990.47c-15.53-15-58-37.79-50.68-29.67Z"/><path class="cls-13" d="M501.05,963.46c3.7-4.6,9.62-6,13.24-3.06"/><circle class="cls-11" cx="661.25" cy="60.29" r="20.17"/><circle class="cls-11" cx="599.25" cy="39.12" r="20.17"/><circle class="cls-11" cx="599.23" cy="65.92" r="20.17"/><circle class="cls-11" cx="630.32" cy="42.11" r="20.17"/><circle class="cls-11" cx="630.17" cy="70.69" r="20.17"/><path class="cls-12" d="M653.31,58.86c-25.26,3.65-81.94-3.76-69.25-6.48Z"/><path class="cls-13" d="M574.28,41.47c.38,7,5.14,12.39,10.62,12.09"/><circle class="cls-11" cx="923.65" cy="969.82" r="14.35"/><circle class="cls-11" cx="907.78" cy="1013.64" r="14.35"/><circle class="cls-11" cx="892.91" cy="1001.72" r="14.35"/><circle class="cls-11" cx="919.96" cy="995.08" r="14.35"/><circle class="cls-11" cx="904.04" cy="982.43" r="14.35"/><path class="cls-12" d="M920.91,974.87c-13.28,12.38-34.41,47.12-27.25,41.29Z"/><path class="cls-13" d="M895.35,1026.45c-3.7-3.32-4.58-8.37-2-11.28"/><circle class="cls-14" cx="463.02" cy="250.53" r="10.67"/><circle class="cls-14" cx="467.73" cy="216.18" r="10.67"/><circle class="cls-14" cx="453.81" cy="218.89" r="10.67"/><circle class="cls-14" cx="469.33" cy="232.62" r="10.67"/><circle class="cls-14" cx="454.47" cy="235.44" r="10.67"/><path class="cls-4" d="M462.44,246.33c-4.46-12.75-6.36-42.94-3.66-36.62Z"/><path class="cls-15" d="M463.5,202.53c-3.65.54-6.28,3.31-5.85,6.18"/><circle class="cls-12" cx="591.88" cy="169.61" r="20.17"/><circle class="cls-12" cx="555.01" cy="115.45" r="20.17"/><circle class="cls-12" cx="538.9" cy="136.86" r="20.17"/><circle class="cls-12" cx="578.06" cy="136.5" r="20.17"/><circle class="cls-12" cx="560.78" cy="159.26" r="20.17"/><path class="cls-16" d="M586.39,163.69c-22.4-12.25-63.27-52.21-51.49-46.76Z"/><path class="cls-17" d="M533.63,102.34c-3.89,5.8-3.33,13,1.23,16"/><circle class="cls-11" cx="858.24" cy="1019.51" r="20.17"/><circle class="cls-11" cx="812.22" cy="972.89" r="20.17"/><circle class="cls-11" cx="836.34" cy="961.21" r="20.17"/><circle class="cls-11" cx="828.42" cy="999.56" r="20.17"/><circle class="cls-11" cx="854.1" cy="987" r="20.17"/><path class="cls-12" d="M853.5,1013c-7.7-24.34-39-72.15-35.94-59.54Z"/><path class="cls-13" d="M803.48,949.37c6.45-2.69,13.39-.76,15.5,4.31"/><circle class="cls-12" cx="1782.06" cy="976.38" r="17.85"/><circle class="cls-12" cx="1738.85" cy="1015.04" r="17.85"/><circle class="cls-12" cx="1759.52" cy="1026.67" r="17.85"/><circle class="cls-12" cx="1754.63" cy="992.37" r="17.85"/><circle class="cls-12" cx="1776.62" cy="1004.87" r="17.85"/><path class="cls-16" d="M1777.51,981.88c-8.13,21.08-38.41,61.6-35,50.63"/><path class="cls-17" d="M1729.85,1035.33c5.55,2.73,11.78,1.4,13.93-3"/><circle class="cls-14" cx="353.95" cy="30.17" r="20.17"/><circle class="cls-14" cx="288.59" cy="34.53" r="20.17"/><circle class="cls-14" cx="298.89" cy="59.27" r="20.17"/><circle class="cls-14" cx="318.41" cy="25.32" r="20.17"/><circle class="cls-14" cx="329.29" cy="51.75" r="20.17"/><path class="cls-4" d="M346.41,32.86C324.51,46,269.35,61,280,53.57Z"/><path class="cls-15" d="M264.93,47.56c2.39,6.56,8.51,10.36,13.67,8.49"/><polygon class="cls-6" points="1249.53 917.11 1230.83 836.57 1235.83 918.86 1249.53 917.11"/><polygon class="cls-6" points="1252.08 915.49 1213.74 842.24 1239.26 920.62 1252.08 915.49"/><polygon class="cls-6" points="1251.21 915.36 1252.52 832.69 1237.49 913.74 1251.21 915.36"/><polygon class="cls-6" points="1247.6 912.67 1270.35 872.1 1241.27 908.58 1247.6 912.67"/><polygon class="cls-6" points="1246.6 934.62 1157.16 856.59 1258.05 918.44 1246.6 934.62"/><polygon class="cls-6" points="1242.82 936.76 1175.87 838.75 1257.98 923.98 1242.82 936.76"/><polygon class="cls-6" points="1243.24 935.57 1137.6 881.45 1250.45 917.1 1243.24 935.57"/><polygon class="cls-6" points="1242.28 929.18 1175.51 930.64 1241.35 918.4 1242.28 929.18"/><polygon class="cls-6" points="462.37 937.3 481.22 867.68 451.12 932.99 462.37 937.3"/><polygon class="cls-6" points="465 937.11 465.75 864.99 453.03 935.76 465 937.11"/><polygon class="cls-6" points="464.39 936.65 499.49 873.64 454.51 929.75 464.39 936.65"/><polygon class="cls-6" points="462.72 933.1 496.95 911.29 459.54 927.34 462.72 933.1"/><ellipse class="cls-6" cx="458.26" cy="934.83" rx="4.3" ry="7.08" transform="translate(-574.69 1064.92) rotate(-71.06)"/><polygon class="cls-6" points="1787.37 937.3 1806.22 867.68 1776.12 932.99 1787.37 937.3"/><polygon class="cls-6" points="1790 937.11 1790.75 864.99 1778.03 935.76 1790 937.11"/><polygon class="cls-6" points="1789.39 936.65 1824.49 873.64 1779.51 929.75 1789.39 936.65"/><polygon class="cls-6" points="1787.72 933.1 1821.95 911.29 1784.54 927.34 1787.72 933.1"/><ellipse class="cls-6" cx="1780.71" cy="934.98" rx="4.3" ry="7.56" transform="translate(318.46 2315.9) rotate(-71.06)"/><path class="cls-10" d="M188.4,565.26,180,516.56A2.2,2.2,0,0,1,182,514l212.86-8.75a2.21,2.21,0,0,1,.69,4.34L191.18,567A2.21,2.21,0,0,1,188.4,565.26Z"/><polygon class="cls-6" points="71.58 937.49 71.2 937.6 68.28 938.48 64.97 939.48 57.71 941.66 55.08 942.45 54.95 941.76 54.6 939.93 54.03 937 53.96 936.65 53.73 935.44 52.26 927.81 51.54 924.05 47.73 904.33 35.57 841.2 54.55 891.94 64.97 919.81 66.87 924.88 71.4 937 71.58 937.49"/><polygon class="cls-6" points="68.57 941.25 64.98 941.39 57.71 941.66 54.95 941.76 51.68 941.89 51.36 941.9 51.5 939.64 51.67 937 51.86 934.05 52.26 927.81 52.47 924.54 53.24 912.35 54.55 891.94 57.92 839 64.97 906.69 66.87 924.88 67.82 934.06 68.13 937 68.28 938.48 68.57 941.25"/><polygon class="cls-6" points="67.09 932.51 65.58 933.4 64.97 933.77 59.53 937 54.6 939.93 52.28 941.31 51.75 940.16 51.5 939.64 50.28 937 47.35 930.68 41.97 919.09 8.89 847.77 47.73 904.33 53.24 912.35 64.97 929.42 67.09 932.51"/><polygon class="cls-6" points="60.17 928.54 55.77 935.3 55.04 936.42 54.61 936.1 53.73 935.44 51.86 934.05 47.35 930.68 8.54 901.72 41.97 919.09 51.54 924.05 52.47 924.54 60.17 928.54"/><ellipse class="cls-6" cx="61.47" cy="939.93" rx="10" ry="6.5" transform="translate(-210.87 38.22) rotate(-13.06)"/><polygon class="cls-6" points="346.15 937.1 309.11 840.88 361.52 929.32 346.15 937.1"/><polygon class="cls-6" points="342.39 937.22 330.71 834.77 359.21 933.54 342.39 937.22"/><polygon class="cls-6" points="343.19 936.47 284 852.04 356.22 925.21 343.19 936.47"/><polygon class="cls-6" points="345.04 931.17 293.16 905.21 348.71 922.52 345.04 931.17"/><ellipse class="cls-6" cx="352" cy="933.5" rx="10" ry="6.5" transform="translate(-339.44 214.31) rotate(-23.21)"/><path class="cls-10" d="M200.78,193.19V941a12,12,0,0,1-9.59,11.76h0a12.16,12.16,0,0,1-2.35.23H77a12,12,0,0,1-11.19-7.69,11.71,11.71,0,0,1-.8-3.92c0-.13,0-.26,0-.39V193.19a12,12,0,0,1,12-12H188.78a11.93,11.93,0,0,1,9,4.14,11.94,11.94,0,0,1,3,7.86Z"/><circle class="cls-11" cx="219.03" cy="920.08" r="20.17"/><circle class="cls-11" cx="186.35" cy="976.87" r="20.17"/><circle class="cls-11" cx="168.67" cy="956.73" r="20.17"/><circle class="cls-11" cx="207.74" cy="954.14" r="20.17"/><circle class="cls-11" cx="188.79" cy="932.74" r="20.17"/><path class="cls-12" d="M214,926.39c-21.41,13.91-59.15,56.84-47.81,50.51Z"/><path class="cls-13" d="M166,991.55c-4.31-5.49-4.3-12.7,0-16.09"/><rect class="cls-5" x="1656.19" y="799.01" width="111.67" height="133" rx="12" transform="translate(-25.57 52.55) rotate(-1.75)"/><polygon class="cls-6" points="2018.93 845.22 1767.5 852.85 1697.53 854.98 1655.88 856.24 1416.68 863.51 1515.09 680.44 1619.52 486.17 1682.71 368.61 1701.95 332.81 1793.56 480.88 1909.59 668.45 2018.93 845.22"/><polygon class="cls-6" points="1964.88 666.77 1909.59 668.45 1692.05 675.06 1515.09 680.44 1437.18 682.8 1541.61 488.54 1646.81 292.82 1678.6 233.7 1687.14 217.79 1731.95 290.23 1848.85 479.2 1964.88 666.77"/><polygon class="cls-6" points="1905.87 477.47 1848.85 479.2 1793.56 480.88 1686.23 484.14 1619.52 486.17 1541.61 488.54 1468.35 490.76 1573.56 295.04 1674.73 106.82 1675.59 105.21 1788.97 288.5 1905.87 477.47"/><polygon class="cls-6" points="1836.86 287.04 1788.97 288.5 1731.95 290.23 1680.37 291.79 1646.81 292.82 1573.56 295.04 1524.79 296.52 1672.15 22.36 1672.61 21.52 1836.86 287.04"/><rect class="cls-6" x="1598.49" y="45.69" width="33" height="249.98" rx="12" transform="translate(273.22 -744.18) rotate(28.25)"/><path class="cls-7" d="M1672.15,22.36l27.74,910.05-29.66.9a12,12,0,0,1-12.36-11.63l-2-65.44-239.2,7.27,98.41-183.07-77.91,2.36,104.43-194.26-73.26,2.22L1573.56,295l-48.77,1.49Z"/><path class="cls-18" d="M1792,939H1236c0-41.42,124.46-75,278-75S1792,897.58,1792,939Z"/><rect class="cls-2" x="1814" y="120" width="64" height="903"/><ellipse class="cls-5" cx="1846" cy="120" rx="32" ry="11"/><ellipse class="cls-2" cx="1846" cy="1022.5" rx="32" ry="9.5"/><ellipse class="cls-19" cx="1846.47" cy="119.25" rx="27.53" ry="8.25"/><ellipse class="cls-19" cx="1846.75" cy="119.25" rx="17.75" ry="5.25"/><ellipse class="cls-19" cx="1846.56" cy="119.75" rx="4.94" ry="1.75"/><rect class="cls-2" x="1786.14" y="380.2" width="55" height="61.28" transform="translate(551.02 1776.08) rotate(-60)"/><line class="cls-20" x1="1825" y1="388" x2="1804.5" y2="374.5"/><ellipse class="cls-2" cx="1836.69" cy="431.33" rx="27.5" ry="3" transform="translate(294.01 1517.44) rotate(-48.36)"/><ellipse class="cls-5" cx="1789.67" cy="395.82" rx="27.74" ry="16.89" transform="translate(304.78 1470.38) rotate(-48.36)"/><ellipse class="cls-19" cx="1786.47" cy="395.08" rx="23.74" ry="12.42" transform="translate(302.52 1465.35) rotate(-48.27)"/><ellipse class="cls-19" cx="1785.8" cy="394.76" rx="17.64" ry="9.23" transform="translate(302.54 1464.73) rotate(-48.27)"/><ellipse class="cls-19" cx="1784.43" cy="393.17" rx="9.04" ry="4.73" transform="translate(303.27 1463.18) rotate(-48.27)"/><rect class="cls-21" x="1722.49" y="456.88" width="201.24" height="109.67" rx="12" transform="matrix(0.98, -0.17, 0.17, 0.98, -61.23, 325.04)"/><polygon class="cls-22" points="1828.7 469.84 1821 470 1823 464 1829.03 468.92 1828.7 469.84"/><circle class="cls-23" cx="1821" cy="467" r="4.5"/><path d="M1735,518.06a2.51,2.51,0,0,1-.12,1,.79.79,0,0,1-.69.54,2.17,2.17,0,0,1-1.5-.34c-.46-.3-.71-.57-.76-.82q-.74-4.07-1.85-8.22c-.75-2.77-1.61-5.52-2.58-8.23a.94.94,0,0,1,0-.44c0-.13.08-.29.14-.48a1.7,1.7,0,0,1,.38-.58.86.86,0,0,1,.73-.1,2.86,2.86,0,0,1,.87.41,4.65,4.65,0,0,1,.82.72,4.42,4.42,0,0,1,.59.8c.21.61.44,1.27.68,2s.46,1.49.68,2.28a18.39,18.39,0,0,0,1.88-1.76,10.86,10.86,0,0,0,1.48-2,7.18,7.18,0,0,0,.83-2.07,3.63,3.63,0,0,0-.1-2,2.58,2.58,0,0,0-1-1.31,3.86,3.86,0,0,0-2-.61,11.06,11.06,0,0,0-5.19.93,15.13,15.13,0,0,0-4,2.78,2.64,2.64,0,0,1-1,.77,1.76,1.76,0,0,1-.9.13,1.17,1.17,0,0,1-.64-.31,1,1,0,0,1-.29-.53,2.92,2.92,0,0,1,.67-2.13,11.89,11.89,0,0,1,1.74-1.86,15.93,15.93,0,0,1,3.23-1.84,15.2,15.2,0,0,1,4.05-1.14,10.22,10.22,0,0,1,4.09.25,6.12,6.12,0,0,1,3.34,2.3,6.94,6.94,0,0,1,1.21,4.12,9,9,0,0,1-1.09,3.74,16.75,16.75,0,0,1-2.44,3.39c-1,1.08-1.92,2.07-2.8,3,.32,1.35.62,2.68.89,4S1734.84,516.94,1735,518.06Z"/><path d="M1760.74,502.79a8.18,8.18,0,0,1-.52,2.69A14.39,14.39,0,0,1,1759,508a11.36,11.36,0,0,1-1.69,2.17,10.76,10.76,0,0,1-2,1.59,8.8,8.8,0,0,1-4,1.28,6.19,6.19,0,0,1-4-1.15,8,8,0,0,1-2.08-2.64,12.26,12.26,0,0,1-1.06-3.25,12.84,12.84,0,0,1-.17-3.38,13.5,13.5,0,0,1,.59-3.06,9.2,9.2,0,0,1,1.53-2.86,5.11,5.11,0,0,1,2.33-1.66.59.59,0,0,1,.65.07,1,1,0,0,1,.36.61,3,3,0,0,1,1.3-1,5.84,5.84,0,0,1,2.19-.47,6.91,6.91,0,0,1,3.8.67,6.81,6.81,0,0,1,2.41,2.12,7.54,7.54,0,0,1,1.23,2.85A12,12,0,0,1,1760.74,502.79Zm-11.4-4.46a4.06,4.06,0,0,0-1.32,1.53,7.3,7.3,0,0,0-.67,2,8.85,8.85,0,0,0-.09,2.31,13.22,13.22,0,0,0,.43,2.32,5,5,0,0,0,1.49,2.49,3.21,3.21,0,0,0,2.82.54,5.46,5.46,0,0,0,2-.79,7.55,7.55,0,0,0,1.63-1.4,8.49,8.49,0,0,0,1.24-1.86,8.83,8.83,0,0,0,.75-2.1,6,6,0,0,0,.13-1.36,7.4,7.4,0,0,0-.21-1.6,4.79,4.79,0,0,0-.68-1.49,3.15,3.15,0,0,0-1.27-1.06,4.86,4.86,0,0,0-2.49-.39,5.24,5.24,0,0,0-2.73,1.16.69.69,0,0,1-.61.19C1749.46,498.83,1749.34,498.65,1749.34,498.33Z"/><path d="M1771.29,506.84a2,2,0,0,1,.15.53,2,2,0,0,1,0,.73,2,2,0,0,1-.28.68,1,1,0,0,1-.68.4,6,6,0,0,1-2-1.39c-.43-.89-.86-1.92-1.3-3.09s-.84-2.41-1.22-3.7-.73-2.63-1-4-.57-2.68-.79-4a7.17,7.17,0,0,1-.09-.85,4.6,4.6,0,0,1,.06-1,2.91,2.91,0,0,1,.31-.93,1,1,0,0,1,.72-.51,1.39,1.39,0,0,1,1.05.19,1.69,1.69,0,0,1,.61,1.14c.21,1.25.47,2.57.79,4s.68,2.81,1.08,4.21.83,2.76,1.3,4.08S1770.83,505.81,1771.29,506.84Z"/><path d="M1790.69,487.43c.3,2.68.56,5.43.8,8.23s.34,5.47.31,8a2.87,2.87,0,0,1-.27,1.36,1.75,1.75,0,0,1-.83.69,2.64,2.64,0,0,1-1.49-.05,4.05,4.05,0,0,1-1.75-.92c-.66-.61-1.38-1.28-2.15-2s-1.59-1.48-2.46-2.23-1.77-1.49-2.7-2.21a28,28,0,0,0-2.87-2c.3,2.07.62,4.11.94,6.13s.71,4,1.17,6c0,.28-.17.47-.67.56a1.66,1.66,0,0,1-1.62-.63,4.3,4.3,0,0,1-1-1.71,18,18,0,0,1-.66-2.65c-.23-1.17-.44-2.39-.64-3.67s-.38-2.52-.55-3.72-.28-2.13-.35-2.83a2.81,2.81,0,0,1,.22-1.73c.23-.4.48-.61.77-.64a1.67,1.67,0,0,1,1.34.3,2.28,2.28,0,0,1,.56,1,27.29,27.29,0,0,1,3.6,2,37.5,37.5,0,0,1,3.16,2.34c1,.81,1.9,1.62,2.75,2.44s1.64,1.56,2.38,2.22a62.18,62.18,0,0,0-.3-6.42c-.21-2.34-.43-4.8-.67-7.36a1.09,1.09,0,0,1,.38-1,1.71,1.71,0,0,1,1.05-.61A1.22,1.22,0,0,1,1790.69,487.43Z"/><path d="M1813.53,483.55a35,35,0,0,0-9.08,2.53,60.89,60.89,0,0,0-8.25,4.35,1.63,1.63,0,0,1-1.72.23,1.45,1.45,0,0,1-.78-.91,3,3,0,0,1,.89-1.67,33.88,33.88,0,0,1,18.44-7.14,1.37,1.37,0,0,1,.9.52,1.27,1.27,0,0,1,.38.87,2.26,2.26,0,0,1-.13.83C1814.1,483.38,1813.88,483.51,1813.53,483.55Zm-3.47,17.54a1.36,1.36,0,0,1-.17,1,1.49,1.49,0,0,1-.77.65c-.6.22-1,.19-1.28-.09a2.5,2.5,0,0,1-.53-1q-.68-3.25-1.37-6.48c-.47-2.15-1-4.29-1.56-6.44a3.9,3.9,0,0,0-.13-.43,1.34,1.34,0,0,1-.1-.52.9.9,0,0,1,.12-.48,1.14,1.14,0,0,1,.48-.38,1.6,1.6,0,0,1,1.61.05,1.69,1.69,0,0,1,.67,1q1,3.28,1.75,6.57C1809.27,496.67,1809.7,498.87,1810.06,501.09Z"/><path d="M1825.22,483.22a2.13,2.13,0,0,1,.71,1.41,2.83,2.83,0,0,1-.14,1.53,3.25,3.25,0,0,1-1.16,1.14,3.12,3.12,0,0,1-2.43,0,1.16,1.16,0,0,1-.56-.38,2.68,2.68,0,0,1-.52-.82,3.11,3.11,0,0,1-.26-1.08,2.39,2.39,0,0,1,.27-1.24,1.92,1.92,0,0,1,.84-.91,2.56,2.56,0,0,1,1.13-.29,3.26,3.26,0,0,1,1.16.16A3.9,3.9,0,0,1,1825.22,483.22Zm2.4,12.45a1.6,1.6,0,0,1,.13,1.42,2.13,2.13,0,0,1-.83.93,2,2,0,0,1-1,.31,1,1,0,0,1-.8-.25,2.1,2.1,0,0,1-1.22-.59,2.35,2.35,0,0,1-.59-1,2.77,2.77,0,0,1,.34-2.46,2,2,0,0,1,2.18-.74,3.27,3.27,0,0,1,1.53.77A1.33,1.33,0,0,1,1827.62,495.67Z"/><rect class="cls-21" x="1739.31" y="645.59" width="166.37" height="116.6" rx="12" transform="translate(119.35 -253.31) rotate(8.22)"/><polygon class="cls-22" points="1839.2 665.28 1833.02 661.24 1837.67 658.45 1839.87 664.64 1839.2 665.28"/><circle class="cls-23" cx="1834.83" cy="659.33" r="4.19"/><path d="M1763.94,657c-.35,1.15-.7,2.43-1.06,3.84l-1.07,4.28c-.36,1.45-.7,2.85-1,4.22s-.61,2.56-.84,3.59c1.18,0,2.49-.07,3.93-.12l4.39-.18c1.5-.07,3-.1,4.39-.11s2.73,0,3.89.11a.89.89,0,0,1,.34.15.71.71,0,0,1,.3.72,1.65,1.65,0,0,1-.4.95,1.81,1.81,0,0,1-.69.41c-.25.08-.51.16-.78.22a2,2,0,0,0-.75.35l-3.57.33-4,.32-4.08.31c-1.36.1-2.63.21-3.83.34a2.18,2.18,0,0,1-2.29-.92,4.38,4.38,0,0,1-.17-3.23c.58-2.7,1.21-5.41,1.86-8.12s1.36-5.4,2.12-8.07a2.52,2.52,0,0,1,.8-1.33,1.91,1.91,0,0,1,1.28-.48c.79,0,1.23.29,1.3.8A4.47,4.47,0,0,1,1763.94,657Z"/><path d="M1784.62,676.53a2.61,2.61,0,0,1,0,.58,2,2,0,0,1-.26.74,2.14,2.14,0,0,1-.53.59,1.08,1.08,0,0,1-.83.16,6.23,6.23,0,0,1-1.58-2.16c-.12-1.05-.18-2.25-.2-3.6s0-2.74.1-4.2.21-2.92.39-4.41.39-2.92.63-4.3a7.52,7.52,0,0,1,.22-.89,4.58,4.58,0,0,1,.44-1,3.47,3.47,0,0,1,.65-.83,1.06,1.06,0,0,1,.91-.25,1.47,1.47,0,0,1,1,.57,1.78,1.78,0,0,1,.2,1.37c-.24,1.35-.45,2.79-.63,4.33s-.33,3.09-.43,4.66-.16,3.11-.16,4.61S1784.53,675.3,1784.62,676.53Z"/><path d="M1808.86,666.12a80.91,80.91,0,0,1-5.08,8,53.29,53.29,0,0,1-5.58,6.59,1.84,1.84,0,0,1-3-.2,6,6,0,0,1-.55-1.17c-.27-.9-.56-2-.85-3.39s-.56-2.71-.8-4.08-.44-2.6-.62-3.71-.3-1.86-.37-2.25a6.77,6.77,0,0,1-.6-.82,4,4,0,0,1-.51-1.09,2.34,2.34,0,0,1-.09-1.07,1.2,1.2,0,0,1,.59-.84,2.11,2.11,0,0,1,1.29,0,2.68,2.68,0,0,1,1,.63,4.17,4.17,0,0,1,.77,1,7.18,7.18,0,0,1,.51,1.06l.51,2.8c.18,1,.37,2.12.56,3.24s.38,2.2.56,3.26.36,2,.54,2.88a24.82,24.82,0,0,0,2.33-2.57c.83-1,1.67-2.11,2.52-3.26s1.67-2.32,2.48-3.52,1.55-2.34,2.23-3.41a3.46,3.46,0,0,1,1-1.08,1.28,1.28,0,0,1,1.17-.23,1.19,1.19,0,0,1,.62,1.23A4.89,4.89,0,0,1,1808.86,666.12Z"/><path d="M1818.57,681.41a1.73,1.73,0,0,1-.39,1.49,2.3,2.3,0,0,1-1.18.65,2.18,2.18,0,0,1-1.11,0,1.1,1.1,0,0,1-.71-.55,2.2,2.2,0,0,1-1-1,2.52,2.52,0,0,1-.22-1.27,3,3,0,0,1,1.24-2.37,2.2,2.2,0,0,1,2.47,0,3.48,3.48,0,0,1,1.27,1.34A1.43,1.43,0,0,1,1818.57,681.41Zm2.06-13.49a2.26,2.26,0,0,1,.21,1.69,3,3,0,0,1-.69,1.5,3.46,3.46,0,0,1-1.59.74,3.37,3.37,0,0,1-2.48-.85,1.21,1.21,0,0,1-.43-.58,2.94,2.94,0,0,1-.23-1,3.3,3.3,0,0,1,.13-1.19,2.5,2.5,0,0,1,.72-1.16,2,2,0,0,1,1.18-.62,2.8,2.8,0,0,1,1.25.11,3.65,3.65,0,0,1,1.12.59A4.07,4.07,0,0,1,1820.63,667.92Z"/><path class="cls-3" d="M133-63.72V953H77a12,12,0,0,1-11.19-7.69,11.71,11.71,0,0,1-.8-3.92c0-.13,0-.26,0-.39V254.42L-231.66,107.26l-198.62,60a2.68,2.68,0,0,1-2.12-4.89l143.62-83.42L-414.19,16.71a3.16,3.16,0,0,1,2.07-5.91l169.2,36.66a2.53,2.53,0,0,1-.86-2.15L-236.17-33l5.68-58.51a2.54,2.54,0,0,1,5-.13L-216.62-33l13.42,89.07L-5.87,98.82-90.33-33-266.16-307.44a2.89,2.89,0,0,1,4.44-3.65l175,168.41L12-293.19a2.6,2.6,0,0,1,4.62,2.32L-49.95-107.23-27-85.1l.58.56,16.63,16L27.16-33,120.3,56.66,132,13.81,106.58-33,31.45-171.19a2,2,0,0,1,3.18-2.24l47.29,52.75,17.39-84.07a2.18,2.18,0,0,1,4.31.39L106.2-93.61Z"/><ellipse class="cls-24" cx="232.75" cy="359.23" rx="59.55" ry="143.87" transform="translate(-43.29 32.09) rotate(-7.22)"/><path class="cls-24" d="M138.89,250.8c-18.46,34.63-25.95,98.25,5,96.07,35.53-2.5,73.23-9.88,91.7-44.51s16.39-80.09-14.92-88.48C191.45,206.05,157.36,216.17,138.89,250.8Z"/><path class="cls-25" d="M354.43,293.92c22.95,60.38-31,54.15-65.64,59.28a8.2,8.2,0,0,1-2.1,0c-38.38-3.71-92.33-2.13-66.6-61.18a7.14,7.14,0,0,0,.52-1.58c8.56-42.61,26.78-62.34,67.13-61.72,40.37-1.1,59.41,26.05,66.31,63.83A7,7,0,0,0,354.43,293.92Z"/><path class="cls-25" d="M359.62,419.79c0,28.69-8.13,52.76-21.72,67.59-13.55,15.17-32.59,21.11-53.81,21.44-21.21-.33-40.25-6.27-53.81-21.44-13.59-14.83-21.69-38.9-21.72-67.59s8.13-52.76,21.72-67.59c13.56-15.18,32.6-21.11,53.81-21.44,21.22.33,40.26,6.26,53.81,21.44C351.49,367,359.59,391.1,359.62,419.79Z"/><path class="cls-26" d="M291.32,322h0a4.9,4.9,0,0,1,4.15,7.4h0a4.89,4.89,0,0,1-8.48-.1h0A4.9,4.9,0,0,1,291.32,322Z"/><path class="cls-25" d="M263.54,213.69h0a18.6,18.6,0,0,1-4.05,32h0a18.61,18.61,0,0,1-25.67-19.49h0A18.61,18.61,0,0,1,263.54,213.69Z"/><path class="cls-25" d="M350.42,229.79h0a18.61,18.61,0,0,1-26.8,17.91h0a18.61,18.61,0,0,1-2.11-32.16h0A18.61,18.61,0,0,1,350.42,229.79Z"/><path class="cls-27" d="M256,221.64h0A8.83,8.83,0,0,1,254,236.8h0a8.83,8.83,0,0,1-12.17-9.24h0A8.83,8.83,0,0,1,256,221.64Z"/><path class="cls-27" d="M342.6,230.73h0a9.33,9.33,0,0,1-14,8.08h0a9.34,9.34,0,0,1,0-16.17h0A9.34,9.34,0,0,1,342.6,230.73Z"/><ellipse class="cls-11" cx="275.36" cy="486.42" rx="18.11" ry="25.25" transform="translate(-151.93 126.07) rotate(-20.34)"/><ellipse class="cls-11" cx="326.9" cy="483.41" rx="25.25" ry="18.11" transform="translate(-246.08 372.74) rotate(-45)"/><path class="cls-25" d="M250,215.21,243.82,217a2.52,2.52,0,0,1-3.22-2.15l-1.66-15.75a2.52,2.52,0,0,1,4.7-1.49l7.81,13.92A2.51,2.51,0,0,1,250,215.21Z"/><path class="cls-25" d="M342.66,218l-5.58-2.9a2.57,2.57,0,0,1-.84-3.86L345.81,199a2.56,2.56,0,0,1,4.5,2.23l-5,16.16C344.91,218.93,344.12,218.72,342.66,218Z"/><ellipse class="cls-8" cx="258.54" cy="300.07" rx="22.02" ry="23.77" transform="translate(-38.5 38.06) rotate(-7.84)"/><circle cx="258.98" cy="303.29" r="17.01"/><circle class="cls-8" cx="252.09" cy="295.4" r="2.75"/><circle class="cls-8" cx="247.75" cy="298.77" r="1"/><ellipse class="cls-8" cx="322.09" cy="301.57" rx="23.77" ry="22.02" transform="translate(-28.51 569.45) rotate(-80.5)"/><circle cx="321.55" cy="304.78" r="17.01"/><circle class="cls-8" cx="317.32" cy="295.19" r="2.75"/><circle class="cls-8" cx="312.18" cy="297.12" r="1"/><path class="cls-21" d="M343.05,395.3c-3.51,18.28-22.73,32.94-39,37.28-13.19-9-25.92-30.78-22.42-49.05s20.09-30.46,37-27.2S346.55,377,343.05,395.3Z"/><path class="cls-5" d="M283.73,375.35c.54-13.16,16.47-28.91,35.2-19.19,22-2.27,28.26,17,25.61,30.86"/><path class="cls-28" d="M318.72,356.16,315,342.25c0-.15.08-.27.27-.3l4.29-.64c.28,0,.58.12.6.33l.77,7.69c.05.41-.56,3.92-.81,5.33a4.79,4.79,0,0,1-.31,1.06l-.25.57C319.45,356.58,318.8,356.48,318.72,356.16Z"/><path class="cls-5" d="M345.14,387.72c-.39,2.32-14,1-31.06-1.83s-30.39-7.32-30-9.65,14.69-3.26,31.7-.41S345.53,385.39,345.14,387.72Z"/><path class="cls-29" d="M284.06,375.38c0,3.11,8,5,15.51,7,11.21,3,26.52,5.51,45.54,6.51"/><ellipse class="cls-11" cx="344.86" cy="400.9" rx="19.52" ry="13.26" transform="translate(-156.26 569.8) rotate(-67.92)"/><ellipse class="cls-11" cx="281.31" cy="397.9" rx="13.26" ry="19.52" transform="translate(-202.26 337.7) rotate(-47.64)"/><path class="cls-2" d="M1340.12,798.72V857c0,1-8,1.72-17.69,1.72h-47.82c-9.73,0-17.7-.77-17.7-1.72v-58.3c0-1,8-1.72,17.7-1.72h47.82C1332.16,797,1340.12,797.77,1340.12,798.72Z"/><path class="cls-3" d="M1298.77,797v61.74h-24.16c-9.73,0-17.7-.77-17.7-1.72v-58.3c0-1,8-1.72,17.7-1.72Z"/><polygon class="cls-4" points="1486.11 803.38 1296.17 814.26 1106.22 825.13 1203.43 632.04 1277.29 485.31 1277.32 485.26 1367.48 622.64 1486.11 803.38"/><polygon class="cls-4" points="1392.23 450.04 1275.65 456.73 1227.87 459.46 1158.69 463.43 1263.87 254.47 1264.06 254.76 1392.23 450.04"/><polygon class="cls-4" points="1433.69 618.84 1367.48 622.64 1285.44 627.33 1139.15 635.73 1227.87 459.46 1270.9 373.98 1271.79 372.19 1325.4 453.87 1433.69 618.84"/><polygon class="cls-3" points="1264.06 254.76 1296.17 814.26 1106.22 825.13 1203.43 632.04 1139.15 635.73 1227.87 459.46 1158.69 463.43 1263.87 254.47 1264.06 254.76"/><rect class="cls-21" x="1737.3" y="198.54" width="165.1" height="115.72" rx="12" transform="translate(-11.29 99.78) rotate(-3.13)"/><polygon class="cls-22" points="1828.57 215.58 1821.77 212.85 1825.75 209.23 1829.1 214.82 1828.57 215.58"/><circle class="cls-23" cx="1823.15" cy="210.64" r="4.15"/><polygon class="cls-30" points="1771.82 266.78 1746.4 226.93 1793.62 224.84 1771.82 266.78"/><polygon class="cls-30" points="1749.33 293.16 1771.13 251.22 1796.55 291.07 1749.33 293.16"/><rect class="cls-31" x="1745.56" y="225.03" width="49" height="4" rx="2" transform="translate(-8.3 78.4) rotate(-2.53)"/><rect class="cls-31" x="1748.44" y="289.97" width="49" height="4" rx="2" transform="translate(-11.16 78.59) rotate(-2.53)"/><polygon class="cls-32" points="1772.22 259.94 1755.19 233.88 1786.27 232.16 1772.22 259.94"/><polygon class="cls-32" points="1771.93 258.01 1788.67 284.25 1757.58 285.63 1771.93 258.01"/><polygon class="cls-33" points="1772.15 260.08 1761.31 243.05 1781.04 241.96 1772.15 260.08"/><path class="cls-33" d="M1757.21,287.16c-.16-3.59,6.87-6.81,15.69-7.2s16.12,2.2,16.28,5.78"/></svg>
