<svg id="Layer_1" data-name="Layer 1" xmlns="http://www.w3.org/2000/svg" width="1920" height="1080" viewBox="0 0 1920 1080"><defs><style>.cls-1{fill:#b4e0f1;}.cls-2{fill:#a67c52;}.cls-3{fill:#009245;}.cls-4{opacity:0.12;}.cls-5{fill:#fff;}.cls-6{fill:#543813;}.cls-7{fill:#754c24;}.cls-8{fill:#f7931e;}.cls-9{fill:#f15a24;}.cls-10,.cls-13,.cls-15,.cls-18,.cls-19,.cls-30{fill:none;}.cls-10{stroke:#f15a24;}.cls-10,.cls-13,.cls-15,.cls-19,.cls-30{stroke-linecap:round;}.cls-10,.cls-13,.cls-15,.cls-18,.cls-19,.cls-22,.cls-30{stroke-miterlimit:10;}.cls-10,.cls-13,.cls-15,.cls-30{stroke-width:2px;}.cls-11{fill:#8cc63f;}.cls-12{fill:#39b54a;}.cls-13{stroke:#39b54a;}.cls-14{fill:#ed1c24;}.cls-15{stroke:#ed1c24;}.cls-16{fill:#736357;}.cls-17{fill:#8c6239;}.cls-18,.cls-30{stroke:#8c6239;}.cls-19{stroke:#754c24;}.cls-20{fill:#c7b299;}.cls-21,.cls-22{fill:#666;}.cls-22{stroke:#4d4d4d;stroke-width:0.5px;}.cls-23{opacity:0.16;}.cls-24{fill:#ce7f1e;}.cls-25{fill:#ffbe28;}.cls-26{fill:#ffa78a;}.cls-27{fill:#d27543;}.cls-28{fill:#c69c6d;}.cls-29{fill:#805f14;}</style></defs><title>spil_skaerm</title><rect class="cls-1" width="1920" height="1080"/><rect class="cls-2" x="96.55" y="751.34" width="82.84" height="98.66" rx="8.9"/><polygon class="cls-3" points="366 792.56 179.39 792.54 127.46 792.54 96.55 792.53 -80.98 792.51 -3.87 658.99 77.95 517.3 127.46 431.56 142.54 405.45 207.12 517.32 288.92 659.01 366 792.56"/><polygon class="cls-3" points="329.95 659.02 288.92 659.01 127.46 659 -3.87 658.99 -61.69 658.98 20.13 517.3 102.56 374.55 127.46 331.43 134.16 319.83 165.75 374.56 248.16 517.32 329.95 659.02"/><polygon class="cls-3" points="290.47 517.32 248.16 517.32 207.12 517.32 127.46 517.31 77.95 517.3 20.13 517.3 -34.24 517.29 48.19 374.54 127.46 237.26 128.14 236.09 208.06 374.56 290.47 517.32"/><polygon class="cls-3" points="243.61 374.56 208.06 374.56 165.75 374.56 127.46 374.55 102.56 374.55 48.19 374.54 11.99 374.54 127.46 174.58 127.82 173.96 243.61 374.56"/><rect class="cls-3" x="69.48" y="190.54" width="24.48" height="185.45" rx="12" transform="matrix(0.87, 0.5, -0.5, 0.87, 152.58, -2.91)"/><path class="cls-4" d="M127.46,174.58V850h-22a8.93,8.93,0,0,1-8.9-8.9V792.53l-177.53,0L-3.87,659H-61.69L20.13,517.3H-34.24L48.19,374.54H12Z"/><ellipse class="cls-5" cx="1178.24" cy="118.37" rx="94.24" ry="73.21"/><ellipse class="cls-5" cx="1394.76" cy="183.79" rx="94.24" ry="73.21"/><ellipse class="cls-5" cx="1315.32" cy="87.21" rx="94.24" ry="73.21"/><ellipse class="cls-5" cx="1242.11" cy="183.79" rx="94.24" ry="73.21"/><rect class="cls-2" x="1396.55" y="755.34" width="82.84" height="98.66" rx="8.9"/><polygon class="cls-3" points="1666 796.56 1479.39 796.54 1427.46 796.54 1396.55 796.53 1219.02 796.51 1296.13 662.99 1377.95 521.3 1427.46 435.56 1442.54 409.45 1507.12 521.32 1588.92 663.01 1666 796.56"/><polygon class="cls-3" points="1629.95 663.02 1588.92 663.01 1427.46 663 1296.13 662.99 1238.31 662.98 1320.13 521.3 1402.56 378.55 1427.46 335.43 1434.16 323.83 1465.75 378.56 1548.16 521.32 1629.95 663.02"/><polygon class="cls-3" points="1590.47 521.32 1548.16 521.32 1507.12 521.32 1427.46 521.31 1377.95 521.3 1320.13 521.3 1265.76 521.29 1348.19 378.54 1427.46 241.26 1428.14 240.09 1508.06 378.56 1590.47 521.32"/><polygon class="cls-3" points="1543.61 378.56 1508.06 378.56 1465.75 378.56 1427.46 378.55 1402.56 378.55 1348.19 378.54 1311.99 378.54 1427.46 178.58 1427.82 177.96 1543.61 378.56"/><rect class="cls-3" x="1369.48" y="194.54" width="24.48" height="185.45" rx="12" transform="translate(328.75 -652.38) rotate(30)"/><path class="cls-4" d="M1427.46,178.58V854h-22a8.93,8.93,0,0,1-8.9-8.9V796.53l-177.53,0L1296.13,663h-57.82l81.82-141.68h-54.37l82.43-142.75H1312Z"/><rect class="cls-6" x="-3" y="848" width="1925" height="232"/><rect class="cls-2" x="350.33" y="806" width="111.67" height="133" rx="12"/><polygon class="cls-3" points="713.55 861.57 462 861.54 392 861.54 350.33 861.53 111.02 861.51 214.96 681.52 325.26 490.52 392 374.94 412.33 339.74 499.38 490.54 609.64 681.55 713.55 861.57"/><polygon class="cls-3" points="664.96 681.56 609.64 681.55 392 681.53 214.96 681.52 137.02 681.51 247.31 490.52 358.43 298.09 392 239.97 401.03 224.33 443.61 298.1 554.7 490.54 664.96 681.56"/><polygon class="cls-3" points="611.74 490.55 554.7 490.54 499.38 490.54 392 490.53 325.26 490.52 247.31 490.52 174.02 490.51 285.14 298.08 392 113.03 392.91 111.45 500.65 298.11 611.74 490.55"/><polygon class="cls-3" points="548.57 298.11 500.65 298.11 443.61 298.1 392 298.09 358.43 298.09 285.14 298.08 236.35 298.08 392 28.53 392.48 27.7 548.57 298.11"/><rect class="cls-3" x="313.85" y="50.05" width="33" height="249.98" rx="12" transform="matrix(0.87, 0.5, -0.5, 0.87, 131.78, -141.72)"/><path class="cls-4" d="M392,28.53V939H362.33a12,12,0,0,1-12-12V861.53l-239.31,0L215,681.52H137l110.29-191H174L285.14,298.08H236.35Z"/><path class="cls-7" d="M186.94,302.59l-105.41-135a2.44,2.44,0,0,1,1.15-3.82L878.62-102.33a2.44,2.44,0,0,1,2,4.43L190.09,303.19A2.43,2.43,0,0,1,186.94,302.59Z"/><path class="cls-7" d="M240.43,157.48,200,189l-7.48,5.82-17.76,13.84-38.05,29.65-3.72,2.9L97.72,268.68a3.16,3.16,0,0,1-3.34.33L65,254.42-231.66,107.26l-57.12-28.33L-414.19,16.71a3.16,3.16,0,0,1,2.07-5.91l169.2,36.66,39.72,8.61L-5.87,98.82l108.2,23.44.65.15,30,6.5,32.77,7.1,26.77,5.8h.05l26.33,5.7,20.24,4.39A3.15,3.15,0,0,1,240.43,157.48Z"/><path class="cls-7" d="M198.87,136.88l-6.28,4.89-.05,0L142,181.19l-3,2.35-6,4.67-22,17.14-11.94,9.3-18,14a2.89,2.89,0,0,1-4.21-.73L65,209.38-5.87,98.82-90.33-33-266.16-307.44a2.89,2.89,0,0,1,4.44-3.65l175,168.41L-52.88-110l2.93,2.81L-27-85.1l.58.56,16.63,16L27.16-33,120.3,56.66,133,68.89l10,9.65,50.17,48.3,1,.92,4.93,4.75A2.9,2.9,0,0,1,198.87,136.88Z"/><path class="cls-7" d="M256.38-429.83,207.53,7.88,194.3,126.47l-.14,1.29-1.57,14v0l-4.13,37a1.41,1.41,0,0,1-.88,1.14l-3.19,1.25-31.27,12.26L133,201.34l-19.24,7.55-14.7,5.76L77,223.32a1.39,1.39,0,0,1-1.84-1.66l11.08-40.47,1.55-5.63,4.05-14.82,2.37-8.66L102,123.49l.34-1.23,18-65.6L132,13.81l1-3.55,15.52-56.67L162-95.68l7.89-28.79,2.19-8,.53-2h0l.28-1,6.34-23.14,74.41-271.74A1.39,1.39,0,0,1,256.38-429.83Z"/><path class="cls-7" d="M179.85,212.21,85.22,145.8a2.36,2.36,0,0,1-.39-3.51L423.69-228.9a2.36,2.36,0,0,1,3.8,2.74L183.25,211.43A2.35,2.35,0,0,1,179.85,212.21Z"/><path class="cls-7" d="M579.38,31.5l-40,29.08a2.21,2.21,0,0,1-3.24-.73L434.4-127.32a2.21,2.21,0,0,1,3.58-2.53L579.72,28.24A2.2,2.2,0,0,1,579.38,31.5Z"/><path class="cls-7" d="M396.18,160.29,423,121.47a3.22,3.22,0,0,1,4.81-.56L578.59,257.16a3.22,3.22,0,0,1-3.7,5.21L397.28,164.94A3.22,3.22,0,0,1,396.18,160.29Z"/><path class="cls-7" d="M177.67-10.65l-40.43,29.4a2,2,0,0,1-2.88-.65L133,15.6l-1-1.79L106.58-33,31.45-171.19a2,2,0,0,1,3.18-2.24l47.29,52.75L106.2-93.61l42.32,47.2L178-13.55A2,2,0,0,1,177.67-10.65Z"/><circle class="cls-8" cx="569.96" cy="993.4" r="17.03"/><circle class="cls-8" cx="517.02" cy="977.38" r="17.03"/><circle class="cls-8" cx="530.2" cy="958.98" r="17.03"/><circle class="cls-8" cx="539.8" cy="990.63" r="17.03"/><circle class="cls-8" cx="553.77" cy="970.95" r="17.03"/><path class="cls-9" d="M563.81,990.47c-15.53-15-58-37.79-50.68-29.67Z"/><path class="cls-10" d="M501.05,963.46c3.7-4.6,9.62-6,13.24-3.06"/><circle class="cls-8" cx="661.25" cy="60.29" r="20.17"/><circle class="cls-8" cx="599.25" cy="39.12" r="20.17"/><circle class="cls-8" cx="599.23" cy="65.92" r="20.17"/><circle class="cls-8" cx="630.32" cy="42.11" r="20.17"/><circle class="cls-8" cx="630.17" cy="70.69" r="20.17"/><path class="cls-9" d="M653.31,58.86c-25.26,3.65-81.94-3.76-69.25-6.48Z"/><path class="cls-10" d="M574.28,41.47c.38,7,5.14,12.39,10.62,12.09"/><circle class="cls-8" cx="923.65" cy="969.82" r="14.35"/><circle class="cls-8" cx="907.78" cy="1013.64" r="14.35"/><circle class="cls-8" cx="892.91" cy="1001.72" r="14.35"/><circle class="cls-8" cx="919.96" cy="995.08" r="14.35"/><circle class="cls-8" cx="904.04" cy="982.43" r="14.35"/><path class="cls-9" d="M920.91,974.87c-13.28,12.38-34.41,47.12-27.25,41.29Z"/><path class="cls-10" d="M895.35,1026.45c-3.7-3.32-4.58-8.37-2-11.28"/><circle class="cls-11" cx="463.02" cy="250.53" r="10.67"/><circle class="cls-11" cx="467.73" cy="216.18" r="10.67"/><circle class="cls-11" cx="453.81" cy="218.89" r="10.67"/><circle class="cls-11" cx="469.33" cy="232.62" r="10.67"/><circle class="cls-11" cx="454.47" cy="235.44" r="10.67"/><path class="cls-12" d="M462.44,246.33c-4.46-12.75-6.36-42.94-3.66-36.62Z"/><path class="cls-13" d="M463.5,202.53c-3.65.54-6.28,3.31-5.85,6.18"/><circle class="cls-9" cx="591.88" cy="169.61" r="20.17"/><circle class="cls-9" cx="555.01" cy="115.45" r="20.17"/><circle class="cls-9" cx="538.9" cy="136.86" r="20.17"/><circle class="cls-9" cx="578.06" cy="136.5" r="20.17"/><circle class="cls-9" cx="560.78" cy="159.26" r="20.17"/><path class="cls-14" d="M586.39,163.69c-22.4-12.25-63.27-52.21-51.49-46.76Z"/><path class="cls-15" d="M533.63,102.34c-3.89,5.8-3.33,13,1.23,16"/><circle class="cls-8" cx="858.24" cy="1019.51" r="20.17"/><circle class="cls-8" cx="812.22" cy="972.89" r="20.17"/><circle class="cls-8" cx="836.34" cy="961.21" r="20.17"/><circle class="cls-8" cx="828.42" cy="999.56" r="20.17"/><circle class="cls-8" cx="854.1" cy="987" r="20.17"/><path class="cls-9" d="M853.5,1013c-7.7-24.34-39-72.15-35.94-59.54Z"/><path class="cls-10" d="M803.48,949.37c6.45-2.69,13.39-.76,15.5,4.31"/><circle class="cls-9" cx="1782.06" cy="976.38" r="17.85"/><circle class="cls-9" cx="1738.85" cy="1015.04" r="17.85"/><circle class="cls-9" cx="1759.52" cy="1026.67" r="17.85"/><circle class="cls-9" cx="1754.63" cy="992.37" r="17.85"/><circle class="cls-9" cx="1776.62" cy="1004.87" r="17.85"/><path class="cls-14" d="M1777.51,981.88c-8.13,21.08-38.41,61.6-35,50.63"/><path class="cls-15" d="M1729.85,1035.33c5.55,2.73,11.78,1.4,13.93-3"/><circle class="cls-11" cx="353.95" cy="30.17" r="20.17"/><circle class="cls-11" cx="288.59" cy="34.53" r="20.17"/><circle class="cls-11" cx="298.89" cy="59.27" r="20.17"/><circle class="cls-11" cx="318.41" cy="25.32" r="20.17"/><circle class="cls-11" cx="329.29" cy="51.75" r="20.17"/><path class="cls-12" d="M346.41,32.86C324.51,46,269.35,61,280,53.57Z"/><path class="cls-13" d="M264.93,47.56c2.39,6.56,8.51,10.36,13.67,8.49"/><polygon class="cls-3" points="1249.53 917.11 1230.83 836.57 1235.83 918.86 1249.53 917.11"/><polygon class="cls-3" points="1252.08 915.49 1213.74 842.24 1239.26 920.62 1252.08 915.49"/><polygon class="cls-3" points="1251.21 915.36 1252.52 832.69 1237.49 913.74 1251.21 915.36"/><polygon class="cls-3" points="1247.6 912.67 1270.35 872.1 1241.27 908.58 1247.6 912.67"/><polygon class="cls-3" points="1246.6 934.62 1157.16 856.59 1258.05 918.44 1246.6 934.62"/><polygon class="cls-3" points="1242.82 936.76 1175.87 838.75 1257.98 923.98 1242.82 936.76"/><polygon class="cls-3" points="1243.24 935.57 1137.6 881.45 1250.45 917.1 1243.24 935.57"/><polygon class="cls-3" points="1242.28 929.18 1175.51 930.64 1241.35 918.4 1242.28 929.18"/><polygon class="cls-3" points="462.37 937.3 481.22 867.68 451.12 932.99 462.37 937.3"/><polygon class="cls-3" points="465 937.11 465.75 864.99 453.03 935.76 465 937.11"/><polygon class="cls-3" points="464.39 936.65 499.49 873.64 454.51 929.75 464.39 936.65"/><polygon class="cls-3" points="462.72 933.1 496.95 911.29 459.54 927.34 462.72 933.1"/><ellipse class="cls-3" cx="458.26" cy="934.83" rx="4.3" ry="7.08" transform="translate(-574.69 1064.92) rotate(-71.06)"/><polygon class="cls-3" points="1787.37 937.3 1806.22 867.68 1776.12 932.99 1787.37 937.3"/><polygon class="cls-3" points="1790 937.11 1790.75 864.99 1778.03 935.76 1790 937.11"/><polygon class="cls-3" points="1789.39 936.65 1824.49 873.64 1779.51 929.75 1789.39 936.65"/><polygon class="cls-3" points="1787.72 933.1 1821.95 911.29 1784.54 927.34 1787.72 933.1"/><ellipse class="cls-3" cx="1780.71" cy="934.98" rx="4.3" ry="7.56" transform="translate(318.46 2315.9) rotate(-71.06)"/><path class="cls-7" d="M188.4,565.26,180,516.56A2.2,2.2,0,0,1,182,514l212.86-8.75a2.21,2.21,0,0,1,.69,4.34L191.18,567A2.21,2.21,0,0,1,188.4,565.26Z"/><polygon class="cls-3" points="71.58 937.49 71.2 937.6 68.28 938.48 64.97 939.48 57.71 941.66 55.08 942.45 54.95 941.76 54.6 939.93 54.03 937 53.96 936.65 53.73 935.44 52.26 927.81 51.54 924.05 47.73 904.33 35.57 841.2 54.55 891.94 64.97 919.81 66.87 924.88 71.4 937 71.58 937.49"/><polygon class="cls-3" points="68.57 941.25 64.98 941.39 57.71 941.66 54.95 941.76 51.68 941.89 51.36 941.9 51.5 939.64 51.67 937 51.86 934.05 52.26 927.81 52.47 924.54 53.24 912.35 54.55 891.94 57.92 839 64.97 906.69 66.87 924.88 67.82 934.06 68.13 937 68.28 938.48 68.57 941.25"/><polygon class="cls-3" points="67.09 932.51 65.58 933.4 64.97 933.77 59.53 937 54.6 939.93 52.28 941.31 51.75 940.16 51.5 939.64 50.28 937 47.35 930.68 41.97 919.09 8.89 847.77 47.73 904.33 53.24 912.35 64.97 929.42 67.09 932.51"/><polygon class="cls-3" points="60.17 928.54 55.77 935.3 55.04 936.42 54.61 936.1 53.73 935.44 51.86 934.05 47.35 930.68 8.54 901.72 41.97 919.09 51.54 924.05 52.47 924.54 60.17 928.54"/><ellipse class="cls-3" cx="61.47" cy="939.93" rx="10" ry="6.5" transform="translate(-210.87 38.22) rotate(-13.06)"/><polygon class="cls-3" points="346.15 937.1 309.11 840.88 361.52 929.32 346.15 937.1"/><polygon class="cls-3" points="342.39 937.22 330.71 834.77 359.21 933.54 342.39 937.22"/><polygon class="cls-3" points="343.19 936.47 284 852.04 356.22 925.21 343.19 936.47"/><polygon class="cls-3" points="345.04 931.17 293.16 905.21 348.71 922.52 345.04 931.17"/><ellipse class="cls-3" cx="352" cy="933.5" rx="10" ry="6.5" transform="translate(-339.44 214.31) rotate(-23.21)"/><path class="cls-7" d="M200.78,193.19V941a12,12,0,0,1-9.59,11.76h0a12.16,12.16,0,0,1-2.35.23H77a12,12,0,0,1-11.19-7.69,11.71,11.71,0,0,1-.8-3.92c0-.13,0-.26,0-.39V193.19a12,12,0,0,1,12-12H188.78a11.93,11.93,0,0,1,9,4.14,11.94,11.94,0,0,1,3,7.86Z"/><circle class="cls-8" cx="219.03" cy="920.08" r="20.17"/><circle class="cls-8" cx="186.35" cy="976.87" r="20.17"/><circle class="cls-8" cx="168.67" cy="956.73" r="20.17"/><circle class="cls-8" cx="207.74" cy="954.14" r="20.17"/><circle class="cls-8" cx="188.79" cy="932.74" r="20.17"/><path class="cls-9" d="M214,926.39c-21.41,13.91-59.15,56.84-47.81,50.51Z"/><path class="cls-10" d="M166,991.55c-4.31-5.49-4.3-12.7,0-16.09"/><rect class="cls-2" x="1644.33" y="799" width="111.67" height="133" rx="12"/><polygon class="cls-3" points="2007.55 854.57 1756 854.54 1686 854.54 1644.33 854.53 1405.02 854.51 1508.96 674.52 1619.26 483.52 1686 367.94 1706.33 332.74 1793.38 483.54 1903.64 674.55 2007.55 854.57"/><polygon class="cls-3" points="1958.96 674.56 1903.64 674.55 1686 674.53 1508.96 674.52 1431.02 674.51 1541.31 483.52 1652.43 291.09 1686 232.97 1695.03 217.33 1737.61 291.1 1848.7 483.54 1958.96 674.56"/><polygon class="cls-3" points="1905.74 483.55 1848.7 483.54 1793.38 483.54 1686 483.53 1619.26 483.52 1541.31 483.52 1468.02 483.51 1579.14 291.08 1686 106.03 1686.91 104.45 1794.65 291.11 1905.74 483.55"/><polygon class="cls-3" points="1842.57 291.11 1794.65 291.11 1737.61 291.1 1686 291.09 1652.43 291.09 1579.14 291.08 1530.35 291.08 1686 21.53 1686.48 20.7 1842.57 291.11"/><rect class="cls-3" x="1607.85" y="43.05" width="33" height="249.98" rx="12" transform="translate(301.64 -789.66) rotate(30)"/><path class="cls-4" d="M1686,21.53V932h-29.67a12,12,0,0,1-12-12V854.53l-239.31,0,103.94-180H1431l110.29-191H1468l111.12-192.43h-48.79Z"/><path class="cls-16" d="M1792,939H1236c0-41.42,124.46-75,278-75S1792,897.58,1792,939Z"/><rect class="cls-17" x="1814" y="120" width="64" height="903"/><ellipse class="cls-2" cx="1846" cy="120" rx="32" ry="11"/><ellipse class="cls-17" cx="1846" cy="1022.5" rx="32" ry="9.5"/><ellipse class="cls-18" cx="1846.47" cy="119.25" rx="27.53" ry="8.25"/><ellipse class="cls-18" cx="1846.75" cy="119.25" rx="17.75" ry="5.25"/><ellipse class="cls-18" cx="1846.56" cy="119.75" rx="4.94" ry="1.75"/><rect class="cls-17" x="1786.14" y="380.2" width="55" height="61.28" transform="translate(551.02 1776.08) rotate(-60)"/><line class="cls-19" x1="1825" y1="388" x2="1804.5" y2="374.5"/><ellipse class="cls-17" cx="1836.69" cy="431.33" rx="27.5" ry="3" transform="translate(294.01 1517.44) rotate(-48.36)"/><ellipse class="cls-2" cx="1789.67" cy="395.82" rx="27.74" ry="16.89" transform="translate(304.78 1470.38) rotate(-48.36)"/><ellipse class="cls-18" cx="1786.47" cy="395.08" rx="23.74" ry="12.42" transform="translate(302.52 1465.35) rotate(-48.27)"/><ellipse class="cls-18" cx="1785.8" cy="394.76" rx="17.64" ry="9.23" transform="translate(302.54 1464.73) rotate(-48.27)"/><ellipse class="cls-18" cx="1784.43" cy="393.17" rx="9.04" ry="4.73" transform="translate(303.27 1463.18) rotate(-48.27)"/><rect class="cls-20" x="1708.91" y="470.06" width="212.08" height="128.14" rx="12" transform="translate(-65.25 323.96) rotate(-10.02)"/><polygon class="cls-21" points="1833.7 480.84 1826 481 1828 475 1834.03 479.92 1833.7 480.84"/><path d="M1730,564.06a2.51,2.51,0,0,1-.12,1,.79.79,0,0,1-.69.54,2.17,2.17,0,0,1-1.5-.34c-.46-.3-.71-.57-.76-.82q-.74-4.07-1.85-8.22c-.75-2.77-1.61-5.52-2.58-8.23a.94.94,0,0,1,0-.44c0-.13.08-.29.14-.48a1.7,1.7,0,0,1,.38-.58.86.86,0,0,1,.73-.1,2.86,2.86,0,0,1,.87.41,4.65,4.65,0,0,1,.82.72,4.42,4.42,0,0,1,.59.8c.21.61.44,1.27.68,2s.46,1.49.68,2.28a18.39,18.39,0,0,0,1.88-1.76,10.86,10.86,0,0,0,1.48-2,7.18,7.18,0,0,0,.83-2.07,3.63,3.63,0,0,0-.1-2,2.58,2.58,0,0,0-1-1.31,3.86,3.86,0,0,0-2-.61,11.06,11.06,0,0,0-5.19.93,15.13,15.13,0,0,0-4,2.78,2.64,2.64,0,0,1-1,.77,1.76,1.76,0,0,1-.9.13,1.17,1.17,0,0,1-.64-.31,1,1,0,0,1-.29-.53,2.92,2.92,0,0,1,.67-2.13,11.89,11.89,0,0,1,1.74-1.86,15.93,15.93,0,0,1,3.23-1.84,15.2,15.2,0,0,1,4.05-1.14,10.22,10.22,0,0,1,4.09.25,6.12,6.12,0,0,1,3.34,2.3,6.94,6.94,0,0,1,1.21,4.12,9,9,0,0,1-1.09,3.74,16.75,16.75,0,0,1-2.44,3.39c-1,1.08-1.92,2.07-2.8,3,.32,1.35.62,2.68.89,4S1729.84,562.94,1730,564.06Z"/><path d="M1755.74,548.79a8.18,8.18,0,0,1-.52,2.69A14.39,14.39,0,0,1,1754,554a11.36,11.36,0,0,1-1.69,2.17,10.76,10.76,0,0,1-2,1.59,8.8,8.8,0,0,1-4,1.28,6.19,6.19,0,0,1-4-1.15,8,8,0,0,1-2.08-2.64,12.26,12.26,0,0,1-1.06-3.25,12.84,12.84,0,0,1-.17-3.38,13.5,13.5,0,0,1,.59-3.06,9.2,9.2,0,0,1,1.53-2.86,5.11,5.11,0,0,1,2.33-1.66.59.59,0,0,1,.65.07,1,1,0,0,1,.36.61,3,3,0,0,1,1.3-1,5.84,5.84,0,0,1,2.19-.47,6.91,6.91,0,0,1,3.8.67,6.81,6.81,0,0,1,2.41,2.12,7.54,7.54,0,0,1,1.23,2.85A12,12,0,0,1,1755.74,548.79Zm-11.4-4.46a4.06,4.06,0,0,0-1.32,1.53,7.3,7.3,0,0,0-.67,2,8.85,8.85,0,0,0-.09,2.31,13.22,13.22,0,0,0,.43,2.32,5,5,0,0,0,1.49,2.49,3.21,3.21,0,0,0,2.82.54,5.46,5.46,0,0,0,2-.79,7.55,7.55,0,0,0,1.63-1.4,8.49,8.49,0,0,0,1.24-1.86,8.83,8.83,0,0,0,.75-2.1,6,6,0,0,0,.13-1.36,7.4,7.4,0,0,0-.21-1.6,4.79,4.79,0,0,0-.68-1.49,3.15,3.15,0,0,0-1.27-1.06,4.86,4.86,0,0,0-2.49-.39,5.24,5.24,0,0,0-2.73,1.16.69.69,0,0,1-.61.19C1744.46,544.83,1744.34,544.65,1744.34,544.33Z"/><path d="M1766.29,552.84a2,2,0,0,1,.15.53,2,2,0,0,1,0,.73,2,2,0,0,1-.28.68,1,1,0,0,1-.68.4,6,6,0,0,1-2-1.39c-.43-.89-.86-1.92-1.3-3.09s-.84-2.41-1.22-3.7-.73-2.63-1-4-.57-2.68-.79-4a7.17,7.17,0,0,1-.09-.85,4.6,4.6,0,0,1,.06-1.05,2.91,2.91,0,0,1,.31-.93,1,1,0,0,1,.72-.51,1.39,1.39,0,0,1,1.05.19,1.69,1.69,0,0,1,.61,1.14c.21,1.25.47,2.57.79,4s.68,2.81,1.08,4.21.83,2.76,1.3,4.08S1765.83,551.81,1766.29,552.84Z"/><path d="M1785.69,533.43c.3,2.68.56,5.43.8,8.23s.34,5.47.31,8a2.87,2.87,0,0,1-.27,1.36,1.75,1.75,0,0,1-.83.69,2.64,2.64,0,0,1-1.49-.05,4.05,4.05,0,0,1-1.75-.92c-.66-.61-1.38-1.28-2.15-2s-1.59-1.48-2.46-2.23-1.77-1.49-2.7-2.21a28,28,0,0,0-2.87-2c.3,2.07.62,4.11.94,6.13s.71,4,1.17,6c0,.28-.17.47-.67.56a1.66,1.66,0,0,1-1.62-.63,4.3,4.3,0,0,1-1-1.71,18,18,0,0,1-.66-2.65c-.23-1.17-.44-2.39-.64-3.67s-.38-2.52-.55-3.72-.28-2.13-.35-2.83a2.81,2.81,0,0,1,.22-1.73c.23-.4.48-.61.77-.64a1.67,1.67,0,0,1,1.34.3,2.28,2.28,0,0,1,.56,1,27.29,27.29,0,0,1,3.6,2,37.5,37.5,0,0,1,3.16,2.34c1,.81,1.9,1.62,2.75,2.44s1.64,1.56,2.38,2.22a62.18,62.18,0,0,0-.3-6.42c-.21-2.34-.43-4.8-.67-7.36a1.09,1.09,0,0,1,.38-1,1.71,1.71,0,0,1,1.05-.61A1.22,1.22,0,0,1,1785.69,533.43Z"/><path d="M1808.53,529.55a35,35,0,0,0-9.08,2.53,60.89,60.89,0,0,0-8.25,4.35,1.63,1.63,0,0,1-1.72.23,1.45,1.45,0,0,1-.78-.91,3,3,0,0,1,.89-1.67,33.88,33.88,0,0,1,18.44-7.14,1.37,1.37,0,0,1,.9.52,1.27,1.27,0,0,1,.38.87,2.26,2.26,0,0,1-.13.83C1809.1,529.38,1808.88,529.51,1808.53,529.55Zm-3.47,17.54a1.36,1.36,0,0,1-.17,1,1.49,1.49,0,0,1-.77.65c-.6.22-1,.19-1.28-.09a2.5,2.5,0,0,1-.53-1q-.68-3.25-1.37-6.48c-.47-2.15-1-4.29-1.56-6.44a3.9,3.9,0,0,0-.13-.43,1.34,1.34,0,0,1-.1-.52.9.9,0,0,1,.12-.48,1.14,1.14,0,0,1,.48-.38,1.6,1.6,0,0,1,1.61.05,1.69,1.69,0,0,1,.67,1q1,3.29,1.75,6.57C1804.27,542.67,1804.7,544.87,1805.06,547.09Z"/><path d="M1820.22,529.22a2.13,2.13,0,0,1,.71,1.41,2.83,2.83,0,0,1-.14,1.53,3.25,3.25,0,0,1-1.16,1.14,3.12,3.12,0,0,1-2.43,0,1.16,1.16,0,0,1-.56-.38,2.68,2.68,0,0,1-.52-.82,3.11,3.11,0,0,1-.26-1.08,2.39,2.39,0,0,1,.27-1.24,1.92,1.92,0,0,1,.84-.91,2.56,2.56,0,0,1,1.13-.29,3.26,3.26,0,0,1,1.16.16A3.9,3.9,0,0,1,1820.22,529.22Zm2.4,12.45a1.6,1.6,0,0,1,.13,1.42,2.13,2.13,0,0,1-.83.93,2,2,0,0,1-1,.31,1,1,0,0,1-.8-.25,2.1,2.1,0,0,1-1.22-.59,2.35,2.35,0,0,1-.59-1,2.77,2.77,0,0,1,.34-2.46,2,2,0,0,1,2.18-.74,3.27,3.27,0,0,1,1.53.77A1.33,1.33,0,0,1,1822.62,541.67Z"/><rect class="cls-20" x="1733.08" y="668.3" width="178.84" height="125.34" rx="12" transform="translate(123.22 -253.03) rotate(8.22)"/><polygon class="cls-21" points="1840.45 689.48 1833.81 685.13 1838.81 682.13 1841.17 688.78 1840.45 689.48"/><circle class="cls-22" cx="1835.75" cy="683.07" r="4.5"/><path d="M1753.1,710.64c-.38,1.24-.76,2.62-1.14,4.13l-1.15,4.61-1.11,4.52c-.35,1.47-.65,2.76-.89,3.87,1.26,0,2.67-.07,4.21-.14s3.12-.12,4.73-.19,3.17-.1,4.71-.11,2.93,0,4.18.11a.92.92,0,0,1,.37.17.75.75,0,0,1,.32.77,1.73,1.73,0,0,1-.43,1,1.87,1.87,0,0,1-.74.44,7.39,7.39,0,0,1-.84.23,2.31,2.31,0,0,0-.81.38c-1.16.12-2.44.24-3.83.36l-4.28.34-4.38.33c-1.47.11-2.84.24-4.12.37a2.35,2.35,0,0,1-2.46-1,4.76,4.76,0,0,1-.19-3.48q.95-4.35,2-8.72c.71-2.92,1.47-5.81,2.28-8.69a2.7,2.7,0,0,1,.86-1.42,2,2,0,0,1,1.38-.52c.85,0,1.32.31,1.4.86A4.91,4.91,0,0,1,1753.1,710.64Z"/><path d="M1775.33,731.66a2.59,2.59,0,0,1,0,.64,2,2,0,0,1-.29.78,2.07,2.07,0,0,1-.57.64,1.11,1.11,0,0,1-.88.17,6.77,6.77,0,0,1-1.71-2.32c-.12-1.13-.19-2.42-.21-3.86s0-3,.11-4.52.23-3.14.42-4.74.42-3.14.68-4.62a7.18,7.18,0,0,1,.23-1,5.25,5.25,0,0,1,.48-1.12,3.34,3.34,0,0,1,.69-.89,1.14,1.14,0,0,1,1-.27,1.57,1.57,0,0,1,1.07.61,2,2,0,0,1,.22,1.48q-.39,2.16-.69,4.65c-.19,1.65-.35,3.32-.46,5s-.17,3.34-.17,4.95S1775.24,730.35,1775.33,731.66Z"/><path d="M1801.39,720.48a89.6,89.6,0,0,1-5.46,8.61,56.67,56.67,0,0,1-6,7.09,2,2,0,0,1-3.25-.22,6.28,6.28,0,0,1-.58-1.26c-.3-1-.61-2.19-.92-3.64s-.6-2.92-.86-4.39-.48-2.79-.66-4-.33-2-.41-2.42a8.08,8.08,0,0,1-.65-.88,4.43,4.43,0,0,1-.54-1.17,2.56,2.56,0,0,1-.1-1.15,1.29,1.29,0,0,1,.64-.9,2.28,2.28,0,0,1,1.39,0,2.92,2.92,0,0,1,1.12.67,5.23,5.23,0,0,1,.84,1.07,8.18,8.18,0,0,1,.54,1.14c.16.88.35,1.88.54,3s.41,2.29.61,3.48.41,2.37.6,3.52.39,2.17.59,3.09a28.87,28.87,0,0,0,2.5-2.76q1.34-1.65,2.71-3.5c.91-1.24,1.79-2.5,2.66-3.79s1.66-2.52,2.39-3.67a3.79,3.79,0,0,1,1.13-1.16,1.41,1.41,0,0,1,1.26-.25,1.28,1.28,0,0,1,.66,1.32A5.25,5.25,0,0,1,1801.39,720.48Z"/><path d="M1811.83,736.92a1.91,1.91,0,0,1-.42,1.6,2.38,2.38,0,0,1-1.27.69,2.27,2.27,0,0,1-1.19,0,1.19,1.19,0,0,1-.77-.59,2.42,2.42,0,0,1-1.11-1.11,2.82,2.82,0,0,1-.23-1.37,3.2,3.2,0,0,1,1.33-2.55,2.37,2.37,0,0,1,2.66.05,3.7,3.7,0,0,1,1.37,1.43A1.56,1.56,0,0,1,1811.83,736.92Zm2.21-14.5a2.46,2.46,0,0,1,.23,1.81,3.19,3.19,0,0,1-.75,1.61,3.67,3.67,0,0,1-1.71.79,3.6,3.6,0,0,1-2.66-.91,1.22,1.22,0,0,1-.46-.62,3.29,3.29,0,0,1-.25-1.1,3.81,3.81,0,0,1,.14-1.28,2.79,2.79,0,0,1,.77-1.25,2.28,2.28,0,0,1,1.27-.66,3.1,3.1,0,0,1,1.35.12,3.83,3.83,0,0,1,1.2.63A4,4,0,0,1,1814,722.42Z"/><path class="cls-23" d="M133-63.72V953H77a12,12,0,0,1-11.19-7.69,11.71,11.71,0,0,1-.8-3.92c0-.13,0-.26,0-.39V254.42L-231.66,107.26l-198.62,60a2.68,2.68,0,0,1-2.12-4.89l143.62-83.42L-414.19,16.71a3.16,3.16,0,0,1,2.07-5.91l169.2,36.66a2.53,2.53,0,0,1-.86-2.15L-236.17-33l5.68-58.51a2.54,2.54,0,0,1,5-.13L-216.62-33l13.42,89.07L-5.87,98.82-90.33-33-266.16-307.44a2.89,2.89,0,0,1,4.44-3.65l175,168.41L12-293.19a2.6,2.6,0,0,1,4.62,2.32L-49.95-107.23-27-85.1l.58.56,16.63,16L27.16-33,120.3,56.66,132,13.81,106.58-33,31.45-171.19a2,2,0,0,1,3.18-2.24l47.29,52.75,17.39-84.07a2.18,2.18,0,0,1,4.31.39L106.2-93.61Z"/><ellipse class="cls-24" cx="232.75" cy="359.23" rx="59.55" ry="143.87" transform="translate(-43.29 32.09) rotate(-7.22)"/><path class="cls-24" d="M138.89,250.8c-18.46,34.63-25.95,98.25,5,96.07,35.53-2.5,73.23-9.88,91.7-44.51s16.39-80.09-14.92-88.48C191.45,206.05,157.36,216.17,138.89,250.8Z"/><path class="cls-25" d="M354.43,293.92c22.95,60.38-31,54.15-65.64,59.28a8.2,8.2,0,0,1-2.1,0c-38.38-3.71-92.33-2.13-66.6-61.18a7.14,7.14,0,0,0,.52-1.58c8.56-42.61,26.78-62.34,67.13-61.72,40.37-1.1,59.41,26.05,66.31,63.83A7,7,0,0,0,354.43,293.92Z"/><path class="cls-25" d="M359.62,419.79c0,28.69-8.13,52.76-21.72,67.59-13.55,15.17-32.59,21.11-53.81,21.44-21.21-.33-40.25-6.27-53.81-21.44-13.59-14.83-21.69-38.9-21.72-67.59s8.13-52.76,21.72-67.59c13.56-15.18,32.6-21.11,53.81-21.44,21.22.33,40.26,6.26,53.81,21.44C351.49,367,359.59,391.1,359.62,419.79Z"/><path class="cls-26" d="M291.32,322h0a4.9,4.9,0,0,1,4.15,7.4h0a4.89,4.89,0,0,1-8.48-.1h0A4.9,4.9,0,0,1,291.32,322Z"/><path class="cls-25" d="M263.54,213.69h0a18.6,18.6,0,0,1-4.05,32h0a18.61,18.61,0,0,1-25.67-19.49h0A18.61,18.61,0,0,1,263.54,213.69Z"/><path class="cls-25" d="M350.42,229.79h0a18.61,18.61,0,0,1-26.8,17.91h0a18.61,18.61,0,0,1-2.11-32.16h0A18.61,18.61,0,0,1,350.42,229.79Z"/><path class="cls-27" d="M256,221.64h0A8.83,8.83,0,0,1,254,236.8h0a8.83,8.83,0,0,1-12.17-9.24h0A8.83,8.83,0,0,1,256,221.64Z"/><path class="cls-27" d="M342.6,230.73h0a9.33,9.33,0,0,1-14,8.08h0a9.34,9.34,0,0,1,0-16.17h0A9.34,9.34,0,0,1,342.6,230.73Z"/><ellipse class="cls-8" cx="275.36" cy="486.42" rx="18.11" ry="25.25" transform="translate(-151.93 126.07) rotate(-20.34)"/><ellipse class="cls-8" cx="326.9" cy="483.41" rx="25.25" ry="18.11" transform="translate(-246.08 372.74) rotate(-45)"/><path class="cls-25" d="M249,211.21,242.82,213a2.52,2.52,0,0,1-3.22-2.15l-1.66-15.75a2.52,2.52,0,0,1,4.7-1.49l7.81,13.92A2.51,2.51,0,0,1,249,211.21Z"/><path class="cls-25" d="M343.66,215l-5.58-2.9a2.57,2.57,0,0,1-.84-3.86L346.81,196a2.56,2.56,0,0,1,4.5,2.23l-4,15.16A2.57,2.57,0,0,1,343.66,215Z"/><ellipse class="cls-5" cx="258.54" cy="300.07" rx="22.02" ry="23.77" transform="translate(-38.5 38.06) rotate(-7.84)"/><circle cx="258.98" cy="303.29" r="17.01"/><circle class="cls-5" cx="252.09" cy="295.4" r="2.75"/><circle class="cls-5" cx="247.75" cy="298.77" r="1"/><ellipse class="cls-5" cx="322.09" cy="301.57" rx="23.77" ry="22.02" transform="translate(-28.51 569.45) rotate(-80.5)"/><circle cx="321.55" cy="304.78" r="17.01"/><circle class="cls-5" cx="317.32" cy="295.19" r="2.75"/><circle class="cls-5" cx="312.18" cy="297.12" r="1"/><path class="cls-28" d="M343.05,395.3c-3.51,18.28-22.73,32.94-39,37.28-13.19-9-25.92-30.78-22.42-49.05s20.09-30.46,37-27.2S346.55,377,343.05,395.3Z"/><path class="cls-2" d="M283.73,375.35c.54-13.16,16.47-28.91,35.2-19.19,22-2.27,28.26,17,25.61,30.86"/><path class="cls-29" d="M318.72,356.16,315,342.25c0-.15.08-.27.27-.3l4.29-.64c.28,0,.58.12.6.33l.77,7.69c.05.41-.56,3.92-.81,5.33a4.79,4.79,0,0,1-.31,1.06l-.25.57C319.45,356.58,318.8,356.48,318.72,356.16Z"/><path class="cls-2" d="M345.14,387.72c-.39,2.32-14,1-31.06-1.83s-30.39-7.32-30-9.65,14.69-3.26,31.7-.41S345.53,385.39,345.14,387.72Z"/><path class="cls-30" d="M284.06,375.38c0,3.11,8,5,15.51,7,11.21,3,26.52,5.51,45.54,6.51"/><ellipse class="cls-8" cx="344.86" cy="400.9" rx="19.52" ry="13.26" transform="translate(-156.26 569.8) rotate(-67.92)"/><ellipse class="cls-8" cx="281.31" cy="397.9" rx="13.26" ry="19.52" transform="translate(-202.26 337.7) rotate(-47.64)"/><circle class="cls-22" cx="1826" cy="477" r="4.5"/></svg>
