<svg id="Layer_1" data-name="Layer 1" xmlns="http://www.w3.org/2000/svg" width="280" height="250" viewBox="0 0 280 250"><defs><style>.cls-1{fill:#df3e00;stroke:#ff651f;stroke-miterlimit:10;stroke-width:7px;}.cls-2{fill:#f2f2f2;}</style></defs><title>start_spillet</title><circle class="cls-1" cx="139.51" cy="155.71" r="89"/><path class="cls-2" d="M194.37,163,120.2,205.84a8.92,8.92,0,0,1-13.37-7.73V112.47a8.91,8.91,0,0,1,13.37-7.72l74.17,42.82A8.91,8.91,0,0,1,194.37,163Z"/><path d="M99.45,44.47a10.08,10.08,0,0,1-3,7.54c-2,2-4.84,3-8.44,3.07a10.84,10.84,0,0,1-2.92-.44c-1.9-.53-2.89-.8-3-.8l-3-.65a5.56,5.56,0,0,1-2.63-1.4A10.6,10.6,0,0,1,73.7,47a24.39,24.39,0,0,0-2-4.9,8.29,8.29,0,0,1-1.18-1.74,2.57,2.57,0,0,1,.34-1.83,2.42,2.42,0,0,1,1.28-1.15,5.08,5.08,0,0,1,1.36-.12,33.1,33.1,0,0,1,5.31.53c2.08.35,3.25.67,3.5,1s.58,1.78,1,4.47c.38,2.48.93,3.86,1.68,4.15a1.13,1.13,0,0,0,.56.13c.78,0,1.46-.65,2-2a11.11,11.11,0,0,0,.84-4.43q0-5.4-3.35-7.2-7.69-4.16-10.8-7.7A12.79,12.79,0,0,1,71,16.48a19.64,19.64,0,0,1,3.38-9.4q3.07-4.74,6.48-5.55c1-.21,3.85.71,8.69,2.73,1.2.46,2.41.93,3.63,1.43a7,7,0,0,1,3,2.17Q97.9,10,97.9,15.37c0,.66,0,1.63-.07,2.91,0,1.12-.06,1.91-.06,2.36a7.79,7.79,0,0,0,.44,1.43,2.73,2.73,0,0,1,.24,1.36c-.08,1.82-.84,2.84-2.29,3a11.87,11.87,0,0,1-4.59-.93Q87.84,24.37,86.85,23a3.4,3.4,0,0,1-.12-1.24c0-.62.07-2,.21-4.22s.22-3.79.22-4.78c0-1.78-.21-2.65-.62-2.6-1.28.08-2.35,1-3.2,2.76a13.71,13.71,0,0,0-1.27,6q0,5.59,3.29,8l7.45,4.71a15.24,15.24,0,0,1,4.9,4.59Q99.45,39.14,99.45,44.47Z"/><path d="M124.82,22.94a3.47,3.47,0,0,1-.74,2,1.92,1.92,0,0,1-1.49.87,1.35,1.35,0,0,1-.43-.06,14.77,14.77,0,0,0-3.91-.31V49.93a9.82,9.82,0,0,1,.4,1,5.33,5.33,0,0,1,.4,1.86c0,1.2-.82,1.84-2.48,1.93a16.26,16.26,0,0,1-4.78-1.12c-2.52-.83-3.86-1.59-4-2.3a3.76,3.76,0,0,1,.43-1.83,6.16,6.16,0,0,0,.56-2.14v-22h-2.11c-.78,0-1.76-.69-2.91-2.08S102,20.79,102,20a2.4,2.4,0,0,1,.71-1.68,2.19,2.19,0,0,1,1.59-.74h4.46V12a4.38,4.38,0,0,1-.93-2.67,1.49,1.49,0,0,1,1.12-1.62,7.76,7.76,0,0,1,1.55-.12,24.51,24.51,0,0,1,5.37.71,11.32,11.32,0,0,1,4,1.46,1.12,1.12,0,0,1,.43.87,3.7,3.7,0,0,1-1,1.86,4.73,4.73,0,0,0-1,1.74v3.35h2c.42,0,1.28.74,2.61,2.23S124.82,22.32,124.82,22.94Z"/><path d="M158.08,52a2.19,2.19,0,0,1-.74,1.49,1.86,1.86,0,0,1-1.56.49c-5.12-.7-8-1.67-8.56-2.91a1.15,1.15,0,0,1-.12-.5,1.12,1.12,0,0,1,.28-.68,1.94,1.94,0,0,0,.34-.65,1.23,1.23,0,0,1,.25-.53,10.33,10.33,0,0,0,.06-2.17,12.23,12.23,0,0,0-2.23,3,16.49,16.49,0,0,1-2.73,3.73,6.46,6.46,0,0,1-4.53,1.86,4.58,4.58,0,0,1-2.92-1.18,30.58,30.58,0,0,1-2.42-2.42c-2-2.23-3.06-3.45-3.23-3.66a5.58,5.58,0,0,1-1.3-3.29,4.19,4.19,0,0,1,.12-1q1.19-5.46,7.33-10.36a69.84,69.84,0,0,1,12.65-7.51c0-1.33-.33-2.17-1-2.55-.41-.24-1.86.22-4.34,1.4a26.46,26.46,0,0,0-5.21,3,18.19,18.19,0,0,1-1.62,1.36,2.43,2.43,0,0,1-1.92.38A11.43,11.43,0,0,1,131.77,27a9.54,9.54,0,0,1-2.42-2.73,2.08,2.08,0,0,1,1.06-2.6s.87-.29,2.48-.75l4.59-2.48A22.91,22.91,0,0,1,145.67,16a4.89,4.89,0,0,1,3.23,1.49q1.6,1.43,3.26,2.82t3.38,2.7c1.32,1.16,2,2.28,2,3.35V49.8A5.85,5.85,0,0,1,158.08,52Zm-9.93-18.12a13.36,13.36,0,0,0-5.21,3.6c-1.08,1.32-2.15,2.62-3.23,3.91a15.13,15.13,0,0,0-2.45,3.38,7.48,7.48,0,0,0-1.14,3.07c0,.33.12.5.37.5.87,0,2.81-1.88,5.83-5.62S147.28,36,148.15,33.86Z"/><path d="M187.18,20.46a1.39,1.39,0,0,1-.68,1.61c-.5.25-1,.52-1.43.81q-3.9,6-10.61,16.07c0,6.57,0,10,.06,10.17s.2.74.47,1.58a7.07,7.07,0,0,1,.4,2,1.59,1.59,0,0,1-1,1.61,4.56,4.56,0,0,1-1.86.31,15.27,15.27,0,0,1-5.22-1q-3.6-1.25-3.6-3.16a5.61,5.61,0,0,1,.5-1.8,5.84,5.84,0,0,0,.5-2.05V22q-.69-3.48-.69-3.6A2.26,2.26,0,0,1,165.71,16a7.25,7.25,0,0,1,1.8-.19,15.77,15.77,0,0,1,4.56.72c1.59.47,2.54,1,2.83,1.52a1.4,1.4,0,0,1,.12.62,23.19,23.19,0,0,1-.87,3v3c1-1.78,2-3.55,2.92-5.33q1.92-3.36,2.85-3.54c.91-.16,2.3.37,4.16,1.61S187,19.63,187.18,20.46Z"/><path d="M213.55,22.94a3.47,3.47,0,0,1-.74,2,1.93,1.93,0,0,1-1.49.87,1.46,1.46,0,0,1-.44-.06,14.72,14.72,0,0,0-3.91-.31V49.93a7.93,7.93,0,0,1,.41,1,5.33,5.33,0,0,1,.4,1.86c0,1.2-.83,1.84-2.48,1.93a16.26,16.26,0,0,1-4.78-1.12c-2.52-.83-3.87-1.59-4-2.3a3.64,3.64,0,0,1,.43-1.83,6.4,6.4,0,0,0,.56-2.14v-22h-2.11c-.79,0-1.76-.69-2.92-2.08s-1.73-2.49-1.73-3.32a2.36,2.36,0,0,1,.71-1.68,2.17,2.17,0,0,1,1.58-.74h4.47V12a4.38,4.38,0,0,1-.93-2.67,1.49,1.49,0,0,1,1.12-1.62,7.69,7.69,0,0,1,1.55-.12,24.35,24.35,0,0,1,5.36.71,11.4,11.4,0,0,1,4,1.46,1.12,1.12,0,0,1,.43.87,3.7,3.7,0,0,1-1,1.86A4.8,4.8,0,0,0,207,14.19v3.35h2c.41,0,1.28.74,2.6,2.23S213.55,22.32,213.55,22.94Z"/></svg>
