<svg id="Layer_1" data-name="Layer 1" xmlns="http://www.w3.org/2000/svg" width="120" height="200" viewBox="0 0 120 200"><defs><style>.cls-1{fill:red;}.cls-2{fill:#c1272d;}.cls-3{fill:none;stroke:#c1272d;stroke-miterlimit:10;stroke-width:0.75px;}</style></defs><title>sugeror</title><path class="cls-1" d="M117,190.19,106,199a1.39,1.39,0,0,1-2-.21L6.52,77.17a1.07,1.07,0,0,1,.16-1.5L17.39,64.61c1.81-7.85,2.12,1.45,2.53,2l97.32,121.31A1.65,1.65,0,0,1,117,190.19Z"/><ellipse class="cls-2" cx="110.8" cy="193.67" rx="8.54" ry="2.88" transform="translate(-96.82 111.95) rotate(-38.74)"/><path class="cls-1" d="M20,66.75,6.29,76.94,4.23,71.51,2.3,62l1.08-4.71,1.34-3a.62.62,0,0,1,1-.21Z"/><path class="cls-1" d="M-1.58,23.75H64.28a2.86,2.86,0,0,1,2.86,2.86V37.29a3.86,3.86,0,0,1-3.86,3.86h-66a0,0,0,0,1,0,0V24.9a1.15,1.15,0,0,1,1.15-1.15Z" transform="translate(-13.12 38.41) rotate(-52.71)"/><ellipse class="cls-2" cx="52.94" cy="6.78" rx="2.88" ry="8.54" transform="translate(14.58 43.9) rotate(-51.36)"/><line class="cls-3" x1="5.87" y1="75.19" x2="19.75" y2="65.16"/><line class="cls-3" x1="4.09" y1="71.21" x2="19.14" y2="64.19"/><line class="cls-3" x1="2.96" y1="66.26" x2="18.54" y2="63.22"/><line class="cls-3" x1="3.2" y1="58.04" x2="19.5" y2="62.62"/></svg>
