<svg id="Layer_1" data-name="Layer 1" xmlns="http://www.w3.org/2000/svg" width="510" height="410" viewBox="0 0 510 410"><defs><style>.cls-1{fill:#f2f2f2;}</style></defs><title>talebobbel</title><circle class="cls-1" cx="37" cy="36.5" r="34"/><circle class="cls-1" cx="104" cy="106.5" r="72"/><ellipse class="cls-1" cx="310.5" cy="222.5" rx="196.5" ry="172"/><path d="M218,126.23a2.16,2.16,0,0,1-1.43,2.1,1,1,0,0,1-.58-.15,1.18,1.18,0,0,0-.53-.18,1.39,1.39,0,0,0-.53.12,69.74,69.74,0,0,1-2.5,8.2q-1.65,3.9-4.27,5.08a3.29,3.29,0,0,1-1.43.33,15.71,15.71,0,0,1-3.65-1.06c-.74-.2-1.9-.59-3.49-1.19q-2.37-1.15-3.69-5.29a30.15,30.15,0,0,1-1.19-9,35.65,35.65,0,0,1,1.89-12q2.06-5.79,5.41-6.48a4.33,4.33,0,0,1,.66,0,12.7,12.7,0,0,1,5,1.31,9.55,9.55,0,0,1,4.26,3.07,8,8,0,0,1,1.19,3.45q.38,2.37.45,2.58.14.7.33,1.68a2.81,2.81,0,0,1-1.27,2.13c-.35.14-1.42-.06-3.2-.59A11.72,11.72,0,0,1,206.2,119c-.5-.33-.7-1-.62-1.93a1,1,0,0,1,.21-.51,1.09,1.09,0,0,0,.2-.55c0-2-.22-2.92-.66-2.92-.92,0-1.75,1.54-2.46,4.68a45,45,0,0,0-1,9.67q0,7.8,2.17,8.94c.44.22,1-.53,1.79-2.25a15.9,15.9,0,0,0,1.33-4.84,13.33,13.33,0,0,0-2.5-1.27c-1-.41-1.52-.77-1.6-1.07a2.66,2.66,0,0,1,.41-1.74,3.19,3.19,0,0,1,1.21-1.46,4.32,4.32,0,0,1,1.78-.36,10.82,10.82,0,0,0,1.89-.09,15.17,15.17,0,0,0,2.25-.69,6,6,0,0,1,1.93-.5,2.14,2.14,0,0,1,.45.05,8.32,8.32,0,0,1,3,1.84C217.34,125.11,218,125.85,218,126.23Z"/><path d="M236.08,118.77a.93.93,0,0,1-.45,1.07,9.51,9.51,0,0,0-.94.53q-2.58,3.94-7,10.62,0,6.52,0,6.72c0,.14.13.49.31,1a4.91,4.91,0,0,1,.26,1.33,1.06,1.06,0,0,1-.69,1.07,3.15,3.15,0,0,1-1.23.2,10.15,10.15,0,0,1-3.45-.69c-1.58-.55-2.38-1.25-2.38-2.09a3.65,3.65,0,0,1,.33-1.19,3.83,3.83,0,0,0,.33-1.36V119.8c-.3-1.53-.45-2.33-.45-2.38a1.49,1.49,0,0,1,1.15-1.6,5.08,5.08,0,0,1,1.19-.12,10.33,10.33,0,0,1,3,.47,3.3,3.3,0,0,1,1.87,1,1,1,0,0,1,.08.41,14.2,14.2,0,0,1-.58,2v2c.66-1.18,1.3-2.35,1.93-3.53.85-1.47,1.48-2.25,1.89-2.33a4.38,4.38,0,0,1,2.74,1.06C235.26,117.54,236,118.23,236.08,118.77Z"/><path d="M246.54,139.68a1.51,1.51,0,0,1-1,1.85,3.75,3.75,0,0,1-.57,0,13.94,13.94,0,0,1-3.65-.62c-1.56-.43-2.47-.9-2.75-1.39-.13-.22,0-.64.37-1.27a4.74,4.74,0,0,0,.37-2.26V118.81a8.67,8.67,0,0,1-.49-2.09c0-.35.5-.53,1.52-.53a11.18,11.18,0,0,1,3.42.76,6.58,6.58,0,0,1,2.64,1.33.63.63,0,0,1,.13.41,3.52,3.52,0,0,1-.47,1.23,3.3,3.3,0,0,0-.48,1.35v16.49a1.83,1.83,0,0,0,.48,1A2.52,2.52,0,0,1,246.54,139.68Zm.12-28.33a.85.85,0,0,1,0,.33,9.69,9.69,0,0,1-.37,2.34c-.27,1-.53,1.61-.78,1.72s-1.44-.19-3.52-.88-3.19-1.2-3.32-1.5a1.23,1.23,0,0,1-.13-.61,5.59,5.59,0,0,1,.58-2.34q.66-1.39,1.47-1.56a7.4,7.4,0,0,1,3.28.72C245.47,110.16,246.39,110.75,246.66,111.35Z"/><path d="M268.27,119.8a11.24,11.24,0,0,1,.94,4.88,26,26,0,0,1-1.52,8.32,22.68,22.68,0,0,1-3.36,6.56c-.14.46-.22.75-.24.86a1.77,1.77,0,0,1-.5.74,3.34,3.34,0,0,1-1.92.49,4.27,4.27,0,0,1-2.34-.74c-.08,0-.71-.53-1.89-1.43a5.1,5.1,0,0,0,.29.9,1.17,1.17,0,0,1,0,.74,1.28,1.28,0,0,1-1.07,1,11.28,11.28,0,0,1-3.4-.63c-1.64-.48-2.58-.91-2.83-1.3-.16-.24,0-.72.37-1.43A4.3,4.3,0,0,0,251,137V109.47a1.8,1.8,0,0,0-.39-.76,1.28,1.28,0,0,1-.31-1,1.5,1.5,0,0,1,1.68-1.31,11.28,11.28,0,0,1,3.55.78c1.46.52,2.31,1.05,2.56,1.6.11.25,0,.68-.27,1.31a6.3,6.3,0,0,0-.51,1.56v6.72c2.21-2.21,4-3.24,5.33-3.07a6.21,6.21,0,0,1,3,1.39A8,8,0,0,1,268.27,119.8Zm-4.8.24a11.83,11.83,0,0,0-3.53,2.5,10.81,10.81,0,0,0-2.5,3.16v11.07a3.92,3.92,0,0,0,1,.74q1.35.24,3.28-6a35.86,35.86,0,0,0,1.88-10.08A6.4,6.4,0,0,0,263.47,120Z"/><path d="M296.39,136.44a4.64,4.64,0,0,1-1.49,3.61,6.23,6.23,0,0,1-4.21,1.4,5.56,5.56,0,0,1-1.43-.21c-.93-.25-1.42-.38-1.48-.41l-1.49-.35a3,3,0,0,1-1.29-.63,9.93,9.93,0,0,1-1.77-2.26q-.69-1.14-1.35-2.34a5.34,5.34,0,0,1-.66-1.43c0-.38.28-.67.82-.86a2.17,2.17,0,0,1,.74-.08,23.92,23.92,0,0,1,3.1.26,6.54,6.54,0,0,1,2,.45,9.54,9.54,0,0,1,.45,2.36c.16,1.26.45,1.89.86,1.89.63,0,.94-.85.94-2.54,0-2.16-.57-3.52-1.72-4.06a16.6,16.6,0,0,1-5.17-3.28,8,8,0,0,1-1.51-5.33,8.49,8.49,0,0,1,1.23-4.41,4.84,4.84,0,0,1,2.91-2.48q.74-.17,4.75,1.56c.25.08,1,.23,2.18.45a3.07,3.07,0,0,1,1.8.86,5.14,5.14,0,0,1,.9,3c0,1,0,2,0,3a14.4,14.4,0,0,1,.29,1.64,1.18,1.18,0,0,1-1.11,1.31,6.66,6.66,0,0,1-2.25-.45,5.12,5.12,0,0,1-2.34-1.27,18,18,0,0,1-.24-3.08c-.09-1.83-.28-2.75-.58-2.75s-.79.54-1.15,1.6a10.63,10.63,0,0,0-.53,3.32c0,1.45.31,2.37.94,2.75l4,2.23a8,8,0,0,1,2.77,2.32A7.54,7.54,0,0,1,296.39,136.44Z"/><path d="M319.35,136.48c.06.52-.46,1.47-1.56,2.83s-1.94,2-2.54,1.93q-1.75-.24-7.46-9.51c-.27.3-.74.78-1.39,1.43V138a4.42,4.42,0,0,0,.1.74c.07.35.12.61.14.78.09.93-.11,1.53-.57,1.8a2.53,2.53,0,0,1-1.19.21,8.12,8.12,0,0,1-3-.58c-1.15-.43-1.73-.95-1.73-1.55V109a3.17,3.17,0,0,1,.41-1.43,2,2,0,0,1,1-1,1.32,1.32,0,0,1,.32,0,9.12,9.12,0,0,1,3,.72c1.27.48,2,.9,2.11,1.25a1.33,1.33,0,0,1,.12.49,1.68,1.68,0,0,1-.33.84,1.82,1.82,0,0,0-.32,1V125l6.06-8.32a1.75,1.75,0,0,1,1.36-.78,3.91,3.91,0,0,1,2.17,1,3.21,3.21,0,0,1,1.6,2.25c0,.3-.62,1.37-1.93,3.2q-3,4.35-3.57,5.17l5.34,7.33a3.21,3.21,0,0,0,1.18.87C319.07,136,319.33,136.21,319.35,136.48Z"/><path d="M337.93,118.77a.94.94,0,0,1-.46,1.07c-.32.16-.64.34-.94.53q-2.58,3.94-7,10.62,0,6.52,0,6.72c0,.14.13.49.31,1a4.63,4.63,0,0,1,.27,1.33,1.07,1.07,0,0,1-.7,1.07,3.15,3.15,0,0,1-1.23.2,10.15,10.15,0,0,1-3.45-.69c-1.58-.55-2.37-1.25-2.37-2.09a3.56,3.56,0,0,1,.32-1.19A3.83,3.83,0,0,0,323,136V119.8c-.3-1.53-.45-2.33-.45-2.38a1.49,1.49,0,0,1,1.15-1.6,5.08,5.08,0,0,1,1.19-.12,10.33,10.33,0,0,1,3,.47c1.05.31,1.68.65,1.87,1a1,1,0,0,1,.08.41,14.2,14.2,0,0,1-.58,2v2c.66-1.18,1.3-2.35,1.93-3.53.85-1.47,1.48-2.25,1.89-2.33a4.4,4.4,0,0,1,2.75,1.06C337.1,117.54,337.79,118.23,337.93,118.77Z"/><path d="M359.16,139.6a1.39,1.39,0,0,1-.49,1,1.17,1.17,0,0,1-1,.33q-5.08-.69-5.66-1.92a.67.67,0,0,1-.08-.33.77.77,0,0,1,.18-.45,1.41,1.41,0,0,0,.23-.43.8.8,0,0,1,.16-.35,6.82,6.82,0,0,0,0-1.44,8.3,8.3,0,0,0-1.48,2,10.23,10.23,0,0,1-1.8,2.46,4.24,4.24,0,0,1-3,1.23,3,3,0,0,1-1.93-.78,20.63,20.63,0,0,1-1.6-1.6c-1.31-1.47-2-2.28-2.13-2.42a3.69,3.69,0,0,1-.86-2.17,3,3,0,0,1,.08-.66q.78-3.6,4.84-6.84a46.27,46.27,0,0,1,8.36-5c0-.88-.22-1.44-.65-1.68s-1.23.14-2.87.92a17.66,17.66,0,0,0-3.45,2,11.88,11.88,0,0,1-1.06.9,1.62,1.62,0,0,1-1.27.24,7.21,7.21,0,0,1-1.93-1.47,6,6,0,0,1-1.6-1.81,1.37,1.37,0,0,1,.7-1.72s.57-.19,1.64-.49l3-1.64a15.17,15.17,0,0,1,5.41-1.64,3.22,3.22,0,0,1,2.13,1c.71.63,1.43,1.25,2.16,1.87s1.47,1.21,2.23,1.78a3.12,3.12,0,0,1,1.31,2.22v15.5A3.7,3.7,0,0,1,359.16,139.6Zm-6.56-12a8.78,8.78,0,0,0-3.44,2.38q-1.07,1.31-2.13,2.58a9.59,9.59,0,0,0-1.62,2.23,4.93,4.93,0,0,0-.76,2q0,.33.24.33c.58,0,1.86-1.24,3.86-3.71A26.11,26.11,0,0,0,352.6,127.63Z"/><path d="M370.48,108.6a2.17,2.17,0,0,1-.19.78c-.12.33-.2.54-.22.62a17.57,17.57,0,0,0-.49,2.54v25.17a1.67,1.67,0,0,0,.24.89,1.25,1.25,0,0,1,.25.63c0,1.75-.33,2.69-1,2.83a18.37,18.37,0,0,1-5.29-1.56,2.1,2.1,0,0,1-.9-1.43.64.64,0,0,1,.17-.37,1.15,1.15,0,0,0,.16-.7V109.1a1.16,1.16,0,0,0-.14-.52,1,1,0,0,1-.15-.51c.06-.65.56-1.09,1.52-1.31a9.21,9.21,0,0,1,1.72,0,12.91,12.91,0,0,1,2.63.45C369.92,107.54,370.48,108,370.48,108.6Z"/><path d="M391.59,109a4,4,0,0,1-.3,1.6,9.49,9.49,0,0,0-.39,1.36v26.73a4,4,0,0,0,.2,1.68c.41.71.53,1.19.37,1.43s-.49.33-1.07.33a16.56,16.56,0,0,1-2.87-.37c-1.45-.3-2.21-.45-2.29-.45a1.3,1.3,0,0,1-1.07-1,1.79,1.79,0,0,1,0-.54,40.82,40.82,0,0,1,.45-5c-.65,1.31-1.3,2.63-1.93,3.94-.9,1.61-1.7,2.35-2.41,2.21q-8.08-1.64-8.08-9.92a20.41,20.41,0,0,1,2.58-9.59q2.5-4.73,5.5-6.15A1.69,1.69,0,0,1,381,115q1,0,3.57,2.54v-8a6.05,6.05,0,0,0-.37-1.17,3.89,3.89,0,0,1-.33-1.25c0-.57.39-.86,1.15-.86a11.27,11.27,0,0,1,3,.57c.82.28,1.63.54,2.42.78A1.51,1.51,0,0,1,391.59,109Zm-7.13,10.58c-1.53.68-2.92,2.19-4.16,4.51a13.77,13.77,0,0,0-1.87,6.48q0,3.48,2.71,3.81Q382.56,134.52,384.46,119.55Z"/><path d="M410.62,133.33c.24.41-.29,1.62-1.6,3.65a13.19,13.19,0,0,1-4.18,4.38,1.61,1.61,0,0,1-.74.13,12.35,12.35,0,0,1-4.18-1,7.7,7.7,0,0,1-3.61-2.13q-2.38-3.08-2.38-8.53a19.15,19.15,0,0,1,2.09-9.1c1.5-2.87,3.42-4.33,5.74-4.39a8.17,8.17,0,0,1,3.08.66,9.94,9.94,0,0,1,3.64,2.34,5,5,0,0,1,.7,2.21,19.11,19.11,0,0,1,.41,3.85c0,1.86-.3,3.15-.9,3.86a32.19,32.19,0,0,1-8.61,1.52,14.36,14.36,0,0,0,.49,4.22c.38,1.47.78,2.23,1.19,2.25s1.2-.42,2-1.35a6,6,0,0,0,1.27-2,19.76,19.76,0,0,1,.78-2.54,6.63,6.63,0,0,1,2.58.66A4.76,4.76,0,0,1,410.62,133.33Zm-7.3-12.55c-.47,0-1.12.68-1.95,2.22a11.51,11.51,0,0,0-1.45,4.38,5.19,5.19,0,0,0,2.95-.9c.43-.33.65-1.69.65-4.1C403.52,121.37,403.46,120.84,403.32,120.78Z"/><path d="M427.22,120.41a2.29,2.29,0,0,1-.49,1.31,1.25,1.25,0,0,1-1,.58,1.19,1.19,0,0,1-.29,0,9.6,9.6,0,0,0-2.58-.21v16.2s.08.19.26.65a3.52,3.52,0,0,1,.27,1.23c0,.8-.55,1.22-1.64,1.27a10.31,10.31,0,0,1-3.16-.73c-1.67-.55-2.55-1.06-2.66-1.52a2.43,2.43,0,0,1,.28-1.21,4.17,4.17,0,0,0,.37-1.41V122h-1.39c-.52,0-1.16-.46-1.93-1.37a4,4,0,0,1-1.15-2.2,1.54,1.54,0,0,1,.48-1.1,1.4,1.4,0,0,1,1-.49h3v-3.69a2.9,2.9,0,0,1-.61-1.77,1,1,0,0,1,.74-1.06,4.44,4.44,0,0,1,1-.09,15.78,15.78,0,0,1,3.55.48,7.38,7.38,0,0,1,2.64,1,.73.73,0,0,1,.29.57,2.37,2.37,0,0,1-.66,1.23,3.09,3.09,0,0,0-.69,1.15v2.22h1.31c.27,0,.84.49,1.72,1.47S427.22,120,427.22,120.41Z"/><path d="M238.24,188.88a1.52,1.52,0,0,1-1,1.85,4,4,0,0,1-.57,0,13.87,13.87,0,0,1-3.65-.62c-1.56-.43-2.48-.9-2.75-1.39-.14-.22,0-.64.37-1.27a4.74,4.74,0,0,0,.37-2.26V168a8.67,8.67,0,0,1-.49-2.09c0-.35.5-.53,1.51-.53a11.29,11.29,0,0,1,3.43.76,6.58,6.58,0,0,1,2.64,1.33.69.69,0,0,1,.12.41,3.32,3.32,0,0,1-.47,1.23,3.4,3.4,0,0,0-.47,1.35V187a1.87,1.87,0,0,0,.47,1A2.43,2.43,0,0,1,238.24,188.88Zm.12-28.33a.82.82,0,0,1,0,.33,9.69,9.69,0,0,1-.37,2.34c-.27,1-.53,1.61-.78,1.72s-1.45-.19-3.52-.88-3.19-1.2-3.33-1.5a1.26,1.26,0,0,1-.12-.62,5.44,5.44,0,0,1,.58-2.33q.64-1.4,1.47-1.56a7.43,7.43,0,0,1,3.28.72C237.17,159.36,238.08,160,238.36,160.55Z"/><path d="M260.87,187.08a4,4,0,0,1,.32,1.56,1.68,1.68,0,0,1-.94,1.68,3,3,0,0,1-1,.12,15.33,15.33,0,0,1-3.32-.43,5.86,5.86,0,0,1-2.34-.84.81.81,0,0,1-.21-.53,3.45,3.45,0,0,1,.62-1.46,3.37,3.37,0,0,0,.61-1.45q.09-16.15-.24-16.28-.58-.21-2.83,3.69c-1.59,2.73-2.38,4.8-2.38,6.19V187a1.75,1.75,0,0,1,.53,1.31,2.11,2.11,0,0,1-1.39,2.13,1.21,1.21,0,0,1-.49.08,15.2,15.2,0,0,1-3.24-.51,6.09,6.09,0,0,1-2.38-.84,1.24,1.24,0,0,1-.25-.74,1.66,1.66,0,0,1,.48-1,2.05,2.05,0,0,0,.47-.74V167.64a1.84,1.84,0,0,0-.33-.86,1.09,1.09,0,0,1-.21-.9,1.6,1.6,0,0,1,1.28-1.11,8.69,8.69,0,0,1,3.07.46c1.75.43,2.71.88,2.87,1.35a2.23,2.23,0,0,1-.12,1.35,11.38,11.38,0,0,0-.45,1.64,3.39,3.39,0,0,0,.16,1,12.67,12.67,0,0,1,1.72-3.65c.9-1.29,1.81-1.93,2.71-1.93a9.65,9.65,0,0,1,3.61,1c1.47.64,2.32,1.23,2.54,1.75Q260.86,170.3,260.87,187.08Z"/><path d="M283.83,158.17a4,4,0,0,1-.31,1.6,9.12,9.12,0,0,0-.39,1.36v26.73a4.21,4.21,0,0,0,.2,1.68c.41.71.54,1.19.37,1.43s-.49.33-1.06.33a16.45,16.45,0,0,1-2.87-.37c-1.45-.3-2.22-.45-2.3-.45a1.27,1.27,0,0,1-1.06-1,1.65,1.65,0,0,1-.05-.54,39.32,39.32,0,0,1,.46-5c-.66,1.31-1.3,2.63-1.93,3.94-.9,1.61-1.71,2.35-2.42,2.21q-8.09-1.63-8.08-9.92A20.31,20.31,0,0,1,267,170.6q2.49-4.72,5.49-6.15a1.69,1.69,0,0,1,.78-.21q1,0,3.57,2.54v-7.95a6.89,6.89,0,0,0-.37-1.17,3.89,3.89,0,0,1-.33-1.25c0-.57.38-.86,1.15-.86a11.41,11.41,0,0,1,3,.57c.82.28,1.62.54,2.42.78A1.52,1.52,0,0,1,283.83,158.17Zm-7.14,10.58c-1.53.68-2.92,2.19-4.16,4.51a13.87,13.87,0,0,0-1.86,6.48q0,3.48,2.7,3.81Q274.81,183.71,276.69,168.75Z"/><path d="M302.85,182.53c.25.41-.29,1.62-1.6,3.65a13.09,13.09,0,0,1-4.18,4.38,1.58,1.58,0,0,1-.74.13,12.4,12.4,0,0,1-4.18-1,7.82,7.82,0,0,1-3.61-2.13c-1.58-2-2.38-4.89-2.38-8.53a19.15,19.15,0,0,1,2.09-9.1q2.26-4.31,5.74-4.39a8.14,8.14,0,0,1,3.08.66,10,10,0,0,1,3.65,2.34,5.19,5.19,0,0,1,.7,2.21,19.11,19.11,0,0,1,.41,3.85,6.14,6.14,0,0,1-.91,3.86,31.65,31.65,0,0,1-8.61,1.51,14.44,14.44,0,0,0,.5,4.23c.38,1.47.77,2.23,1.18,2.25s1.21-.42,2-1.35a5.82,5.82,0,0,0,1.27-2,19.76,19.76,0,0,1,.78-2.54,6.82,6.82,0,0,1,2.59.65A4.83,4.83,0,0,1,302.85,182.53ZM295.55,170c-.46,0-1.11.68-1.95,2.21a11.79,11.79,0,0,0-1.45,4.39,5.19,5.19,0,0,0,3-.9c.44-.33.66-1.69.66-4.1C295.76,170.57,295.69,170,295.55,170Z"/><path d="M324.54,187.08a4,4,0,0,1,.33,1.56,1.69,1.69,0,0,1-.95,1.68,3,3,0,0,1-1,.12,15.33,15.33,0,0,1-3.32-.43,5.86,5.86,0,0,1-2.34-.84.8.8,0,0,1-.2-.53,3.39,3.39,0,0,1,.61-1.46,3.43,3.43,0,0,0,.62-1.45q.08-16.15-.25-16.28c-.38-.14-1.33,1.09-2.83,3.69s-2.38,4.8-2.38,6.19V187a1.76,1.76,0,0,1,.54,1.31,2.11,2.11,0,0,1-1.4,2.13,1.21,1.21,0,0,1-.49.08,15.2,15.2,0,0,1-3.24-.51,6.17,6.17,0,0,1-2.38-.84,1.23,1.23,0,0,1-.24-.74,1.64,1.64,0,0,1,.47-1,2.05,2.05,0,0,0,.47-.74V167.64a1.84,1.84,0,0,0-.33-.86,1.08,1.08,0,0,1-.2-.9,1.58,1.58,0,0,1,1.27-1.11,8.69,8.69,0,0,1,3.07.46c1.75.43,2.71.88,2.87,1.35a2.23,2.23,0,0,1-.12,1.35,11.38,11.38,0,0,0-.45,1.64,3.39,3.39,0,0,0,.16,1,12.94,12.94,0,0,1,1.72-3.65c.91-1.29,1.81-1.93,2.71-1.93a9.65,9.65,0,0,1,3.61,1c1.47.64,2.32,1.23,2.54,1.75Q324.55,170.3,324.54,187.08Z"/><path d="M356.23,158.17a3.85,3.85,0,0,1-.31,1.6,9.12,9.12,0,0,0-.39,1.36v26.73a4,4,0,0,0,.21,1.68c.41.71.53,1.19.37,1.43s-.49.33-1.07.33a16.56,16.56,0,0,1-2.87-.37c-1.45-.3-2.21-.45-2.29-.45a1.3,1.3,0,0,1-1.07-1,1.79,1.79,0,0,1,0-.54,40.82,40.82,0,0,1,.45-5c-.66,1.31-1.3,2.63-1.93,3.94-.9,1.61-1.7,2.35-2.41,2.21q-8.08-1.63-8.08-9.92a20.41,20.41,0,0,1,2.58-9.59q2.5-4.72,5.5-6.15a1.69,1.69,0,0,1,.77-.21q1,0,3.57,2.54v-7.95a6.05,6.05,0,0,0-.37-1.17,3.89,3.89,0,0,1-.33-1.25c0-.57.39-.86,1.15-.86a11.34,11.34,0,0,1,2.95.57c.82.28,1.63.54,2.42.78A1.51,1.51,0,0,1,356.23,158.17Zm-7.13,10.58c-1.53.68-2.92,2.19-4.16,4.51a13.77,13.77,0,0,0-1.87,6.48q0,3.48,2.71,3.81Q347.21,183.71,349.1,168.75Z"/><path d="M375.26,182.53c.24.41-.29,1.62-1.6,3.65a13.19,13.19,0,0,1-4.18,4.38,1.64,1.64,0,0,1-.74.13,12.45,12.45,0,0,1-4.19-1,7.72,7.72,0,0,1-3.6-2.13q-2.38-3.07-2.38-8.53a19.15,19.15,0,0,1,2.09-9.1c1.5-2.87,3.42-4.33,5.74-4.39a8.17,8.17,0,0,1,3.08.66,9.94,9.94,0,0,1,3.64,2.34,5,5,0,0,1,.7,2.21,19.11,19.11,0,0,1,.41,3.85c0,1.86-.3,3.15-.9,3.86a31.78,31.78,0,0,1-8.61,1.51,14.42,14.42,0,0,0,.49,4.23c.38,1.47.78,2.23,1.19,2.25s1.2-.42,2-1.35a6,6,0,0,0,1.27-2,19.76,19.76,0,0,1,.78-2.54,6.79,6.79,0,0,1,2.58.65A4.83,4.83,0,0,1,375.26,182.53ZM368,170c-.47,0-1.12.68-1.95,2.21a11.82,11.82,0,0,0-1.46,4.39,5.22,5.22,0,0,0,3-.9c.43-.33.65-1.69.65-4.1C368.16,170.57,368.09,170,368,170Z"/><path d="M391.86,169.61a2.29,2.29,0,0,1-.49,1.31,1.25,1.25,0,0,1-1,.58,1.19,1.19,0,0,1-.29,0,9.69,9.69,0,0,0-2.59-.21v16.2a5.26,5.26,0,0,1,.27.65,3.52,3.52,0,0,1,.27,1.23c0,.8-.55,1.22-1.64,1.27a10.63,10.63,0,0,1-3.16-.73c-1.67-.55-2.56-1.06-2.66-1.52a2.43,2.43,0,0,1,.28-1.21,4.17,4.17,0,0,0,.37-1.41V171.21h-1.39c-.52,0-1.16-.46-1.93-1.37a4,4,0,0,1-1.15-2.2,1.57,1.57,0,0,1,.47-1.1,1.45,1.45,0,0,1,1.05-.5h2.95v-3.69a2.85,2.85,0,0,1-.61-1.76,1,1,0,0,1,.73-1.06,4.6,4.6,0,0,1,1-.09,15.78,15.78,0,0,1,3.55.48,7.38,7.38,0,0,1,2.64,1,.73.73,0,0,1,.29.57,2.37,2.37,0,0,1-.66,1.23,3.16,3.16,0,0,0-.7,1.15V166h1.32c.27,0,.84.5,1.72,1.48S391.86,169.2,391.86,169.61Z"/><path d="M188.69,217.17a.93.93,0,0,1-.45,1.07,9.67,9.67,0,0,0-1,.53q-2.58,3.94-7,10.62c0,4.35,0,6.59,0,6.72s.13.49.31,1a4.63,4.63,0,0,1,.27,1.33,1.06,1.06,0,0,1-.7,1.07,3.15,3.15,0,0,1-1.23.2,10.05,10.05,0,0,1-3.44-.69c-1.59-.55-2.38-1.25-2.38-2.09a3.65,3.65,0,0,1,.33-1.19,3.83,3.83,0,0,0,.33-1.36V218.2c-.31-1.53-.46-2.33-.46-2.38a1.5,1.5,0,0,1,1.15-1.6,5.13,5.13,0,0,1,1.19-.12,10.39,10.39,0,0,1,3,.47c1,.31,1.67.65,1.86,1a.86.86,0,0,1,.08.41,15,15,0,0,1-.57,2v2c.65-1.18,1.3-2.35,1.93-3.53.84-1.47,1.47-2.25,1.88-2.33a4.4,4.4,0,0,1,2.75,1.06C187.87,215.94,188.55,216.63,188.69,217.17Z"/><path d="M209.93,238a1.44,1.44,0,0,1-.5,1,1.17,1.17,0,0,1-1,.33q-5.08-.69-5.66-1.92a.8.8,0,0,1-.08-.33.77.77,0,0,1,.18-.45,1.22,1.22,0,0,0,.23-.43.93.93,0,0,1,.16-.35,6.17,6.17,0,0,0,0-1.44,8.36,8.36,0,0,0-1.47,2,10.49,10.49,0,0,1-1.81,2.46,4.24,4.24,0,0,1-3,1.23,3,3,0,0,1-1.93-.78,19.33,19.33,0,0,1-1.59-1.6c-1.32-1.47-2-2.28-2.14-2.42a3.69,3.69,0,0,1-.86-2.17,3,3,0,0,1,.08-.66c.52-2.4,2.14-4.68,4.84-6.84a46.41,46.41,0,0,1,8.37-5q0-1.32-.66-1.68c-.27-.17-1.23.14-2.87.92a17.21,17.21,0,0,0-3.44,2,12.35,12.35,0,0,1-1.07.9,1.61,1.61,0,0,1-1.27.24,7.55,7.55,0,0,1-1.93-1.47,6.39,6.39,0,0,1-1.6-1.81,1.38,1.38,0,0,1,.7-1.72s.57-.19,1.64-.49l3-1.64a15.21,15.21,0,0,1,5.42-1.64,3.24,3.24,0,0,1,2.13,1c.71.63,1.43,1.25,2.15,1.87s1.47,1.21,2.24,1.78a3.16,3.16,0,0,1,1.31,2.22v15.5A4.13,4.13,0,0,1,209.93,238Zm-6.56-12a8.88,8.88,0,0,0-3.45,2.38q-1.06,1.31-2.13,2.58a10.2,10.2,0,0,0-1.62,2.23,4.93,4.93,0,0,0-.76,2c0,.22.08.33.25.33.57,0,1.86-1.24,3.85-3.71A26.24,26.24,0,0,0,203.37,226Z"/><path d="M244.12,236.28a4,4,0,0,1,.33,1.56,1.7,1.7,0,0,1-.94,1.68,3.07,3.07,0,0,1-1,.12,15.33,15.33,0,0,1-3.32-.43,5.86,5.86,0,0,1-2.34-.84.83.83,0,0,1-.2-.53,3.39,3.39,0,0,1,.61-1.46,3.43,3.43,0,0,0,.62-1.45q.08-16.16-.25-16.28-.66-.21-2.66,3.24a13.44,13.44,0,0,0-2.22,6.56v8A5.54,5.54,0,0,1,233,238a1.7,1.7,0,0,1-1.07,1.56,3,3,0,0,1-1,.12,15.33,15.33,0,0,1-3.32-.43,5.86,5.86,0,0,1-2.34-.84.56.56,0,0,1-.16-.41,3.82,3.82,0,0,1,.59-1.48,3.8,3.8,0,0,0,.6-1.55q.08-16.16-.25-16.28c-.38-.14-1.33,1.09-2.83,3.69s-2.38,4.8-2.38,6.19v7.67a1.75,1.75,0,0,1,.53,1.31,2.11,2.11,0,0,1-1.39,2.13,1.21,1.21,0,0,1-.49.08,15.2,15.2,0,0,1-3.24-.51,6.17,6.17,0,0,1-2.38-.84,1.23,1.23,0,0,1-.24-.74,1.64,1.64,0,0,1,.47-1,2.05,2.05,0,0,0,.47-.74V216.84a1.84,1.84,0,0,0-.33-.86,1,1,0,0,1-.2-.9A1.58,1.58,0,0,1,215.3,214a8.94,8.94,0,0,1,3.07.46c1.75.43,2.71.88,2.87,1.35a2.23,2.23,0,0,1-.12,1.35,11.38,11.38,0,0,0-.45,1.64,3.39,3.39,0,0,0,.16,1,12.94,12.94,0,0,1,1.72-3.65c.91-1.29,1.81-1.93,2.71-1.93a9.45,9.45,0,0,1,3.57,1,7.17,7.17,0,0,1,2.58,1.69,9.29,9.29,0,0,1,.82,3c1.12-2.08,1.76-3.27,1.93-3.57.93-1.39,1.81-2.09,2.66-2.09a9.65,9.65,0,0,1,3.61,1c1.48.65,2.32,1.23,2.54,1.75Q244.13,219.5,244.12,236.28Z"/><path d="M278.68,236.28a4,4,0,0,1,.33,1.56,1.68,1.68,0,0,1-.94,1.68,3,3,0,0,1-1,.12,15.4,15.4,0,0,1-3.32-.43,6,6,0,0,1-2.34-.84.83.83,0,0,1-.2-.53,3.39,3.39,0,0,1,.61-1.46,3.43,3.43,0,0,0,.62-1.45q.07-16.16-.25-16.28-.65-.21-2.66,3.24a13.44,13.44,0,0,0-2.22,6.56v8a5.16,5.16,0,0,1,.29,1.48,1.69,1.69,0,0,1-1.06,1.56,3.07,3.07,0,0,1-1,.12,15.33,15.33,0,0,1-3.32-.43,5.93,5.93,0,0,1-2.34-.84.56.56,0,0,1-.16-.41,4,4,0,0,1,.59-1.48,3.8,3.8,0,0,0,.6-1.55q.07-16.16-.25-16.28-.57-.21-2.83,3.69c-1.58,2.73-2.38,4.8-2.38,6.19v7.67a1.76,1.76,0,0,1,.54,1.31,2.11,2.11,0,0,1-1.4,2.13,1.21,1.21,0,0,1-.49.08,15.2,15.2,0,0,1-3.24-.51,6.17,6.17,0,0,1-2.38-.84,1.23,1.23,0,0,1-.24-.74,1.7,1.7,0,0,1,.47-1,2.05,2.05,0,0,0,.47-.74V216.84a1.84,1.84,0,0,0-.33-.86,1.08,1.08,0,0,1-.2-.9,1.59,1.59,0,0,1,1.27-1.11,8.92,8.92,0,0,1,3.07.46c1.75.43,2.71.88,2.87,1.35a2.23,2.23,0,0,1-.12,1.35,11.38,11.38,0,0,0-.45,1.64,3.39,3.39,0,0,0,.16,1,12.69,12.69,0,0,1,1.73-3.65c.9-1.29,1.8-1.93,2.7-1.93a9.36,9.36,0,0,1,3.57,1,7.17,7.17,0,0,1,2.58,1.69,9.29,9.29,0,0,1,.82,3l1.93-3.57c.93-1.39,1.82-2.09,2.66-2.09a9.6,9.6,0,0,1,3.61,1c1.48.65,2.33,1.23,2.54,1.75Q278.69,219.5,278.68,236.28Z"/><path d="M299,231.73c.24.41-.29,1.62-1.6,3.65a13.19,13.19,0,0,1-4.18,4.38,1.61,1.61,0,0,1-.74.13,12.35,12.35,0,0,1-4.18-1,7.76,7.76,0,0,1-3.61-2.13q-2.38-3.08-2.38-8.53a19.15,19.15,0,0,1,2.09-9.1c1.5-2.87,3.42-4.33,5.74-4.39a8.17,8.17,0,0,1,3.08.66,10.07,10.07,0,0,1,3.65,2.34,5.23,5.23,0,0,1,.69,2.21,18.41,18.41,0,0,1,.41,3.85c0,1.86-.3,3.15-.9,3.86a32,32,0,0,1-8.61,1.52,14.74,14.74,0,0,0,.49,4.22c.39,1.47.78,2.23,1.19,2.25s1.2-.42,2-1.35a6,6,0,0,0,1.27-2,19.76,19.76,0,0,1,.78-2.54,6.63,6.63,0,0,1,2.58.66A4.76,4.76,0,0,1,299,231.73Zm-7.3-12.55c-.47-.05-1.11.68-2,2.22a11.51,11.51,0,0,0-1.45,4.38,5.19,5.19,0,0,0,2.95-.9c.44-.33.65-1.69.65-4.1C291.92,219.77,291.86,219.24,291.72,219.18Z"/><path d="M317.55,217.17a.93.93,0,0,1-.45,1.07,9.51,9.51,0,0,0-.94.53c-1.73,2.63-4.06,6.17-7,10.62q0,6.53.05,6.72a9.37,9.37,0,0,0,.3,1,4.63,4.63,0,0,1,.27,1.33,1.06,1.06,0,0,1-.7,1.07,3.15,3.15,0,0,1-1.23.2,10.05,10.05,0,0,1-3.44-.69c-1.59-.55-2.38-1.25-2.38-2.09a3.65,3.65,0,0,1,.33-1.19,3.83,3.83,0,0,0,.33-1.36V218.2c-.31-1.53-.45-2.33-.45-2.38a1.49,1.49,0,0,1,1.14-1.6,5.13,5.13,0,0,1,1.19-.12,10.39,10.39,0,0,1,3,.47c1.05.31,1.67.65,1.86,1a.86.86,0,0,1,.08.41,15,15,0,0,1-.57,2v2c.65-1.18,1.3-2.35,1.93-3.53.84-1.47,1.47-2.25,1.88-2.33a4.4,4.4,0,0,1,2.75,1.06C316.73,215.94,317.41,216.63,317.55,217.17Z"/><path d="M337.64,216.68a.69.69,0,0,1,.12.41,3.52,3.52,0,0,1-.47,1.23,3.4,3.4,0,0,0-.47,1.35v20.05s0,.21,0,.54v.9q0,3.85-2.13,5.16a3.92,3.92,0,0,1-2,.37,17.88,17.88,0,0,1-5.54-.82,11.15,11.15,0,0,1-3-1.72c-1.42-1-2.13-1.87-2.13-2.5,0-.38.26-.74.78-1.07a1.29,1.29,0,0,1,.57-.08,9.07,9.07,0,0,1,4.1.82c.27.33.52.66.74,1a2.2,2.2,0,0,0,1.76.77c.38,0,.58-1.68.58-5V217.21a8.87,8.87,0,0,1-.5-2.09c0-.35.51-.53,1.52-.53a11,11,0,0,1,3.44.76A6.59,6.59,0,0,1,337.64,216.68Zm.29-6.93a2.35,2.35,0,0,1,.12.86,7,7,0,0,1-.33,2.09,2.28,2.28,0,0,1-.9,1.44c-.27.11-1.44-.19-3.51-.88s-3.17-1.2-3.34-1.5a1.24,1.24,0,0,1-.12-.61,5.57,5.57,0,0,1,.57-2.34c.44-.93.93-1.45,1.48-1.56a7.52,7.52,0,0,1,3.3.72C336.77,208.56,337.68,209.15,337.93,209.75Z"/><path d="M354.57,215.41a7.33,7.33,0,0,1,3.49,4.3,20.07,20.07,0,0,1,1.1,7,22.74,22.74,0,0,1-1.88,9.6c-1.4,2.9-3.13,4.21-5.21,3.93-.77-.19-1.91-.42-3.44-.69a17.52,17.52,0,0,1-3-.62q-2.34-.61-3.73-4a19.2,19.2,0,0,1-1.27-7.3A21.5,21.5,0,0,1,341.9,220a10,10,0,0,1,4.14-5.29,2.63,2.63,0,0,1,1.23-.24,18.31,18.31,0,0,1,3.24.53A24,24,0,0,1,354.57,215.41ZM350,219.1c-.74,0-1.42.89-2.05,2.68a15.54,15.54,0,0,0-.94,5.15,24.77,24.77,0,0,0,.69,5.82c.52,2.08,1.12,3.2,1.81,3.36.87.2,1.65-.79,2.33-3a22.62,22.62,0,0,0,1-6.89,16.23,16.23,0,0,0-.54-4.14C351.78,220.11,351,219.1,350,219.1Z"/><path d="M377.86,217.17a.93.93,0,0,1-.45,1.07,9.67,9.67,0,0,0-1,.53q-2.58,3.94-7,10.62c0,4.35,0,6.59,0,6.72s.13.49.31,1a4.63,4.63,0,0,1,.27,1.33,1.06,1.06,0,0,1-.7,1.07,3.15,3.15,0,0,1-1.23.2,10.05,10.05,0,0,1-3.44-.69c-1.59-.55-2.38-1.25-2.38-2.09a3.65,3.65,0,0,1,.33-1.19,3.83,3.83,0,0,0,.33-1.36V218.2c-.31-1.53-.46-2.33-.46-2.38a1.5,1.5,0,0,1,1.15-1.6,5.13,5.13,0,0,1,1.19-.12,10.39,10.39,0,0,1,3,.47c1.05.31,1.67.65,1.86,1a1,1,0,0,1,.08.41,15,15,0,0,1-.57,2v2c.65-1.18,1.3-2.35,1.93-3.53.84-1.47,1.47-2.25,1.88-2.33a4.4,4.4,0,0,1,2.75,1.06C377,215.94,377.72,216.63,377.86,217.17Z"/><path d="M397.09,207.37a4,4,0,0,1-.31,1.6,9.49,9.49,0,0,0-.39,1.36v26.73a4,4,0,0,0,.21,1.68c.41.71.53,1.19.36,1.43s-.49.33-1.06.33a16.45,16.45,0,0,1-2.87-.37c-1.45-.3-2.22-.45-2.3-.45a1.27,1.27,0,0,1-1.06-1,1.79,1.79,0,0,1,0-.54,40.82,40.82,0,0,1,.45-5c-.66,1.31-1.3,2.63-1.93,3.94-.9,1.61-1.71,2.35-2.42,2.21q-8.07-1.63-8.08-9.92a20.31,20.31,0,0,1,2.59-9.59q2.49-4.73,5.49-6.15a1.69,1.69,0,0,1,.78-.21q1,0,3.57,2.54V208a6.05,6.05,0,0,0-.37-1.17,3.89,3.89,0,0,1-.33-1.25c0-.57.38-.86,1.15-.86a11.41,11.41,0,0,1,3,.57c.82.28,1.63.54,2.42.78A1.52,1.52,0,0,1,397.09,207.37ZM390,218c-1.53.68-2.91,2.19-4.16,4.51a13.87,13.87,0,0,0-1.86,6.48q0,3.48,2.7,3.81Q388.07,232.92,390,218Z"/><path d="M416.11,231.73c.25.41-.29,1.62-1.6,3.65a13.09,13.09,0,0,1-4.18,4.38,1.58,1.58,0,0,1-.74.13,12.4,12.4,0,0,1-4.18-1,7.82,7.82,0,0,1-3.61-2.13c-1.58-2.05-2.38-4.89-2.38-8.53a19,19,0,0,1,2.1-9.1q2.25-4.3,5.74-4.39a8.13,8.13,0,0,1,3.07.66,10,10,0,0,1,3.65,2.34,5,5,0,0,1,.7,2.21,19.11,19.11,0,0,1,.41,3.85c0,1.86-.3,3.15-.91,3.86a32,32,0,0,1-8.61,1.52,14.42,14.42,0,0,0,.5,4.22c.38,1.47.78,2.23,1.19,2.25s1.2-.42,2-1.35a5.82,5.82,0,0,0,1.27-2,23.53,23.53,0,0,1,.78-2.54,6.71,6.71,0,0,1,2.59.66A4.76,4.76,0,0,1,416.11,231.73Zm-7.3-12.55c-.46-.05-1.11.68-1.94,2.22a11.54,11.54,0,0,0-1.46,4.38,5.19,5.19,0,0,0,2.95-.9c.44-.33.66-1.69.66-4.1C409,219.77,409,219.24,408.81,219.18Z"/><path d="M437.8,236.28a4,4,0,0,1,.33,1.56,1.7,1.7,0,0,1-.94,1.68,3.07,3.07,0,0,1-1,.12,15.33,15.33,0,0,1-3.32-.43,5.86,5.86,0,0,1-2.34-.84.78.78,0,0,1-.2-.53,3.39,3.39,0,0,1,.61-1.46,3.43,3.43,0,0,0,.62-1.45q.08-16.16-.25-16.28c-.38-.14-1.33,1.09-2.83,3.69s-2.38,4.8-2.38,6.19v7.67a1.76,1.76,0,0,1,.54,1.31,2.11,2.11,0,0,1-1.4,2.13,1.21,1.21,0,0,1-.49.08,15.2,15.2,0,0,1-3.24-.51,6.17,6.17,0,0,1-2.38-.84,1.23,1.23,0,0,1-.24-.74,1.64,1.64,0,0,1,.47-1,2.05,2.05,0,0,0,.47-.74V216.84a1.84,1.84,0,0,0-.33-.86,1.08,1.08,0,0,1-.2-.9,1.59,1.59,0,0,1,1.27-1.11,8.92,8.92,0,0,1,3.07.46c1.75.43,2.71.88,2.87,1.35a2.23,2.23,0,0,1-.12,1.35,11.38,11.38,0,0,0-.45,1.64,3.39,3.39,0,0,0,.16,1,12.69,12.69,0,0,1,1.73-3.65c.9-1.29,1.8-1.93,2.7-1.93a9.65,9.65,0,0,1,3.61,1c1.48.65,2.32,1.23,2.54,1.75Q437.81,219.5,437.8,236.28Z"/><path d="M448.91,234.35a3.06,3.06,0,0,1-.49,1.56,4.54,4.54,0,0,0-.66,2,4.81,4.81,0,0,1,0,.94c-.11.79-.33,1.26-.65,1.39s-1.29-.08-2.71-.73A5.88,5.88,0,0,1,442,238c-.13-.25.06-1,.58-2.3a18.86,18.86,0,0,1,1.14-2.46,1,1,0,0,1,.91-.41,19,19,0,0,0,2.46.5C448.2,233.48,448.8,233.83,448.91,234.35Z"/><path d="M209,267.89a23.29,23.29,0,0,1-2.42,9.72,39.64,39.64,0,0,1-4.83,7.95c-1.73,2.13-3,3.38-3.82,3.73a3.59,3.59,0,0,1-1.39.25,9.45,9.45,0,0,1-4.1-1.15,9.73,9.73,0,0,1-3.08-2.05V256.82a1.38,1.38,0,0,1,1.23-1.27,15,15,0,0,1,2,.28,8.5,8.5,0,0,0,2.44-.86,9.23,9.23,0,0,1,3.55-.9,6.79,6.79,0,0,1,3.44,1,23.28,23.28,0,0,1,2.83,2.21,11.19,11.19,0,0,1,3.57,5A21.75,21.75,0,0,1,209,267.89ZM202.2,260a1.26,1.26,0,0,0-.66-.13,10.39,10.39,0,0,0-5.21,1.89v18.45q2.79-1.6,4.76-7.83a33,33,0,0,0,1.68-9.76C202.77,261.07,202.58,260.19,202.2,260Z"/><path d="M231.22,264.69a1.37,1.37,0,0,1,.29.82,1.75,1.75,0,0,1-.47,1c-.31.38-.47.62-.47.73V286.3a2.82,2.82,0,0,0,.26.86,2.6,2.6,0,0,1,.27.9c0,.49-.42.85-1.27,1.07a8.56,8.56,0,0,1-3.07-.45c-1.75-.44-2.71-.88-2.87-1.32a2.05,2.05,0,0,1,.12-1.43,5.13,5.13,0,0,0,.41-1.48,6.09,6.09,0,0,0-.12-1.06,13,13,0,0,1-1.73,3.65c-.9,1.25-1.8,1.88-2.7,1.88a9.75,9.75,0,0,1-3.61-.94c-1.48-.63-2.32-1.2-2.54-1.72q-1.16-2.62-1.15-19.4a3.89,3.89,0,0,1-.33-1.55,1.75,1.75,0,0,1,.94-1.73,3.07,3.07,0,0,1,1-.12,15.33,15.33,0,0,1,3.32.43,5.39,5.39,0,0,1,2.34.88.88.88,0,0,1,.2.54,3.37,3.37,0,0,1-.61,1.45,3.45,3.45,0,0,0-.62,1.46q-.08,16.15.25,16.27.57.21,2.89-3.79c1.54-2.66,2.32-4.69,2.32-6.09V267a1.8,1.8,0,0,1-.54-1.32,2.15,2.15,0,0,1,1.4-2.17,1.21,1.21,0,0,1,.49-.08,15.2,15.2,0,0,1,3.24.51A6.28,6.28,0,0,1,231.22,264.69Z"/><path d="M262,287.2a1.86,1.86,0,0,1-.9,1.52,3,3,0,0,1-1,.12,15.33,15.33,0,0,1-3.32-.43,5.86,5.86,0,0,1-2.34-.84.76.76,0,0,1-.16-.49,4.17,4.17,0,0,1,.36-1.23l.54-.72a1.64,1.64,0,0,0,.28-1q.09-16.15-.24-16.28-.61-.21-2.83,3-2.39,3.41-2.38,5.45v9.11a1.78,1.78,0,0,1,.45,1.72,2.18,2.18,0,0,1-1.31,1.72,1.21,1.21,0,0,1-.49.08,15.2,15.2,0,0,1-3.24-.51,7.7,7.7,0,0,1-2.34-.76,1.49,1.49,0,0,1-.08-1.52,1.7,1.7,0,0,1,.39-.43.84.84,0,0,0,.35-.59v-29a1.8,1.8,0,0,0-.33-.86,1.05,1.05,0,0,1-.2-.9,1.58,1.58,0,0,1,1.27-1.11,8.58,8.58,0,0,1,3.07.45c1.75.44,2.71.89,2.87,1.36a2.23,2.23,0,0,1-.12,1.35,7.4,7.4,0,0,0-.29,2.21v7.67q2.29-2.91,4.43-2.91a9.65,9.65,0,0,1,3.61,1c1.47.64,2.32,1.23,2.54,1.74q1.14,2.63,1.15,19.4A3.11,3.11,0,0,1,262,287.2Z"/><path d="M284.57,287.2a1.44,1.44,0,0,1-.5,1,1.17,1.17,0,0,1-1,.33c-3.39-.46-5.28-1.11-5.66-1.93a.61.61,0,0,1-.08-.32.77.77,0,0,1,.18-.45,1.22,1.22,0,0,0,.23-.43.93.93,0,0,1,.16-.35,6.17,6.17,0,0,0,0-1.44,8.36,8.36,0,0,0-1.47,2,10.49,10.49,0,0,1-1.81,2.46,4.24,4.24,0,0,1-3,1.23,3,3,0,0,1-1.93-.78,20.63,20.63,0,0,1-1.6-1.6c-1.31-1.47-2-2.28-2.13-2.42a3.69,3.69,0,0,1-.86-2.17,3,3,0,0,1,.08-.66c.52-2.4,2.14-4.68,4.84-6.84a46.41,46.41,0,0,1,8.37-5c0-.88-.22-1.44-.66-1.69-.27-.16-1.23.15-2.87.93a17.21,17.21,0,0,0-3.44,2,12.35,12.35,0,0,1-1.07.9,1.62,1.62,0,0,1-1.27.24,7.55,7.55,0,0,1-1.93-1.47,6.35,6.35,0,0,1-1.6-1.81,1.38,1.38,0,0,1,.7-1.72s.57-.19,1.64-.49l3-1.64a15.21,15.21,0,0,1,5.42-1.64,3.26,3.26,0,0,1,2.13,1c.71.63,1.43,1.25,2.15,1.87s1.47,1.21,2.23,1.78a3.14,3.14,0,0,1,1.32,2.22v15.5A4.13,4.13,0,0,1,284.57,287.2Zm-6.56-12a8.88,8.88,0,0,0-3.45,2.38q-1.06,1.31-2.13,2.58a10.2,10.2,0,0,0-1.62,2.23,4.93,4.93,0,0,0-.76,2c0,.22.08.33.25.33.57,0,1.86-1.24,3.85-3.71A26.24,26.24,0,0,0,278,275.23Z"/><path d="M303.79,266.37a.93.93,0,0,1-.45,1.07,9.51,9.51,0,0,0-.94.53c-1.72,2.62-4.06,6.17-7,10.62q0,6.53,0,6.72c0,.14.13.49.31,1.05a4.91,4.91,0,0,1,.26,1.33,1.06,1.06,0,0,1-.69,1.07,3.15,3.15,0,0,1-1.23.2,10.15,10.15,0,0,1-3.45-.69c-1.58-.55-2.38-1.25-2.38-2.1a3.67,3.67,0,0,1,.33-1.18,3.83,3.83,0,0,0,.33-1.36V267.4c-.3-1.53-.45-2.33-.45-2.38a1.49,1.49,0,0,1,1.15-1.6,5.08,5.08,0,0,1,1.19-.12,10.33,10.33,0,0,1,3,.47,3.3,3.3,0,0,1,1.87,1,1,1,0,0,1,.08.41,14.2,14.2,0,0,1-.58,2v2c.66-1.18,1.3-2.35,1.93-3.53.85-1.47,1.48-2.25,1.89-2.33a4.38,4.38,0,0,1,2.74,1.06C303,265.14,303.66,265.83,303.79,266.37Z"/><path d="M341.84,275.64c0,.6-.59,1.12-1.76,1.56-1.18.19-2.5.42-4,.69v9.6a2.52,2.52,0,0,0,.08.49,1.28,1.28,0,0,1,0,.57,2.2,2.2,0,0,1-.8,1.5,1.74,1.74,0,0,1-1.37.55c-1.67-.22-3.52-1.51-5.57-3.89a2,2,0,0,1-.25-1.44.76.76,0,0,1,.29-.49.79.79,0,0,0,.28-.53v-5.37c-2.27.73-4,1.27-5.12,1.6a27.1,27.1,0,0,1-4.22.94c-.66.05-1.69-.41-3.08-1.4a10.34,10.34,0,0,1-2.38-2.09,1.06,1.06,0,0,1-.2-.61,4.05,4.05,0,0,1,.9-1.76,16.45,16.45,0,0,0,1.27-1.4q.07-.07,6.36-10.08,6.15-9.81,6.6-10a4.11,4.11,0,0,1,2-.78A8.64,8.64,0,0,1,334.3,255c1.61,1.14,2.47,2,2.58,2.53.08.3-.19.88-.82,1.76v11.15l1.48-.24a1.39,1.39,0,0,1,.86.28,15.32,15.32,0,0,1,2.09,2.73A9.26,9.26,0,0,1,341.84,275.64Zm-12.95-3.41v-5.65l-4.39,7.13Z"/><path d="M360.37,255.67q2,.45,3.2,4.27a31.34,31.34,0,0,1,1.07,8.85A44.73,44.73,0,0,1,363,280.93q-2.43,8.56-7.06,8.57a5.87,5.87,0,0,1-1.8-.37c-1.15-.44-1.78-.67-1.89-.7-.73-.3-1.95-.75-3.65-1.35q-2-.7-3.36-5.83A44.12,44.12,0,0,1,344,270.31a37.48,37.48,0,0,1,1.27-10.42c.93-3.22,2.29-5.15,4.06-5.78a1.86,1.86,0,0,1,.33,0,1.41,1.41,0,0,1,.7.25c.27.16.48.22.61.16a7.65,7.65,0,0,1,2.46-.41,13,13,0,0,1,3.53.62C359,255.29,360.13,255.62,360.37,255.67Zm-5.16,2.62q-2,0-3.08,4.43a36.34,36.34,0,0,0-.86,8.33,42.12,42.12,0,0,0,.86,8.11q.87,4.35,1.68,4.35c1.07,0,1.94-1.67,2.63-5a54.51,54.51,0,0,0,.86-10.25,41.08,41.08,0,0,0-.49-7C356.42,259.29,355.89,258.29,355.21,258.29Z"/><path d="M393.71,284a4.61,4.61,0,0,1-1.5,3.61A6.17,6.17,0,0,1,388,289a5.53,5.53,0,0,1-1.44-.2c-.93-.25-1.42-.38-1.47-.41l-1.5-.35a3,3,0,0,1-1.29-.63,10.21,10.21,0,0,1-1.77-2.26q-.69-1.14-1.35-2.34a5.15,5.15,0,0,1-.65-1.43c0-.38.27-.67.82-.86a2.07,2.07,0,0,1,.73-.08,22.14,22.14,0,0,1,3.1.26,6.54,6.54,0,0,1,2,.45,9.54,9.54,0,0,1,.45,2.36c.16,1.26.45,1.89.86,1.89.63,0,.94-.85.94-2.54,0-2.16-.57-3.52-1.72-4.06a16.52,16.52,0,0,1-5.16-3.28,8,8,0,0,1-1.52-5.33,8.49,8.49,0,0,1,1.23-4.41,4.84,4.84,0,0,1,2.91-2.48q.74-.16,4.76,1.56c.24.08,1,.23,2.17.45a3,3,0,0,1,1.8.86,5.14,5.14,0,0,1,.9,3c0,1,.05,2,.05,3a13.63,13.63,0,0,1,.28,1.65,1.18,1.18,0,0,1-1.1,1.31,6.67,6.67,0,0,1-2.26-.45,5,5,0,0,1-2.34-1.28,17.68,17.68,0,0,1-.24-3.07c-.08-1.83-.28-2.75-.58-2.75s-.79.54-1.14,1.6a10.36,10.36,0,0,0-.54,3.32c0,1.45.32,2.37.95,2.75,1.33.74,2.67,1.48,4,2.23a8,8,0,0,1,2.77,2.32A7.54,7.54,0,0,1,393.71,284Z"/><path d="M413.39,280.93c.24.41-.29,1.62-1.6,3.65A13.2,13.2,0,0,1,407.6,289a1.7,1.7,0,0,1-.73.13,12.45,12.45,0,0,1-4.19-1,7.72,7.72,0,0,1-3.6-2.13q-2.38-3.08-2.38-8.53a19.15,19.15,0,0,1,2.09-9.1c1.5-2.87,3.42-4.33,5.74-4.39a8.09,8.09,0,0,1,3.07.66,9.9,9.9,0,0,1,3.65,2.34,5,5,0,0,1,.7,2.21,19.11,19.11,0,0,1,.41,3.85c0,1.86-.3,3.15-.9,3.86a31.78,31.78,0,0,1-8.61,1.51,14.42,14.42,0,0,0,.49,4.23c.38,1.47.78,2.23,1.19,2.25s1.2-.42,2-1.35a6.14,6.14,0,0,0,1.27-2,19.76,19.76,0,0,1,.78-2.54,6.83,6.83,0,0,1,2.58.65A4.89,4.89,0,0,1,413.39,280.93Zm-7.3-12.55c-.47-.05-1.12.68-1.95,2.21a11.82,11.82,0,0,0-1.46,4.39,5.22,5.22,0,0,0,3-.9c.43-.33.65-1.69.65-4.1C406.29,269,406.22,268.44,406.09,268.38Z"/><path d="M432.08,275.31a3.35,3.35,0,0,1-1.35.16,6.27,6.27,0,0,1-1.21-.24A6,6,0,0,0,428,275h-6.27a2,2,0,0,0-1.07.43,1.64,1.64,0,0,1-1.06.39,1.68,1.68,0,0,1-1.32-.92c-.32-.56-.64-1.11-.94-1.66-.3-.38-.61-.79-.92-1.21a1.87,1.87,0,0,1-.47-1,1.91,1.91,0,0,1,.45-1.35,2,2,0,0,1,1.11-.74c.51,0,1.39,0,2.62,0,1-.09,2.06-.15,3.07-.21,2.19-.14,3.93-.21,5.21-.21a6.53,6.53,0,0,1,2.67.29,4.93,4.93,0,0,1,1.31,2.38,10,10,0,0,1,.49,2.83A1.25,1.25,0,0,1,432.08,275.31Z"/><path d="M263.76,333.28c.05.52-.47,1.47-1.56,2.83s-1.94,2-2.54,1.93q-1.77-.24-7.46-9.51c-.28.3-.74.78-1.4,1.43v4.84a4.8,4.8,0,0,0,.11.74c.06.35.11.61.14.78.08.93-.11,1.53-.58,1.8a2.48,2.48,0,0,1-1.18.21,8.21,8.21,0,0,1-3-.58c-1.15-.43-1.72-.95-1.72-1.55V305.77a3.17,3.17,0,0,1,.41-1.43,2,2,0,0,1,.94-1,1.34,1.34,0,0,1,.33,0,9.13,9.13,0,0,1,3,.72c1.27.48,2,.9,2.11,1.25a1.19,1.19,0,0,1,.13.49,1.68,1.68,0,0,1-.33.84,1.84,1.84,0,0,0-.33,1V321.8l6.07-8.32a1.73,1.73,0,0,1,1.35-.78,3.93,3.93,0,0,1,2.18,1,3.19,3.19,0,0,1,1.59,2.25c0,.3-.61,1.37-1.92,3.2-2,2.9-3.21,4.62-3.57,5.17l5.33,7.33a3.27,3.27,0,0,0,1.19.87C263.47,332.75,263.73,333,263.76,333.28Z"/><path d="M285.16,313.89a1.44,1.44,0,0,1,.29.82,1.75,1.75,0,0,1-.47,1c-.32.38-.48.62-.48.73V335.5a2.65,2.65,0,0,0,.27.86,2.6,2.6,0,0,1,.27.9c0,.49-.43.85-1.27,1.07a8.6,8.6,0,0,1-3.08-.45c-1.75-.44-2.7-.88-2.87-1.32a2.05,2.05,0,0,1,.12-1.43,4.81,4.81,0,0,0,.41-1.48,6.09,6.09,0,0,0-.12-1.06,12.93,12.93,0,0,1-1.72,3.65c-.9,1.25-1.8,1.88-2.71,1.88a9.66,9.66,0,0,1-3.6-.94c-1.48-.63-2.33-1.2-2.55-1.72q-1.14-2.62-1.15-19.4a4.06,4.06,0,0,1-.32-1.55,1.74,1.74,0,0,1,.94-1.73,3,3,0,0,1,1-.12,15.48,15.48,0,0,1,3.32.43,5.27,5.27,0,0,1,2.33.88.84.84,0,0,1,.21.54,3.43,3.43,0,0,1-.62,1.45,3.39,3.39,0,0,0-.61,1.46q-.09,16.15.24,16.27.59.21,2.89-3.79t2.32-6.09v-7.66a1.83,1.83,0,0,1-.53-1.32,2.14,2.14,0,0,1,1.39-2.17,1.21,1.21,0,0,1,.49-.08,15.2,15.2,0,0,1,3.24.51A6.47,6.47,0,0,1,285.16,313.89Z"/><path d="M307.79,334.68a4,4,0,0,1,.33,1.56,1.68,1.68,0,0,1-.94,1.68,3,3,0,0,1-1,.12,15.4,15.4,0,0,1-3.32-.43,6,6,0,0,1-2.34-.84.85.85,0,0,1-.2-.53,3.39,3.39,0,0,1,.61-1.46,3.43,3.43,0,0,0,.62-1.45q.08-16.15-.25-16.28-.57-.21-2.83,3.69c-1.58,2.73-2.37,4.8-2.37,6.19v7.67a1.79,1.79,0,0,1,.53,1.31,2.11,2.11,0,0,1-1.4,2.13,1.18,1.18,0,0,1-.49.08,15.2,15.2,0,0,1-3.24-.51,6,6,0,0,1-2.37-.84,1.18,1.18,0,0,1-.25-.74,1.7,1.7,0,0,1,.47-1c.32-.39.47-.63.47-.74V315.24a1.84,1.84,0,0,0-.33-.86,1.12,1.12,0,0,1-.2-.9,1.59,1.59,0,0,1,1.27-1.11,9,9,0,0,1,3.08.46c1.74.43,2.7.88,2.87,1.35a2.33,2.33,0,0,1-.13,1.35,11.38,11.38,0,0,0-.45,1.64,3.43,3.43,0,0,0,.17,1,12.67,12.67,0,0,1,1.72-3.65c.9-1.29,1.8-1.93,2.7-1.93a9.6,9.6,0,0,1,3.61,1c1.48.65,2.32,1.23,2.54,1.75Q307.8,317.9,307.79,334.68Z"/><path d="M330.75,305.77a3.85,3.85,0,0,1-.31,1.6,9.49,9.49,0,0,0-.39,1.36v26.73a4,4,0,0,0,.21,1.68c.41.71.53,1.19.37,1.43s-.49.33-1.07.33a16.56,16.56,0,0,1-2.87-.37c-1.45-.3-2.21-.45-2.29-.45a1.28,1.28,0,0,1-1.07-1,1.79,1.79,0,0,1,0-.54,40.82,40.82,0,0,1,.45-5c-.66,1.31-1.3,2.63-1.93,3.94-.9,1.61-1.71,2.35-2.42,2.21q-8.07-1.63-8.07-9.92a20.41,20.41,0,0,1,2.58-9.59q2.5-4.72,5.49-6.15a1.76,1.76,0,0,1,.78-.21c.69,0,1.87.85,3.57,2.54v-7.95a6.05,6.05,0,0,0-.37-1.17A3.89,3.89,0,0,1,323,304c0-.57.39-.86,1.15-.86a11.34,11.34,0,0,1,2.95.57c.82.28,1.63.54,2.42.78A1.52,1.52,0,0,1,330.75,305.77Zm-7.13,10.58c-1.53.68-2.92,2.19-4.16,4.51a13.77,13.77,0,0,0-1.87,6.48q0,3.48,2.71,3.81Q321.73,331.32,323.62,316.35Z"/><path d="M349.78,330.13c.24.41-.29,1.62-1.6,3.65a13.2,13.2,0,0,1-4.19,4.38,1.56,1.56,0,0,1-.73.13,12.45,12.45,0,0,1-4.19-1,7.72,7.72,0,0,1-3.6-2.13q-2.39-3.07-2.38-8.53a19.15,19.15,0,0,1,2.09-9.1c1.5-2.87,3.42-4.33,5.74-4.39a8.09,8.09,0,0,1,3.07.66,9.9,9.9,0,0,1,3.65,2.34,5,5,0,0,1,.7,2.21,19.11,19.11,0,0,1,.41,3.85c0,1.86-.3,3.15-.9,3.86a31.78,31.78,0,0,1-8.61,1.51,14.42,14.42,0,0,0,.49,4.23c.38,1.47.78,2.23,1.19,2.25s1.2-.42,2-1.35a6.14,6.14,0,0,0,1.27-2,19.76,19.76,0,0,1,.78-2.54,6.83,6.83,0,0,1,2.58.65A4.89,4.89,0,0,1,349.78,330.13Zm-7.3-12.55c-.47-.05-1.12.68-2,2.21a11.82,11.82,0,0,0-1.46,4.39,5.22,5.22,0,0,0,3-.9c.43-.33.65-1.69.65-4.1C342.68,318.17,342.61,317.64,342.48,317.58Z"/><path d="M368.31,315.57a.93.93,0,0,1-.45,1.07,9.67,9.67,0,0,0-.95.53c-1.72,2.62-4.06,6.17-7,10.62,0,4.35,0,6.59,0,6.72s.13.49.31,1.05a4.63,4.63,0,0,1,.27,1.33,1.07,1.07,0,0,1-.7,1.07,3.15,3.15,0,0,1-1.23.2,10.05,10.05,0,0,1-3.44-.69c-1.59-.55-2.38-1.25-2.38-2.09a3.65,3.65,0,0,1,.33-1.19,4,4,0,0,0,.32-1.36V316.6c-.3-1.53-.45-2.33-.45-2.38a1.49,1.49,0,0,1,1.15-1.6,5.08,5.08,0,0,1,1.19-.12,10.28,10.28,0,0,1,3,.47c1.06.31,1.68.65,1.87,1a1,1,0,0,1,.08.41,15,15,0,0,1-.57,2v2c.65-1.18,1.29-2.35,1.92-3.53.85-1.47,1.48-2.25,1.89-2.33a4.4,4.4,0,0,1,2.75,1.06C367.49,314.34,368.17,315,368.31,315.57Z"/><path d="M377.9,325.21c-.06,1-.31,1.57-.78,1.68a1.9,1.9,0,0,1-.41,0,6.81,6.81,0,0,1-3-.94,9.82,9.82,0,0,1-3-2.26c-.33-.35-.33-1,0-2s.49-1.45.49-1.47v-15.5a1.53,1.53,0,0,1,1.23-1.48,2.44,2.44,0,0,1,.7-.08,8.69,8.69,0,0,1,2.62.49,3.55,3.55,0,0,1,1.84,1.07,11.6,11.6,0,0,1,.09,2.21v16.73a4,4,0,0,0,.08.72A5.17,5.17,0,0,1,377.9,325.21Zm0,5.94a7.63,7.63,0,0,1,0,2c-.11,1.42-.16,2.3-.16,2.63a14.88,14.88,0,0,1-.17,2.54,1.2,1.2,0,0,1-1,1.06,7.34,7.34,0,0,1-2.83-.82,7.22,7.22,0,0,1-3-1.76c-.2-.3-.13-.79.2-1.48a3.59,3.59,0,0,0,.29-1.51,31.2,31.2,0,0,1,0-3.45c.11-1,.52-1.46,1.23-1.43a11.25,11.25,0,0,1,3.2.92C377.05,330.42,377.79,330.85,377.9,331.15Z"/></svg>
