<svg id="Layer_1" data-name="Layer 1" xmlns="http://www.w3.org/2000/svg" width="1920" height="1080" viewBox="0 0 1920 1080"><defs><style>.cls-1{fill:#b4e0f1;}.cls-2{fill:#39b54a;}.cls-3,.cls-38{opacity:0.16;}.cls-4{fill:#009245;}.cls-5{fill:#8cc63f;}.cls-6{fill:#d9e021;}.cls-7{fill:#8c6239;}.cls-8{fill:#006837;}.cls-9{fill:#fbb03b;}.cls-10{fill:#543813;}.cls-11{fill:#a67c52;}.cls-12{fill:#754c24;}.cls-13{fill:#f7931e;}.cls-14{fill:#f15a24;}.cls-15,.cls-18,.cls-20,.cls-21,.cls-31,.cls-32,.cls-33,.cls-34{fill:none;}.cls-15{stroke:#f15a24;}.cls-15,.cls-18,.cls-20,.cls-21{stroke-linecap:round;}.cls-15,.cls-18,.cls-20,.cls-21,.cls-29,.cls-31,.cls-32,.cls-33,.cls-34,.cls-35,.cls-36,.cls-43{stroke-miterlimit:10;}.cls-15,.cls-18,.cls-20,.cls-43{stroke-width:2px;}.cls-16{fill:#fcee21;}.cls-17{fill:#fff;}.cls-18{stroke:#39b54a;}.cls-19{fill:#ed1c24;}.cls-20{stroke:#ed1c24;}.cls-21{stroke:#fbb03b;stroke-width:5px;}.cls-22{fill:#998675;}.cls-23{fill:#736357;}.cls-24{opacity:0.14;}.cls-25{opacity:0.15;}.cls-26,.cls-27,.cls-36{fill:#00a99d;}.cls-27{opacity:0.9;}.cls-28{fill:#999;}.cls-29,.cls-40,.cls-43{fill:#666;}.cls-29,.cls-43{stroke:gray;}.cls-29{stroke-width:0.5px;}.cls-30{fill:#e6e6e6;}.cls-31,.cls-32,.cls-33,.cls-34,.cls-35{stroke:#c7b299;}.cls-31{stroke-width:13px;}.cls-32{stroke-width:11px;}.cls-33{stroke-width:12px;}.cls-34{stroke-width:14px;}.cls-35{fill:#c7b299;}.cls-36{stroke:blue;}.cls-37{fill:#c1272d;}.cls-38{fill:#603813;}.cls-39{fill:#b3b3b3;}.cls-41{fill:#4d4d4d;}.cls-42{fill:#333;}</style></defs><title>titelskaerm</title><rect class="cls-1" width="1920" height="1080"/><polygon class="cls-2" points="1633.36 941.74 1478.18 941.73 1323 941.7 1411.18 789.01 1478.18 672.98 1478.2 672.94 1545.21 789.02 1633.36 941.74"/><polygon class="cls-2" points="1573.42 649.63 1478.18 649.63 1439.14 649.62 1382.63 649.62 1478.04 484.38 1478.18 484.62 1573.42 649.63"/><polygon class="cls-2" points="1599.3 789.02 1545.21 789.02 1478.18 789.01 1358.66 789.01 1439.14 649.62 1478.18 582.02 1478.99 580.61 1518.83 649.63 1599.3 789.02"/><polygon class="cls-3" points="1478.18 484.62 1478.18 941.73 1323 941.7 1411.18 789.01 1358.66 789.01 1439.14 649.62 1382.63 649.62 1478.04 484.38 1478.18 484.62"/><polygon class="cls-2" points="1215.36 960.74 1060.18 960.73 905 960.7 993.18 808.01 1060.18 691.98 1060.2 691.94 1127.21 808.02 1215.36 960.74"/><polygon class="cls-2" points="1155.42 668.63 1060.18 668.63 1021.14 668.62 964.63 668.62 1060.04 503.38 1060.18 503.62 1155.42 668.63"/><polygon class="cls-2" points="1181.3 808.02 1127.21 808.02 1060.18 808.01 940.66 808.01 1021.14 668.62 1060.18 601.02 1060.99 599.61 1100.83 668.63 1181.3 808.02"/><polygon class="cls-3" points="1060.18 503.62 1060.18 960.73 905 960.7 993.18 808.01 940.66 808.01 1021.14 668.62 964.63 668.62 1060.04 503.38 1060.18 503.62"/><polygon class="cls-2" points="801.36 961.74 646.18 961.73 491 961.7 579.18 809.01 646.18 692.98 646.21 692.94 713.21 809.02 801.36 961.74"/><polygon class="cls-2" points="741.42 669.63 646.18 669.63 607.14 669.62 550.63 669.62 646.04 504.38 646.18 504.62 741.42 669.63"/><polygon class="cls-2" points="767.29 809.02 713.21 809.02 646.18 809.01 526.66 809.01 607.14 669.62 646.18 602.02 646.99 600.61 686.83 669.63 767.29 809.02"/><polygon class="cls-3" points="646.18 504.62 646.18 961.73 491 961.7 579.18 809.01 526.66 809.01 607.14 669.62 550.63 669.62 646.04 504.38 646.18 504.62"/><polygon class="cls-2" points="378.36 961.74 223.18 961.73 68 961.7 156.18 809.01 223.18 692.98 223.21 692.94 290.21 809.02 378.36 961.74"/><polygon class="cls-2" points="318.42 669.63 223.18 669.63 184.14 669.62 127.63 669.62 223.04 504.38 223.18 504.62 318.42 669.63"/><polygon class="cls-2" points="344.3 809.02 290.21 809.02 223.18 809.01 103.66 809.01 184.14 669.62 223.18 602.02 223.99 600.61 263.83 669.63 344.3 809.02"/><polygon class="cls-3" points="223.18 504.62 223.18 961.73 68 961.7 156.18 809.01 103.66 809.01 184.14 669.62 127.63 669.62 223.04 504.38 223.18 504.62"/><circle class="cls-2" cx="324.56" cy="381.73" r="37.94"/><circle class="cls-2" cx="362.5" cy="483.51" r="37.94"/><circle class="cls-4" cx="316.23" cy="432.62" r="37.94"/><circle class="cls-5" cx="374.52" cy="388.2" r="37.94"/><circle class="cls-6" cx="362.5" cy="350.27" r="37.94"/><circle class="cls-5" cx="316.23" cy="477.96" r="37.94"/><circle class="cls-6" cx="394.88" cy="495.54" r="37.94"/><circle class="cls-2" cx="368.05" cy="430.77" r="37.94"/><circle class="cls-4" cx="294.95" cy="394.68" r="37.94"/><circle class="cls-2" cx="438.37" cy="404.86" r="37.94"/><circle class="cls-4" cx="400.43" cy="350.27" r="37.94"/><circle class="cls-5" cx="414.31" cy="445.57" r="37.94"/><circle class="cls-4" cx="441.15" cy="426.14" r="37.94"/><circle class="cls-2" cx="423.57" cy="468.71" r="37.94"/><rect class="cls-7" x="346.61" y="435.53" width="56.44" height="431.21" rx="12"/><path class="cls-3" d="M375,435.53V866.74H358.61a12,12,0,0,1-12-12V447.53a12,12,0,0,1,12-12Z"/><polygon class="cls-2" points="640.36 961.74 485.18 961.73 330 961.7 418.18 809.01 485.18 692.98 485.2 692.94 552.21 809.02 640.36 961.74"/><polygon class="cls-2" points="580.42 669.63 485.18 669.63 446.14 669.62 389.63 669.62 485.04 504.38 485.18 504.62 580.42 669.63"/><polygon class="cls-2" points="606.29 809.02 552.21 809.02 485.18 809.01 365.66 809.01 446.14 669.62 485.18 602.02 485.99 600.61 525.83 669.63 606.29 809.02"/><polygon class="cls-3" points="485.18 504.62 485.18 961.73 330 961.7 418.18 809.01 365.66 809.01 446.14 669.62 389.63 669.62 485.04 504.38 485.18 504.62"/><polygon class="cls-2" points="1431.36 938.74 1276.18 938.73 1121 938.7 1209.18 786.01 1276.18 669.98 1276.2 669.94 1343.21 786.02 1431.36 938.74"/><polygon class="cls-2" points="1371.42 646.63 1276.18 646.63 1237.14 646.62 1180.63 646.62 1276.04 481.38 1276.18 481.62 1371.42 646.63"/><polygon class="cls-2" points="1397.3 786.02 1343.21 786.02 1276.18 786.01 1156.66 786.01 1237.14 646.62 1276.18 579.02 1276.99 577.61 1316.83 646.63 1397.3 786.02"/><polygon class="cls-3" points="1276.18 481.62 1276.18 938.73 1121 938.7 1209.18 786.01 1156.66 786.01 1237.14 646.62 1180.63 646.62 1276.04 481.38 1276.18 481.62"/><polygon class="cls-8" points="1752.83 618.83 1528.95 618.81 1640.91 424.94 1752.83 618.83"/><circle class="cls-2" cx="1266.64" cy="480.92" r="41.97"/><circle class="cls-2" cx="1178.06" cy="372.6" r="41.97"/><circle class="cls-2" cx="1272" cy="335.64" r="41.97"/><circle class="cls-4" cx="1311.26" cy="409.84" r="41.97"/><circle class="cls-4" cx="1240.05" cy="400.02" r="41.97"/><circle class="cls-5" cx="1229.64" cy="345.31" r="41.97"/><circle class="cls-5" cx="1211.09" cy="435.03" r="41.97"/><circle class="cls-6" cx="1207.7" cy="387.03" r="41.97"/><circle class="cls-5" cx="1152.72" cy="386" r="41.97"/><circle class="cls-5" cx="1214.47" cy="502.73" r="41.97"/><circle class="cls-6" cx="1317.25" cy="471.52" r="41.97"/><circle class="cls-2" cx="1210.65" cy="315.98" r="41.97"/><circle class="cls-2" cx="1284.7" cy="409.99" r="41.97"/><circle class="cls-5" cx="1307.92" cy="364.12" r="41.97"/><circle class="cls-2" cx="1173.99" cy="454.66" r="41.97"/><rect class="cls-7" x="1087.82" y="425.95" width="70.39" height="537.79" rx="14.97"/><path class="cls-3" d="M1123.23,426V963.74h-20.44a15,15,0,0,1-15-15V440.91a15,15,0,0,1,15-15Z"/><circle class="cls-2" cx="1213.95" cy="475.92" r="56.09"/><circle class="cls-2" cx="1030.63" cy="512.86" r="56.09"/><circle class="cls-2" cx="1045.68" cy="378.79" r="56.09"/><circle class="cls-4" cx="1157.86" cy="378.79" r="56.09"/><circle class="cls-4" cx="1101.77" cy="456.77" r="56.09"/><circle class="cls-5" cx="1030.63" cy="434.88" r="56.09"/><circle class="cls-5" cx="1125.02" cy="512.86" r="56.09"/><circle class="cls-4" cx="1066.2" cy="486.87" r="56.09"/><circle class="cls-5" cx="1030.63" cy="551.16" r="56.09"/><circle class="cls-5" cx="1207.11" cy="551.16" r="56.09"/><circle class="cls-6" cx="1234.47" cy="410.26" r="56.09"/><circle class="cls-2" cx="984.12" cy="438.98" r="56.09"/><circle class="cls-2" cx="1141.44" cy="410.26" r="56.09"/><circle class="cls-2" cx="1101.77" cy="354.17" r="56.09"/><circle class="cls-2" cx="1125.02" cy="568.95" r="56.09"/><rect class="cls-7" x="753.91" y="474" width="83.21" height="635.74" rx="17.69"/><path class="cls-3" d="M795.77,474v635.74H771.61a17.75,17.75,0,0,1-17.7-17.69V491.69A17.75,17.75,0,0,1,771.61,474Z"/><circle class="cls-2" cx="868.17" cy="380.79" r="71.62"/><circle class="cls-2" cx="713" cy="562.28" r="71.62"/><circle class="cls-2" cx="622.54" cy="415.67" r="71.62"/><circle class="cls-4" cx="735.3" cy="327.33" r="71.62"/><circle class="cls-4" cx="740.33" cy="449.88" r="71.62"/><circle class="cls-5" cx="651.59" cy="483.9" r="71.62"/><circle class="cls-5" cx="807.88" cy="487.94" r="71.62"/><circle class="cls-6" cx="728.28" cy="508.14" r="71.62"/><circle class="cls-5" cx="743.17" cy="600.78" r="71.62"/><circle class="cls-5" cx="920.55" cy="461.8" r="71.62"/><circle class="cls-2" cx="837.08" cy="298.62" r="71.62"/><circle class="cls-2" cx="608.07" cy="524.65" r="71.62"/><circle class="cls-2" cx="743.58" cy="371.88" r="71.62"/><circle class="cls-4" cx="659.53" cy="346.75" r="71.62"/><circle class="cls-2" cx="852.05" cy="544.32" r="71.62"/><circle class="cls-2" cx="499.04" cy="480.84" r="44.74"/><circle class="cls-2" cx="543.79" cy="600.88" r="44.74"/><circle class="cls-4" cx="489.22" cy="540.86" r="44.74"/><circle class="cls-5" cx="557.97" cy="488.48" r="44.74"/><circle class="cls-6" cx="543.79" cy="443.74" r="44.74"/><circle class="cls-5" cx="489.22" cy="594.33" r="44.74"/><circle class="cls-6" cx="581.98" cy="615.07" r="44.74"/><circle class="cls-2" cx="550.33" cy="538.68" r="44.74"/><circle class="cls-9" cx="464.12" cy="496.12" r="44.74"/><circle class="cls-2" cx="633.27" cy="508.12" r="44.74"/><circle class="cls-4" cx="588.53" cy="443.74" r="44.74"/><circle class="cls-5" cx="604.9" cy="556.14" r="44.74"/><circle class="cls-9" cx="636.54" cy="533.22" r="44.74"/><circle class="cls-2" cx="615.81" cy="583.42" r="44.74"/><rect class="cls-7" x="526.99" y="567.21" width="66.56" height="508.53" rx="14.15"/><path class="cls-3" d="M560.47,567.21v508.53H541.14A14.19,14.19,0,0,1,527,1061.59V581.36a14.19,14.19,0,0,1,14.15-14.15Z"/><circle class="cls-2" cx="627.81" cy="585.6" r="44.74"/><circle class="cls-2" cx="481.58" cy="615.07" r="44.74"/><circle class="cls-2" cx="493.59" cy="508.12" r="44.74"/><circle class="cls-4" cx="583.07" cy="508.12" r="44.74"/><circle class="cls-4" cx="538.33" cy="570.33" r="44.74"/><circle class="cls-5" cx="481.58" cy="552.87" r="44.74"/><circle class="cls-5" cx="556.88" cy="615.07" r="44.74"/><circle class="cls-6" cx="509.96" cy="594.33" r="44.74"/><circle class="cls-5" cx="481.58" cy="645.62" r="44.74"/><circle class="cls-5" cx="622.36" cy="645.62" r="44.74"/><circle class="cls-2" cx="644.18" cy="533.22" r="44.74"/><circle class="cls-2" cx="444.48" cy="556.14" r="44.74"/><circle class="cls-2" cx="569.98" cy="533.22" r="44.74"/><circle class="cls-8" cx="538.33" cy="488.48" r="44.74"/><circle class="cls-2" cx="556.88" cy="659.81" r="44.74"/><polygon class="cls-8" points="1778.07 981.58 1454.61 981.55 1616.36 701.43 1778.07 981.58"/><polygon class="cls-2" points="2015.36 939.74 1860.18 939.73 1705 939.7 1793.18 787.01 1860.18 670.98 1860.2 670.94 1927.21 787.02 2015.36 939.74"/><polygon class="cls-2" points="1955.42 647.63 1860.18 647.63 1821.14 647.62 1764.63 647.62 1860.04 482.38 1860.18 482.62 1955.42 647.63"/><polygon class="cls-2" points="1981.3 787.02 1927.21 787.02 1860.18 787.01 1740.66 787.01 1821.14 647.62 1860.18 580.02 1860.99 578.61 1900.83 647.63 1981.3 787.02"/><polygon class="cls-3" points="1860.18 482.62 1860.18 939.73 1705 939.7 1793.18 787.01 1740.66 787.01 1821.14 647.62 1764.63 647.62 1860.04 482.38 1860.18 482.62"/><polygon class="cls-2" points="153.36 938.74 -24.32 938.73 -202 938.7 -101.03 763.86 -24.32 631.01 -24.29 630.97 52.42 763.88 153.36 938.74"/><polygon class="cls-2" points="84.73 604.28 -24.32 604.28 -69.02 604.26 -133.72 604.26 -24.48 415.07 -24.32 415.34 84.73 604.28"/><polygon class="cls-2" points="114.36 763.88 52.42 763.88 -24.32 763.86 -161.17 763.86 -69.02 604.26 -24.32 526.86 -23.39 525.25 22.22 604.28 114.36 763.88"/><ellipse class="cls-2" cx="153.29" cy="646.66" rx="65.01" ry="62.37" transform="translate(-435.38 338.21) rotate(-49.01)"/><ellipse class="cls-2" cx="220.61" cy="474.1" rx="65.01" ry="62.37" transform="translate(-281.96 329.65) rotate(-49.01)"/><ellipse class="cls-4" cx="220.82" cy="589.81" rx="65.01" ry="62.37" transform="translate(-369.23 369.63) rotate(-49.01)"/><ellipse class="cls-5" cx="98.56" cy="584.4" rx="65.01" ry="62.37" transform="translate(-407.21 275.48) rotate(-49.01)"/><ellipse class="cls-6" cx="70.85" cy="646.45" rx="65.01" ry="62.37" transform="translate(-463.58 275.91) rotate(-49.01)"/><ellipse class="cls-5" cx="271.78" cy="531.17" rx="65.01" ry="62.37" transform="translate(-307.43 387.91) rotate(-49.01)"/><ellipse class="cls-6" cx="193.94" cy="423.62" rx="65.01" ry="62.37" transform="translate(-253.03 292.15) rotate(-49.01)"/><ellipse class="cls-2" cx="154.44" cy="536.33" rx="65.01" ry="62.37" transform="translate(-351.7 301.12) rotate(-49.01)"/><ellipse class="cls-2" cx="204.59" cy="661.83" rx="65.01" ry="62.37" transform="translate(-429.18 382.16) rotate(-49.01)"/><ellipse class="cls-2" cx="38.05" cy="494.02" rx="65.01" ry="62.37" transform="translate(-359.81 198.71) rotate(-49.01)"/><ellipse class="cls-4" cx="23.77" cy="605.54" rx="65.01" ry="62.37" transform="translate(-448.9 226.3) rotate(-49.01)"/><ellipse class="cls-5" cx="113.67" cy="467.3" rx="65.01" ry="62.37" transform="translate(-313.62 246.59) rotate(-49.01)"/><ellipse class="cls-4" cx="58.53" cy="463.49" rx="65.01" ry="62.37" transform="translate(-329.72 203.66) rotate(-49.01)"/><ellipse class="cls-2" cx="128.18" cy="427.4" rx="65.01" ry="62.37" transform="translate(-278.51 243.82) rotate(-49.01)"/><ellipse class="cls-10" cx="705.5" cy="933" rx="209.5" ry="85"/><rect class="cls-10" x="-4" y="940" width="1925" height="142"/><rect class="cls-11" x="77.95" y="947" width="73.47" height="147.36" rx="12"/><path class="cls-12" d="M1749.52,742.1l-28.87-50a2.35,2.35,0,0,1,1.13-3.35L1953.45,592a2.35,2.35,0,0,1,2.28,4.08l-202.8,146.74A2.34,2.34,0,0,1,1749.52,742.1Z"/><rect class="cls-12" x="1695.86" y="496.14" width="71.23" height="438.05" rx="12"/><circle class="cls-4" cx="1825.86" cy="370.89" r="69.09"/><circle class="cls-2" cx="1643.23" cy="511.28" r="69.09"/><circle class="cls-2" cx="1587.07" cy="354.87" r="69.09"/><circle class="cls-4" cx="1711.1" cy="293.96" r="69.09"/><circle class="cls-4" cx="1691.43" cy="410.63" r="69.09"/><circle class="cls-5" cx="1600.88" cy="425.06" r="69.09"/><circle class="cls-5" cx="1747.6" cy="460.02" r="69.09"/><circle class="cls-6" cx="1668.44" cy="463.23" r="69.09"/><circle class="cls-5" cx="1664.03" cy="553.63" r="69.09"/><circle class="cls-5" cx="1859.16" cy="457.8" r="69.09"/><circle class="cls-2" cx="1812.89" cy="287.15" r="69.09"/><circle class="cls-2" cx="1551.68" cy="454.86" r="69.09"/><circle class="cls-2" cx="1710.03" cy="337.66" r="69.09"/><circle class="cls-4" cx="1635.71" cy="297.19" r="69.09"/><circle class="cls-2" cx="1778.06" cy="522.04" r="69.09"/><path class="cls-12" d="M1342.59,646l-46.93-60.1a2.44,2.44,0,0,1,1.15-3.82L1651.18,463.6a2.44,2.44,0,0,1,2,4.43L1345.74,646.61A2.45,2.45,0,0,1,1342.59,646Z"/><rect class="cls-12" x="366.26" y="605.28" width="75.88" height="431.2" rx="12"/><path class="cls-7" d="M1061.61,661.24,1005.74,698a2.9,2.9,0,0,1-4.15-1L867.46,445.66a2.9,2.9,0,0,1,4.73-3.28l190,214.52A2.91,2.91,0,0,1,1061.61,661.24Z"/><path class="cls-7" d="M1046.73,701.25l-27.48-41.63a2.43,2.43,0,0,1,1.45-3.71l237.23-58.84a2.45,2.45,0,0,1,1.65,4.58L1049.82,702.11A2.44,2.44,0,0,1,1046.73,701.25Z"/><path class="cls-7" d="M984.36,573.79l-24.89-14.57a2.61,2.61,0,0,1-.74-3.85L1035,457.21a2.6,2.6,0,0,1,4.42,2.68L988,572.62A2.6,2.6,0,0,1,984.36,573.79Z"/><path class="cls-7" d="M927.69,618l-7.2-5.23a2.52,2.52,0,0,1-1-2.49l4.91-27.52a2.54,2.54,0,0,1,5,.26l2.29,32.75A2.54,2.54,0,0,1,927.69,618Z"/><path class="cls-7" d="M1058.51,613,1037,626.19a2,2,0,0,1-2.81-.87l-44.24-99.49a2,2,0,0,1,3.35-2l65.79,86.3A2,2,0,0,1,1058.51,613Z"/><path class="cls-7" d="M1062.32,612.94,1045,590.18a2.19,2.19,0,0,1-.35-1.93L1067.71,509a2.17,2.17,0,0,1,4.26.73l-5.75,102A2.18,2.18,0,0,1,1062.32,612.94Z"/><path class="cls-12" d="M1379.84,655.64v361.12c0,5.85-5.4,10.64-12,10.64H1316c-6.6,0-12-4.79-12-10.64V655.64c0-5.85,5.4-10.64,12-10.64h51.87C1374.44,645,1379.84,649.79,1379.84,655.64Z"/><polygon class="cls-4" points="1091.36 1013.58 767.89 1013.55 929.65 733.43 1091.36 1013.58"/><polygon class="cls-4" points="1018.89 736.14 820.03 736.12 919.48 563.91 1018.89 736.14"/><polygon class="cls-4" points="1041.85 885.42 791.05 885.4 916.47 668.21 1041.85 885.42"/><polygon class="cls-8" points="758.53 755.93 559.67 755.91 659.12 583.71 758.53 755.93"/><circle class="cls-2" cx="501.36" cy="803.3" r="37.94"/><circle class="cls-2" cx="469.9" cy="839.39" r="37.94"/><circle class="cls-2" cx="510.62" cy="858.82" r="37.94"/><polygon class="cls-8" points="1759.86 711.82 1503.99 711.8 1631.94 490.22 1759.86 711.82"/><polygon class="cls-8" points="1756.65 843.78 1505.85 843.78 1631.25 626.58 1756.65 843.78"/><path class="cls-12" d="M1356.89,596.41,1281.7,655a2.89,2.89,0,0,1-4.22-.72l-219-341.76a2.9,2.9,0,0,1,4.45-3.65L1357.12,592A2.9,2.9,0,0,1,1356.89,596.41Z"/><path class="cls-12" d="M1354.17,631.31l-49.39,19.37a1.39,1.39,0,0,1-1.84-1.66l79.71-291.1a1.39,1.39,0,0,1,2.72.52L1355,630.17A1.38,1.38,0,0,1,1354.17,631.31Z"/><path class="cls-12" d="M1371.8,637.13l-71.48-42.75a2.34,2.34,0,0,1-.44-3.7l279.49-272.45a2.35,2.35,0,0,1,3.61,3l-208,315.2A2.36,2.36,0,0,1,1371.8,637.13Z"/><path class="cls-12" d="M1249.9,498l-36.55-17.66a2.6,2.6,0,0,1-1-3.77l96-146.24a2.6,2.6,0,0,1,4.62,2.31l-59.46,163.91A2.59,2.59,0,0,1,1249.9,498Z"/><path class="cls-12" d="M1170.32,582l-14-8.59a2.55,2.55,0,0,1-1.21-2.41l5-51.5a2.54,2.54,0,0,1,5-.14l9.06,60.09A2.54,2.54,0,0,1,1170.32,582Z"/><path class="cls-12" d="M1516.2,416.44l5.53-29.74a2.46,2.46,0,0,1,3.21-1.89l124.21,41.56a2.47,2.47,0,0,1-1,4.8L1518.4,419.35A2.46,2.46,0,0,1,1516.2,416.44Z"/><path class="cls-12" d="M1518.8,409.91l-23.5,18.28a2.21,2.21,0,0,1-3.32-.75l-60.16-118.13a2.21,2.21,0,0,1,3.66-2.42l83.66,99.86A2.21,2.21,0,0,1,1518.8,409.91Z"/><path class="cls-12" d="M1426.26,498.77l-26.65,8.17a3.22,3.22,0,0,1-4.12-2.57l-19.12-119.11a3.22,3.22,0,0,1,6.16-1.74l45.77,111A3.21,3.21,0,0,1,1426.26,498.77Z"/><path class="cls-12" d="M1349.06,543.64l-16.8,12.21a2,2,0,0,1-2.87-.65l-42.75-78.63a2,2,0,0,1,3.18-2.25l59.55,66.42A2,2,0,0,1,1349.06,543.64Z"/><path class="cls-12" d="M1313.31,513.71l-9.09-10.15a2.17,2.17,0,0,1-.51-1.89l8-38.5a2.17,2.17,0,0,1,4.3.39l1.14,48.65A2.18,2.18,0,0,1,1313.31,513.71Z"/><path class="cls-7" d="M1039.76,668.3l-32.84-43.2a2.35,2.35,0,0,1,.7-3.46L1212.1,504a2.35,2.35,0,0,1,2.78,3.76L1043.24,668.59A2.35,2.35,0,0,1,1039.76,668.3Z"/><path class="cls-7" d="M1119.27,578.61l-22.68,7.52a3.22,3.22,0,0,1-4.17-2.45l-19.37-101.15a3.22,3.22,0,0,1,6.1-1.92l42,93.63A3.22,3.22,0,0,1,1119.27,578.61Z"/><path class="cls-12" d="M432.64,560.67,371.4,608.4a2.9,2.9,0,0,1-4.22-.73L188.83,329.31a2.9,2.9,0,0,1,4.45-3.65L432.87,556.3A2.9,2.9,0,0,1,432.64,560.67Z"/><path class="cls-12" d="M436.14,578,379.05,600.4a1.39,1.39,0,0,1-1.84-1.66L469.34,262.3a1.39,1.39,0,0,1,2.72.52L437,576.88A1.4,1.4,0,0,1,436.14,578Z"/><path class="cls-12" d="M441.08,594.54l-59.4-41.69a2.34,2.34,0,0,1-.39-3.51L594,316.3a2.35,2.35,0,0,1,3.79,2.73L444.49,593.76A2.36,2.36,0,0,1,441.08,594.54Z"/><path class="cls-12" d="M435.39,637.5l-39.78-44.14a2.44,2.44,0,0,1,1.14-4l297.62-84.83a2.44,2.44,0,0,1,1.76,4.53l-257.83,129A2.46,2.46,0,0,1,435.39,637.5Z"/><path class="cls-12" d="M319.28,480.68,303,472.83a2.6,2.6,0,0,1-1-3.77l42.68-65a2.6,2.6,0,0,1,4.62,2.31l-26.43,72.86A2.6,2.6,0,0,1,319.28,480.68Z"/><path class="cls-12" d="M268.28,542l-11.62-7.1a2.54,2.54,0,0,1-1.2-2.41l4.13-42.56a2.54,2.54,0,0,1,5-.13l7.48,49.65A2.54,2.54,0,0,1,268.28,542Z"/><path class="cls-12" d="M551.22,560.81l-16.41-4.95a2.21,2.21,0,0,1-1.38-3l30.38-67.35a2.21,2.21,0,0,1,4.18,1.33l-14,72.3A2.21,2.21,0,0,1,551.22,560.81Z"/><path class="cls-12" d="M492.34,482.31l-12,8.75a3.22,3.22,0,0,1-4.72-1.07L445,433.69A3.22,3.22,0,0,1,450.2,430l42.64,47.56A3.21,3.21,0,0,1,492.34,482.31Z"/><path class="cls-12" d="M425.6,511.4l-14.31,10.41a2,2,0,0,1-2.88-.65l-36.44-67a2,2,0,0,1,3.18-2.24l50.76,56.62A2,2,0,0,1,425.6,511.4Z"/><path class="cls-12" d="M388.68,518l-16.94-18.89a2.19,2.19,0,0,1-.51-1.9l14.83-71.69a2.17,2.17,0,0,1,4.3.39l2.12,90.59A2.18,2.18,0,0,1,388.68,518Z"/><path class="cls-12" d="M527.27,576V556.36a2.47,2.47,0,0,1,2.79-2.45l83.84,11a2.47,2.47,0,0,1-.07,4.91L530,578.44A2.48,2.48,0,0,1,527.27,576Z"/><circle class="cls-13" cx="1205.57" cy="387.52" r="15.57"/><circle class="cls-13" cx="1249.35" cy="412.81" r="15.57"/><circle class="cls-13" cx="1233.78" cy="426.43" r="15.57"/><circle class="cls-13" cx="1231.84" cy="396.27" r="15.57"/><circle class="cls-13" cx="1215.3" cy="410.87" r="15.57"/><path class="cls-14" d="M1210.43,391.41c10.7,16.54,43.78,45.73,38.92,37"/><path class="cls-15" d="M1260.66,428.53c-4.25,3.32-9.81,3.3-12.42,0"/><circle class="cls-13" cx="1089.13" cy="439.63" r="13.63"/><circle class="cls-13" cx="1092.94" cy="483.72" r="13.63"/><circle class="cls-13" cx="1075.36" cy="479.39" r="13.63"/><circle class="cls-13" cx="1096.02" cy="462.86" r="13.63"/><circle class="cls-13" cx="1077.26" cy="458.32" r="13.63"/><path class="cls-14" d="M1088.78,445.07c-6.5,16-10.85,54.34-7,46.46"/><path class="cls-15" d="M1087.34,499.72c-4.52-1.39-7.29-5.38-6.2-8.93"/><circle class="cls-13" cx="1616.23" cy="294.19" r="12.19"/><circle class="cls-13" cx="1587.48" cy="321.4" r="12.19"/><circle class="cls-13" cx="1580.73" cy="306.67" r="12.19"/><circle class="cls-13" cx="1603.8" cy="311.95" r="12.19"/><circle class="cls-13" cx="1596.54" cy="296.28" r="12.19"/><path class="cls-14" d="M1612.23,297c-14.8,4.34-44.09,22.65-36.43,20.95"/><path class="cls-15" d="M1573.16,326.37c-1.54-3.93-.29-8.09,2.8-9.31"/><circle class="cls-13" cx="504.08" cy="403.66" r="12.66"/><circle class="cls-13" cx="474.21" cy="431.92" r="12.66"/><circle class="cls-13" cx="467.21" cy="416.63" r="12.66"/><circle class="cls-13" cx="491.17" cy="422.11" r="12.66"/><circle class="cls-13" cx="483.63" cy="405.83" r="12.66"/><path class="cls-14" d="M499.92,406.55c-15.37,4.51-45.79,23.53-37.84,21.76"/><path class="cls-15" d="M459.34,437.09c-1.6-4.08-.3-8.41,2.91-9.67"/><circle class="cls-13" cx="369.26" cy="456.46" r="9.33"/><circle class="cls-13" cx="340.25" cy="447.68" r="9.33"/><circle class="cls-13" cx="347.47" cy="437.6" r="9.33"/><circle class="cls-13" cx="352.73" cy="454.95" r="9.33"/><circle class="cls-13" cx="360.39" cy="444.16" r="9.33"/><path class="cls-14" d="M365.89,454.86c-8.51-8.19-31.81-20.71-27.77-16.26"/><path class="cls-15" d="M331.5,440.06c2-2.52,5.27-3.27,7.25-1.68"/><circle class="cls-13" cx="1443.93" cy="429.8" r="16.07"/><circle class="cls-13" cx="1393.98" cy="414.69" r="16.07"/><circle class="cls-13" cx="1406.42" cy="397.34" r="16.07"/><circle class="cls-13" cx="1415.47" cy="427.19" r="16.07"/><circle class="cls-13" cx="1428.66" cy="408.63" r="16.07"/><path class="cls-14" d="M1438.13,427c-14.65-14.1-54.76-35.65-47.81-28"/><path class="cls-15" d="M1378.92,401.56c3.49-4.34,9.08-5.63,12.49-2.88"/><circle class="cls-13" cx="603.12" cy="541.19" r="10.88"/><circle class="cls-13" cx="569.93" cy="529.09" r="10.88"/><circle class="cls-13" cx="578.99" cy="517.83" r="10.88"/><circle class="cls-13" cx="583.99" cy="538.35" r="10.88"/><circle class="cls-13" cx="593.6" cy="526.3" r="10.88"/><path class="cls-14" d="M599.3,539.1C589.93,529,563.64,512.94,568,518.38"/><path class="cls-15" d="M560.25,519.65c2.52-2.8,6.34-3.46,8.55-1.48"/><circle class="cls-13" cx="558.04" cy="434.3" r="13.96"/><circle class="cls-13" cx="513.58" cy="443.16" r="13.96"/><circle class="cls-13" cx="522.87" cy="459.2" r="13.96"/><circle class="cls-13" cx="533.22" cy="434.16" r="13.96"/><circle class="cls-13" cx="543.05" cy="451.32" r="13.96"/><path class="cls-14" d="M552.79,436.2c-13.85,11-50.35,26.2-43.69,20.17"/><path class="cls-15" d="M499.46,453.24c2.65,4,7.37,5.63,10.55,3.54"/><circle class="cls-13" cx="1055.63" cy="581.55" r="12.43"/><circle class="cls-13" cx="1016.04" cy="589.44" r="12.43"/><circle class="cls-13" cx="1024.31" cy="603.73" r="12.43"/><circle class="cls-13" cx="1033.52" cy="581.43" r="12.43"/><circle class="cls-13" cx="1042.28" cy="596.71" r="12.43"/><path class="cls-14" d="M1051,583.25c-12.33,9.75-44.83,23.33-38.91,18"/><path class="cls-15" d="M1003.46,598.42c2.36,3.6,6.56,5,9.39,3.16"/><circle class="cls-13" cx="1644.73" cy="517.92" r="17.21"/><circle class="cls-13" cx="1591.84" cy="499.85" r="17.21"/><circle class="cls-13" cx="1591.81" cy="522.72" r="17.21"/><circle class="cls-13" cx="1618.34" cy="502.41" r="17.21"/><circle class="cls-13" cx="1618.21" cy="526.79" r="17.21"/><path class="cls-14" d="M1638,516.7c-21.55,3.11-69.9-3.21-59.07-5.53"/><path class="cls-15" d="M1570.53,501.87c.33,5.95,4.38,10.56,9.06,10.31"/><circle class="cls-13" cx="479.99" cy="527.21" r="11.01"/><circle class="cls-13" cx="446.16" cy="515.65" r="11.01"/><circle class="cls-13" cx="446.15" cy="530.28" r="11.01"/><circle class="cls-13" cx="463.11" cy="517.29" r="11.01"/><circle class="cls-13" cx="463.03" cy="532.89" r="11.01"/><path class="cls-14" d="M475.66,526.43c-13.79,2-44.72-2.06-37.79-3.54"/><path class="cls-15" d="M432.53,516.94c.21,3.81,2.8,6.76,5.8,6.6"/><rect class="cls-13" x="673.49" y="505.58" width="3.76" height="8.39" rx="1" transform="translate(-40 57.85) rotate(-4.76)"/><circle cx="688.36" cy="442.75" r="15.92"/><circle cx="668.25" cy="477.93" r="29.32"/><path class="cls-16" d="M716,446.94l-18.71,1.55a.91.91,0,0,1-.95-1.2l.94-2.82a1.08,1.08,0,0,1,1.21-.72Z"/><path class="cls-16" d="M714,454.72l-15.57-5.43a1.54,1.54,0,0,1-1.34-2.2l.59-1.25c.39-.82,1.28.17,2.14.44Z"/><ellipse class="cls-17" cx="693.1" cy="439.4" rx="2.79" ry="4.19"/><circle cx="693.38" cy="439.4" r="0.84"/><ellipse class="cls-17" cx="698.13" cy="439.4" rx="2.79" ry="4.19"/><circle cx="698.41" cy="439.4" r="0.84"/><polygon points="659.53 489.87 587 450.29 625.53 438.56 659.53 489.87"/><rect class="cls-9" x="665.74" y="495.52" width="3.35" height="21.78" rx="1"/><rect class="cls-9" x="667.42" y="515.62" width="1.68" height="8.38" rx="0.5" transform="translate(1336.51 1039.62) rotate(-180)"/><rect class="cls-9" x="664.06" y="515.62" width="1.68" height="6.7" rx="0.5" transform="translate(405.3 -283.55) rotate(34.1)"/><rect class="cls-9" x="670.77" y="512.83" width="1.68" height="8.93" rx="0.5" transform="translate(-112.19 840.27) rotate(-60)"/><circle class="cls-13" cx="1312.15" cy="531.17" r="16.85"/><circle class="cls-13" cx="1259.76" cy="515.32" r="16.85"/><circle class="cls-13" cx="1272.81" cy="497.12" r="16.85"/><circle class="cls-13" cx="1282.3" cy="528.43" r="16.85"/><circle class="cls-13" cx="1296.13" cy="508.96" r="16.85"/><path class="cls-14" d="M1306.06,528.27c-15.36-14.79-57.43-37.38-50.14-29.36"/><path class="cls-15" d="M1244,501.55c3.66-4.55,9.52-5.9,13.1-3"/><circle class="cls-13" cx="1190.95" cy="516.05" r="9.33"/><circle class="cls-13" cx="1180.63" cy="544.56" r="9.33"/><circle class="cls-13" cx="1170.95" cy="536.8" r="9.33"/><circle class="cls-13" cx="1188.55" cy="532.48" r="9.33"/><circle class="cls-13" cx="1178.19" cy="524.25" r="9.33"/><path class="cls-14" d="M1189.16,519.33c-8.63,8.06-22.38,30.66-17.72,26.87"/><path class="cls-15" d="M1172.54,552.89c-2.41-2.16-3-5.45-1.28-7.34"/><circle class="cls-5" cx="1290.89" cy="1049.56" r="9.33"/><circle class="cls-5" cx="1260.84" cy="1053.6" r="9.33"/><circle class="cls-5" cx="1266.37" cy="1064.7" r="9.33"/><circle class="cls-5" cx="1274.33" cy="1048.42" r="9.33"/><circle class="cls-5" cx="1280.17" cy="1060.29" r="9.33"/><path class="cls-2" d="M1287.3,1050.61c-9.7,6.73-34.7,15.37-30,11.62"/><path class="cls-18" d="M1251,1059.74c1.6,2.81,4.68,4.06,6.89,2.81"/><circle class="cls-5" cx="1180.89" cy="1062.56" r="9.33"/><circle class="cls-5" cx="1150.84" cy="1066.6" r="9.33"/><circle class="cls-5" cx="1156.37" cy="1077.7" r="9.33"/><circle class="cls-5" cx="1164.33" cy="1061.42" r="9.33"/><circle class="cls-5" cx="1170.17" cy="1073.29" r="9.33"/><path class="cls-2" d="M1177.3,1063.61c-9.7,6.73-34.7,15.37-30,11.62"/><path class="cls-18" d="M1141,1072.74c1.6,2.81,4.68,4.06,6.89,2.81"/><circle class="cls-5" cx="1139.56" cy="466.28" r="9.33"/><circle class="cls-5" cx="1165.77" cy="451.04" r="9.33"/><circle class="cls-5" cx="1156.42" cy="442.9" r="9.33"/><circle class="cls-5" cx="1155.3" cy="460.99" r="9.33"/><circle class="cls-5" cx="1145.36" cy="452.26" r="9.33"/><path class="cls-2" d="M1142.47,463.94c6.39-9.94,26.18-27.49,23.28-22.23"/><path class="cls-18" d="M1172.52,441.6c-2.55-2-5.88-2-7.44,0"/><circle class="cls-5" cx="1328.01" cy="411.06" r="9.33"/><circle class="cls-5" cx="1349.68" cy="432.27" r="9.33"/><circle class="cls-5" cx="1355.03" cy="421.08" r="9.33"/><circle class="cls-5" cx="1337.3" cy="424.82" r="9.33"/><circle class="cls-5" cx="1343.07" cy="412.92" r="9.33"/><path class="cls-2" d="M1331,413.24c11.28,3.52,33.47,17.92,27.63,16.52"/><path class="cls-18" d="M1360.58,436.27c1.23-3,.32-6.2-2-7.17"/><circle class="cls-5" cx="494.12" cy="381.77" r="9.33"/><circle class="cls-5" cx="464.4" cy="375.8" r="9.33"/><circle class="cls-5" cx="466.01" cy="388.09" r="9.33"/><circle class="cls-5" cx="478.83" cy="375.3" r="9.33"/><circle class="cls-5" cx="480.49" cy="388.42" r="9.33"/><path class="cls-2" d="M490.39,381.59c-11.37,3.2-37.82,3.22-32.16,1.21"/><path class="cls-18" d="M453.08,378.39c.6,3.17,3.11,5.37,5.61,4.9"/><circle class="cls-5" cx="314.98" cy="396.18" r="9.33"/><circle class="cls-5" cx="288.85" cy="411.56" r="9.33"/><circle class="cls-5" cx="298.25" cy="419.65" r="9.33"/><circle class="cls-5" cx="299.27" cy="401.56" r="9.33"/><circle class="cls-5" cx="309.26" cy="410.23" r="9.33"/><path class="cls-2" d="M312.08,398.54c-6.34,10-26,27.63-23.15,22.35"/><path class="cls-18" d="M282.15,421c2.56,2,5.89,1.93,7.44-.09"/><circle class="cls-5" cx="306.89" cy="505.56" r="9.33"/><circle class="cls-5" cx="276.84" cy="509.6" r="9.33"/><circle class="cls-5" cx="282.37" cy="520.7" r="9.33"/><circle class="cls-5" cx="290.33" cy="504.42" r="9.33"/><circle class="cls-5" cx="296.17" cy="516.29" r="9.33"/><path class="cls-2" d="M303.3,506.61c-9.7,6.73-34.7,15.37-30,11.62"/><path class="cls-18" d="M267,515.74c1.6,2.81,4.68,4.06,6.89,2.81"/><circle class="cls-5" cx="473.89" cy="466.56" r="9.33"/><circle class="cls-5" cx="443.84" cy="470.6" r="9.33"/><circle class="cls-5" cx="449.37" cy="481.7" r="9.33"/><circle class="cls-5" cx="457.33" cy="465.42" r="9.33"/><circle class="cls-5" cx="463.17" cy="477.29" r="9.33"/><path class="cls-2" d="M470.3,467.61c-9.7,6.73-34.7,15.37-30,11.62"/><path class="cls-18" d="M434,476.74c1.6,2.81,4.68,4.06,6.89,2.81"/><circle class="cls-5" cx="1015.89" cy="565.56" r="9.33"/><circle class="cls-5" cx="985.84" cy="569.6" r="9.33"/><circle class="cls-5" cx="991.37" cy="580.7" r="9.33"/><circle class="cls-5" cx="999.33" cy="564.42" r="9.33"/><circle class="cls-5" cx="1005.17" cy="576.29" r="9.33"/><path class="cls-2" d="M1012.3,566.61c-9.7,6.73-34.7,15.37-30,11.62"/><path class="cls-18" d="M976,575.74c1.6,2.81,4.68,4.06,6.89,2.81"/><circle class="cls-5" cx="1352.89" cy="483.56" r="9.33"/><circle class="cls-5" cx="1322.84" cy="487.6" r="9.33"/><circle class="cls-5" cx="1328.37" cy="498.7" r="9.33"/><circle class="cls-5" cx="1336.33" cy="482.42" r="9.33"/><circle class="cls-5" cx="1342.17" cy="494.29" r="9.33"/><path class="cls-2" d="M1349.3,484.61c-9.7,6.73-34.7,15.37-30,11.62"/><path class="cls-18" d="M1313,493.74c1.6,2.81,4.68,4.06,6.89,2.81"/><circle class="cls-5" cx="1423.89" cy="570.56" r="9.33"/><circle class="cls-5" cx="1393.84" cy="574.6" r="9.33"/><circle class="cls-5" cx="1399.37" cy="585.7" r="9.33"/><circle class="cls-5" cx="1407.33" cy="569.42" r="9.33"/><circle class="cls-5" cx="1413.17" cy="581.29" r="9.33"/><path class="cls-2" d="M1420.3,571.61c-9.7,6.73-34.7,15.37-30,11.62"/><path class="cls-18" d="M1384,580.74c1.6,2.81,4.68,4.06,6.89,2.81"/><circle class="cls-5" cx="1525.51" cy="491.31" r="9.33"/><circle class="cls-5" cx="1502.65" cy="511.21" r="9.33"/><circle class="cls-5" cx="1513.37" cy="517.45" r="9.33"/><circle class="cls-5" cx="1511.06" cy="499.47" r="9.33"/><circle class="cls-5" cx="1522.47" cy="506.17" r="9.33"/><path class="cls-2" d="M1523.1,494.16c-4.4,11-20.53,31.93-18.67,26.21"/><path class="cls-18" d="M1496.8,522.76c2.88,1.47,6.15.82,7.3-1.45"/><circle class="cls-14" cx="1326.89" cy="360.78" r="11.51"/><circle class="cls-14" cx="1361.78" cy="374.16" r="11.51"/><circle class="cls-14" cx="1362.37" cy="358.88" r="11.51"/><circle class="cls-14" cx="1344.14" cy="371.79" r="11.51"/><circle class="cls-14" cx="1344.83" cy="355.51" r="11.51"/><path class="cls-19" d="M1331.39,361.76c14.48-1.54,46.63,3.88,39.34,5.16"/><path class="cls-20" d="M1376.07,373.35c-.07-4-2.67-7.17-5.8-7.12"/><circle class="cls-14" cx="397.98" cy="361.64" r="12.19"/><circle class="cls-14" cx="434.94" cy="375.81" r="12.19"/><circle class="cls-14" cx="435.56" cy="359.63" r="12.19"/><circle class="cls-14" cx="416.25" cy="373.31" r="12.19"/><circle class="cls-14" cx="416.98" cy="356.05" r="12.19"/><path class="cls-19" d="M402.74,362.68c15.34-1.64,49.39,4.11,41.67,5.47"/><path class="cls-20" d="M450.07,375c-.07-4.22-2.82-7.59-6.14-7.54"/><circle class="cls-14" cx="225.64" cy="626.04" r="14.64"/><circle class="cls-14" cx="256.67" cy="590" r="14.64"/><circle class="cls-14" cx="238.63" cy="582.74" r="14.64"/><circle class="cls-14" cx="246.25" cy="610.12" r="14.64"/><circle class="cls-14" cx="227.04" cy="602.29" r="14.64"/><path class="cls-19" d="M228.76,621.08c4.37-18,24.69-54.18,23.08-44.9"/><path class="cls-20" d="M261.83,572.54c-4.8-1.62-9.73.12-11,3.89"/><circle class="cls-14" cx="887" cy="562.06" r="15.22"/><circle class="cls-14" cx="933.17" cy="579.78" r="15.22"/><circle class="cls-14" cx="933.94" cy="559.56" r="15.22"/><circle class="cls-14" cx="909.82" cy="576.64" r="15.22"/><circle class="cls-14" cx="910.73" cy="555.09" r="15.22"/><path class="cls-19" d="M893,563.37c19.16-2,61.7,5.14,52,6.83"/><path class="cls-20" d="M952.07,578.7c-.09-5.27-3.53-9.49-7.67-9.42"/><circle class="cls-5" cx="621.89" cy="1063.56" r="9.33"/><circle class="cls-5" cx="591.84" cy="1067.6" r="9.33"/><circle class="cls-5" cx="597.37" cy="1078.7" r="9.33"/><circle class="cls-5" cx="605.33" cy="1062.42" r="9.33"/><circle class="cls-5" cx="611.17" cy="1074.29" r="9.33"/><path class="cls-2" d="M618.3,1064.61c-9.7,6.73-34.7,15.37-30,11.62"/><path class="cls-18" d="M582,1073.74c1.6,2.81,4.68,4.06,6.89,2.81"/><circle class="cls-13" cx="620.71" cy="1053.81" r="10.81"/><circle class="cls-13" cx="640.95" cy="1082.47" r="10.81"/><circle class="cls-13" cx="649.39" cy="1070.85" r="10.81"/><circle class="cls-13" cx="628.42" cy="1071.41" r="10.81"/><circle class="cls-13" cx="637.46" cy="1059.06" r="10.81"/><path class="cls-14" d="M623.7,1056.92c12.11,6.36,34.37,27.38,28,24.57"/><path class="cls-15" d="M652.53,1089.3c2-3.15,1.67-7-.81-8.58"/><path class="cls-21" d="M1835.3,642.1a6.49,6.49,0,0,1,3.74-3,8.43,8.43,0,0,1,6.66.78"/><path class="cls-22" d="M1868.42,632c3.23-7.11,6-11,19-26,14.46-16.69-9-40-20-40"/><path class="cls-22" d="M1834,632c-3.23-7.11-6-11-19-26-14.47-16.69,9-40,20-40"/><path class="cls-21" d="M1840.94,645.74a6.47,6.47,0,0,1,2.57-4,8.48,8.48,0,0,1,6.55-1.43"/><path class="cls-21" d="M1865.06,645.74a6.47,6.47,0,0,0-2.57-4,8.48,8.48,0,0,0-6.55-1.43"/><path class="cls-21" d="M1869.67,642.25a6.45,6.45,0,0,0-3.66-3.09,8.49,8.49,0,0,0-6.68.59"/><ellipse class="cls-23" cx="1852" cy="599" rx="28" ry="43"/><circle class="cls-22" cx="1852" cy="548" r="32"/><ellipse class="cls-17" cx="1841" cy="550.5" rx="10" ry="14.5"/><ellipse class="cls-17" cx="1861" cy="550.5" rx="10" ry="14.5"/><ellipse cx="1835" cy="552.5" rx="4" ry="4.5"/><path class="cls-9" d="M1848.88,579.37l-6.82-10.51A1.18,1.18,0,0,1,1843,567l12.52-.66a1.19,1.19,0,0,1,1.12,1.73l-5.7,11.17A1.18,1.18,0,0,1,1848.88,579.37Z"/><ellipse cx="1856" cy="552.5" rx="4" ry="4.5"/><path class="cls-7" d="M-24.31,469.42-94,392.05a2.44,2.44,0,0,1,1.14-4L428.74,239.38a2.44,2.44,0,0,1,1.76,4.53L-21.4,470A2.44,2.44,0,0,1-24.31,469.42Z"/><path class="cls-7" d="M89.39,393.06l8-42.12a2.48,2.48,0,0,1,3.2-1.89l175.48,58a2.47,2.47,0,0,1-1,4.81L91.6,396A2.46,2.46,0,0,1,89.39,393.06Z"/><circle class="cls-13" cx="332.34" cy="348.8" r="12.66"/><circle class="cls-13" cx="293.71" cy="334.72" r="12.66"/><circle class="cls-13" cx="304.26" cy="321.61" r="12.66"/><circle class="cls-13" cx="310.07" cy="345.49" r="12.66"/><circle class="cls-13" cx="321.26" cy="331.47" r="12.66"/><path class="cls-14" d="M327.9,346.37c-10.91-11.74-41.51-30.44-36.38-24.12"/><path class="cls-15" d="M282.44,323.73c2.94-3.26,7.39-4,9.95-1.72"/><circle class="cls-14" cx="389.52" cy="226.59" r="16.47"/><circle class="cls-14" cx="358.17" cy="269.95" r="16.47"/><circle class="cls-14" cx="345.51" cy="252.09" r="16.47"/><circle class="cls-14" cx="377.47" cy="253.3" r="16.47"/><circle class="cls-14" cx="363.89" cy="234.31" r="16.47"/><path class="cls-19" d="M384.9,231.29c-18.57,9.49-52.87,41.16-43.12,37"/><path class="cls-20" d="M340.4,280.16c-3-4.83-2.42-10.68,1.38-13.07"/><circle class="cls-13" cx="1453.7" cy="1023.26" r="13.26"/><circle class="cls-13" cx="1442.24" cy="1064.8" r="13.26"/><circle class="cls-13" cx="1459.84" cy="1063.76" r="13.26"/><circle class="cls-13" cx="1442.99" cy="1044.28" r="13.26"/><circle class="cls-13" cx="1461.75" cy="1043.26" r="13.26"/><path class="cls-14" d="M1453.07,1028.53c3.39,16.44.76,53.94-1.52,45.72"/><path class="cls-15" d="M1444.78,1081.1c4.56-.53,7.92-3.86,7.51-7.45"/><circle class="cls-14" cx="1028.94" cy="1047.63" r="15.86"/><circle class="cls-14" cx="1076.66" cy="1067.05" r="15.86"/><circle class="cls-14" cx="1077.89" cy="1046" r="15.86"/><circle class="cls-14" cx="1052.41" cy="1063.3" r="15.86"/><circle class="cls-14" cx="1053.81" cy="1040.86" r="15.86"/><path class="cls-19" d="M1035.11,1049.12c20-1.73,64.17,6.63,54.08,8.19"/><path class="cls-20" d="M1096.38,1066.32c0-5.5-3.48-10-7.8-10"/><circle class="cls-14" cx="1390.42" cy="1048.54" r="10.7"/><circle class="cls-14" cx="1356.11" cy="1054.01" r="10.7"/><circle class="cls-14" cx="1362.75" cy="1066.57" r="10.7"/><circle class="cls-14" cx="1371.41" cy="1047.7" r="10.7"/><circle class="cls-14" cx="1378.44" cy="1061.13" r="10.7"/><path class="cls-19" d="M1386.34,1049.84c-10.93,8-39.33,18.58-34.06,14.15"/><path class="cls-20" d="M1345,1061.31c1.91,3.18,5.48,4.53,8,3"/><path class="cls-7" d="M1663.05,1016.13v38.48c0,.62-5.4,1.13-12,1.13h-32.44c-6.6,0-12-.51-12-1.13v-38.48c0-.62,5.4-1.13,12-1.13h32.44C1657.65,1015,1663.05,1015.51,1663.05,1016.13Z"/><path class="cls-3" d="M1635,1015v40.74h-16.39c-6.6,0-12-.51-12-1.13v-38.48c0-.62,5.4-1.13,12-1.13Z"/><path class="cls-7" d="M963.05,1013.13v38.48c0,.62-5.4,1.13-12,1.13H918.61c-6.6,0-12-.51-12-1.13v-38.48c0-.62,5.4-1.13,12-1.13h32.44C957.65,1012,963.05,1012.51,963.05,1013.13Z"/><path class="cls-3" d="M935,1012v40.74H918.61c-6.6,0-12-.51-12-1.13v-38.48c0-.62,5.4-1.13,12-1.13Z"/><path class="cls-3" d="M1342,645v382.4h-26c-6.6,0-12-4.79-12-10.64V655.64c0-5.85,5.4-10.64,12-10.64Z"/><path class="cls-7" d="M1195.05,723.9v481.65a14.09,14.09,0,0,1-13.9,14.19H1143.6a14.09,14.09,0,0,1-13.9-14.19V723.9a14.09,14.09,0,0,1,13.9-14.19h37.55A14.09,14.09,0,0,1,1195.05,723.9Z"/><path class="cls-3" d="M1162.57,709.71v510h-19a14.09,14.09,0,0,1-13.9-14.19V723.9a14.09,14.09,0,0,1,13.9-14.19Z"/><path class="cls-7" d="M1512.05,763.18V972.82c0,3.4-5.4,6.18-12,6.18h-32.44c-6.6,0-12-2.78-12-6.18V763.18c0-3.4,5.4-6.18,12-6.18h32.44C1506.65,757,1512.05,759.78,1512.05,763.18Z"/><path class="cls-3" d="M1484,757V979h-16.39c-6.6,0-12-2.78-12-6.18V763.18c0-3.4,5.4-6.18,12-6.18Z"/><polygon class="cls-8" points="468.32 1011.69 307 1011.68 144.86 1011.66 245.42 837.52 306.62 731.55 307 732.21 367.79 837.53 468.32 1011.69"/><polygon class="cls-8" points="405.86 707.25 307 707.25 256.25 707.24 207 707.24 306.45 535.03 307 535.98 405.86 707.25"/><polygon class="cls-8" points="431.82 837.54 367.79 837.53 307 837.53 245.42 837.52 181.02 837.51 256.25 707.24 306.44 620.32 307 621.29 356.61 707.25 431.82 837.54"/><polygon class="cls-24" points="307 535.98 307 1011.68 144.86 1011.66 245.42 837.52 181.02 837.51 256.25 707.24 207 707.24 306.45 535.03 307 535.98"/><circle class="cls-2" cx="1557.69" cy="738.91" r="37.94"/><circle class="cls-2" cx="1433.69" cy="763.9" r="37.94"/><circle class="cls-2" cx="1443.87" cy="673.21" r="37.94"/><circle class="cls-4" cx="1519.75" cy="673.21" r="37.94"/><circle class="cls-4" cx="1481.81" cy="725.96" r="37.94"/><circle class="cls-5" cx="1433.69" cy="711.15" r="37.94"/><circle class="cls-5" cx="1497.54" cy="763.9" r="37.94"/><circle class="cls-6" cx="1457.75" cy="746.32" r="37.94"/><circle class="cls-5" cx="1433.69" cy="789.81" r="37.94"/><circle class="cls-5" cx="1553.06" cy="789.81" r="37.94"/><circle class="cls-6" cx="1571.57" cy="694.5" r="37.94"/><circle class="cls-2" cx="1402.23" cy="713.93" r="37.94"/><circle class="cls-2" cx="1508.64" cy="694.5" r="37.94"/><circle class="cls-4" cx="1481.81" cy="656.56" r="37.94"/><circle class="cls-2" cx="1497.54" cy="801.84" r="37.94"/><path class="cls-12" d="M445.77,572.22l-78,60.81a3.14,3.14,0,0,1-3.34.34l-278.15-138a3.15,3.15,0,0,1,2.07-5.9l356.2,77.17A3.15,3.15,0,0,1,445.77,572.22Z"/><circle class="cls-13" cx="305.22" cy="564.84" r="10.78"/><circle class="cls-13" cx="271.7" cy="554.7" r="10.78"/><circle class="cls-13" cx="280.04" cy="543.05" r="10.78"/><circle class="cls-13" cx="286.12" cy="563.08" r="10.78"/><circle class="cls-13" cx="294.97" cy="550.63" r="10.78"/><path class="cls-14" d="M301.32,563c-9.83-9.46-36.75-23.92-32.08-18.78"/><path class="cls-15" d="M261.59,545.88c2.34-2.9,6.09-3.77,8.38-1.93"/><polygon class="cls-8" points="1019.2 1042.69 795.6 1042.68 570.86 1042.65 710.24 801.28 795.07 654.39 795.6 655.31 879.86 801.29 1019.2 1042.69"/><polygon class="cls-8" points="932.63 620.71 795.6 620.71 725.26 620.7 656.99 620.7 794.84 382 795.6 383.32 932.63 620.71"/><polygon class="cls-8" points="968.61 801.3 879.86 801.29 795.6 801.29 710.24 801.28 620.98 801.26 725.26 620.7 794.82 500.22 795.6 501.56 864.36 620.71 968.61 801.3"/><polygon class="cls-24" points="795.6 383.32 795.6 1042.68 570.86 1042.65 710.24 801.28 620.98 801.26 725.26 620.7 656.99 620.7 794.84 382 795.6 383.32"/><polygon class="cls-4" points="260.74 797.53 193.3 797.53 112.49 797.52 35.76 797.5 -36.88 797.5 54.45 639.36 111.96 539.77 112.49 540.7 169.44 639.36 260.74 797.53"/><polygon class="cls-4" points="306.43 993.52 112.49 993.5 -77.41 993.48 35.76 797.5 112.49 664.64 114.55 661.09 193.3 797.53 306.43 993.52"/><polygon class="cls-4" points="229.94 639.37 169.44 639.36 54.45 639.36 -6.04 639.35 111.97 435 112.49 435.9 229.94 639.37"/><polygon class="cls-25" points="112.49 435.9 112.49 993.5 -77.41 993.48 35.76 797.5 -36.88 797.5 54.45 639.36 -6.04 639.35 111.97 435 112.49 435.9"/><rect class="cls-26" x="273.41" y="956.56" width="65.1" height="154.86" transform="translate(-726.78 1344.15) rotate(-90.23)"/><path class="cls-26" d="M228.66,1066.86a32.55,32.55,0,1,1-.26-65.1"/><polyline class="cls-26" points="181.58 1024.06 211.7 1006.47 211.87 1062 180.91 1044.29"/><rect class="cls-27" x="168.36" y="1031.55" width="22.69" height="4.93" rx="1.5" transform="translate(-853.58 1217.92) rotate(-90.23)"/><rect class="cls-28" x="158.99" y="1028.13" width="24.66" height="11.84" rx="2.81" transform="translate(-862.03 1209.57) rotate(-90.23)"/><line class="cls-29" x1="166.4" y1="1037.03" x2="176.26" y2="1036.99"/><line class="cls-29" x1="166.38" y1="1034.07" x2="176.25" y2="1034.03"/><line class="cls-29" x1="166.37" y1="1031.11" x2="176.24" y2="1031.07"/><line class="cls-29" x1="166.36" y1="1028.15" x2="176.22" y2="1028.11"/><line class="cls-29" x1="166.35" y1="1025.19" x2="176.21" y2="1025.15"/><line class="cls-29" x1="166.83" y1="1022.23" x2="175.21" y2="1022.2"/><rect class="cls-30" x="255.16" y="983.79" width="52.28" height="101.6" rx="5.4" transform="translate(-752.13 1320.09) rotate(-90.23)"/><path class="cls-26" d="M381.87,1001c6-.1,11.08,14.39,11.38,32.36S389,1066,383,1066.09"/><ellipse class="cls-30" cx="330.05" cy="1034.48" rx="5.05" ry="26.2" transform="translate(-4.2 1.35) rotate(-0.23)"/><polygon class="cls-4" points="1859.93 868.36 1803.1 868.36 1735 868.35 1670.34 868.34 1609.13 868.34 1686.09 735.07 1734.55 651.15 1735 651.93 1782.99 735.07 1859.93 868.36"/><polygon class="cls-4" points="1898.43 1033.52 1735 1033.5 1574.97 1033.49 1670.34 868.34 1735 756.38 1736.73 753.38 1803.1 868.36 1898.43 1033.52"/><polygon class="cls-4" points="1833.97 735.08 1782.99 735.07 1686.09 735.07 1635.11 735.06 1734.56 562.86 1735 563.62 1833.97 735.08"/><polygon class="cls-25" points="1735 563.62 1735 1033.5 1574.97 1033.49 1670.34 868.34 1609.13 868.34 1686.09 735.07 1635.11 735.06 1734.56 562.86 1735 563.62"/><path class="cls-31" d="M1659.69,1026.94c7,21.68.48,26.88-14.64,40.9-7.57,5.46-15.84,4.35-23.1,3.18-7.26-1.78-13.52-3.61-17-13.55-7-21.68-.48-26.87,14.64-40.89,7.57-5.46,15.84-4.35,23.1-3.18C1649.91,1015.17,1656.17,1017,1659.69,1026.94Z"/><path class="cls-32" d="M1671.3,972.54c6.38,6.24.69,35-12.71,34.6-6.71,1.33-14.07,2.92-20.55-.76-6.49-3-12.1-11.36-15.29-15.44-6.38-6.24-.69-35,12.71-34.6,6.71-1.33,14.07-2.92,20.55.76C1662.5,960.15,1668.11,968.47,1671.3,972.54Z"/><path class="cls-33" d="M1783.46,1008.6c6.71,6.29.72,35.31-13.37,34.9-7,1.34-14.78,2.94-21.6-.76-6.82-3.08-12.71-11.47-16.07-15.59-6.71-6.28-.73-35.31,13.36-34.9,7-1.34,14.79-2.94,21.61.77C1774.21,996.09,1780.1,1004.48,1783.46,1008.6Z"/><path class="cls-34" d="M1767.05,1066.53c3.18,2,3.33,8,1,19-2.31,11.32-7.1,15.34-13.8,14.45-6.7-.27-14.06,2.53-20.53-2.27-6.47-3.65-12.06-14.91-15.24-16.73-3.17-2-3.33-8-1-19,2.31-11.32,7.09-15.34,13.8-14.45,6.7.28,14-2.53,20.53,2.27C1758.29,1053.46,1763.88,1064.72,1767.05,1066.53Z"/><path class="cls-33" d="M1724.83,995.09c6.22,6.08.67,34.11-12.39,33.71-6.53,1.3-13.7,2.85-20-.73-6.32-3-11.78-11.08-14.89-15-6.22-6.08-.68-34.11,12.38-33.71,6.53-1.3,13.71-2.85,20,.73C1716.26,983,1721.72,991.12,1724.83,995.09Z"/><path class="cls-31" d="M1711.14,1044.35c6.71,23.39.73,23.76-13.36,39.28-7,5.77-14.79,4.12-21.61,3.48-6.82-1.44-12.71-1.87-16.07-12.32-6.71-23.39-.73-23.76,13.37-39.28,7-5.77,14.78-4.12,21.6-3.48C1701.89,1033.48,1707.79,1033.91,1711.14,1044.35Z"/><rect class="cls-35" x="1654.93" y="1002.5" width="23.44" height="34.47" transform="translate(-276.54 815.76) rotate(-25.47)"/><rect class="cls-35" x="1708.88" y="1025.37" width="26.44" height="26.02" transform="translate(1797.39 -971.15) rotate(61.06)"/><polygon class="cls-35" points="1637 1010.74 1616.02 1014.59 1622.39 995.2 1637 1010.74"/><path class="cls-35" d="M1618.09,1008.64a2.76,2.76,0,1,1-3,4.65"/><path class="cls-35" d="M1620.32,996.07a2.76,2.76,0,0,1,.07,5.52"/><path class="cls-36" d="M1762.26,1048.41a2.76,2.76,0,1,1-3,4.65"/><polygon class="cls-35" points="1753.41 1047.78 1774.59 1044.39 1769.16 1062.33 1753.41 1047.78"/><path class="cls-35" d="M1772.28,1051.05a2.76,2.76,0,0,1,2.8-4.75"/><path class="cls-35" d="M1771,1062.7a2.76,2.76,0,1,1-1-5.42"/><circle class="cls-13" cx="1505.8" cy="976.71" r="14.89"/><circle class="cls-13" cx="1548.69" cy="999.1" r="14.89"/><circle class="cls-13" cx="1551.71" cy="979.55" r="14.89"/><circle class="cls-13" cx="1526.35" cy="993.44" r="14.89"/><circle class="cls-13" cx="1529.66" cy="972.59" r="14.89"/><path class="cls-14" d="M1511.44,978.64c18.85.17,59.39,11.92,49.82,12.48"/><path class="cls-15" d="M1567.18,1000.18c.5-5.14-2.36-9.62-6.4-10"/><circle class="cls-14" cx="495.41" cy="935.24" r="15.23"/><circle class="cls-14" cx="498.03" cy="984.64" r="15.23"/><circle class="cls-14" cx="516.82" cy="977.12" r="15.23"/><circle class="cls-14" cx="491.38" cy="962.03" r="15.23"/><circle class="cls-14" cx="511.45" cy="954.09" r="15.23"/><path class="cls-19" d="M496.64,941.2c9.68,16.68,20.44,58.48,15,50.35"/><path class="cls-20" d="M506.72,1001.48c4.78-2.23,7.23-7.09,5.47-10.85"/><circle class="cls-14" cx="65.36" cy="1022.85" r="14.23"/><circle class="cls-14" cx="22.66" cy="1005.13" r="14.23"/><circle class="cls-14" cx="21.42" cy="1024" r="14.23"/><circle class="cls-14" cx="44.4" cy="1008.65" r="14.23"/><circle class="cls-14" cx="43" cy="1028.77" r="14.23"/><path class="cls-19" d="M59.83,1021.48c-18,1.43-57.53-6.36-48.47-7.69"/><path class="cls-20" d="M5,1005.66c0,4.93,3.06,9,6.94,9"/><circle class="cls-13" cx="1254.49" cy="1008.63" r="13.7"/><circle class="cls-13" cx="1218.7" cy="1035.08" r="13.7"/><circle class="cls-13" cx="1233.66" cy="1045.45" r="13.7"/><circle class="cls-13" cx="1232.38" cy="1018.89" r="13.7"/><circle class="cls-13" cx="1248.29" cy="1030.01" r="13.7"/><path class="cls-14" d="M1250.62,1012.51c-7.72,15.53-33.77,44.32-30.38,36.19"/><path class="cls-15" d="M1210.37,1050c4,2.48,8.9,1.91,10.85-1.27"/><rect class="cls-7" x="1643.61" y="687.53" width="56.44" height="431.21" rx="12"/><path class="cls-3" d="M1672,687.53v431.21h-16.39a12,12,0,0,1-12-12V699.53a12,12,0,0,1,12-12Z"/><circle class="cls-2" cx="1618.66" cy="645.83" r="42"/><circle class="cls-2" cx="1660.66" cy="758.52" r="42"/><circle class="cls-4" cx="1609.44" cy="702.18" r="42"/><circle class="cls-5" cx="1673.98" cy="653" r="42"/><circle class="cls-6" cx="1660.66" cy="611" r="42"/><circle class="cls-5" cx="1609.44" cy="752.37" r="42"/><circle class="cls-6" cx="1696.52" cy="771.84" r="42"/><circle class="cls-2" cx="1666.81" cy="700.13" r="42"/><circle class="cls-4" cx="1585.88" cy="660.17" r="42"/><circle class="cls-2" cx="1744.67" cy="671.44" r="42"/><circle class="cls-4" cx="1702.67" cy="611" r="42"/><circle class="cls-5" cx="1718.03" cy="716.52" r="42"/><circle class="cls-4" cx="1747.74" cy="695" r="42"/><circle class="cls-2" cx="1728.28" cy="742.13" r="42"/><path class="cls-37" d="M474.8,190.12q2.13,3-3.53,17.18t-10.95,14.83q-5.64.74-10-5.08a26.91,26.91,0,0,0-3.56-5.16L403.38,180l6,35.75a14.2,14.2,0,0,0,2.4,5.16,13.78,13.78,0,0,1,2.29,4.58q1,5.79-5.77,7.51-5.16,1.47-16,.48-11.67-.84-12.18-3.92a10.79,10.79,0,0,1,0-2.69,16.61,16.61,0,0,0-.26-4.22L357.38,87.78a5.45,5.45,0,0,0-.93-2.33,4.12,4.12,0,0,1-.8-1.55q-.7-5.25,6-7.35c1.36-.5,4.64-.41,9.86.24s8.86.74,10.94.26,5.74-2.91,11.3-7.35,10.63-7,15.19-7.79a27.65,27.65,0,0,1,5.53-.33,19.58,19.58,0,0,1,9.78,3.53c3.11,2.13,6.12,4.28,9,6.45q11.31,8.43,11.76,9a22.52,22.52,0,0,1,7.07,12.12Q456.85,114.89,427,156q8.6,6.11,38.39,30.33a32,32,0,0,1,5,1.56A26.35,26.35,0,0,1,474.8,190.12ZM418.05,88.58q-8.24,1.38-25.94,23.79L397,141.93q7-4.55,16.49-23.2T421.68,92C421.25,89.38,420,88.25,418.05,88.58Z"/><path class="cls-37" d="M566,180.68a18.42,18.42,0,0,1-2.22,7.48q-2.1,4.09-3.94,5.12c-.34.17-1,0-2-.45a4.76,4.76,0,0,0-2.4-.59,1.47,1.47,0,0,0-.68.28,66.54,66.54,0,0,0-10.37,6,102.72,102.72,0,0,0-21.92,19.85q-18.62-5.82-20.3-6.4-11.58-3.91-11.89-6.44L472.42,59.31c-.11-.9,1.11-2.37,3.67-4.39s4.49-3.05,5.8-3.08,4.38.62,8.84,2,8,1.88,10.75,1.55q5.29-.65,13.12-6.93,7.14-6,9.18-5.46,4.43,1,13.86,8.66t10.6,11.24q.56,1.71-2.53,6.43t-5.39,5a5.42,5.42,0,0,1-2.89-.24c-.64-.32-1.07-.4-1.28-.24A93.51,93.51,0,0,0,524.78,79q-12.46,6.45-17.85,13.62l3.87,31.69A116.08,116.08,0,0,1,526,115.13q2.78-.73,13,7.2t10.61,11.43c.18,1.43-.44,3.21-1.85,5.36a11.63,11.63,0,0,1-4.31,4.27q-1.77.23-6.13,1.14-6.54,2.19-22.12,15.34l2.5,20.41q4.86-4.14,13.36-10t10.63-6.13q2.46-.3,13.47,6.94T566,180.68Z"/><path class="cls-37" d="M665.77,42a12,12,0,0,1-.36,4.16,34.26,34.26,0,0,0-1.14,5.4l11.12,128.8c0-.39.47,2,1.51,7.15q1.85,8.88-1.11,11.89t-14.21,2.8a58.45,58.45,0,0,1-15-2.44Q635.44,197,634,193a49.44,49.44,0,0,0-1.26-8.35q-12.4-28-28.49-61.43l5,57.76a10,10,0,0,0,1.6,4,35.78,35.78,0,0,1,1.89,3.38,19.84,19.84,0,0,1,1.39,5.77q.68,7.81-5.7,8.36-6.2.54-17.86-2.39-11-3-12.57-5-2.38-2.94-.69-8c1.14-3.37,1.67-5.45,1.61-6.23L568.36,58.48a17.63,17.63,0,0,0-.83-3.47,8.16,8.16,0,0,1-.5-3.69c.8-4.52,2.84-7.72,6.13-9.57A11.89,11.89,0,0,1,577,41a54.73,54.73,0,0,1,14.34.73q9.58,1.53,13.67,5.5,5.46,5.43,16,34.6,12.9,35.85,19.51,48.25l-6.62-76.69a19.83,19.83,0,0,0-1.09-4.33,19.39,19.39,0,0,1-1.09-4.33,6.22,6.22,0,0,1,.17-2.18q.6-3.39,6.31-5.46A23.73,23.73,0,0,1,647,35.37a50.07,50.07,0,0,1,9.92,1.31Q665.31,38.71,665.77,42Z"/><path class="cls-37" d="M812.4,158.89q.66,14.48-7.61,24.17t-23.71,10.79a28.55,28.55,0,0,1-8.4-1q-8.29-2.18-8.64-2.16c-2.87-.52-5.77-1.08-8.71-1.66a15.47,15.47,0,0,1-7.74-4.06q-5-4.47-8.51-14.91-4.29-12.15-6.39-15.19a26.12,26.12,0,0,1-3.62-5.33,8.74,8.74,0,0,1,.71-5.82,7.16,7.16,0,0,1,3.48-3.78,12.92,12.92,0,0,1,3.89-.57,86.06,86.06,0,0,1,15.25,1q9,1.26,10.17,2.58t3.49,13.95q2.13,11.67,5.39,12.9a3.19,3.19,0,0,0,1.61.31q3.38-.15,5.49-6.42a38.37,38.37,0,0,0,1.76-14.1q-.78-17-10.62-22.26-22.62-12.11-32-22.86Q726.8,92,727.07,74.35q.21-14.71,8.32-30.09T753.15,25.9q4-1.16,25.24,7.48,5.25,1.92,10.6,4a20.32,20.32,0,0,1,8.74,6.46q5.28,6.63,6,23.45.15,3.14.24,9.21c0,3.52.1,6,.16,7.44a27.42,27.42,0,0,0,1.45,4.44,9.24,9.24,0,0,1,.91,4.28q0,8.63-6.13,9.88-3.52.75-13.27-2.33Q776.31,97,773.28,92.83q-.39-.57-.54-3.9-.13-2.93,0-13.33t-.07-15.1c-.25-5.6-1-8.32-2.15-8.13q-5.49.65-8.74,9.12A46.62,46.62,0,0,0,759,80.54q.79,17.61,10.55,24.62l22,13.9q10.46,6.78,14.69,13.84Q811.63,142.07,812.4,158.89Z"/><path class="cls-37" d="M921.43,156q.63,4.89-5.66,18.54-6.64,14.23-11.09,13.75-5.35-.68-23-22.84-19.73-24.86-24.23-28.1l.75,36a14.29,14.29,0,0,0,1.15,4.09,23.6,23.6,0,0,1,1.33,4.29q1.05,7.8-2.81,10.24c-1.17.81-3.11,1.24-5.84,1.3a37.26,37.26,0,0,1-15.35-3q-8.43-3.56-8.53-8.45l-3-143.35a19,19,0,0,1,2.13-8.37c1.48-3.09,3.16-5.06,5-5.88a5,5,0,0,1,1.59-.23q5.16-.11,14.75,4t10.55,7q.38,1.37-1.48,14.34-2,14.73-1.85,22.37.06,2.55.27,4.5l29.49-52.33q2.57-4.56,6.66-4.45,4.46.11,13.28,6,9.91,6.86,10.23,13.11,0,1.77-13.76,22.23-17.43,25.44-27.16,44.84l36.84,44.69q1.27,1.54,5.74,2.43C920,153.37,921.27,154.45,921.43,156Z"/><path class="cls-37" d="M989.17,189.08a20.67,20.67,0,0,1-8.35-1.11q-4.62-1.49-9.05-3.07-5.32-1.59-16.69-5.74-14.19-6.9-21.4-27.11-6.33-17.85-6.24-43.11.07-20.58,6.58-48,8.84-36.79,22.7-36.74a12.71,12.71,0,0,1,3.47.7,26,26,0,0,0,3.46.89q13.17-4.07,16.9-4.05a32.51,32.51,0,0,1,3.55.21q21.31,3,33.48,29.5,10.93,23.94,10.81,57-.12,31.35-10.15,53.83Q1007.49,186.8,989.17,189.08ZM986.5,45.49q-3.9-1.18-7.77,11.53T971,69.72a5.5,5.5,0,0,1-2.57-1.08,8.73,8.73,0,0,0-2.75-1.29q-6.11,14.67-6.2,41.9-.07,21.35,4,36.64,4.56,17.06,12.73,18.85,9.58,2,15.54-21.68,5.24-20.75,5.34-49.34.07-19.39-2.55-32.53Q991.65,47.08,986.5,45.49Z"/><path class="cls-37" d="M1142.2,39.26q-10,25.79-23.17,78.52-12,47.68-12,54.14a80.91,80.91,0,0,0,.1,9,17.23,17.23,0,0,1-1.47,8.19c-1.27,3.1-2.92,4.81-5,5.15q-5.17,1-20.57-4.88t-17.59-10.1a12.11,12.11,0,0,1-1.1-5.12,31.4,31.4,0,0,0-.39-5.3q-18.28-71.25-20.81-127.36a20,20,0,0,0-.77-4.14,12.46,12.46,0,0,1-.24-4.12q1.07-6.82,5.38-8.28,2.16-.72,14.82,4.14,13.36,5.07,14.7,8.44.66,2-.23,8.23a13.48,13.48,0,0,1-1.34,3.39,7.32,7.32,0,0,0-1,3.79q2.09,20.64,4,36.36,4.65,37.76,7.64,44.89,3.52-18.12,12-46.3t12-47.09a59.68,59.68,0,0,1,1.88-9.94c1.39-3.1,3.4-5.06,6-5.91q2.87-.89,13.23,3.7Q1139.51,33.9,1142.2,39.26Z"/><path class="cls-37" d="M1242.26,121.09a48.25,48.25,0,0,1,0,5.89q-.84,16.23-14.43,34.35A122.51,122.51,0,0,1,1201.61,187q-14.05,10.06-18.8,9-5.28-1-18.36-9.68t-14-11.62a4.28,4.28,0,0,1-.26-1.78,10.05,10.05,0,0,1,.78-3,9.7,9.7,0,0,0,.77-2.8l6.63-126.76q.16-3.12,8-2.72a22.59,22.59,0,0,1,6.17,1.11,89.88,89.88,0,0,1,21.58-9.37q12.92-3.93,22-3.46,5.33.28,8.16,2.1a15.76,15.76,0,0,1,5.11,6.05,50.66,50.66,0,0,0,4.07,7.28q.35.4,5.58,5.58a13.29,13.29,0,0,1,3.76,6.48,17.41,17.41,0,0,1,.44,5.12q-.81,15.45-20.39,32.67Q1241,108.07,1242.26,121.09Zm-24.38-7q-4.62,0-15.87,4.07-12.16,4.67-17.76,9.47l-1.9,36.38q11.72-2.93,23.84-20.33T1217.88,114.13Zm-3.36-58.24c-.21-.53-.84-.83-1.91-.88q-4.08-.21-13,4t-12.19,8.39l-1.06,20.34A158.57,158.57,0,0,0,1207,68.44Q1215.82,58.51,1214.52,55.89Z"/><path class="cls-37" d="M1352.48,54.52q.33-2.13-2.69,37.32-8.55,111.32-37,112.67-5,.19-11.81-2.88t-13.35-6.13c-3.81-1.34-7.66-2.78-11.52-4.32a19.06,19.06,0,0,1-8.84-6.67q-6.6-9.34-8.76-39.18a426.31,426.31,0,0,1,.73-60.45,357.14,357.14,0,0,1,5.91-44.53q1.17-6,5.74-7.42,2-.63,13.35,3.77t13.09,7.1A5.07,5.07,0,0,1,1298,47a20.17,20.17,0,0,1-2.3,6.8,16.81,16.81,0,0,0-2.13,6.81Q1292.37,64.25,1291,82a623,623,0,0,0-2,62.51q.79,36.21,7.58,35.95,8.58-.33,15.39-33.2,5.32-25.32,8-60.09,1.76-22.84,1-28.8a14.84,14.84,0,0,0-.21-6.5,40.38,40.38,0,0,1-1.23-4.81q-.55-6.72,4.66-9.66a5.67,5.67,0,0,1,3.06-.36q5.31.4,14.66,4.08t10.79,5.74C1353.34,47.84,1353.27,50.39,1352.48,54.52Z"/><path class="cls-37" d="M1471.92,60.93a11.94,11.94,0,0,1-1.15,4,33.78,33.78,0,0,0-2.15,5.09l-13.69,128.55q.06-.59.12,7.3.1,9.08-3.37,11.46t-14.48,0a58.1,58.1,0,0,1-14.27-5.26q-10.4-4.85-11-9.05a49.55,49.55,0,0,0,.36-8.43q-6.83-29.88-16.23-65.75l-6.14,57.65a9.81,9.81,0,0,0,.8,4.22,34.91,34.91,0,0,1,1.21,3.68,20.14,20.14,0,0,1,.26,5.93q-.83,7.8-7.19,7.12-6.18-.66-17.08-5.76-10.19-5-11.37-7.32-1.8-3.34.85-8t2.76-5.81l13-122.12a17.64,17.64,0,0,0-.16-3.56,8.34,8.34,0,0,1,.22-3.72q2.47-6.43,7.85-8.23a12.06,12.06,0,0,1,3.93,0,54.92,54.92,0,0,1,13.93,3.45q9.12,3.33,12.37,8,4.32,6.36,9.1,37,5.82,37.67,9.93,51.1L1438.49,66a19.67,19.67,0,0,0-.24-4.46,19.63,19.63,0,0,1-.24-4.46,6.15,6.15,0,0,1,.58-2.1c.82-2.14,3.23-3.53,7.23-4.15a23.6,23.6,0,0,1,8.94,0,50.12,50.12,0,0,1,9.49,3.18Q1472.1,57.61,1471.92,60.93Z"/><path class="cls-37" d="M1565.57,130.07q-2.92,21.15-16.74,44.54a194,194,0,0,1-26,34.77Q1509.67,223,1504,224.77a14.7,14.7,0,0,1-6.15.34q-7.74-1.06-16.85-7.87-8.19-5.67-11.86-11.52L1488.49,66q1.23-5,6.11-5.29.56-.12,8.62,2.58,1.56.4,11-2.63t15.82-2.16A27.42,27.42,0,0,1,1544.25,65q3.68,3.27,10.7,12.15,10.23,12.9,12,25.79Q1568.12,111.64,1565.57,130.07Zm-24-41.49a5.26,5.26,0,0,0-2.74-1q-9.33-1.31-23.59,5.83l-12.08,87.31q13-5.91,25.55-34.23,10.72-24.42,13.61-45.18Q1543.78,90.47,1541.53,88.58Z"/><circle class="cls-14" cx="1403.7" cy="1067.15" r="9.33"/><circle class="cls-14" cx="1431.78" cy="1078.58" r="9.33"/><circle class="cls-14" cx="1432.5" cy="1066.2" r="9.33"/><circle class="cls-14" cx="1417.51" cy="1076.37" r="9.33"/><circle class="cls-14" cx="1418.33" cy="1063.17" r="9.33"/><path class="cls-19" d="M1407.33,1068c11.77-1,37.75,3.9,31.82,4.82"/><path class="cls-20" d="M1443.38,1078.15c0-3.24-2.05-5.86-4.59-5.87"/><circle class="cls-13" cx="1030.92" cy="1040.41" r="16.07"/><circle class="cls-13" cx="979.73" cy="1050.61" r="16.07"/><circle class="cls-13" cx="990.42" cy="1069.09" r="16.07"/><circle class="cls-13" cx="1002.34" cy="1040.25" r="16.07"/><circle class="cls-13" cx="1013.66" cy="1060.01" r="16.07"/><path class="cls-14" d="M1024.88,1042.6c-16,12.61-58,30.17-50.32,23.22"/><path class="cls-15" d="M963.46,1062.22c3,4.65,8.49,6.48,12.15,4.08"/><circle class="cls-14" cx="1137.22" cy="1065.19" r="8.17"/><circle class="cls-14" cx="1110.81" cy="1067.68" r="8.17"/><circle class="cls-14" cx="1115.25" cy="1077.58" r="8.17"/><circle class="cls-14" cx="1122.78" cy="1063.62" r="8.17"/><circle class="cls-14" cx="1127.48" cy="1074.2" r="8.17"/><path class="cls-19" d="M1134.05,1066c-8.72,5.55-30.88,12.23-26.65,9.12"/><path class="cls-20" d="M1102,1072.7c1.3,2.51,4,3.72,5.93,2.7"/><path class="cls-7" d="M1060.05,698.13v309.74c0,5-6,9.13-13.43,9.13H1010.3c-7.39,0-13.43-4.11-13.43-9.13V698.13c0-5,6-9.13,13.43-9.13h36.32C1054,689,1060.05,693.11,1060.05,698.13Z"/><path class="cls-38" d="M1025.65,689v328H1007.3c-7.39,0-13.43-4.11-13.43-9.13V698.13c0-5,6-9.13,13.43-9.13Z"/><path class="cls-7" d="M1061.7,652.23l-66.07,43.51a3.16,3.16,0,0,1-3.36.08L779.35,568.15a3.15,3.15,0,0,1,2.53-5.72l279,84.15A3.15,3.15,0,0,1,1061.7,652.23Z"/><circle class="cls-13" cx="890.15" cy="596.41" r="15.15"/><circle class="cls-13" cx="938.21" cy="606.92" r="15.15"/><circle class="cls-13" cx="927.81" cy="624.15" r="15.15"/><circle class="cls-13" cx="917.09" cy="596.77" r="15.15"/><circle class="cls-13" cx="906.07" cy="615.18" r="15.15"/><path class="cls-14" d="M895.81,598.58c14.81,12.17,54.1,29.45,47,22.77"/><path class="cls-15" d="M953.34,618.15c-3,4.33-8.12,6-11.52,3.63"/><path class="cls-7" d="M968.4,645l7,19.47a2.69,2.69,0,0,1-2,3.53l-87.09,18.9a2.69,2.69,0,0,1-1.73-5l80.11-38.36A2.69,2.69,0,0,1,968.4,645Z"/><path class="cls-12" d="M1172,570.71l8,17.75a2.7,2.7,0,0,1-1.67,3.68l-80.34,24.26a2.69,2.69,0,0,1-2.12-4.9l72.32-42A2.68,2.68,0,0,1,1172,570.71Z"/><path class="cls-12" d="M1387.19,620l-62.34,48.57a3.14,3.14,0,0,1-3.34.34L1099.34,558.67a3.15,3.15,0,0,1,2.07-5.9l284.51,61.64A3.15,3.15,0,0,1,1387.19,620Z"/><rect class="cls-7" x="1369.57" y="737" width="48" height="366.74" rx="10.21"/><path class="cls-3" d="M1393.72,737v366.74h-13.94a10.23,10.23,0,0,1-10.21-10.21V747.21A10.23,10.23,0,0,1,1379.78,737Z"/><circle class="cls-2" cx="1325.75" cy="651.84" r="57.31"/><circle class="cls-2" cx="1383.06" cy="805.59" r="57.31"/><circle class="cls-4" cx="1313.17" cy="728.71" r="57.31"/><circle class="cls-5" cx="1401.23" cy="661.62" r="57.31"/><circle class="cls-2" cx="1383.06" cy="604.31" r="57.31"/><circle class="cls-5" cx="1313.17" cy="797.21" r="57.31"/><circle class="cls-2" cx="1431.98" cy="823.77" r="57.31"/><circle class="cls-2" cx="1391.44" cy="725.92" r="57.31"/><circle class="cls-4" cx="1281.02" cy="671.4" r="57.31"/><circle class="cls-2" cx="1497.68" cy="686.78" r="57.31"/><circle class="cls-4" cx="1440.37" cy="604.31" r="57.31"/><circle class="cls-5" cx="1461.33" cy="748.28" r="57.31"/><circle class="cls-4" cx="1501.87" cy="718.93" r="57.31"/><circle class="cls-2" cx="1475.31" cy="783.23" r="57.31"/><ellipse class="cls-2" cx="1204.96" cy="780.74" rx="54.63" ry="55.82"/><ellipse class="cls-2" cx="1086.82" cy="639.11" rx="54.63" ry="55.82"/><ellipse class="cls-2" cx="1208.1" cy="587.43" rx="54.63" ry="55.82"/><ellipse class="cls-4" cx="1261.14" cy="685.02" rx="54.63" ry="55.82"/><ellipse class="cls-4" cx="1168.22" cy="673.9" rx="54.63" ry="55.82"/><ellipse class="cls-5" cx="1153.22" cy="601.44" rx="54.63" ry="55.82"/><ellipse class="cls-5" cx="1131.46" cy="721.23" rx="54.63" ry="55.82"/><ellipse class="cls-6" cx="1125.77" cy="657.5" rx="54.63" ry="55.82"/><ellipse class="cls-5" cx="1054.2" cy="657.62" rx="54.63" ry="55.82"/><ellipse class="cls-5" cx="1137.65" cy="811.14" rx="54.63" ry="55.82"/><ellipse class="cls-6" cx="1270.58" cy="766.87" rx="54.63" ry="55.82"/><ellipse class="cls-2" cx="1127.73" cy="562.95" rx="54.63" ry="55.82"/><ellipse class="cls-2" cx="1226.59" cy="685.94" rx="54.63" ry="55.82"/><ellipse class="cls-4" cx="1255.59" cy="624.33" rx="54.63" ry="55.82"/><ellipse class="cls-2" cx="1083.69" cy="748.33" rx="54.63" ry="55.82"/><circle class="cls-13" cx="238.21" cy="481.9" r="13.9"/><circle class="cls-13" cx="217.12" cy="521.83" r="13.9"/><circle class="cls-13" cx="204.44" cy="508.4" r="13.9"/><circle class="cls-13" cx="231.29" cy="505.64" r="13.9"/><circle class="cls-13" cx="217.7" cy="491.38" r="13.9"/><path class="cls-14" d="M234.91,486.38c-14.4,10.11-39.33,40.61-31.68,36"/><path class="cls-15" d="M203.47,532.45c-3.1-3.68-3.27-8.64-.38-11.08"/><circle class="cls-14" cx="728" cy="1045.98" r="15.74"/><circle class="cls-14" cx="677.5" cy="1054.03" r="15.74"/><circle class="cls-14" cx="687.28" cy="1072.52" r="15.74"/><circle class="cls-14" cx="700.02" cy="1044.75" r="15.74"/><circle class="cls-14" cx="710.36" cy="1064.51" r="15.74"/><path class="cls-19" d="M722,1047.89c-16.08,11.75-57.88,27.35-50.12,20.84"/><path class="cls-20" d="M661.14,1064.78c2.81,4.67,8.07,6.67,11.74,4.46"/><circle class="cls-13" cx="1480.33" cy="572.66" r="17.66"/><circle class="cls-13" cx="1440.03" cy="531.83" r="17.66"/><circle class="cls-13" cx="1461.15" cy="521.6" r="17.66"/><circle class="cls-13" cx="1454.22" cy="555.19" r="17.66"/><circle class="cls-13" cx="1476.7" cy="544.19" r="17.66"/><path class="cls-14" d="M1476.18,566.94c-6.74-21.31-34.17-63.18-31.47-52.14"/><path class="cls-15" d="M1432.38,511.24c5.65-2.36,11.72-.67,13.57,3.77"/><path class="cls-28" d="M539.78,1050.39c2.19,8-10.68,18.56-28.75,23.5s-34.5,2.42-36.7-5.63"/><ellipse class="cls-39" cx="486.62" cy="1002.03" rx="35.41" ry="20.96" transform="translate(-246.81 163.61) rotate(-15.28)"/><ellipse class="cls-39" cx="497.03" cy="1022.56" rx="39.96" ry="20.67" transform="translate(-251.85 167.08) rotate(-15.28)"/><ellipse class="cls-39" cx="505.1" cy="1052" rx="36.94" ry="16.42" transform="translate(-259.32 170.25) rotate(-15.28)"/><ellipse class="cls-39" cx="500.33" cy="1034.6" rx="27.91" ry="19.93" transform="translate(-254.91 168.38) rotate(-15.28)"/><rect class="cls-39" x="451.98" y="989.56" width="64.14" height="9.08" transform="translate(-239.05 157.64) rotate(-14.88)"/><ellipse class="cls-28" cx="482.68" cy="987.36" rx="32.98" ry="9.27" transform="translate(-243.08 162.06) rotate(-15.28)"/><ellipse class="cls-40" cx="482.44" cy="987.7" rx="27.55" ry="7.74" transform="translate(-243.18 162) rotate(-15.28)"/><path class="cls-41" d="M490.05,990.32l-2.75-2.62c7.55-7.93,6.85-9.67,6.81-9.74-.83-.53-5.62,1.2-11.12,7l-2.76-2.63a34.29,34.29,0,0,1,8.74-6.83c4.33-2.22,6.61-1.38,7.75-.29,1.69,1.61,1.63,4-.18,7.09A46.4,46.4,0,0,1,490.05,990.32Z"/><path class="cls-42" d="M490.42,990.16c-7.73,2.38-21.13,5.83-22.09,2.7s4.51-7.61,12.24-10"/><polygon class="cls-40" points="520 1042.53 502.38 1039.45 489.78 1052.15 487.34 1034.52 471.35 1026.58 487.47 1018.76 490.18 1001.15 502.57 1013.95 520.24 1011.01 511.79 1026.74 520 1042.53"/><polygon class="cls-28" points="904.02 1100.59 888.11 1115.06 862.74 1118 857.73 1106.38 828.3 1091.1 833.14 1068.77 822.97 1047.74 833.14 1031.16 854.84 1025.38 869.31 1010.91 893.23 1007.97 908.36 1023.93 927.67 1034.87 922.83 1060.09 933 1078.23 927.16 1094.81 904.02 1100.59"/><polyline class="cls-43" points="849.05 1045.63 867.86 1038.39 877.99 1039.84"/><polyline class="cls-43" points="841.82 1074.56 853.39 1077.45 863.52 1070.22"/><polyline class="cls-43" points="861.13 1055.76 879.43 1058.64 886.68 1070.51"/><polyline class="cls-43" points="895.04 1033.75 899.68 1049.97 915.9 1054.61"/><polyline class="cls-43" points="891.84 1021.36 875.53 1017.07 863.25 1028.65"/><polyline class="cls-43" points="912.59 1090.51 916.49 1079.23 910.18 1068.51"/><polyline class="cls-43" points="836.32 1041.58 837.09 1051.57 846.31 1056.4"/></svg>
