<svg id="Layer_1" data-name="Layer 1" xmlns="http://www.w3.org/2000/svg" width="1920" height="1080" viewBox="0 0 1920 1080"><defs><style>.cls-1{fill:#b4e0f1;}.cls-2{fill:#006837;}.cls-3{fill:#39b54a;}.cls-4{opacity:0.16;}.cls-5{fill:#009245;}.cls-6{fill:#8cc63f;}.cls-7{fill:#d9e021;}.cls-8{fill:#fbb03b;}.cls-9{fill:#543813;}.cls-10{fill:#a67c52;}.cls-11{fill:#754c24;}.cls-12{fill:#8c6239;}.cls-13{fill:#f7931e;}.cls-14{fill:#f15a24;}.cls-15,.cls-18,.cls-20,.cls-21,.cls-35,.cls-36,.cls-37,.cls-38,.cls-43{fill:none;}.cls-15{stroke:#f15a24;}.cls-15,.cls-18,.cls-20,.cls-21{stroke-linecap:round;}.cls-15,.cls-18,.cls-20,.cls-21,.cls-33,.cls-35,.cls-36,.cls-37,.cls-38,.cls-39,.cls-40,.cls-43{stroke-miterlimit:10;}.cls-15,.cls-18,.cls-20{stroke-width:2px;}.cls-16{fill:#fcee21;}.cls-17{fill:#fff;}.cls-18{stroke:#39b54a;}.cls-19{fill:#ed1c24;}.cls-20{stroke:#ed1c24;}.cls-21{stroke:#fbb03b;stroke-width:5px;}.cls-22{fill:#998675;}.cls-23{fill:#736357;}.cls-24{fill:#999;}.cls-25{fill:#b3b3b3;}.cls-26,.cls-33{fill:#666;}.cls-27{fill:#4d4d4d;}.cls-28{fill:#333;}.cls-29{opacity:0.14;}.cls-30{opacity:0.15;}.cls-31,.cls-32,.cls-40{fill:#00a99d;}.cls-32{opacity:0.9;}.cls-33{stroke:gray;stroke-width:0.5px;}.cls-34{fill:#e6e6e6;}.cls-35,.cls-36,.cls-37,.cls-38,.cls-39{stroke:#c7b299;}.cls-35{stroke-width:13px;}.cls-36{stroke-width:11px;}.cls-37{stroke-width:12px;}.cls-38{stroke-width:14px;}.cls-39{fill:#c7b299;}.cls-40{stroke:blue;}.cls-41{fill:#c1272d;}.cls-42{fill:red;}.cls-43{stroke:#c1272d;stroke-width:0.75px;}</style></defs><title>titelskaerm</title><rect class="cls-1" width="1920" height="1080"/><polygon class="cls-2" points="1778.07 981.58 1454.61 981.55 1616.36 701.43 1778.07 981.58"/><polygon class="cls-3" points="2015.36 939.74 1893 939.73 1770.64 939.71 1840.17 819.31 1893 727.82 1893.02 727.79 1945.85 819.32 2015.36 939.74"/><polygon class="cls-3" points="1968.1 709.41 1893 709.41 1862.22 709.4 1817.66 709.4 1892.89 579.11 1893 579.3 1968.1 709.41"/><polygon class="cls-3" points="1988.5 819.32 1945.85 819.32 1893 819.31 1798.76 819.31 1862.22 709.4 1893 656.1 1893.64 654.99 1925.05 709.41 1988.5 819.32"/><polygon class="cls-4" points="1893 579.3 1893 939.73 1770.64 939.71 1840.17 819.31 1798.76 819.31 1862.22 709.4 1817.66 709.4 1892.89 579.11 1893 579.3"/><polygon class="cls-3" points="153.36 938.74 31 938.73 -91.36 938.71 -21.83 818.31 31 726.82 31.02 726.79 83.85 818.32 153.36 938.74"/><polygon class="cls-3" points="106.1 708.41 31 708.41 0.22 708.4 -44.34 708.4 30.89 578.11 31 578.3 106.1 708.41"/><polygon class="cls-3" points="126.5 818.32 83.85 818.32 31 818.31 -63.24 818.31 0.22 708.4 31 655.1 31.64 653.99 63.05 708.41 126.5 818.32"/><polygon class="cls-4" points="31 578.3 31 938.73 -91.36 938.71 -21.83 818.31 -63.24 818.31 0.22 708.4 -44.34 708.4 30.89 578.11 31 578.3"/><ellipse class="cls-3" cx="154.94" cy="692.93" rx="46.51" ry="44.62" transform="translate(-469.73 355.38) rotate(-49.01)"/><ellipse class="cls-3" cx="203.11" cy="569.47" rx="46.51" ry="44.62" transform="matrix(0.66, -0.75, 0.75, 0.66, -359.97, 349.26)"/><ellipse class="cls-5" cx="203.26" cy="652.26" rx="46.51" ry="44.62" transform="translate(-422.41 377.86) rotate(-49.01)"/><ellipse class="cls-6" cx="115.79" cy="648.38" rx="46.51" ry="44.62" transform="translate(-449.58 310.5) rotate(-49.01)"/><ellipse class="cls-7" cx="95.96" cy="692.77" rx="46.51" ry="44.62" transform="translate(-489.91 310.81) rotate(-49.01)"/><ellipse class="cls-6" cx="239.72" cy="610.3" rx="46.51" ry="44.62" transform="translate(-378.19 390.94) rotate(-49.01)"/><ellipse class="cls-7" cx="184.03" cy="533.35" rx="46.51" ry="44.62" transform="translate(-339.27 322.43) rotate(-49.01)"/><ellipse class="cls-3" cx="155.77" cy="613.99" rx="46.51" ry="44.62" transform="translate(-409.87 328.84) rotate(-49.01)"/><ellipse class="cls-8" cx="191.65" cy="703.78" rx="46.51" ry="44.62" transform="translate(-465.3 386.82) rotate(-49.01)"/><ellipse class="cls-3" cx="72.5" cy="583.71" rx="46.51" ry="44.62" transform="translate(-415.66 255.57) rotate(-49.01)"/><ellipse class="cls-5" cx="62.28" cy="663.5" rx="46.51" ry="44.62" transform="translate(-479.41 275.31) rotate(-49.01)"/><ellipse class="cls-6" cx="126.6" cy="564.6" rx="46.51" ry="44.62" transform="translate(-382.62 289.83) rotate(-49.01)"/><ellipse class="cls-8" cx="87.15" cy="561.88" rx="46.51" ry="44.62" transform="translate(-394.14 259.11) rotate(-49.01)"/><ellipse class="cls-3" cx="136.98" cy="536.05" rx="46.51" ry="44.62" transform="translate(-357.5 287.85) rotate(-49.01)"/><ellipse class="cls-9" cx="705.5" cy="933" rx="209.5" ry="85"/><rect class="cls-9" x="-4" y="940" width="1925" height="142"/><rect class="cls-10" x="112.9" y="983" width="55.52" height="111.36" rx="12"/><path class="cls-11" d="M1807,779,1785,741a2.34,2.34,0,0,1,1.13-3.34l175.91-73.45a2.35,2.35,0,0,1,2.28,4.08l-154,111.42A2.37,2.37,0,0,1,1807,779Z"/><rect class="cls-11" x="1765.42" y="587.75" width="55.52" height="341.45" rx="12"/><circle class="cls-3" cx="1799.87" cy="422.1" r="39.8"/><circle class="cls-3" cx="1821.92" cy="552.93" r="39.8"/><circle class="cls-3" cx="1727.19" cy="539.24" r="39.8"/><circle class="cls-5" cx="1729.72" cy="459.68" r="39.8"/><circle class="cls-5" cx="1783.75" cy="501.22" r="39.8"/><circle class="cls-6" cx="1766.63" cy="551.17" r="39.8"/><circle class="cls-6" cx="1824.06" cy="485.99" r="39.8"/><circle class="cls-7" cx="1804.29" cy="527.12" r="39.8"/><circle class="cls-6" cx="1849.09" cy="553.8" r="39.8"/><circle class="cls-6" cx="1853.07" cy="428.65" r="39.8"/><circle class="cls-7" cx="1753.76" cy="406.06" r="39.8"/><circle class="cls-3" cx="1768.49" cy="584.25" r="39.8"/><circle class="cls-3" cx="1751.66" cy="472.04" r="39.8"/><circle class="cls-8" cx="1710.99" cy="498.9" r="39.8"/><circle class="cls-3" cx="1863.83" cy="487.26" r="39.8"/><path class="cls-11" d="M1353.59,687l-46.93-60.1a2.44,2.44,0,0,1,1.15-3.82L1662.18,504.6a2.44,2.44,0,0,1,2,4.43L1356.74,687.61A2.45,2.45,0,0,1,1353.59,687Z"/><rect class="cls-11" x="366.26" y="605.28" width="75.88" height="431.2" rx="12"/><path class="cls-12" d="M905.65,610.34l3.73,10.38a2.7,2.7,0,0,1-2,3.53L861,634.32a2.68,2.68,0,0,1-1.73-5L902,608.82A2.69,2.69,0,0,1,905.65,610.34Z"/><path class="cls-12" d="M1064,661l-42.39,27.92a3.18,3.18,0,0,1-3.36.07l-136.59-81.9a3.15,3.15,0,0,1,2.53-5.72l179,54A3.15,3.15,0,0,1,1064,661Z"/><path class="cls-12" d="M1061.8,674.43l-35.38,23.3a2.88,2.88,0,0,1-4.14-1.06L937.35,537.54a2.89,2.89,0,0,1,4.72-3.28l120.31,135.83A2.89,2.89,0,0,1,1061.8,674.43Z"/><path class="cls-12" d="M1046.73,701.25l-27.48-41.63a2.43,2.43,0,0,1,1.45-3.71l237.23-58.84a2.45,2.45,0,0,1,1.65,4.58L1049.82,702.11A2.44,2.44,0,0,1,1046.73,701.25Z"/><path class="cls-12" d="M975.41,578.05l-9.68-5.67a2.61,2.61,0,0,1-.74-3.84l29.65-38.16a2.6,2.6,0,0,1,4.42,2.68l-20,43.82A2.6,2.6,0,0,1,975.41,578.05Z"/><path class="cls-12" d="M927.69,618l-7.2-5.23a2.52,2.52,0,0,1-1-2.49l4.91-27.52a2.54,2.54,0,0,1,5,.26l2.29,32.75A2.54,2.54,0,0,1,927.69,618Z"/><path class="cls-12" d="M1058.17,620.09l-10.79,6.6a2,2,0,0,1-2.82-.87L1022.4,576a2,2,0,0,1,3.35-2l33,43.24A2,2,0,0,1,1058.17,620.09Z"/><path class="cls-12" d="M1039.08,601.07l-4.24-5.56a2.16,2.16,0,0,1-.35-1.92l5.63-19.35a2.17,2.17,0,0,1,4.26.73l-1.4,24.9A2.17,2.17,0,0,1,1039.08,601.07Z"/><path class="cls-11" d="M1153.23,576.75l7.87,17.44a2.67,2.67,0,0,1-1.67,3.67l-78.94,23.85a2.69,2.69,0,0,1-2.13-4.9l71.07-41.28A2.69,2.69,0,0,1,1153.23,576.75Z"/><path class="cls-11" d="M1376.19,623l-62.34,48.57a3.14,3.14,0,0,1-3.34.34L1088.34,561.67a3.15,3.15,0,0,1,2.07-5.9l284.51,61.64A3.15,3.15,0,0,1,1376.19,623Z"/><path class="cls-11" d="M1379.84,655.64v361.12c0,5.85-5.4,10.64-12,10.64H1316c-6.6,0-12-4.79-12-10.64V655.64c0-5.85,5.4-10.64,12-10.64h51.87C1374.44,645,1379.84,649.79,1379.84,655.64Z"/><polygon class="cls-2" points="1091.36 1013.58 767.89 1013.55 929.65 733.43 1091.36 1013.58"/><polygon class="cls-2" points="1018.89 736.14 820.03 736.12 919.48 563.91 1018.89 736.14"/><polygon class="cls-2" points="1041.85 885.42 791.05 885.4 916.47 668.21 1041.85 885.42"/><polygon class="cls-2" points="1702.53 601.99 1559.84 601.97 1631.2 478.41 1702.53 601.99"/><polygon class="cls-2" points="758.53 755.93 559.67 755.91 659.12 583.71 758.53 755.93"/><circle class="cls-3" cx="501.36" cy="803.3" r="37.94"/><circle class="cls-5" cx="452.32" cy="737.6" r="37.94"/><circle class="cls-3" cx="469.9" cy="839.39" r="37.94"/><circle class="cls-8" cx="491.18" cy="773.69" r="37.94"/><circle class="cls-3" cx="510.62" cy="858.82" r="37.94"/><polygon class="cls-2" points="1728.6 710.51 1529.75 710.49 1629.19 538.29 1728.6 710.51"/><polygon class="cls-2" points="1756.65 843.78 1505.85 843.78 1631.25 626.58 1756.65 843.78"/><path class="cls-11" d="M1358.4,612.32l-51.75,40.33a2.9,2.9,0,0,1-4.22-.73L1151.74,416.73a2.9,2.9,0,0,1,4.45-3.65L1358.62,608A2.89,2.89,0,0,1,1358.4,612.32Z"/><path class="cls-11" d="M1354.17,631.31l-49.39,19.37a1.39,1.39,0,0,1-1.84-1.66l79.71-291.1a1.39,1.39,0,0,1,2.72.52L1355,630.17A1.38,1.38,0,0,1,1354.17,631.31Z"/><path class="cls-11" d="M1349.86,645.27l-41.46-29.09a2.37,2.37,0,0,1-.39-3.52L1456.5,450a2.35,2.35,0,0,1,3.79,2.74l-107,191.74A2.35,2.35,0,0,1,1349.86,645.27Z"/><path class="cls-11" d="M1239.54,504l-17.4-8.4a2.61,2.61,0,0,1-1-3.77l45.7-69.62a2.6,2.6,0,0,1,4.62,2.31l-28.3,78A2.6,2.6,0,0,1,1239.54,504Z"/><path class="cls-11" d="M1170.32,579l-14-8.59a2.55,2.55,0,0,1-1.21-2.41l5-51.5a2.54,2.54,0,0,1,5-.14l9.06,60.09A2.54,2.54,0,0,1,1170.32,579Z"/><path class="cls-11" d="M1607.82,532.18H1588.2a2.47,2.47,0,0,1-2.45-2.79l11-83.84a2.47,2.47,0,0,1,4.9.07l8.59,83.84A2.47,2.47,0,0,1,1607.82,532.18Z"/><path class="cls-11" d="M1534.83,563.23l-16.34,11.89a2.21,2.21,0,0,1-3.24-.74l-41.6-76.51a2.21,2.21,0,0,1,3.58-2.53L1535.17,560A2.2,2.2,0,0,1,1534.83,563.23Z"/><path class="cls-11" d="M1424.53,504.21l-17.17,5.18a3.21,3.21,0,0,1-4.11-2.56l-12.5-76.28a3.22,3.22,0,0,1,6.14-1.76l29.68,71.1A3.22,3.22,0,0,1,1424.53,504.21Z"/><path class="cls-11" d="M1349.06,543.64l-16.8,12.21a2,2,0,0,1-2.87-.65l-42.75-78.63a2,2,0,0,1,3.18-2.25l59.55,66.42A2,2,0,0,1,1349.06,543.64Z"/><path class="cls-11" d="M1313.31,513.71l-9.09-10.15a2.17,2.17,0,0,1-.51-1.89l8-38.5a2.17,2.17,0,0,1,4.3.39l1.14,48.65A2.18,2.18,0,0,1,1313.31,513.71Z"/><path class="cls-12" d="M1027.8,669.05l-19.74-26a2.35,2.35,0,0,1,.7-3.46l123-70.75a2.36,2.36,0,0,1,2.79,3.76l-103.21,96.72A2.37,2.37,0,0,1,1027.8,669.05Z"/><path class="cls-12" d="M1117.11,586.22l-9.33,3.09a3.22,3.22,0,0,1-4.17-2.45l-8-41.58a3.22,3.22,0,0,1,6.1-1.93l17.28,38.5A3.21,3.21,0,0,1,1117.11,586.22Z"/><path class="cls-11" d="M433.7,571.82l-44.82,34.92a2.89,2.89,0,0,1-4.22-.72L254.14,402.3a2.89,2.89,0,0,1,4.44-3.64L433.93,567.45A2.9,2.9,0,0,1,433.7,571.82Z"/><path class="cls-11" d="M430.21,588.28l-43,16.85a1.39,1.39,0,0,1-1.84-1.66l69.35-253.25a1.39,1.39,0,0,1,2.72.52l-26.39,236.4A1.37,1.37,0,0,1,430.21,588.28Z"/><path class="cls-11" d="M426.26,600.32l-35.89-25.18a2.35,2.35,0,0,1-.38-3.51L518.51,430.85a2.35,2.35,0,0,1,3.79,2.73l-92.63,166A2.35,2.35,0,0,1,426.26,600.32Z"/><path class="cls-11" d="M435.39,637.5l-39.78-44.14a2.44,2.44,0,0,1,1.14-4l297.62-84.83a2.44,2.44,0,0,1,1.76,4.53l-257.83,129A2.46,2.46,0,0,1,435.39,637.5Z"/><path class="cls-11" d="M319.28,480.68,303,472.83a2.6,2.6,0,0,1-1-3.77l42.68-65a2.6,2.6,0,0,1,4.62,2.31l-26.43,72.86A2.6,2.6,0,0,1,319.28,480.68Z"/><path class="cls-11" d="M268.28,542l-11.62-7.1a2.54,2.54,0,0,1-1.2-2.41l4.13-42.56a2.54,2.54,0,0,1,5-.13l7.48,49.65A2.54,2.54,0,0,1,268.28,542Z"/><path class="cls-11" d="M551.22,560.81l-16.41-4.95a2.21,2.21,0,0,1-1.38-3l30.38-67.35a2.21,2.21,0,0,1,4.18,1.33l-14,72.3A2.21,2.21,0,0,1,551.22,560.81Z"/><path class="cls-11" d="M492.34,482.31l-12,8.75a3.22,3.22,0,0,1-4.72-1.07L445,433.69A3.22,3.22,0,0,1,450.2,430l42.64,47.56A3.21,3.21,0,0,1,492.34,482.31Z"/><path class="cls-11" d="M425.6,511.4l-14.31,10.41a2,2,0,0,1-2.88-.65l-36.44-67a2,2,0,0,1,3.18-2.24l50.76,56.62A2,2,0,0,1,425.6,511.4Z"/><path class="cls-11" d="M395.17,487.18l-7.42-8.28a2.18,2.18,0,0,1-.51-1.89l6.49-31.42A2.18,2.18,0,0,1,398,446l.92,39.69A2.17,2.17,0,0,1,395.17,487.18Z"/><path class="cls-11" d="M527.27,576V556.36a2.47,2.47,0,0,1,2.79-2.45l83.84,11a2.47,2.47,0,0,1-.07,4.91L530,578.44A2.48,2.48,0,0,1,527.27,576Z"/><rect class="cls-13" x="679.63" y="504.01" width="2.25" height="5.01" rx="1" transform="translate(-39.71 58.28) rotate(-4.76)"/><circle class="cls-13" cx="1229.33" cy="409.33" r="9.33"/><circle class="cls-13" cx="1255.58" cy="424.5" r="9.33"/><circle class="cls-13" cx="1246.25" cy="432.67" r="9.33"/><circle class="cls-13" cx="1245.08" cy="414.58" r="9.33"/><circle class="cls-13" cx="1235.17" cy="423.33" r="9.33"/><path class="cls-14" d="M1232.25,411.67c6.42,9.91,26.25,27.41,23.33,22.16"/><path class="cls-15" d="M1262.36,433.92c-2.54,2-5.88,2-7.44,0"/><circle class="cls-13" cx="985.5" cy="504.56" r="9.33"/><circle class="cls-13" cx="988.11" cy="534.76" r="9.33"/><circle class="cls-13" cx="976.07" cy="531.79" r="9.33"/><circle class="cls-13" cx="990.22" cy="520.48" r="9.33"/><circle class="cls-13" cx="977.37" cy="517.36" r="9.33"/><path class="cls-14" d="M985.26,508.29c-4.45,10.94-7.43,37.22-4.8,31.82"/><path class="cls-15" d="M984.27,545.72c-3.09-1-5-3.69-4.25-6.12"/><circle class="cls-13" cx="1631.07" cy="454.41" r="9.33"/><circle class="cls-13" cx="1609.05" cy="475.25" r="9.33"/><circle class="cls-13" cx="1603.88" cy="463.98" r="9.33"/><circle class="cls-13" cx="1621.55" cy="468.01" r="9.33"/><circle class="cls-13" cx="1615.99" cy="456.01" r="9.33"/><path class="cls-14" d="M1628,456.54c-11.33,3.33-33.76,17.35-27.9,16"/><path class="cls-15" d="M1598.08,479.06c-1.18-3-.22-6.2,2.15-7.13"/><circle class="cls-13" cx="491.07" cy="414.41" r="9.33"/><circle class="cls-13" cx="469.05" cy="435.25" r="9.33"/><circle class="cls-13" cx="463.88" cy="423.98" r="9.33"/><circle class="cls-13" cx="481.55" cy="428.01" r="9.33"/><circle class="cls-13" cx="475.99" cy="416.01" r="9.33"/><path class="cls-14" d="M488,416.54c-11.33,3.33-33.76,17.35-27.9,16"/><path class="cls-15" d="M458.08,439.06c-1.18-3-.22-6.2,2.15-7.13"/><circle class="cls-13" cx="369.26" cy="456.46" r="9.33"/><circle class="cls-13" cx="340.25" cy="447.68" r="9.33"/><circle class="cls-13" cx="347.47" cy="437.6" r="9.33"/><circle class="cls-13" cx="352.73" cy="454.95" r="9.33"/><circle class="cls-13" cx="360.39" cy="444.16" r="9.33"/><path class="cls-14" d="M365.89,454.86c-8.51-8.19-31.81-20.71-27.77-16.26"/><path class="cls-15" d="M331.5,440.06c2-2.52,5.27-3.27,7.25-1.68"/><circle class="cls-13" cx="1416.26" cy="409.46" r="9.33"/><circle class="cls-13" cx="1387.25" cy="400.68" r="9.33"/><circle class="cls-13" cx="1394.47" cy="390.6" r="9.33"/><circle class="cls-13" cx="1399.73" cy="407.95" r="9.33"/><circle class="cls-13" cx="1407.39" cy="397.16" r="9.33"/><path class="cls-14" d="M1412.89,407.86c-8.51-8.19-31.81-20.71-27.77-16.26"/><path class="cls-15" d="M1378.5,393.06c2-2.52,5.27-3.27,7.25-1.68"/><circle class="cls-13" cx="1453" cy="540.25" r="9.33"/><circle class="cls-13" cx="1431.7" cy="518.68" r="9.33"/><circle class="cls-13" cx="1442.86" cy="513.27" r="9.33"/><circle class="cls-13" cx="1439.2" cy="531.02" r="9.33"/><circle class="cls-13" cx="1451.08" cy="525.21" r="9.33"/><path class="cls-14" d="M1450.8,537.23c-3.56-11.26-18-33.39-16.63-27.56"/><path class="cls-15" d="M1427.66,507.79c3-1.24,6.19-.35,7.17,2"/><circle class="cls-13" cx="596.87" cy="536.33" r="9.33"/><circle class="cls-13" cx="568.39" cy="525.95" r="9.33"/><circle class="cls-13" cx="576.16" cy="516.29" r="9.33"/><circle class="cls-13" cx="580.45" cy="533.9" r="9.33"/><circle class="cls-13" cx="588.7" cy="523.56" r="9.33"/><path class="cls-14" d="M593.59,534.54c-8-8.65-30.6-22.45-26.82-17.78"/><path class="cls-15" d="M560.08,517.85c2.16-2.41,5.44-3,7.33-1.27"/><circle class="cls-13" cx="538.64" cy="447.17" r="9.33"/><circle class="cls-13" cx="508.9" cy="453.09" r="9.33"/><circle class="cls-13" cx="515.12" cy="463.83" r="9.33"/><circle class="cls-13" cx="522.04" cy="447.08" r="9.33"/><circle class="cls-13" cx="528.61" cy="458.55" r="9.33"/><path class="cls-14" d="M535.13,448.44c-9.27,7.33-33.68,17.53-29.23,13.49"/><path class="cls-15" d="M499.46,459.84c1.77,2.7,4.93,3.76,7.05,2.37"/><circle class="cls-13" cx="1042.64" cy="590.17" r="9.33"/><circle class="cls-13" cx="1012.9" cy="596.09" r="9.33"/><circle class="cls-13" cx="1019.12" cy="606.83" r="9.33"/><circle class="cls-13" cx="1026.04" cy="590.08" r="9.33"/><circle class="cls-13" cx="1032.61" cy="601.55" r="9.33"/><path class="cls-14" d="M1039.13,591.44c-9.27,7.33-33.68,17.53-29.23,13.49"/><path class="cls-15" d="M1003.46,602.84c1.77,2.7,4.93,3.76,7,2.37"/><circle class="cls-13" cx="1573.78" cy="575.78" r="9.33"/><circle class="cls-13" cx="1545.09" cy="565.98" r="9.33"/><circle class="cls-13" cx="1545.08" cy="578.38" r="9.33"/><circle class="cls-13" cx="1559.46" cy="567.37" r="9.33"/><circle class="cls-13" cx="1559.4" cy="580.59" r="9.33"/><path class="cls-14" d="M1570.1,575.12c-11.69,1.69-37.91-1.74-32-3"/><path class="cls-15" d="M1533.53,567.07c.18,3.23,2.38,5.73,4.92,5.59"/><circle class="cls-13" cx="472.78" cy="523.78" r="9.33"/><circle class="cls-13" cx="444.09" cy="513.98" r="9.33"/><circle class="cls-13" cx="444.08" cy="526.38" r="9.33"/><circle class="cls-13" cx="458.46" cy="515.37" r="9.33"/><circle class="cls-13" cx="458.4" cy="528.59" r="9.33"/><path class="cls-14" d="M469.1,523.12c-11.69,1.69-37.91-1.74-32-3"/><path class="cls-15" d="M432.53,515.07c.18,3.23,2.38,5.73,4.92,5.59"/><circle class="cls-13" cx="852.41" cy="596.87" r="9.33"/><circle class="cls-13" cx="882.03" cy="603.35" r="9.33"/><circle class="cls-13" cx="875.62" cy="613.96" r="9.33"/><circle class="cls-13" cx="869.01" cy="597.09" r="9.33"/><circle class="cls-13" cx="862.22" cy="608.44" r="9.33"/><path class="cls-14" d="M855.9,598.21c9.12,7.5,33.34,18.15,29,14"/><path class="cls-15" d="M891.35,610.27c-1.82,2.67-5,3.67-7.1,2.23"/><circle cx="688.5" cy="466.5" r="9.5"/><circle cx="676.5" cy="487.5" r="17.5"/><path class="cls-16" d="M705,469l-10.61.88a.91.91,0,0,1-.95-1.2l.26-.79a1.08,1.08,0,0,1,1.22-.72Z"/><path class="cls-16" d="M703.8,473.64l-9.29-3.23a.93.93,0,0,1-.8-1.32l.35-.75c.23-.48.76.11,1.27.27Z"/><ellipse class="cls-17" cx="691.33" cy="464.5" rx="1.67" ry="2.5"/><circle cx="691.5" cy="464.5" r="0.5"/><ellipse class="cls-17" cx="694.33" cy="464.5" rx="1.67" ry="2.5"/><circle cx="694.5" cy="464.5" r="0.5"/><polygon points="671.29 494.63 628 471 651 464 671.29 494.63"/><rect class="cls-8" x="675" y="498" width="2" height="13" rx="1"/><rect class="cls-8" x="676" y="510" width="1" height="5" rx="0.5" transform="translate(1353 1025) rotate(180)"/><rect class="cls-8" x="674" y="510" width="1" height="4" rx="0.5" transform="translate(403.04 -290.12) rotate(34.1)"/><rect class="cls-8" x="678" y="508.33" width="1" height="5.33" rx="0.5" transform="translate(-103.29 843.1) rotate(-60)"/><circle class="cls-13" cx="1281.26" cy="508.46" r="9.33"/><circle class="cls-13" cx="1252.25" cy="499.68" r="9.33"/><circle class="cls-13" cx="1259.47" cy="489.6" r="9.33"/><circle class="cls-13" cx="1264.73" cy="506.95" r="9.33"/><circle class="cls-13" cx="1272.39" cy="496.16" r="9.33"/><path class="cls-14" d="M1277.89,506.86c-8.51-8.19-31.81-20.71-27.77-16.26"/><path class="cls-15" d="M1243.5,492.06c2-2.52,5.27-3.27,7.25-1.68"/><circle class="cls-13" cx="242.78" cy="496.6" r="9.33"/><circle class="cls-13" cx="228.62" cy="523.4" r="9.33"/><circle class="cls-13" cx="220.11" cy="514.38" r="9.33"/><circle class="cls-13" cx="238.13" cy="512.53" r="9.33"/><circle class="cls-13" cx="229.01" cy="502.95" r="9.33"/><path class="cls-14" d="M240.56,499.6c-9.66,6.79-26.4,27.27-21.27,24.15"/><path class="cls-15" d="M219.46,530.53c-2.08-2.47-2.2-5.8-.26-7.44"/><circle class="cls-13" cx="1190.95" cy="516.05" r="9.33"/><circle class="cls-13" cx="1180.63" cy="544.56" r="9.33"/><circle class="cls-13" cx="1170.95" cy="536.8" r="9.33"/><circle class="cls-13" cx="1188.55" cy="532.48" r="9.33"/><circle class="cls-13" cx="1178.19" cy="524.25" r="9.33"/><path class="cls-14" d="M1189.16,519.33c-8.63,8.06-22.38,30.66-17.72,26.87"/><path class="cls-15" d="M1172.54,552.89c-2.41-2.16-3-5.45-1.28-7.34"/><circle class="cls-6" cx="1290.89" cy="1049.56" r="9.33"/><circle class="cls-6" cx="1260.84" cy="1053.6" r="9.33"/><circle class="cls-6" cx="1266.37" cy="1064.7" r="9.33"/><circle class="cls-6" cx="1274.33" cy="1048.42" r="9.33"/><circle class="cls-6" cx="1280.17" cy="1060.29" r="9.33"/><path class="cls-3" d="M1287.3,1050.61c-9.7,6.73-34.7,15.37-30,11.62"/><path class="cls-18" d="M1251,1059.74c1.6,2.81,4.68,4.06,6.89,2.81"/><circle class="cls-6" cx="1180.89" cy="1062.56" r="9.33"/><circle class="cls-6" cx="1150.84" cy="1066.6" r="9.33"/><circle class="cls-6" cx="1156.37" cy="1077.7" r="9.33"/><circle class="cls-6" cx="1164.33" cy="1061.42" r="9.33"/><circle class="cls-6" cx="1170.17" cy="1073.29" r="9.33"/><path class="cls-3" d="M1177.3,1063.61c-9.7,6.73-34.7,15.37-30,11.62"/><path class="cls-18" d="M1141,1072.74c1.6,2.81,4.68,4.06,6.89,2.81"/><circle class="cls-6" cx="1139.56" cy="466.28" r="9.33"/><circle class="cls-6" cx="1165.77" cy="451.04" r="9.33"/><circle class="cls-6" cx="1156.42" cy="442.9" r="9.33"/><circle class="cls-6" cx="1155.3" cy="460.99" r="9.33"/><circle class="cls-6" cx="1145.36" cy="452.26" r="9.33"/><path class="cls-3" d="M1142.47,463.94c6.39-9.94,26.18-27.49,23.28-22.23"/><path class="cls-18" d="M1172.52,441.6c-2.55-2-5.88-2-7.44,0"/><circle class="cls-6" cx="1328.01" cy="411.06" r="9.33"/><circle class="cls-6" cx="1349.68" cy="432.27" r="9.33"/><circle class="cls-6" cx="1355.03" cy="421.08" r="9.33"/><circle class="cls-6" cx="1337.3" cy="424.82" r="9.33"/><circle class="cls-6" cx="1343.07" cy="412.92" r="9.33"/><path class="cls-3" d="M1331,413.24c11.28,3.52,33.47,17.92,27.63,16.52"/><path class="cls-18" d="M1360.58,436.27c1.23-3,.32-6.2-2-7.17"/><circle class="cls-6" cx="494.12" cy="381.77" r="9.33"/><circle class="cls-6" cx="464.4" cy="375.8" r="9.33"/><circle class="cls-6" cx="466.01" cy="388.09" r="9.33"/><circle class="cls-6" cx="478.83" cy="375.3" r="9.33"/><circle class="cls-6" cx="480.49" cy="388.42" r="9.33"/><path class="cls-3" d="M490.39,381.59c-11.37,3.2-37.82,3.22-32.16,1.21"/><path class="cls-18" d="M453.08,378.39c.6,3.17,3.11,5.37,5.61,4.9"/><circle class="cls-6" cx="314.98" cy="396.18" r="9.33"/><circle class="cls-6" cx="288.85" cy="411.56" r="9.33"/><circle class="cls-6" cx="298.25" cy="419.65" r="9.33"/><circle class="cls-6" cx="299.27" cy="401.56" r="9.33"/><circle class="cls-6" cx="309.26" cy="410.23" r="9.33"/><path class="cls-3" d="M312.08,398.54c-6.34,10-26,27.63-23.15,22.35"/><path class="cls-18" d="M282.15,421c2.56,2,5.89,1.93,7.44-.09"/><circle class="cls-6" cx="306.89" cy="505.56" r="9.33"/><circle class="cls-6" cx="276.84" cy="509.6" r="9.33"/><circle class="cls-6" cx="282.37" cy="520.7" r="9.33"/><circle class="cls-6" cx="290.33" cy="504.42" r="9.33"/><circle class="cls-6" cx="296.17" cy="516.29" r="9.33"/><path class="cls-3" d="M303.3,506.61c-9.7,6.73-34.7,15.37-30,11.62"/><path class="cls-18" d="M267,515.74c1.6,2.81,4.68,4.06,6.89,2.81"/><circle class="cls-6" cx="473.89" cy="466.56" r="9.33"/><circle class="cls-6" cx="443.84" cy="470.6" r="9.33"/><circle class="cls-6" cx="449.37" cy="481.7" r="9.33"/><circle class="cls-6" cx="457.33" cy="465.42" r="9.33"/><circle class="cls-6" cx="463.17" cy="477.29" r="9.33"/><path class="cls-3" d="M470.3,467.61c-9.7,6.73-34.7,15.37-30,11.62"/><path class="cls-18" d="M434,476.74c1.6,2.81,4.68,4.06,6.89,2.81"/><circle class="cls-6" cx="1015.89" cy="565.56" r="9.33"/><circle class="cls-6" cx="985.84" cy="569.6" r="9.33"/><circle class="cls-6" cx="991.37" cy="580.7" r="9.33"/><circle class="cls-6" cx="999.33" cy="564.42" r="9.33"/><circle class="cls-6" cx="1005.17" cy="576.29" r="9.33"/><path class="cls-3" d="M1012.3,566.61c-9.7,6.73-34.7,15.37-30,11.62"/><path class="cls-18" d="M976,575.74c1.6,2.81,4.68,4.06,6.89,2.81"/><circle class="cls-6" cx="1352.89" cy="483.56" r="9.33"/><circle class="cls-6" cx="1322.84" cy="487.6" r="9.33"/><circle class="cls-6" cx="1328.37" cy="498.7" r="9.33"/><circle class="cls-6" cx="1336.33" cy="482.42" r="9.33"/><circle class="cls-6" cx="1342.17" cy="494.29" r="9.33"/><path class="cls-3" d="M1349.3,484.61c-9.7,6.73-34.7,15.37-30,11.62"/><path class="cls-18" d="M1313,493.74c1.6,2.81,4.68,4.06,6.89,2.81"/><circle class="cls-6" cx="1423.89" cy="570.56" r="9.33"/><circle class="cls-6" cx="1393.84" cy="574.6" r="9.33"/><circle class="cls-6" cx="1399.37" cy="585.7" r="9.33"/><circle class="cls-6" cx="1407.33" cy="569.42" r="9.33"/><circle class="cls-6" cx="1413.17" cy="581.29" r="9.33"/><path class="cls-3" d="M1420.3,571.61c-9.7,6.73-34.7,15.37-30,11.62"/><path class="cls-18" d="M1384,580.74c1.6,2.81,4.68,4.06,6.89,2.81"/><circle class="cls-6" cx="1525.51" cy="491.31" r="9.33"/><circle class="cls-6" cx="1502.65" cy="511.21" r="9.33"/><circle class="cls-6" cx="1513.37" cy="517.45" r="9.33"/><circle class="cls-6" cx="1511.06" cy="499.47" r="9.33"/><circle class="cls-6" cx="1522.47" cy="506.17" r="9.33"/><path class="cls-3" d="M1523.1,494.16c-4.4,11-20.53,31.93-18.67,26.21"/><path class="cls-18" d="M1496.8,522.76c2.88,1.47,6.15.82,7.3-1.45"/><circle class="cls-14" cx="1336.18" cy="365.48" r="9.33"/><circle class="cls-14" cx="1364.48" cy="376.33" r="9.33"/><circle class="cls-14" cx="1364.95" cy="363.94" r="9.33"/><circle class="cls-14" cx="1350.17" cy="374.41" r="9.33"/><circle class="cls-14" cx="1350.73" cy="361.2" r="9.33"/><path class="cls-19" d="M1339.82,366.27c11.75-1.25,37.83,3.15,31.91,4.19"/><path class="cls-20" d="M1376.07,375.67c-.06-3.23-2.16-5.81-4.7-5.77"/><circle class="cls-14" cx="410.18" cy="357.48" r="9.33"/><circle class="cls-14" cx="438.48" cy="368.33" r="9.33"/><circle class="cls-14" cx="438.95" cy="355.94" r="9.33"/><circle class="cls-14" cx="424.17" cy="366.41" r="9.33"/><circle class="cls-14" cx="424.73" cy="353.2" r="9.33"/><path class="cls-19" d="M413.82,358.27c11.75-1.25,37.83,3.15,31.91,4.19"/><path class="cls-20" d="M450.07,367.67c-.06-3.23-2.16-5.81-4.7-5.77"/><circle class="cls-14" cx="209.2" cy="576.04" r="9.33"/><circle class="cls-14" cx="228.98" cy="553.06" r="9.33"/><circle class="cls-14" cx="217.47" cy="548.43" r="9.33"/><circle class="cls-14" cx="222.33" cy="565.89" r="9.33"/><circle class="cls-14" cx="210.09" cy="560.9" r="9.33"/><path class="cls-19" d="M211.18,572.87c2.79-11.47,15.74-34.54,14.72-28.62"/><path class="cls-20" d="M232.27,541.93c-3.06-1-6.2.07-7,2.48"/><circle class="cls-14" cx="912.18" cy="553.48" r="9.33"/><circle class="cls-14" cx="940.48" cy="564.33" r="9.33"/><circle class="cls-14" cx="940.95" cy="551.94" r="9.33"/><circle class="cls-14" cx="926.17" cy="562.41" r="9.33"/><circle class="cls-14" cx="926.73" cy="549.2" r="9.33"/><path class="cls-19" d="M915.82,554.27c11.75-1.25,37.83,3.15,31.91,4.19"/><path class="cls-20" d="M952.07,563.67c-.06-3.23-2.16-5.81-4.7-5.77"/><circle class="cls-6" cx="621.89" cy="1063.56" r="9.33"/><circle class="cls-6" cx="591.84" cy="1067.6" r="9.33"/><circle class="cls-6" cx="597.37" cy="1078.7" r="9.33"/><circle class="cls-6" cx="605.33" cy="1062.42" r="9.33"/><circle class="cls-6" cx="611.17" cy="1074.29" r="9.33"/><path class="cls-3" d="M618.3,1064.61c-9.7,6.73-34.7,15.37-30,11.62"/><path class="cls-18" d="M582,1073.74c1.6,2.81,4.68,4.06,6.89,2.81"/><circle class="cls-14" cx="700.78" cy="1063.2" r="9.33"/><circle class="cls-14" cx="670.84" cy="1067.97" r="9.33"/><circle class="cls-14" cx="676.64" cy="1078.93" r="9.33"/><circle class="cls-14" cx="684.19" cy="1062.46" r="9.33"/><circle class="cls-14" cx="690.32" cy="1074.18" r="9.33"/><path class="cls-19" d="M697.22,1064.33c-9.54,7-34.32,16.21-29.72,12.36"/><path class="cls-20" d="M661.14,1074.34c1.67,2.77,4.78,4,7,2.65"/><circle class="cls-13" cx="626.08" cy="1059.18" r="9.33"/><circle class="cls-13" cx="643.58" cy="1083.95" r="9.33"/><circle class="cls-13" cx="650.86" cy="1073.91" r="9.33"/><circle class="cls-13" cx="632.74" cy="1074.39" r="9.33"/><circle class="cls-13" cx="640.56" cy="1063.72" r="9.33"/><path class="cls-14" d="M628.67,1061.88c10.46,5.48,29.69,23.64,24.2,21.22"/><path class="cls-21" d="M1848.3,708.1a6.49,6.49,0,0,1,3.74-3,8.43,8.43,0,0,1,6.66.78"/><path class="cls-22" d="M1881.42,698c3.23-7.11,6-11,19-26,14.46-16.69-9-40-20-40"/><path class="cls-22" d="M1847,698c-3.23-7.11-6-11-19-26-14.47-16.69,9-40,20-40"/><path class="cls-21" d="M1853.94,711.74a6.47,6.47,0,0,1,2.57-4,8.48,8.48,0,0,1,6.55-1.43"/><path class="cls-21" d="M1878.06,711.74a6.47,6.47,0,0,0-2.57-4,8.48,8.48,0,0,0-6.55-1.43"/><path class="cls-21" d="M1882.67,708.25a6.45,6.45,0,0,0-3.66-3.09,8.49,8.49,0,0,0-6.68.59"/><ellipse class="cls-23" cx="1865" cy="665" rx="28" ry="43"/><circle class="cls-22" cx="1865" cy="614" r="32"/><ellipse class="cls-17" cx="1854" cy="616.5" rx="10" ry="14.5"/><ellipse class="cls-17" cx="1874" cy="616.5" rx="10" ry="14.5"/><ellipse cx="1848" cy="618.5" rx="4" ry="4.5"/><path class="cls-8" d="M1861.88,645.37l-6.82-10.51A1.18,1.18,0,0,1,1856,633l12.52-.66a1.19,1.19,0,0,1,1.12,1.73l-5.7,11.17A1.18,1.18,0,0,1,1861.88,645.37Z"/><ellipse cx="1869" cy="618.5" rx="4" ry="4.5"/><path class="cls-24" d="M1094.43,174.87c3.42,12.53-16.63,28.92-44.78,36.61s-53.75,3.77-57.18-8.76"/><ellipse class="cls-25" cx="1011.62" cy="99.54" rx="55.17" ry="32.65" transform="translate(9.52 270.05) rotate(-15.28)"/><ellipse class="cls-25" cx="1027.84" cy="131.51" rx="62.25" ry="32.21" transform="translate(1.67 275.45) rotate(-15.28)"/><ellipse class="cls-25" cx="1040.4" cy="177.39" rx="57.55" ry="25.58" transform="translate(-9.98 280.38) rotate(-15.28)"/><ellipse class="cls-25" cx="1032.97" cy="150.27" rx="43.48" ry="31.06" transform="translate(-3.09 277.47) rotate(-15.28)"/><rect class="cls-25" x="957.65" y="80.11" width="99.92" height="14.15" transform="translate(12.63 268.55) rotate(-15.28)"/><ellipse class="cls-24" cx="1005.48" cy="76.67" rx="51.37" ry="14.44" transform="translate(15.32 267.62) rotate(-15.28)"/><ellipse class="cls-26" cx="1005.1" cy="77.21" rx="42.91" ry="12.06" transform="translate(15.17 267.54) rotate(-15.28)"/><path class="cls-27" d="M1017,81.29l-4.29-4.08c11.77-12.35,10.67-15.06,10.62-15.17-1.31-.83-8.75,1.87-17.33,10.87l-4.29-4.09a53.52,53.52,0,0,1,13.6-10.65c6.76-3.45,10.3-2.15,12.09-.45,2.63,2.51,2.53,6.23-.28,11.06C1025.16,72.07,1021.85,76.17,1017,81.29Z"/><path class="cls-28" d="M1017.53,81.05c-12,3.7-32.91,9.08-34.41,4.19s7-11.84,19.07-15.54"/><polygon class="cls-25" points="1063.62 162.63 1036.16 157.83 1016.54 177.62 1012.74 150.16 987.83 137.78 1012.93 125.6 1017.16 98.17 1036.47 118.11 1064 113.52 1050.83 138.02 1063.62 162.63"/><path class="cls-10" d="M-5.83,453.64l-53-58.8a2.45,2.45,0,0,1,1.14-4l396.48-113a2.45,2.45,0,0,1,1.76,4.54L-2.92,454.19A2.44,2.44,0,0,1-5.83,453.64Z"/><path class="cls-10" d="M89.39,393.06l8-42.12a2.48,2.48,0,0,1,3.2-1.89l175.48,58a2.47,2.47,0,0,1-1,4.81L91.6,396A2.46,2.46,0,0,1,89.39,393.06Z"/><circle class="cls-13" cx="317.87" cy="332.33" r="9.33"/><circle class="cls-13" cx="289.39" cy="321.95" r="9.33"/><circle class="cls-13" cx="297.16" cy="312.29" r="9.33"/><circle class="cls-13" cx="301.45" cy="329.9" r="9.33"/><circle class="cls-13" cx="309.7" cy="319.56" r="9.33"/><path class="cls-14" d="M314.59,330.54c-8-8.65-30.6-22.45-26.82-17.78"/><path class="cls-15" d="M281.08,313.85c2.16-2.41,5.44-3,7.33-1.27"/><circle class="cls-14" cx="357.3" cy="249.53" r="9.33"/><circle class="cls-14" cx="339.54" cy="274.1" r="9.33"/><circle class="cls-14" cx="332.36" cy="263.98" r="9.33"/><circle class="cls-14" cx="350.47" cy="264.66" r="9.33"/><circle class="cls-14" cx="342.78" cy="253.9" r="9.33"/><path class="cls-19" d="M354.68,252.19c-10.52,5.38-29.95,23.32-24.43,20.95"/><path class="cls-20" d="M329.47,279.88c-1.72-2.74-1.37-6.05.78-7.41"/><circle class="cls-3" cx="506.91" cy="704.29" r="37.94"/><circle class="cls-3" cx="544.85" cy="806.08" r="37.94"/><circle class="cls-5" cx="498.59" cy="755.19" r="37.94"/><circle class="cls-6" cx="556.88" cy="710.77" r="37.94"/><circle class="cls-7" cx="544.85" cy="672.83" r="37.94"/><circle class="cls-6" cx="498.59" cy="800.53" r="37.94"/><circle class="cls-7" cx="577.24" cy="818.11" r="37.94"/><circle class="cls-3" cx="550.4" cy="753.33" r="37.94"/><circle class="cls-8" cx="477.3" cy="717.25" r="37.94"/><circle class="cls-3" cx="620.73" cy="727.43" r="37.94"/><circle class="cls-5" cx="582.79" cy="672.83" r="37.94"/><circle class="cls-6" cx="596.67" cy="768.14" r="37.94"/><circle class="cls-8" cx="623.51" cy="748.71" r="37.94"/><circle class="cls-3" cx="605.92" cy="791.27" r="37.94"/><rect class="cls-12" x="530.61" y="777.53" width="56.44" height="431.21" rx="12"/><path class="cls-4" d="M559,777.53v431.21H542.61a12,12,0,0,1-12-12V789.53a12,12,0,0,1,12-12Z"/><circle class="cls-3" cx="616.1" cy="793.12" r="37.94"/><circle class="cls-3" cx="492.11" cy="818.11" r="37.94"/><circle class="cls-3" cx="502.29" cy="727.43" r="37.94"/><circle class="cls-5" cx="578.16" cy="727.43" r="37.94"/><circle class="cls-5" cx="540.23" cy="780.17" r="37.94"/><circle class="cls-6" cx="492.11" cy="765.36" r="37.94"/><circle class="cls-6" cx="555.96" cy="818.11" r="37.94"/><circle class="cls-7" cx="516.17" cy="800.53" r="37.94"/><circle class="cls-6" cx="492.11" cy="844.02" r="37.94"/><circle class="cls-6" cx="611.48" cy="844.02" r="37.94"/><circle class="cls-7" cx="629.98" cy="748.71" r="37.94"/><circle class="cls-3" cx="460.65" cy="768.14" r="37.94"/><circle class="cls-3" cx="567.06" cy="748.71" r="37.94"/><circle class="cls-8" cx="540.23" cy="710.77" r="37.94"/><circle class="cls-3" cx="555.96" cy="856.05" r="37.94"/><circle class="cls-3" cx="1062.56" cy="646.73" r="37.94"/><circle class="cls-3" cx="1100.5" cy="748.51" r="37.94"/><circle class="cls-5" cx="1054.23" cy="697.62" r="37.94"/><circle class="cls-6" cx="1112.52" cy="653.2" r="37.94"/><circle class="cls-7" cx="1100.5" cy="615.27" r="37.94"/><circle class="cls-6" cx="1054.23" cy="742.96" r="37.94"/><circle class="cls-7" cx="1132.88" cy="760.54" r="37.94"/><circle class="cls-3" cx="1106.05" cy="695.77" r="37.94"/><circle class="cls-8" cx="1032.95" cy="659.68" r="37.94"/><circle class="cls-3" cx="1176.37" cy="669.86" r="37.94"/><circle class="cls-5" cx="1138.43" cy="615.27" r="37.94"/><circle class="cls-6" cx="1152.31" cy="710.57" r="37.94"/><circle class="cls-8" cx="1179.15" cy="691.14" r="37.94"/><circle class="cls-3" cx="1161.57" cy="733.71" r="37.94"/><rect class="cls-12" x="1084.61" y="700.53" width="56.44" height="431.21" rx="12"/><path class="cls-4" d="M1113,700.53v431.21h-16.39a12,12,0,0,1-12-12V712.53a12,12,0,0,1,12-12Z"/><circle class="cls-13" cx="1460.02" cy="1040.4" r="9.33"/><circle class="cls-13" cx="1451.95" cy="1069.63" r="9.33"/><circle class="cls-13" cx="1464.34" cy="1068.9" r="9.33"/><circle class="cls-13" cx="1452.48" cy="1055.19" r="9.33"/><circle class="cls-13" cx="1465.68" cy="1054.47" r="9.33"/><path class="cls-14" d="M1459.58,1044.11c2.38,11.57.53,38-1.08,32.17"/><path class="cls-15" d="M1453.74,1081.1c3.21-.37,5.58-2.72,5.28-5.24"/><circle class="cls-14" cx="1045.24" cy="1056.16" r="12.03"/><circle class="cls-14" cx="1081.43" cy="1070.88" r="12.03"/><circle class="cls-14" cx="1082.36" cy="1054.93" r="12.03"/><circle class="cls-14" cx="1063.04" cy="1068.04" r="12.03"/><circle class="cls-14" cx="1064.1" cy="1051.03" r="12.03"/><path class="cls-19" d="M1049.92,1057.29c15.17-1.32,48.66,5,41,6.21"/><path class="cls-20" d="M1096.38,1070.33c0-4.17-2.64-7.55-5.91-7.56"/><circle class="cls-14" cx="1390.42" cy="1048.54" r="10.7"/><circle class="cls-14" cx="1356.11" cy="1054.01" r="10.7"/><circle class="cls-14" cx="1362.75" cy="1066.57" r="10.7"/><circle class="cls-14" cx="1371.41" cy="1047.7" r="10.7"/><circle class="cls-14" cx="1378.44" cy="1061.13" r="10.7"/><path class="cls-19" d="M1386.34,1049.84c-10.93,8-39.33,18.58-34.06,14.15"/><path class="cls-20" d="M1345,1061.31c1.91,3.18,5.48,4.53,8,3"/><path class="cls-12" d="M1663.05,1016.13v38.48c0,.62-5.4,1.13-12,1.13h-32.44c-6.6,0-12-.51-12-1.13v-38.48c0-.62,5.4-1.13,12-1.13h32.44C1657.65,1015,1663.05,1015.51,1663.05,1016.13Z"/><path class="cls-4" d="M1635,1015v40.74h-16.39c-6.6,0-12-.51-12-1.13v-38.48c0-.62,5.4-1.13,12-1.13Z"/><path class="cls-12" d="M963.05,1013.13v38.48c0,.62-5.4,1.13-12,1.13H918.61c-6.6,0-12-.51-12-1.13v-38.48c0-.62,5.4-1.13,12-1.13h32.44C957.65,1012,963.05,1012.51,963.05,1013.13Z"/><path class="cls-4" d="M935,1012v40.74H918.61c-6.6,0-12-.51-12-1.13v-38.48c0-.62,5.4-1.13,12-1.13Z"/><circle class="cls-3" cx="1097.99" cy="776.61" r="33.65"/><circle class="cls-3" cx="1026.96" cy="689.75" r="33.65"/><circle class="cls-3" cx="1102.29" cy="660.12" r="33.65"/><circle class="cls-5" cx="1133.76" cy="719.61" r="33.65"/><circle class="cls-5" cx="1076.67" cy="711.74" r="33.65"/><circle class="cls-6" cx="1068.32" cy="667.87" r="33.65"/><circle class="cls-6" cx="1053.45" cy="739.81" r="33.65"/><circle class="cls-7" cx="1050.73" cy="701.32" r="33.65"/><circle class="cls-6" cx="1006.65" cy="700.5" r="33.65"/><circle class="cls-6" cx="1056.16" cy="794.09" r="33.65"/><circle class="cls-7" cx="1138.57" cy="769.07" r="33.65"/><circle class="cls-3" cx="1053.09" cy="644.36" r="33.65"/><circle class="cls-3" cx="1112.47" cy="719.73" r="33.65"/><circle class="cls-8" cx="1131.09" cy="682.96" r="33.65"/><circle class="cls-3" cx="1023.7" cy="755.55" r="33.65"/><rect class="cls-12" x="954.61" y="732.53" width="56.44" height="431.21" rx="12"/><path class="cls-4" d="M983,732.53v431.21H966.61a12,12,0,0,1-12-12V744.53a12,12,0,0,1,12-12Z"/><circle class="cls-3" cx="1055.74" cy="772.6" r="44.97"/><circle class="cls-3" cx="908.75" cy="802.22" r="44.97"/><circle class="cls-3" cx="920.82" cy="694.72" r="44.97"/><circle class="cls-5" cx="1010.77" cy="694.72" r="44.97"/><circle class="cls-5" cx="965.79" cy="757.24" r="44.97"/><circle class="cls-6" cx="908.75" cy="739.69" r="44.97"/><circle class="cls-6" cx="984.44" cy="802.22" r="44.97"/><circle class="cls-7" cx="937.27" cy="781.37" r="44.97"/><circle class="cls-6" cx="908.75" cy="832.93" r="44.97"/><circle class="cls-6" cx="1050.26" cy="832.93" r="44.97"/><circle class="cls-7" cx="1072.19" cy="719.95" r="44.97"/><circle class="cls-3" cx="871.46" cy="742.98" r="44.97"/><circle class="cls-3" cx="997.6" cy="719.95" r="44.97"/><circle class="cls-8" cx="965.79" cy="674.97" r="44.97"/><circle class="cls-3" cx="984.44" cy="847.19" r="44.97"/><path class="cls-4" d="M1342,645v382.4h-26c-6.6,0-12-4.79-12-10.64V655.64c0-5.85,5.4-10.64,12-10.64Z"/><rect class="cls-12" x="1375.61" y="762.53" width="56.44" height="431.21" rx="12"/><path class="cls-4" d="M1404,762.53v431.21h-16.39a12,12,0,0,1-12-12V774.53a12,12,0,0,1,12-12Z"/><circle class="cls-3" cx="1355.49" cy="669.8" r="37.94"/><circle class="cls-3" cx="1393.43" cy="771.59" r="37.94"/><circle class="cls-5" cx="1347.16" cy="720.69" r="37.94"/><circle class="cls-6" cx="1405.45" cy="676.28" r="37.94"/><circle class="cls-7" cx="1393.43" cy="638.34" r="37.94"/><circle class="cls-6" cx="1347.16" cy="766.03" r="37.94"/><circle class="cls-7" cx="1425.81" cy="783.61" r="37.94"/><circle class="cls-3" cx="1398.98" cy="718.84" r="37.94"/><circle class="cls-8" cx="1325.88" cy="682.75" r="37.94"/><circle class="cls-3" cx="1469.3" cy="692.93" r="37.94"/><circle class="cls-5" cx="1431.36" cy="638.34" r="37.94"/><circle class="cls-6" cx="1445.24" cy="733.65" r="37.94"/><circle class="cls-8" cx="1472.08" cy="714.21" r="37.94"/><circle class="cls-3" cx="1454.5" cy="756.78" r="37.94"/><rect class="cls-12" x="1204.61" y="818.53" width="56.44" height="431.21" rx="12"/><path class="cls-4" d="M1233,818.53v431.21h-16.39a12,12,0,0,1-12-12V830.53a12,12,0,0,1,12-12Z"/><circle class="cls-3" cx="1247.31" cy="860.19" r="37.94"/><circle class="cls-3" cx="1165.26" cy="763.92" r="37.94"/><circle class="cls-3" cx="1249.48" cy="728.79" r="37.94"/><circle class="cls-5" cx="1286.32" cy="795.12" r="37.94"/><circle class="cls-5" cx="1221.79" cy="787.56" r="37.94"/><circle class="cls-6" cx="1211.38" cy="738.31" r="37.94"/><circle class="cls-6" cx="1196.26" cy="819.73" r="37.94"/><circle class="cls-7" cx="1192.32" cy="776.41" r="37.94"/><circle class="cls-6" cx="1142.61" cy="776.49" r="37.94"/><circle class="cls-6" cx="1200.57" cy="880.85" r="37.94"/><circle class="cls-7" cx="1292.88" cy="850.76" r="37.94"/><circle class="cls-3" cx="1193.67" cy="712.15" r="37.94"/><circle class="cls-3" cx="1262.33" cy="795.75" r="37.94"/><circle class="cls-8" cx="1282.46" cy="753.87" r="37.94"/><circle class="cls-3" cx="1163.1" cy="838.15" r="37.94"/><path class="cls-12" d="M1512.05,763.18V972.82c0,3.4-5.4,6.18-12,6.18h-32.44c-6.6,0-12-2.78-12-6.18V763.18c0-3.4,5.4-6.18,12-6.18h32.44C1506.65,757,1512.05,759.78,1512.05,763.18Z"/><path class="cls-4" d="M1484,757V979h-16.39c-6.6,0-12-2.78-12-6.18V763.18c0-3.4,5.4-6.18,12-6.18Z"/><polygon class="cls-2" points="468.32 1011.69 307 1011.68 144.86 1011.66 245.42 837.52 306.62 731.55 307 732.21 367.79 837.53 468.32 1011.69"/><polygon class="cls-2" points="405.86 707.25 307 707.25 256.25 707.24 207 707.24 306.45 535.03 307 535.98 405.86 707.25"/><polygon class="cls-2" points="431.82 837.54 367.79 837.53 307 837.53 245.42 837.52 181.02 837.51 256.25 707.24 306.44 620.32 307 621.29 356.61 707.25 431.82 837.54"/><polygon class="cls-29" points="307 535.98 307 1011.68 144.86 1011.66 245.42 837.52 181.02 837.51 256.25 707.24 207 707.24 306.45 535.03 307 535.98"/><circle class="cls-3" cx="1557.69" cy="738.91" r="37.94"/><circle class="cls-3" cx="1433.69" cy="763.9" r="37.94"/><circle class="cls-3" cx="1443.87" cy="673.21" r="37.94"/><circle class="cls-5" cx="1519.75" cy="673.21" r="37.94"/><circle class="cls-5" cx="1481.81" cy="725.96" r="37.94"/><circle class="cls-6" cx="1433.69" cy="711.15" r="37.94"/><circle class="cls-6" cx="1497.54" cy="763.9" r="37.94"/><circle class="cls-7" cx="1457.75" cy="746.32" r="37.94"/><circle class="cls-6" cx="1433.69" cy="789.81" r="37.94"/><circle class="cls-6" cx="1553.06" cy="789.81" r="37.94"/><circle class="cls-7" cx="1571.57" cy="694.5" r="37.94"/><circle class="cls-3" cx="1402.23" cy="713.93" r="37.94"/><circle class="cls-3" cx="1508.64" cy="694.5" r="37.94"/><circle class="cls-8" cx="1481.81" cy="656.56" r="37.94"/><circle class="cls-3" cx="1497.54" cy="801.84" r="37.94"/><path class="cls-11" d="M449,581.43l-53.92,42a3.16,3.16,0,0,1-3.34.34L199.61,528.46a3.16,3.16,0,0,1,2.07-5.91l246.05,53.31A3.15,3.15,0,0,1,449,581.43Z"/><circle class="cls-13" cx="299.26" cy="560.46" r="9.33"/><circle class="cls-13" cx="270.25" cy="551.68" r="9.33"/><circle class="cls-13" cx="277.47" cy="541.6" r="9.33"/><circle class="cls-13" cx="282.73" cy="558.95" r="9.33"/><circle class="cls-13" cx="290.39" cy="548.16" r="9.33"/><path class="cls-14" d="M295.89,558.86c-8.51-8.19-31.81-20.71-27.77-16.26"/><path class="cls-15" d="M261.5,544.06c2-2.52,5.27-3.27,7.25-1.68"/><polygon class="cls-2" points="846 1042.69 708.78 1042.68 570.86 1042.66 656.4 894.54 708.46 804.4 708.78 804.96 760.49 894.55 846 1042.69"/><polygon class="cls-2" points="792.87 783.73 708.78 783.73 665.61 783.72 623.72 783.72 708.31 637.24 708.78 638.04 792.87 783.73"/><polygon class="cls-2" points="814.95 894.55 760.49 894.55 708.78 894.55 656.4 894.54 601.62 894.53 665.61 783.72 708.3 709.78 708.78 710.61 750.98 783.73 814.95 894.55"/><polygon class="cls-29" points="708.78 638.04 708.78 1042.68 570.86 1042.66 656.4 894.54 601.62 894.53 665.61 783.72 623.72 783.72 708.31 637.24 708.78 638.04"/><rect class="cls-12" x="736.61" y="678.53" width="56.44" height="431.21" rx="12"/><path class="cls-4" d="M765,678.53v431.21H748.61a12,12,0,0,1-12-12V690.53a12,12,0,0,1,12-12Z"/><circle class="cls-3" cx="814.1" cy="615.3" r="48.58"/><circle class="cls-3" cx="708.86" cy="738.41" r="48.58"/><circle class="cls-3" cx="647.5" cy="638.97" r="48.58"/><circle class="cls-5" cx="723.98" cy="579.04" r="48.58"/><circle class="cls-5" cx="727.4" cy="662.17" r="48.58"/><circle class="cls-6" cx="667.21" cy="685.24" r="48.58"/><circle class="cls-6" cx="773.21" cy="687.98" r="48.58"/><circle class="cls-7" cx="719.22" cy="701.68" r="48.58"/><circle class="cls-6" cx="729.32" cy="764.52" r="48.58"/><circle class="cls-6" cx="849.63" cy="670.25" r="48.58"/><circle class="cls-7" cx="793.02" cy="559.57" r="48.58"/><circle class="cls-3" cx="637.69" cy="712.89" r="48.58"/><circle class="cls-3" cx="729.6" cy="609.26" r="48.58"/><circle class="cls-8" cx="672.59" cy="592.22" r="48.58"/><circle class="cls-3" cx="803.17" cy="726.22" r="48.58"/><polygon class="cls-5" points="267.93 828.36 211.1 828.36 143 828.35 78.34 828.34 17.13 828.34 94.09 695.07 142.55 611.15 143 611.93 190.99 695.07 267.93 828.36"/><polygon class="cls-5" points="306.43 993.52 143 993.5 -17.03 993.49 78.34 828.34 143 716.38 144.73 713.38 211.1 828.36 306.43 993.52"/><polygon class="cls-5" points="241.97 695.08 190.99 695.07 94.09 695.07 43.11 695.06 142.56 522.86 143 523.62 241.97 695.08"/><polygon class="cls-30" points="143 523.62 143 993.5 -17.03 993.49 78.34 828.34 17.13 828.34 94.09 695.07 43.11 695.06 142.56 522.86 143 523.62"/><rect class="cls-31" x="290.68" y="924.6" width="83.97" height="199.74" transform="translate(-690.45 1361.29) rotate(-90.23)"/><path class="cls-31" d="M233,1066.86a42,42,0,0,1-.34-84"/><polyline class="cls-31" points="172.24 1011.66 211.09 988.97 211.31 1060.59 171.38 1037.75"/><rect class="cls-32" x="155.18" y="1021.32" width="29.26" height="6.36" rx="1.5" transform="matrix(0, -1, 1, 0, -853.98, 1198.47)"/><rect class="cls-24" x="143.1" y="1016.91" width="31.81" height="15.27" rx="2.81" transform="translate(-864.89 1187.7) rotate(-90.23)"/><line class="cls-33" x1="152.66" y1="1028.38" x2="165.38" y2="1028.33"/><line class="cls-33" x1="152.64" y1="1024.57" x2="165.36" y2="1024.52"/><line class="cls-33" x1="152.62" y1="1020.75" x2="165.35" y2="1020.7"/><line class="cls-33" x1="152.61" y1="1016.93" x2="165.33" y2="1016.88"/><line class="cls-33" x1="152.59" y1="1013.12" x2="165.32" y2="1013.07"/><line class="cls-33" x1="153.21" y1="1009.3" x2="164.03" y2="1009.25"/><rect class="cls-34" x="267.14" y="959.72" width="67.43" height="131.04" rx="5.4" transform="translate(-723.15 1330.26) rotate(-90.23)"/><path class="cls-31" d="M430.56,981.92c7.72-.14,14.29,18.55,14.69,41.74s-5.54,42.08-13.26,42.21"/><ellipse class="cls-34" cx="363.73" cy="1025.1" rx="6.51" ry="33.79" transform="translate(-4.16 1.49) rotate(-0.23)"/><polygon class="cls-5" points="1859.93 868.36 1803.1 868.36 1735 868.35 1670.34 868.34 1609.13 868.34 1686.09 735.07 1734.55 651.15 1735 651.93 1782.99 735.07 1859.93 868.36"/><polygon class="cls-5" points="1898.43 1033.52 1735 1033.5 1574.97 1033.49 1670.34 868.34 1735 756.38 1736.73 753.38 1803.1 868.36 1898.43 1033.52"/><polygon class="cls-5" points="1833.97 735.08 1782.99 735.07 1686.09 735.07 1635.11 735.06 1734.56 562.86 1735 563.62 1833.97 735.08"/><polygon class="cls-30" points="1735 563.62 1735 1033.5 1574.97 1033.49 1670.34 868.34 1609.13 868.34 1686.09 735.07 1635.11 735.06 1734.56 562.86 1735 563.62"/><path class="cls-35" d="M1659.69,1026.94c7,21.68.48,26.88-14.64,40.9-7.57,5.46-15.84,4.35-23.1,3.18-7.26-1.78-13.52-3.61-17-13.55-7-21.68-.48-26.87,14.64-40.89,7.57-5.46,15.84-4.35,23.1-3.18C1649.91,1015.17,1656.17,1017,1659.69,1026.94Z"/><path class="cls-36" d="M1671.3,972.54c6.38,6.24.69,35-12.71,34.6-6.71,1.33-14.07,2.92-20.55-.76-6.49-3-12.1-11.36-15.29-15.44-6.38-6.24-.69-35,12.71-34.6,6.71-1.33,14.07-2.92,20.55.76C1662.5,960.15,1668.11,968.47,1671.3,972.54Z"/><path class="cls-37" d="M1783.46,1009.35c6.71,6.55.73,36.8-13.37,36.37-7,1.4-14.78,3.07-21.6-.79-6.82-3.21-12.71-12-16.07-16.24-6.71-6.56-.73-36.8,13.36-36.37,7-1.4,14.79-3.07,21.61.79C1774.21,996.32,1780.1,1005.06,1783.46,1009.35Z"/><path class="cls-38" d="M1767.05,1066.53c3.18,2,3.33,8,1,19-2.31,11.32-7.1,15.34-13.8,14.45-6.7-.27-14.06,2.53-20.53-2.27-6.47-3.65-12.06-14.91-15.24-16.73-3.17-2-3.33-8-1-19,2.31-11.32,7.09-15.34,13.8-14.45,6.7.28,14-2.53,20.53,2.27C1758.29,1053.46,1763.88,1064.72,1767.05,1066.53Z"/><path class="cls-37" d="M1724.83,995.09c6.22,6.08.67,34.11-12.39,33.71-6.53,1.3-13.7,2.85-20-.73-6.32-3-11.78-11.08-14.89-15-6.22-6.08-.68-34.11,12.38-33.71,6.53-1.3,13.71-2.85,20,.73C1716.26,983,1721.72,991.12,1724.83,995.09Z"/><path class="cls-35" d="M1711.14,1044.35c6.71,23.39.73,23.76-13.36,39.28-7,5.77-14.79,4.12-21.61,3.48-6.82-1.44-12.71-1.87-16.07-12.32-6.71-23.39-.73-23.76,13.37-39.28,7-5.77,14.78-4.12,21.6-3.48C1701.89,1033.48,1707.79,1033.91,1711.14,1044.35Z"/><rect class="cls-39" x="1654.93" y="1002.5" width="23.44" height="34.47" transform="translate(-276.54 815.76) rotate(-25.47)"/><rect class="cls-39" x="1708.88" y="1025.37" width="26.44" height="26.02" transform="translate(1797.39 -971.15) rotate(61.06)"/><polygon class="cls-39" points="1637 1010.74 1616.02 1014.59 1622.39 995.2 1637 1010.74"/><path class="cls-39" d="M1618.09,1008.64a2.76,2.76,0,1,1-3,4.65"/><path class="cls-39" d="M1620.32,996.07a2.76,2.76,0,0,1,.07,5.52"/><path class="cls-40" d="M1762.26,1048.41a2.76,2.76,0,1,1-3,4.65"/><polygon class="cls-39" points="1753.41 1047.78 1774.59 1044.39 1769.16 1062.33 1753.41 1047.78"/><path class="cls-39" d="M1772.28,1051.05a2.76,2.76,0,0,1,2.8-4.75"/><path class="cls-39" d="M1771,1062.7a2.76,2.76,0,1,1-1-5.42"/><circle class="cls-13" cx="1528.74" cy="969.61" r="9.33"/><circle class="cls-13" cx="1555.61" cy="983.64" r="9.33"/><circle class="cls-13" cx="1557.51" cy="971.39" r="9.33"/><circle class="cls-13" cx="1541.61" cy="980.09" r="9.33"/><circle class="cls-13" cx="1543.69" cy="967.03" r="9.33"/><path class="cls-14" d="M1532.27,970.82c11.82.11,37.22,7.47,31.22,7.82"/><path class="cls-15" d="M1567.2,984.32c.32-3.22-1.48-6-4-6.27"/><circle class="cls-14" cx="506.32" cy="954.97" r="10.7"/><circle class="cls-14" cx="508.16" cy="989.66" r="10.7"/><circle class="cls-14" cx="521.36" cy="984.37" r="10.7"/><circle class="cls-14" cx="503.5" cy="973.78" r="10.7"/><circle class="cls-14" cx="517.59" cy="968.2" r="10.7"/><path class="cls-19" d="M507.19,959.16c6.79,11.71,14.35,41.06,10.5,35.35"/><path class="cls-20" d="M514.26,1001.48c3.36-1.57,5.08-5,3.85-7.62"/><circle class="cls-14" cx="50.35" cy="1014.91" r="10.7"/><circle class="cls-14" cx="18.26" cy="1001.59" r="10.7"/><circle class="cls-14" cx="17.33" cy="1015.78" r="10.7"/><circle class="cls-14" cx="34.6" cy="1004.24" r="10.7"/><circle class="cls-14" cx="33.55" cy="1019.35" r="10.7"/><path class="cls-19" d="M46.19,1013.88C32.7,1015,3,1009.1,9.77,1008.1"/><path class="cls-20" d="M5,1002c0,3.71,2.3,6.73,5.21,6.76"/><circle class="cls-13" cx="1162.85" cy="949.73" r="9.33"/><circle class="cls-13" cx="1138.48" cy="967.76" r="9.33"/><circle class="cls-13" cx="1148.67" cy="974.82" r="9.33"/><circle class="cls-13" cx="1147.79" cy="956.72" r="9.33"/><circle class="cls-13" cx="1158.63" cy="964.3" r="9.33"/><path class="cls-14" d="M1160.22,952.38c-5.26,10.58-23,30.19-20.69,24.65"/><path class="cls-15" d="M1132.8,977.88c2.75,1.69,6.07,1.31,7.39-.86"/><rect class="cls-12" x="1643.61" y="687.53" width="56.44" height="431.21" rx="12"/><path class="cls-4" d="M1672,687.53v431.21h-16.39a12,12,0,0,1-12-12V699.53a12,12,0,0,1,12-12Z"/><circle class="cls-3" cx="1618.66" cy="645.83" r="42"/><circle class="cls-3" cx="1660.66" cy="758.52" r="42"/><circle class="cls-5" cx="1609.44" cy="702.18" r="42"/><circle class="cls-6" cx="1673.98" cy="653" r="42"/><circle class="cls-7" cx="1660.66" cy="611" r="42"/><circle class="cls-6" cx="1609.44" cy="752.37" r="42"/><circle class="cls-7" cx="1696.52" cy="771.84" r="42"/><circle class="cls-3" cx="1666.81" cy="700.13" r="42"/><circle class="cls-8" cx="1585.88" cy="660.17" r="42"/><circle class="cls-3" cx="1744.67" cy="671.44" r="42"/><circle class="cls-5" cx="1702.67" cy="611" r="42"/><circle class="cls-6" cx="1718.03" cy="716.52" r="42"/><circle class="cls-8" cx="1747.74" cy="695" r="42"/><circle class="cls-3" cx="1728.28" cy="742.13" r="42"/><path class="cls-41" d="M571.94,211.62q1.8,2.44-3.58,13.82t-10.05,11.93q-5,.58-8.73-4.1a21.4,21.4,0,0,0-3-4.16L509.14,203.4l4.32,28.77a10.49,10.49,0,0,0,2,4.16,10.32,10.32,0,0,1,1.91,3.69q.69,4.66-5.3,6-4.59,1.17-14.1.37-10.29-.68-10.66-3.17a8.28,8.28,0,0,1,.08-2.16,12.21,12.21,0,0,0-.12-3.4L471,129.12a4,4,0,0,0-.76-1.87,3.08,3.08,0,0,1-.66-1.25q-.48-4.23,5.47-5.92c1.22-.39,4.11-.32,8.7.21s7.81.6,9.66.22,5.14-2.34,10.17-5.9,9.57-5.65,13.61-6.26a26.08,26.08,0,0,1,4.89-.26,17.83,17.83,0,0,1,8.54,2.85q4,2.58,7.78,5.2,9.76,6.81,10.15,7.22a17.16,17.16,0,0,1,5.92,9.77q3.65,17.91-23.84,51,7.42,4.94,33.1,24.46a29.92,29.92,0,0,1,4.33,1.26A23.56,23.56,0,0,1,571.94,211.62ZM524.5,129.83Q517.19,130.93,501,149l3.57,23.8q6.3-3.65,15.17-18.66t7.9-21.55C527.3,130.47,526.26,129.56,524.5,129.83Z"/><path class="cls-41" d="M652.85,204.13a13.91,13.91,0,0,1-2.11,6q-1.93,3.3-3.59,4.12a2.8,2.8,0,0,1-1.78-.36,4.55,4.55,0,0,0-2.1-.49,1.38,1.38,0,0,0-.61.23,62.69,62.69,0,0,0-9.29,4.81,91.43,91.43,0,0,0-19.77,15.94q-16.35-4.71-17.82-5.17Q585.63,226,585.4,224L572.52,106.43q-.12-1.09,3.34-3.53c2.3-1.62,4-2.45,5.19-2.47s3.85.5,7.77,1.6a26.24,26.24,0,0,0,9.47,1.26q4.69-.51,11.73-5.56,6.43-4.82,8.23-4.38,3.88.84,12.08,7t9.14,9q.46,1.38-2.36,5.17t-4.87,4a5,5,0,0,1-2.55-.2c-.56-.25-.93-.31-1.13-.19a91.23,91.23,0,0,0-10.15,4.12q-11.14,5.17-16,10.94l2.79,25.48a107.76,107.76,0,0,1,13.6-7.34q2.46-.59,11.31,5.8t9.16,9.21c.13,1.14-.45,2.58-1.74,4.3a10.22,10.22,0,0,1-3.9,3.43c-1,.12-2.86.42-5.44.92q-5.82,1.74-19.85,12.3l1.79,16.42q4.39-3.33,12-8t9.51-4.92q2.19-.24,11.77,5.59T652.85,204.13Z"/><path class="cls-41" d="M743.12,92.8a8.76,8.76,0,0,1-.37,3.35,24.41,24.41,0,0,0-1.09,4.34l8,103.51q0-.47,1.24,5.74,1.49,7.14-1.16,9.56t-12.61,2.23a55.26,55.26,0,0,1-13.25-2q-9.79-2.24-11-5.46a36.32,36.32,0,0,0-1-6.71Q701.3,184.85,687.56,158l3.57,46.42a7.57,7.57,0,0,0,1.36,3.21,26.36,26.36,0,0,1,1.62,2.72,14.57,14.57,0,0,1,1.15,4.64q.48,6.27-5.16,6.71-5.49.42-15.77-1.94c-6.43-1.61-10.12-3-11-4-1.38-1.58-1.55-3.72-.49-6.43s1.55-4.38,1.5-5l-7.57-98.34a13.12,13.12,0,0,0-.69-2.78,5.91,5.91,0,0,1-.38-3,10.52,10.52,0,0,1,5.56-7.69,11.78,11.78,0,0,1,3.43-.58,53,53,0,0,1,12.66.61c5.64.82,9.65,2.31,12,4.44q4.75,4.36,13.66,27.81,10.89,28.83,16.55,38.8l-4.74-61.63a14.81,14.81,0,0,0-.9-3.48A14.08,14.08,0,0,1,713,95a4.56,4.56,0,0,1,.18-1.75q.57-2.73,5.66-4.38a22.73,22.73,0,0,1,7.78-1.39,48.2,48.2,0,0,1,8.76,1.06Q742.76,90.14,743.12,92.8Z"/><path class="cls-41" d="M871.22,186.9q.46,11.64-6.94,19.41t-21.07,8.63a27.92,27.92,0,0,1-7.43-.8q-7.31-1.75-7.62-1.75-3.81-.63-7.69-1.34a14,14,0,0,1-6.82-3.27q-4.39-3.6-7.41-12c-2.46-6.52-4.31-10.59-5.52-12.22a20.27,20.27,0,0,1-3.17-4.28,6.46,6.46,0,0,1,.68-4.67,6.08,6.08,0,0,1,3.11-3,13,13,0,0,1,3.44-.45,82.69,82.69,0,0,1,13.49.8q8,1,9,2.08t3,11.21q1.78,9.38,4.66,10.37a3.2,3.2,0,0,0,1.43.25c2-.08,3.63-1.79,4.91-5.15a28.3,28.3,0,0,0,1.67-11.32q-.54-13.68-9.21-17.9-19.92-9.75-28.13-18.39a32.52,32.52,0,0,1-9.15-24.2q.32-11.82,7.61-24.15T819.87,80q3.58-.93,22.28,6,4.64,1.55,9.34,3.25a17.77,17.77,0,0,1,7.69,5.2q4.62,5.32,5.16,18.84c.07,1.68.11,4.15.14,7.4,0,2.83,0,4.82.08,6a19.54,19.54,0,0,0,1.25,3.57,6.84,6.84,0,0,1,.76,3.43q0,6.93-5.51,7.93-3.12.6-11.72-1.89-9.55-2.61-12.2-6a8.11,8.11,0,0,1-.44-3.13q-.11-2.35.12-10.71c.14-5.56.17-9.61.07-12.12-.18-4.5-.8-6.68-1.84-6.54q-4.86.51-7.82,7.32a34.47,34.47,0,0,0-2.61,15.3q.57,14.15,9.13,19.78l19.34,11.19q9.2,5.46,12.88,11.14Q870.68,173.39,871.22,186.9Z"/><path class="cls-41" d="M967.74,184.73q.54,3.92-5.09,14.87-5.94,11.43-9.88,11-4.72-.54-20.3-18.37-17.34-20-21.31-22.59l.5,28.94a10.71,10.71,0,0,0,1,3.28,17.17,17.17,0,0,1,1.16,3.44q.9,6.28-2.53,8.23a10.55,10.55,0,0,1-5.17,1,35.63,35.63,0,0,1-13.57-2.44q-7.45-2.85-7.52-6.79L883,90.24A14.16,14.16,0,0,1,885,83.52q2-3.73,4.48-4.72a4.72,4.72,0,0,1,1.41-.18q4.56-.09,13,3.23t9.3,5.66q.33,1.09-1.37,11.51a113.73,113.73,0,0,0-1.73,18,33.81,33.81,0,0,0,.22,3.62l26.32-42Q938.93,75,942.54,75q3.93.09,11.73,4.83,8.75,5.5,9,10.54,0,1.41-12.27,17.84-15.54,20.4-24.23,36l32.4,35.94c.75.82,2.44,1.48,5.07,2Q967.55,182.84,967.74,184.73Z"/><path class="cls-41" d="M1182.08,92q-8.83,20.66-20.53,62.94-10.62,38.23-10.63,43.42a62.43,62.43,0,0,0,.09,7.25,12.64,12.64,0,0,1-1.3,6.57q-1.7,3.72-4.38,4.11-4.59.79-18.21-4t-15.56-8.19a9,9,0,0,1-1-4.12,23.54,23.54,0,0,0-.33-4.26q-16.17-57.31-18.39-102.4a14.48,14.48,0,0,0-.68-3.32,9.49,9.49,0,0,1-.22-3.31c.64-3.66,2.23-5.86,4.77-6.62q1.9-.57,13.12,3.39,11.82,4.15,13,6.86.59,1.59-.2,6.6a10.41,10.41,0,0,1-1.19,2.72,5.47,5.47,0,0,0-.88,3q1.85,16.59,3.5,29.23,4.1,30.33,6.75,36.09a375.27,375.27,0,0,1,10.6-37.13A355.68,355.68,0,0,0,1151,93.07a44.49,44.49,0,0,1,1.66-8,8.46,8.46,0,0,1,5.34-4.71c1.69-.48,5.6.54,11.71,3Q1179.7,87.67,1182.08,92Z"/><path class="cls-41" d="M1270.48,158.23a35.59,35.59,0,0,1,.07,4.73q-.71,13-12.66,27.52a103.16,103.16,0,0,1-23.15,20.5q-12.39,8-16.61,7.15-4.67-.88-16.27-7.88t-12.42-9.41a3,3,0,0,1-.23-1.43,7.14,7.14,0,0,1,.68-2.41,7.56,7.56,0,0,0,.67-2.24L1196,93c.08-1.67,2.43-2.39,7-2.14a21.47,21.47,0,0,1,5.46.92,82.86,82.86,0,0,1,19.07-7.41Q1239,81.25,1247,81.68a16.32,16.32,0,0,1,7.23,1.72,13.46,13.46,0,0,1,4.54,4.89,39.63,39.63,0,0,0,3.63,5.87c.19.22,1.85,1.73,4.95,4.51a10.63,10.63,0,0,1,3.35,5.22,12.9,12.9,0,0,1,.41,4.12q-.66,12.42-17.94,26.14Q1269.31,147.77,1270.48,158.23Zm-21.59-5.72q-4.1-.06-14,3.18-10.75,3.69-15.68,7.52l-1.56,29.21q10.35-2.28,21-16.2T1248.89,152.51Zm-3.17-46.8c-.19-.43-.75-.67-1.69-.72q-3.62-.19-11.51,3.16t-10.76,6.68l-.87,16.33a134.62,134.62,0,0,0,18.23-15.41Q1246.88,107.82,1245.72,105.71Z"/><path class="cls-41" d="M1367.42,105.35q.28-1.72-2.13,30-6.81,89.4-32,90.32a26,26,0,0,1-10.47-2.37q-6-2.52-11.84-5-5.08-1.65-10.22-3.54a17.16,17.16,0,0,1-7.87-5.41q-5.9-7.56-8-31.53a311.19,311.19,0,0,1,.22-48.58,261.29,261.29,0,0,1,4.93-35.75c.67-3.2,2.34-5.18,5-5.92q1.77-.5,11.83,3.11t11.63,5.77a3.85,3.85,0,0,1,.59,2.57,14.92,14.92,0,0,1-2,5.45,12.44,12.44,0,0,0-1.84,5.46q-1,2.92-2.09,17.19a453.32,453.32,0,0,0-1.3,50.23q.93,29.1,7,28.92,7.57-.21,13.38-26.59,4.54-20.31,6.67-48.23,1.39-18.36.65-23.14a10.89,10.89,0,0,0-.23-5.23,29.79,29.79,0,0,1-1.12-3.87q-.54-5.4,4.06-7.74a5.5,5.5,0,0,1,2.7-.26c3.13.24,7.47,1.35,13,3.35s8.73,3.56,9.59,4.68C1368.14,100,1368.09,102,1367.42,105.35Z"/><path class="cls-41" d="M1472.66,111.21a8.92,8.92,0,0,1-1,3.22,25.58,25.58,0,0,0-1.85,4.08l-10.73,103.26q0-.47.18,5.87.2,7.29-2.85,9.19t-12.8-.06a55.8,55.8,0,0,1-12.68-4.32q-9.24-4-9.83-7.35a36.79,36.79,0,0,0,.23-6.78q-6.36-24.06-15.06-53l-4.81,46.31a7.45,7.45,0,0,0,.75,3.4,28.2,28.2,0,0,1,1.12,3,15.2,15.2,0,0,1,.29,4.78q-.64,6.25-6.28,5.67-5.47-.57-15.16-4.74-9.07-4.1-10.14-6-1.62-2.7.67-6.42c1.52-2.47,2.31-4,2.38-4.65l10.19-98.1a12.72,12.72,0,0,0-.17-2.87,5.87,5.87,0,0,1,.15-3,10.52,10.52,0,0,1,6.85-6.56,11.64,11.64,0,0,1,3.47,0A52.77,52.77,0,0,1,1408,99.11q8.1,2.74,11,6.52,3.9,5.16,8.45,29.82,5.55,30.32,9.32,41.14l6.39-61.49a14.17,14.17,0,0,0-.26-3.58,14.74,14.74,0,0,1-.26-3.59,4.68,4.68,0,0,1,.5-1.69q1-2.56,6.35-3.29a22.74,22.74,0,0,1,7.9,0,48,48,0,0,1,8.43,2.62Q1472.77,108.54,1472.66,111.21Z"/><path class="cls-41" d="M1556,167.48q-2.28,17-14.15,35.71A152.58,152.58,0,0,1,1519.37,231q-11.44,10.85-16.4,12.24a14.31,14.31,0,0,1-5.43.23q-6.86-.93-15-6.46-7.32-4.64-10.65-9.37L1487,115.36c.68-2.66,2.45-4.06,5.33-4.2q.48-.09,7.65,2.14,1.38.35,9.71-2c5.56-1.58,10.21-2.13,13.95-1.62A26,26,0,0,1,1536.2,115a91.75,91.75,0,0,1,9.63,9.86q9.23,10.44,11,20.84Q1558,152.67,1556,167.48Zm-21.84-33.56a5.07,5.07,0,0,0-2.43-.81q-8.26-1.11-20.77,4.52l-9.41,70.15q11.42-4.65,22.08-27.35,9.14-19.56,11.37-36.24Q1536.15,135.46,1534.14,133.92Z"/><path class="cls-42" d="M984.69,1011.8l4.78,14a1.46,1.46,0,0,1-.92,1.86l-154.85,53a1.11,1.11,0,0,1-1.41-.69l-7.11-14.52c-7.1-4.58,2.18-1.58,2.83-1.8l154.49-52.86A1.74,1.74,0,0,1,984.69,1011.8Z"/><ellipse class="cls-41" cx="985.93" cy="1019.15" rx="3.02" ry="8.97" transform="translate(-276.83 374.03) rotate(-18.89)"/><path class="cls-42" d="M828.24,1063.53l5.16,17.2-6.1.1-10.11-1.49-4.27-2.75-2.48-2.41a.63.63,0,0,1,.14-1Z"/><path class="cls-42" d="M763.18,1030.15h69.34a2.86,2.86,0,0,1,2.86,2.86v11.56a3.86,3.86,0,0,1-3.86,3.86H762a0,0,0,0,1,0,0V1031.3a1.15,1.15,0,0,1,1.15-1.15Z" transform="translate(359.08 2274.09) rotate(-122.86)"/><ellipse class="cls-41" cx="780.75" cy="1009.66" rx="8.97" ry="3.02" transform="translate(-412.53 556.83) rotate(-31.5)"/><line class="cls-43" x1="831.52" y1="1080.53" x2="826.56" y2="1063.24"/><line class="cls-43" x1="826.95" y1="1080.86" x2="825.39" y2="1063.5"/><line class="cls-43" x1="821.66" y1="1080.21" x2="824.22" y2="1063.75"/><line class="cls-43" x1="813.64" y1="1077.05" x2="823.97" y2="1062.58"/><circle class="cls-3" cx="385.91" cy="716.29" r="37.94"/><circle class="cls-3" cx="423.85" cy="818.08" r="37.94"/><circle class="cls-5" cx="377.59" cy="767.19" r="37.94"/><circle class="cls-6" cx="435.88" cy="722.77" r="37.94"/><circle class="cls-7" cx="423.85" cy="684.83" r="37.94"/><circle class="cls-6" cx="377.59" cy="812.53" r="37.94"/><circle class="cls-7" cx="456.24" cy="830.11" r="37.94"/><circle class="cls-3" cx="429.4" cy="765.33" r="37.94"/><circle class="cls-8" cx="356.3" cy="729.25" r="37.94"/><circle class="cls-3" cx="499.73" cy="739.43" r="37.94"/><circle class="cls-5" cx="461.79" cy="684.83" r="37.94"/><circle class="cls-6" cx="475.67" cy="780.14" r="37.94"/><circle class="cls-8" cx="502.51" cy="760.71" r="37.94"/><circle class="cls-3" cx="484.92" cy="803.27" r="37.94"/><rect class="cls-12" x="409.61" y="789.53" width="56.44" height="431.21" rx="12"/><path class="cls-4" d="M438,789.53v431.21H421.61a12,12,0,0,1-12-12V801.53a12,12,0,0,1,12-12Z"/><circle class="cls-3" cx="495.1" cy="805.12" r="37.94"/><circle class="cls-3" cx="371.11" cy="830.11" r="37.94"/><circle class="cls-3" cx="381.29" cy="739.43" r="37.94"/><circle class="cls-5" cx="457.16" cy="739.43" r="37.94"/><circle class="cls-5" cx="419.23" cy="792.17" r="37.94"/><circle class="cls-6" cx="371.11" cy="777.36" r="37.94"/><circle class="cls-6" cx="434.96" cy="830.11" r="37.94"/><circle class="cls-7" cx="395.17" cy="812.53" r="37.94"/><circle class="cls-6" cx="371.11" cy="856.02" r="37.94"/><circle class="cls-6" cx="490.48" cy="856.02" r="37.94"/><circle class="cls-7" cx="508.98" cy="760.71" r="37.94"/><circle class="cls-3" cx="339.65" cy="780.14" r="37.94"/><circle class="cls-3" cx="446.06" cy="760.71" r="37.94"/><circle class="cls-8" cx="419.23" cy="722.77" r="37.94"/><circle class="cls-3" cx="434.96" cy="868.05" r="37.94"/><circle class="cls-14" cx="1403.7" cy="1067.15" r="9.33"/><circle class="cls-14" cx="1431.78" cy="1078.58" r="9.33"/><circle class="cls-14" cx="1432.5" cy="1066.2" r="9.33"/><circle class="cls-14" cx="1417.51" cy="1076.37" r="9.33"/><circle class="cls-14" cx="1418.33" cy="1063.17" r="9.33"/><path class="cls-19" d="M1407.33,1068c11.77-1,37.75,3.9,31.82,4.82"/><path class="cls-20" d="M1443.38,1078.15c0-3.24-2.05-5.86-4.59-5.87"/><circle class="cls-13" cx="1193.1" cy="1020.22" r="11.11"/><circle class="cls-13" cx="1157.7" cy="1027.27" r="11.11"/><circle class="cls-13" cx="1165.1" cy="1040.05" r="11.11"/><circle class="cls-13" cx="1173.33" cy="1020.11" r="11.11"/><circle class="cls-13" cx="1181.16" cy="1033.77" r="11.11"/><path class="cls-14" d="M1188.92,1021.74c-11,8.72-40.08,20.86-34.79,16"/><path class="cls-15" d="M1146.46,1035.3c2.11,3.22,5.87,4.48,8.4,2.82"/><circle class="cls-14" cx="1137.22" cy="1065.19" r="8.17"/><circle class="cls-14" cx="1110.81" cy="1067.68" r="8.17"/><circle class="cls-14" cx="1115.25" cy="1077.58" r="8.17"/><circle class="cls-14" cx="1122.78" cy="1063.62" r="8.17"/><circle class="cls-14" cx="1127.48" cy="1074.2" r="8.17"/><path class="cls-19" d="M1134.05,1066c-8.72,5.55-30.88,12.23-26.65,9.12"/><path class="cls-20" d="M1102,1072.7c1.3,2.51,4,3.72,5.93,2.7"/></svg>
