<svg id="Layer_1" data-name="Layer 1" xmlns="http://www.w3.org/2000/svg" width="170" height="150" viewBox="0 0 170 150"><defs><style>.cls-1{fill:#c1272d;}.cls-2{fill:#e6e6e6;}.cls-3,.cls-4,.cls-6{fill:none;stroke-miterlimit:10;stroke-width:0.75px;}.cls-3{stroke:#999;}.cls-4{stroke:#9e005d;}.cls-5{fill:#ccc;}.cls-6{stroke:gray;}</style></defs><title>cigaretpakke</title><rect class="cls-1" x="3.1" y="2.8" width="97" height="38.51" transform="translate(0.39 -0.9) rotate(1.01)"/><rect class="cls-1" x="70.53" y="107.15" width="96.64" height="40.05" transform="translate(2.25 -2.07) rotate(1.01)"/><polygon class="cls-1" points="167.08 147.6 69.82 146.33 2.48 40.14 99.75 41.41 167.08 147.6"/><polygon class="cls-2" points="167.08 107.84 70.21 106.6 3.15 2.44 100.02 3.69 167.08 107.84"/><line class="cls-3" x1="22.98" y1="73.06" x2="22.98" y2="32.69"/><line class="cls-4" x1="70.19" y1="106.6" x2="70.19" y2="146.35"/><polygon class="cls-5" points="154.44 97.86 72.38 96.81 15.56 8.43 97.63 9.49 154.44 97.86"/><path d="M18.63,11.82a17.76,17.76,0,0,1,2.52-.17,4.6,4.6,0,0,1,2.84.74,2.29,2.29,0,0,1,.89,1.87,2.47,2.47,0,0,1-.78,1.91,4.56,4.56,0,0,1-3.1,1,5.65,5.65,0,0,1-1.06-.08v3.58H18.63Zm1.31,4.31a5.49,5.49,0,0,0,1.09.09c1.58,0,2.54-.67,2.54-1.91s-.95-1.75-2.39-1.75a5.7,5.7,0,0,0-1.24.1Z"/><path d="M26.65,11.84a15.28,15.28,0,0,1,2.51-.19,4.55,4.55,0,0,1,2.93.73,2.09,2.09,0,0,1,.8,1.69A2.4,2.4,0,0,1,31,16.35v0a2.3,2.3,0,0,1,1.49,1.8,13.17,13.17,0,0,0,.78,2.46H31.9a10.6,10.6,0,0,1-.68-2.14,1.88,1.88,0,0,0-2-1.73H28v3.87h-1.3ZM28,15.9h1.34c1.4,0,2.29-.67,2.29-1.69s-.95-1.66-2.33-1.67a6.61,6.61,0,0,0-1.3.1Z"/><path d="M36.06,11.72v8.93H34.75V11.72Z"/><path d="M38.35,20.65V11.72h1.43L43,16.23a24.5,24.5,0,0,1,1.82,2.91l0,0a35.08,35.08,0,0,1-.15-3.67V11.72H46v8.93H44.64l-3.22-4.54a26.38,26.38,0,0,1-1.9-3l0,0c.07,1.12.1,2.2.1,3.68v3.82Z"/><path d="M55.34,20.35a7,7,0,0,1-2.67.43c-2.86,0-5-1.59-5-4.52s2.16-4.69,5.3-4.69a6,6,0,0,1,2.41.4l-.32.94a5.31,5.31,0,0,0-2-.37c-2.38,0-4,1.34-4,3.68s1.43,3.59,3.9,3.59a5.73,5.73,0,0,0,2.13-.37Z"/><path d="M62.24,16.46H58.3v3.22h4.39v1H57V11.72h5.48v1H58.3v2.83h3.94Z"/><path d="M67.59,11.72H68.9v8h4.34v1H67.59Z"/><path d="M76,11.72v8.93H74.7V11.72Z"/><path d="M86,20.25a10.84,10.84,0,0,1-3.12.49,5.68,5.68,0,0,1-3.79-1.18,4.31,4.31,0,0,1-1.41-3.33c0-2.66,2.09-4.61,5.49-4.61a7.19,7.19,0,0,1,2.53.41L85.4,13a5.92,5.92,0,0,0-2.24-.38c-2.47,0-4.08,1.35-4.08,3.59s1.55,3.61,3.91,3.61a4.85,4.85,0,0,0,1.75-.24V16.88H82.68V16H86Z"/><path d="M89.34,11.72v3.73h4.9V11.72h1.33v8.93H94.24V16.46h-4.9v4.19H88V11.72Z"/><path d="M99.77,12.7H96.69v-1h7.51v1h-3.1v8H99.77Z"/><line class="cls-6" x1="22.32" y1="32.64" x2="117.97" y2="32.64"/></svg>
