<svg id="Layer_1" data-name="Layer 1" xmlns="http://www.w3.org/2000/svg" width="190" height="180" viewBox="0 0 190 180"><defs><style>.cls-1{fill:#999;}.cls-2{fill:#f7931e;}.cls-3{fill:#666;}.cls-4{fill:none;stroke:#4d4d4d;stroke-width:5px;}.cls-4,.cls-6{stroke-miterlimit:10;}.cls-5{fill:#333;}.cls-6{fill:#f15a24;stroke:#fcee21;stroke-width:4px;}</style></defs><title>daase_orange</title><path class="cls-1" d="M184.2,102c8.87,11.58-5,37.13-31.07,57.07S98.82,185.78,89.94,174.2"/><ellipse class="cls-2" cx="66.09" cy="58.73" rx="61.98" ry="36.68" transform="translate(-22.09 52.31) rotate(-37.46)"/><ellipse class="cls-2" cx="96.52" cy="85.11" rx="69.94" ry="36.18" transform="translate(-31.86 76.26) rotate(-37.46)"/><ellipse class="cls-2" cx="129.06" cy="127.51" rx="64.66" ry="28.74" transform="translate(-50.94 104.79) rotate(-37.46)"/><ellipse class="cls-2" cx="109.83" cy="102.45" rx="48.85" ry="34.89" transform="translate(-39.66 87.93) rotate(-37.46)"/><rect class="cls-2" x="0.55" y="39.63" width="112.26" height="15.9" transform="translate(-17.25 44.28) rotate(-37.46)"/><ellipse class="cls-1" cx="50" cy="37.55" rx="57.72" ry="16.22" transform="translate(-12.53 38.16) rotate(-37.46)"/><ellipse class="cls-3" cx="49.83" cy="38.27" rx="48.21" ry="13.55" transform="translate(-13 38.2) rotate(-37.46)"/><path class="cls-4" d="M45.81,32.21C51,19.05,58.9,9.84,63.51,11.65S66,23.11,60.81,36.27"/><path class="cls-5" d="M64.4,37c-11,8.95-30.39,23.41-34,19s2.29-15.31,13.24-24.26"/><polygon class="cls-6" points="145.04 107.52 113.85 110.71 98.8 138.22 86.12 109.54 55.31 103.72 78.67 82.81 74.67 51.7 101.79 67.45 130.13 54.05 123.53 84.7 145.04 107.52"/></svg>
