<svg id="Layer_1" data-name="Layer 1" xmlns="http://www.w3.org/2000/svg" width="190" height="190" viewBox="0 0 190 190"><defs><style>.cls-1{fill:#999;}.cls-2{fill:#666;}.cls-3{fill:none;stroke:#4d4d4d;stroke-width:5px;}.cls-3,.cls-5{stroke-miterlimit:10;}.cls-4{fill:#333;}.cls-5{fill:#f15a24;stroke:#fcee21;stroke-width:4px;}</style></defs><title>daase_graa</title><path class="cls-1" d="M187.18,107.38c9.17,12-5.2,38.38-32.1,59S98.94,194,89.77,182"/><ellipse class="cls-2" cx="65.12" cy="62.69" rx="64.06" ry="37.91" transform="translate(-24.7 52.53) rotate(-37.46)"/><ellipse class="cls-2" cx="96.58" cy="89.95" rx="72.28" ry="37.4" transform="translate(-34.79 77.29) rotate(-37.46)"/><ellipse class="cls-2" cx="130.2" cy="133.77" rx="66.82" ry="29.7" transform="translate(-54.51 106.77) rotate(-37.46)"/><ellipse class="cls-2" cx="110.32" cy="107.87" rx="50.49" ry="36.06" transform="translate(-42.86 89.34) rotate(-37.46)"/><rect class="cls-2" x="-2.62" y="42.94" width="116.02" height="16.43" transform="translate(-19.69 44.24) rotate(-37.46)"/><ellipse class="cls-1" cx="48.5" cy="40.8" rx="59.65" ry="16.76" transform="translate(-14.81 37.91) rotate(-37.46)"/><ellipse class="cls-2" cx="48.32" cy="41.53" rx="49.83" ry="14" transform="translate(-15.3 37.95) rotate(-37.46)"/><path class="cls-3" d="M44.16,35.28C49.5,21.67,57.69,12.16,62.45,14S65,25.87,59.66,39.47"/><path class="cls-4" d="M63.37,40.22C52.06,49.46,32,64.41,28.22,59.81S30.59,44,41.9,34.74"/><polygon class="cls-5" points="146.71 113.1 114.48 116.4 98.92 144.83 85.82 115.19 53.98 109.18 78.12 87.56 73.99 55.42 102.01 71.7 131.31 57.84 124.48 89.52 146.71 113.1"/></svg>
