<svg id="Layer_1" data-name="Layer 1" xmlns="http://www.w3.org/2000/svg" width="230" height="310" viewBox="0 0 230 310"><defs><style>.cls-1{fill:#ce7f1e;}.cls-2{fill:#ffbe28;}.cls-3{fill:#ffa78a;}.cls-4{fill:#d27543;}.cls-5{fill:#f7931e;}.cls-6{fill:#c69c6d;}.cls-7{fill:#a67c52;}.cls-8{fill:#805f14;}.cls-10,.cls-9{fill:none;stroke-miterlimit:10;}.cls-9{stroke:#8c6239;stroke-linecap:round;stroke-width:2px;}.cls-10{stroke:#000;stroke-width:6px;}</style></defs><title>egern_lukkede_ojne</title><ellipse class="cls-1" cx="106.67" cy="162.14" rx="57.31" ry="138.46" transform="translate(-19.52 14.69) rotate(-7.22)"/><path class="cls-1" d="M16.35,57.78c-17.77,33.33-25,94.55,4.81,92.46,34.2-2.41,70.49-9.51,88.26-42.84s15.77-77.08-14.36-85.15C66.93,14.71,34.12,24.45,16.35,57.78Z"/><path class="cls-2" d="M223.78,99.28c22.09,58.11-29.82,52.11-63.18,57.05a8.44,8.44,0,0,1-2,0c-36.94-3.57-88.86-2.05-64.1-58.88A6.77,6.77,0,0,0,95,96c8.24-41,25.77-60,64.61-59.41,38.85-1.05,57.17,25.08,63.81,61.44A7.2,7.2,0,0,0,223.78,99.28Z"/><path class="cls-2" d="M228.78,220.41c0,27.62-7.83,50.78-20.9,65-13,14.6-31.38,20.32-51.79,20.63-20.42-.31-38.75-6-51.79-20.63-13.08-14.27-20.87-37.43-20.9-65s7.82-50.77,20.9-65c13-14.6,31.37-20.31,51.79-20.63,20.41.32,38.74,6,51.79,20.63C221,169.64,228.75,192.8,228.78,220.41Z"/><path class="cls-3" d="M161.62,126.31l2.85,0a3.9,3.9,0,0,1,3.3,5.88l-1.46,2.45a3.89,3.89,0,0,1-6.74-.08l-1.39-2.48A3.89,3.89,0,0,1,161.62,126.31Z"/><path class="cls-2" d="M132,18.8l8.61,6.53a14.79,14.79,0,0,1-3.22,25.41l-10,4.19A14.79,14.79,0,0,1,107,39.43l1.36-10.71A14.78,14.78,0,0,1,132,18.8Z"/><path class="cls-2" d="M219.56,32.17,220.27,43A14.79,14.79,0,0,1,199,57.18l-9.69-4.77a14.79,14.79,0,0,1-1.67-25.56l9-6A14.79,14.79,0,0,1,219.56,32.17Z"/><path class="cls-4" d="M127,28.17l4.08,3.1a7,7,0,0,1-1.53,12l-4.72,2A7,7,0,0,1,115.13,38l.65-5.08A7,7,0,0,1,127,28.17Z"/><path class="cls-4" d="M212.4,35.75v5.42a7.43,7.43,0,0,1-11.13,6.43l-4.69-2.71a7.42,7.42,0,0,1,0-12.85l4.69-2.71A7.42,7.42,0,0,1,212.4,35.75Z"/><ellipse class="cls-5" cx="147.68" cy="284.53" rx="17.43" ry="24.3" transform="translate(-89.71 69.09) rotate(-20.34)"/><ellipse class="cls-5" cx="197.28" cy="281.64" rx="24.3" ry="17.43" transform="translate(-141.37 221.99) rotate(-45)"/><path class="cls-2" d="M122.18,19.72l-5.7,1.69a2.52,2.52,0,0,1-3.22-2.15L111.72,4.67a2.52,2.52,0,0,1,4.7-1.49l7.24,12.89A2.52,2.52,0,0,1,122.18,19.72Z"/><path class="cls-2" d="M213.31,23.23l-5.17-2.68a2.57,2.57,0,0,1-.83-3.86l8.85-11.33a2.57,2.57,0,0,1,4.5,2.24l-3.68,14A2.57,2.57,0,0,1,213.31,23.23Z"/><path class="cls-6" d="M214.27,205.52c-3.37,17.59-21.87,31.69-37.5,35.87-12.7-8.66-25-29.62-21.57-47.2s19.33-29.31,35.64-26.18S217.64,187.93,214.27,205.52Z"/><path class="cls-7" d="M157.18,186.32c.52-12.68,15.85-27.83,33.88-18.47,21.2-2.19,27.2,16.39,24.64,29.69"/><path class="cls-8" d="M190.85,167.85l-3.56-13.39c0-.14.07-.26.26-.29l4.12-.61c.27,0,.56.11.58.31l.74,7.41c0,.39-.53,3.77-.77,5.13a5.13,5.13,0,0,1-.31,1l-.23.55C191.56,168.25,190.94,168.16,190.85,167.85Z"/><path class="cls-7" d="M216.28,198.22c-.37,2.24-13.51,1-29.88-1.76s-29.25-7.05-28.88-9.29,14.13-3.14,30.51-.4S216.66,196,216.28,198.22Z"/><path class="cls-9" d="M157.5,186.34c0,3,7.71,4.82,14.93,6.74,10.78,2.88,25.52,5.3,43.83,6.26"/><ellipse class="cls-5" cx="212.64" cy="211.87" rx="18.78" ry="12.76" transform="translate(-63.61 329.29) rotate(-67.92)"/><ellipse class="cls-5" cx="157.74" cy="210.42" rx="12.76" ry="18.78" transform="translate(-104.03 185.22) rotate(-47.64)"/><path class="cls-10" d="M151.72,109.29c0,7.71-8.19,14-18.3,14s-18.3-6.25-18.3-14"/><path class="cls-10" d="M206.62,109.29c0,7.71-8.19,14-18.3,14S170,117,170,109.29"/></svg>
