<svg id="Layer_1" data-name="Layer 1" xmlns="http://www.w3.org/2000/svg" width="140" height="340" viewBox="0 0 140 340"><defs><style>.cls-1{fill:#a67c52;}.cls-2{fill:#8c6239;}.cls-3{fill:#fff;}.cls-4{fill:#ff7bac;}.cls-5{fill:none;stroke:#8c6239;stroke-linecap:round;stroke-miterlimit:10;}</style></defs><title>kanin</title><ellipse class="cls-1" cx="30" cy="306.77" rx="9.27" ry="28.8" transform="translate(-149.37 56.1) rotate(-30)"/><path class="cls-1" d="M35.34,336a11.66,11.66,0,1,1,23.32,0"/><ellipse class="cls-2" cx="65.56" cy="259.74" rx="47.41" ry="72.81"/><circle class="cls-1" cx="65.64" cy="168.23" r="54.19"/><ellipse class="cls-3" cx="39.99" cy="175.88" rx="16.93" ry="24.55"/><ellipse cx="32.92" cy="178.7" rx="6.77" ry="7.62"/><path class="cls-4" d="M51.82,207l-1.61-2.8a3.86,3.86,0,0,1,3.35-5.79h3.22a3.87,3.87,0,0,1,3.35,5.79L58.51,207A3.87,3.87,0,0,1,51.82,207Z"/><ellipse class="cls-1" cx="41.66" cy="253.94" rx="7.59" ry="14.75"/><ellipse class="cls-1" cx="61.45" cy="253.94" rx="7.59" ry="14.75"/><path class="cls-1" d="M34.53,132.84C10.35,64.34-3.26,6.69,4.11,4.09s33,50.82,57.13,119.32"/><path class="cls-1" d="M131.4,85.59c8,40.9,8.7,75.21,1.49,76.63s-19.56-30.6-27.59-71.51"/><path class="cls-1" d="M109.2,72h4.56a3.34,3.34,0,0,1,3.34,3.34v53.18a3.34,3.34,0,0,1-3.34,3.34H97a3.34,3.34,0,0,1-3.34-3.34V87.6A15.59,15.59,0,0,1,109.2,72Z" transform="translate(85.77 -43.35) rotate(38.26)"/><path class="cls-5" d="M107.16,90.27a228.34,228.34,0,0,0,3.61,23.94"/><path class="cls-4" d="M37.24,121.73c-13.67-39.54-21.65-72.67-17.82-74s18,29.66,31.7,69.2"/><rect class="cls-4" x="92.02" y="102.77" width="12.52" height="20.41" transform="translate(91.08 -36.59) rotate(38.26)"/><polygon class="cls-4" points="109.56 108.86 98.5 102.64 107.14 91.93 109.56 108.86"/><ellipse class="cls-3" cx="73.5" cy="175.88" rx="16.93" ry="24.55"/><ellipse cx="66.43" cy="178.7" rx="6.77" ry="7.62"/><ellipse class="cls-1" cx="100.53" cy="306.77" rx="28.8" ry="9.27" transform="translate(-217.92 253.82) rotate(-62.41)"/><path class="cls-1" d="M72.43,336a11.67,11.67,0,0,1,23.33,0"/></svg>
