<svg id="Layer_1" data-name="Layer 1" xmlns="http://www.w3.org/2000/svg" width="190" height="250" viewBox="0 0 190 250"><defs><style>.cls-1{fill:#736357;}.cls-2{fill:gray;}.cls-3{fill:#999;}.cls-4{fill:#fff;}.cls-5{fill:#ff7bac;}.cls-6{fill:#666;}</style></defs><title>pindsvin</title><polygon class="cls-1" points="164.52 194.91 127.01 219.41 82.42 223.67 40.95 206.72 12.12 172.44 2.51 128.69 14.34 85.48 44.89 52.72 87.17 37.91 131.49 44.44 167.69 70.83 187.49 111.01 186.34 155.79 164.52 194.91"/><ellipse class="cls-2" cx="112.65" cy="145.33" rx="56.08" ry="86.12"/><circle class="cls-3" cx="117.14" cy="55.66" r="51.63"/><ellipse class="cls-4" cx="106.47" cy="63.9" rx="18.14" ry="26.3"/><ellipse class="cls-4" cx="141.87" cy="63.9" rx="18.14" ry="26.3"/><ellipse cx="112.51" cy="70.15" rx="8.01" ry="9.01"/><ellipse cx="149.91" cy="70.15" rx="8.01" ry="9.01"/><path class="cls-5" d="M122.64,93.94l-1.39-2.4a3.82,3.82,0,0,1,3.3-5.72h2.78a3.81,3.81,0,0,1,3.3,5.72l-1.39,2.4A3.81,3.81,0,0,1,122.64,93.94Z"/><ellipse class="cls-6" cx="141.71" cy="135.49" rx="8.97" ry="14.46" transform="translate(-25.76 33.54) rotate(-12.38)"/><ellipse class="cls-6" cx="113.79" cy="135.49" rx="14.46" ry="8.97" transform="translate(-46.94 209.46) rotate(-74.69)"/><ellipse class="cls-6" cx="113.79" cy="231.55" rx="8.97" ry="14.46" transform="translate(-21.51 11.87) rotate(-5.46)"/><ellipse class="cls-6" cx="142.04" cy="225.23" rx="8.97" ry="14.46" transform="translate(-112.7 302.76) rotate(-74.69)"/></svg>
