<svg id="Layer_1" data-name="Layer 1" xmlns="http://www.w3.org/2000/svg" width="190" height="190" viewBox="0 0 190 190"><defs><style>.cls-1,.cls-2,.cls-3,.cls-4,.cls-5{fill:none;stroke:#c7b299;stroke-miterlimit:10;}.cls-1{stroke-width:13px;}.cls-2{stroke-width:11px;}.cls-3{stroke-width:12px;}.cls-4{stroke-width:14px;}</style></defs><title>plastik</title><path class="cls-1" d="M66.17,80.93c0,7.23-3.26,11.41-8.52,17.33-5.26,5.31-12.53,12.35-20.56,11.09s-15.31-.57-20.57-5.55C11.26,99.43,8,89.41,8,80.93c0-7.22,3.26-11.4,8.52-17.33,5.26-5.3,12.53-12.35,20.57-11.09s15.3.58,20.56,5.56C62.91,62.43,66.17,72.46,66.17,80.93Z"/><path class="cls-2" d="M100.54,34.66c0,7.76-2.89,17.21-7.55,21.07-4.67,4.5-11.11,3.42-18.23,4.71S61.2,54.88,56.53,50.05C51.87,44.59,49,41.14,49,34.66c0-7.76,2.89-17.2,7.55-21.07,4.67-4.49,11.11-3.41,18.23-4.7S88.32,14.45,93,19.28C97.65,24.74,100.54,28.19,100.54,34.66Z"/><path class="cls-3" d="M182.5,112.66c0,8.16-3,18.08-7.94,22.15-4.9,4.73-11.68,3.59-19.16,4.95s-14.26-5.85-19.17-10.93c-4.9-5.74-7.93-9.36-7.93-16.17,0-8.16,3-18.09,7.94-22.15,4.9-4.73,11.68-3.59,19.16-5s14.26,5.84,19.16,10.92C179.46,102.23,182.5,105.85,182.5,112.66Z"/><path class="cls-4" d="M145.48,153.79c0,8.27-2.88,20.22-7.55,23.38-4.66,4.33-11.1-.14-18.22,2.25s-13.57-7.82-18.23-12.76c-4.67-6.12-7.55-7-7.55-12.87,0-8.26,2.88-20.21,7.55-23.37,4.66-4.33,11.11.14,18.23-2.25s13.56,7.82,18.22,12.76C142.6,147.05,145.48,147.9,145.48,153.79Z"/><path class="cls-3" d="M137.55,76.31c0,7.56-2.81,16.76-7.35,20.52-4.55,4.39-10.83,3.33-17.76,4.59S99.22,96,94.67,91.3c-4.54-5.33-7.35-8.68-7.35-15,0-7.57,2.81-16.77,7.35-20.53,4.55-4.39,10.83-3.33,17.77-4.59s13.21,5.42,17.76,10.12C134.74,66.64,137.55,70,137.55,76.31Z"/><path class="cls-1" d="M103.18,118c0,6.65-3,9.54-7.94,15.48-4.9,5.12-11.68,13.29-19.16,11.62s-14.26.43-19.16-4.26C52,136.92,49,126.26,49,118c0-6.66,3-9.54,7.94-15.48,4.9-5.12,11.68-13.3,19.16-11.62s14.26-.44,19.16,4.25C100.15,99,103.18,109.63,103.18,118Z"/><rect class="cls-5" x="64.85" y="59.12" width="22.47" height="33.05"/><rect class="cls-5" x="103.72" y="102.17" width="25.35" height="24.95" transform="translate(223.78 -8.5) rotate(86.52)"/><polygon class="cls-5" points="54.13 55.63 34.38 50.32 47.88 36.15 54.13 55.63"/><path class="cls-5" d="M38.63,46a2.65,2.65,0,1,1-4.49,2.8"/><path class="cls-5" d="M45.74,36.06a2.64,2.64,0,0,1-2.22,4.8"/><path class="cls-5" d="M147,139.88a2.65,2.65,0,0,1-4.49,2.8"/><polygon class="cls-5" points="140.65 136.62 159.35 141.48 147.26 154.78 140.65 136.62"/><path class="cls-5" d="M154.61,146.3a2.64,2.64,0,1,1,4.38-3"/><path class="cls-5" d="M148.73,155.87a2.64,2.64,0,1,1,1.35-5.11"/></svg>
