<svg id="Layer_1" data-name="Layer 1" xmlns="http://www.w3.org/2000/svg" width="190" height="290" viewBox="0 0 190 290"><defs><style>.cls-1,.cls-2{fill:#00a99d;}.cls-2{opacity:0.9;}.cls-3{fill:#999;}.cls-4{fill:#666;stroke:gray;stroke-miterlimit:10;stroke-width:0.5px;}.cls-5{fill:#e6e6e6;}</style></defs><title>plastikflaske</title><rect class="cls-1" x="45.59" y="71.95" width="86.62" height="206.06" transform="translate(85.53 -21.26) rotate(25.95)"/><path class="cls-1" d="M95,63.39a43.32,43.32,0,1,1,77.9,37.9"/><polyline class="cls-1" points="173.78 32.3 177.1 78.59 110.7 46.2 150.01 19.63"/><rect class="cls-2" x="147.9" y="20.93" width="30.19" height="6.56" rx="1.5" transform="translate(27.02 -68.88) rotate(25.95)"/><rect class="cls-3" x="151.47" y="6.3" width="32.81" height="15.75" rx="2.81" transform="translate(23.13 -72.03) rotate(25.95)"/><line class="cls-4" x1="167.21" y1="6.55" x2="161.47" y2="18.35"/><line class="cls-4" x1="170.75" y1="8.27" x2="165.01" y2="20.08"/><line class="cls-4" x1="174.29" y1="10" x2="168.55" y2="21.8"/><line class="cls-4" x1="177.83" y1="11.72" x2="172.09" y2="23.52"/><line class="cls-4" x1="181.37" y1="13.44" x2="175.63" y2="25.25"/><line class="cls-4" x1="184.62" y1="15.76" x2="179.74" y2="25.79"/><rect class="cls-5" x="67.88" y="77.6" width="69.56" height="135.19" rx="5.4" transform="translate(73.88 -30.29) rotate(25.95)"/><path class="cls-1" d="M83.73,285c-3.39,7.2-23.68,4.78-45.32-5.4S2,255.3,5.36,248.1"/><ellipse class="cls-5" cx="74.18" cy="203.46" rx="6.72" ry="34.86" transform="translate(-141.23 181.14) rotate(-64.05)"/></svg>
