<svg id="Layer_1" data-name="Layer 1" xmlns="http://www.w3.org/2000/svg" width="120" height="120" viewBox="0 0 120 120"><defs><style>.cls-1{fill:#999;}.cls-2{fill:#666;stroke:gray;stroke-miterlimit:10;stroke-width:2px;}</style></defs><title>solvpapir</title><polygon class="cls-1" points="86.04 97.61 70.13 112.07 44.75 115.02 39.75 103.39 10.32 88.12 15.16 65.79 4.99 44.75 15.16 28.18 36.86 22.39 51.32 7.93 75.25 4.99 90.38 20.95 109.68 31.88 104.84 57.11 115.02 75.25 109.18 91.82 86.04 97.61"/><polyline class="cls-2" points="31.07 42.64 49.88 35.41 60 36.86"/><polyline class="cls-2" points="23.84 71.57 35.41 74.47 45.53 67.23"/><polyline class="cls-2" points="52.77 90.38 71.57 94.72 78.8 78.8"/><polyline class="cls-2" points="43.15 52.77 61.45 55.66 68.7 67.53"/><polyline class="cls-2" points="77.05 30.77 81.7 46.98 97.91 51.63"/><polyline class="cls-2" points="73.86 18.37 57.54 14.09 45.27 25.66"/><polyline class="cls-2" points="94.6 87.52 98.51 76.25 92.2 65.53"/><polyline class="cls-2" points="18.34 38.6 19.1 48.58 28.32 53.42"/></svg>
