<svg id="Layer_1" data-name="Layer 1" xmlns="http://www.w3.org/2000/svg" width="170" height="270" viewBox="0 0 170 270"><defs><style>.cls-1{fill:#736357;}.cls-2{fill:none;stroke:#fbb03b;stroke-linecap:round;stroke-miterlimit:10;stroke-width:13px;}.cls-3{fill:#998675;}.cls-4{fill:#fff;}.cls-5{fill:#fbb03b;}</style></defs><title>ugle</title><path class="cls-1" d="M11.33,25.17,36.06,42.46,53.85,13.15l-40.5,4.2A4.31,4.31,0,0,0,11.33,25.17Z"/><path class="cls-2" d="M53.17,254.29a12.89,12.89,0,0,1,7.49-6A16.9,16.9,0,0,1,74,249.87"/><path class="cls-3" d="M119.43,234.07c6.48-14.22,12-22,38-52,28.95-33.41-17.92-80-40-80"/><path class="cls-3" d="M50.57,234.07c-6.48-14.22-12-22-38-52-28.95-33.41,17.92-80,40-80"/><path class="cls-2" d="M64.46,261.56a13,13,0,0,1,5.13-8.09,17,17,0,0,1,13.1-2.87"/><path class="cls-2" d="M112.71,261.56a12.91,12.91,0,0,0-5.13-8.09,16.94,16.94,0,0,0-13.1-2.87"/><path class="cls-2" d="M121.94,254.57a12.94,12.94,0,0,0-7.32-6.18,17,17,0,0,0-13.36,1.19"/><ellipse class="cls-1" cx="86.58" cy="168.03" rx="56.03" ry="86.05"/><circle class="cls-3" cx="86.58" cy="65.98" r="64.04"/><ellipse class="cls-4" cx="64.57" cy="70.98" rx="20.01" ry="29.02"/><ellipse class="cls-4" cx="104.59" cy="70.98" rx="20.01" ry="29.02"/><ellipse cx="52.57" cy="74.98" rx="8" ry="9"/><path class="cls-5" d="M81.47,130.48,65.57,106a1.19,1.19,0,0,1,.93-1.83l29.16-1.52a1.19,1.19,0,0,1,1.12,1.72l-13.26,26A1.18,1.18,0,0,1,81.47,130.48Z"/><ellipse cx="94.59" cy="74.98" rx="8" ry="9"/><path class="cls-1" d="M154.83,18.53l-11.22,12a9.53,9.53,0,0,1-13.9,0l-6.64-7.09a7.16,7.16,0,0,1,4.48-12L150.12,9A5.66,5.66,0,0,1,154.83,18.53Z"/></svg>
