<svg id="Layer_1" data-name="Layer 1" xmlns="http://www.w3.org/2000/svg" width="120" height="90" viewBox="0 0 120 90"><title>10_point</title><path d="M26.89,47.37a3.57,3.57,0,0,1-.75,2.23,2.18,2.18,0,0,1-1.9.92q-.81,0-3.9-2.12t-3.15-2.88a3.83,3.83,0,0,1,.15-.92,3.88,3.88,0,0,0,.15-.88v-21q0-1.16-2.25-1.65-2.51-.6-2.85-1.65a3,3,0,0,1-.2-1.05,4.63,4.63,0,0,1,1.1-2.6,26.81,26.81,0,0,0,1.8-2.65l1.2-3.9A3,3,0,0,1,19.24,7a8.25,8.25,0,0,1,4.3,1.3q2.4,1.45,2.4,3.3V44.77a2.73,2.73,0,0,0,.47,1.28A2.61,2.61,0,0,1,26.89,47.37Z"/><path d="M60.79,9.32q2.45.55,3.9,5.2A38.52,38.52,0,0,1,66,25.32a54.77,54.77,0,0,1-2,14.8q-3,10.46-8.6,10.45a6.92,6.92,0,0,1-2.2-.45c-1.4-.53-2.17-.82-2.3-.85-.9-.37-2.39-.92-4.45-1.65-1.67-.57-3-2.93-4.1-7.1a53.93,53.93,0,0,1-1.5-13.35,45,45,0,0,1,1.55-12.7q1.69-5.9,4.95-7a1.75,1.75,0,0,1,.4,0,1.78,1.78,0,0,1,.85.3c.33.2.58.27.75.2a9.17,9.17,0,0,1,3-.5,15.78,15.78,0,0,1,4.3.75Q60.34,9.22,60.79,9.32Zm-6.3,3.2q-2.4,0-3.75,5.4a44,44,0,0,0-1.05,10.15A51.06,51.06,0,0,0,50.74,38q1,5.3,2,5.3c1.3,0,2.36-2,3.2-6.1a66.09,66.09,0,0,0,1-12.5,49.06,49.06,0,0,0-.6-8.5C56,13.74,55.32,12.52,54.49,12.52Z"/></svg>
