<svg id="Layer_1" data-name="Layer 1" xmlns="http://www.w3.org/2000/svg" width="120" height="90" viewBox="0 0 120 90"><title>20_point</title><path d="M34.39,43.52c.1,1-.52,1.65-1.85,2a7.39,7.39,0,0,0-1.9,0A32.9,32.9,0,0,0,25,47.07,47.35,47.35,0,0,0,17,49.87a4.76,4.76,0,0,0-1.28.93q-.57.57-.72.57-.75.1-4.35-2.6c-.67-.4-1.34-.83-2-1.3a2.14,2.14,0,0,1-1-1.65A62.79,62.79,0,0,1,12,39.27q5.34-7.6,8.3-12.7,4.55-8.05,4.9-12.75-3.9,1.61-7.8,7.2A1.39,1.39,0,0,0,17,22a1.93,1.93,0,0,1-.27.92,1.74,1.74,0,0,1-1.45.65,7.53,7.53,0,0,1-4-1.6l-2-1.1C8.49,20.39,8.07,20,8,19.67q-.1-1.16,2.5-4.45a31.34,31.34,0,0,1,6.2-6q4.05-3,7.2-3a3.78,3.78,0,0,1,2.27.78c.72.51,1.41,1,2.08,1.57,2.7,1.87,4.41,3.63,5.15,5.3a3.62,3.62,0,0,1,.2,1.3q0,3.49-3.7,11.4a80.39,80.39,0,0,1-7.5,13c1-.33,2.46-.83,4.3-1.5a8.61,8.61,0,0,0,1.05-.7,1.42,1.42,0,0,1,.95-.3q1.2.15,3.37,2.83C33.56,41.68,34.32,42.89,34.39,43.52Z"/><path d="M60.79,9.32q2.45.55,3.9,5.2A38.52,38.52,0,0,1,66,25.32a54.77,54.77,0,0,1-2,14.8q-3,10.46-8.6,10.45a6.92,6.92,0,0,1-2.2-.45c-1.4-.53-2.17-.82-2.3-.85-.9-.37-2.39-.92-4.45-1.65-1.67-.57-3-2.93-4.1-7.1a53.93,53.93,0,0,1-1.5-13.35,45,45,0,0,1,1.55-12.7q1.69-5.9,4.95-7a1.75,1.75,0,0,1,.4,0,1.78,1.78,0,0,1,.85.3c.33.2.58.27.75.2a9.17,9.17,0,0,1,3-.5,15.78,15.78,0,0,1,4.3.75Q60.34,9.22,60.79,9.32Zm-6.3,3.2q-2.4,0-3.75,5.4a44,44,0,0,0-1.05,10.15A51.06,51.06,0,0,0,50.74,38q1,5.3,2,5.3c1.3,0,2.36-2,3.2-6.1a66.09,66.09,0,0,0,1-12.5,49.06,49.06,0,0,0-.6-8.5C56,13.74,55.32,12.52,54.49,12.52Z"/></svg>
