<svg id="Layer_1" data-name="Layer 1" xmlns="http://www.w3.org/2000/svg" width="120" height="90" viewBox="0 0 120 90"><title>25_point</title><path d="M34.39,43.52c.1,1-.52,1.65-1.85,2a7.39,7.39,0,0,0-1.9,0A32.9,32.9,0,0,0,25,47.07,47.35,47.35,0,0,0,17,49.87a4.76,4.76,0,0,0-1.28.93q-.57.57-.72.57-.75.1-4.35-2.6c-.67-.4-1.34-.83-2-1.3a2.14,2.14,0,0,1-1-1.65A62.79,62.79,0,0,1,12,39.27q5.34-7.6,8.3-12.7,4.55-8.05,4.9-12.75-3.9,1.61-7.8,7.2A1.39,1.39,0,0,0,17,22a1.93,1.93,0,0,1-.27.92,1.74,1.74,0,0,1-1.45.65,7.53,7.53,0,0,1-4-1.6l-2-1.1C8.49,20.39,8.07,20,8,19.67q-.1-1.16,2.5-4.45a31.34,31.34,0,0,1,6.2-6q4.05-3,7.2-3a3.78,3.78,0,0,1,2.27.78c.72.51,1.41,1,2.08,1.57,2.7,1.87,4.41,3.63,5.15,5.3a3.62,3.62,0,0,1,.2,1.3q0,3.49-3.7,11.4a80.39,80.39,0,0,1-7.5,13c1-.33,2.46-.83,4.3-1.5a8.61,8.61,0,0,0,1.05-.7,1.42,1.42,0,0,1,.95-.3q1.2.15,3.37,2.83C33.56,41.68,34.32,42.89,34.39,43.52Z"/><path d="M66.59,12.87a1.8,1.8,0,0,1-.6,1.35,2.72,2.72,0,0,1-1.5.95,3.82,3.82,0,0,1-1.8-.35,14.16,14.16,0,0,0-2.15-.6,12,12,0,0,0-4.45.55,15.38,15.38,0,0,0-5.75,2.9v5.45a9.86,9.86,0,0,1,4-.95q2.85,0,7,3.2c2.76,2.13,4.15,4,4.15,5.7A27.44,27.44,0,0,1,61.61,45.4Q57.68,52,52.89,52q-2.46,0-7.6-3.6t-5.35-5.7a2.88,2.88,0,0,1,.6-2,2.18,2.18,0,0,1,1.7-1q1.55-.1,4.3,2.4a36,36,0,0,0,3.2,2.9q2.59-1.45,5.3-6.4,2.6-4.76,2.6-7.45A1.44,1.44,0,0,0,56,29.42q-1.5,0-4.1,2.15a27.31,27.31,0,0,1-2.75,2.15,10.06,10.06,0,0,1-3.75-1.25,11.93,11.93,0,0,1-3.8-2.5,1.55,1.55,0,0,1-.35-1,6.3,6.3,0,0,1,.12-.92A6.71,6.71,0,0,0,41.54,27v-15a2,2,0,0,1,.92-1.5,4.41,4.41,0,0,1,2-.95,1.73,1.73,0,0,1,.8.13,2.67,2.67,0,0,0,.75.17,1.27,1.27,0,0,0,.55-.15A38.68,38.68,0,0,1,54.94,7a24,24,0,0,1,4.65-.65l1-.2a1.53,1.53,0,0,1,1,.25,16.34,16.34,0,0,1,3,3.05A9.78,9.78,0,0,1,66.59,12.87Z"/></svg>
