<svg id="Layer_1" data-name="Layer 1" xmlns="http://www.w3.org/2000/svg" width="120" height="90" viewBox="0 0 120 90"><defs><style>.cls-1{opacity:0.16;}</style></defs><title>30_point</title><path class="cls-1" d="M645.51,328.5V1345.22h-56a12,12,0,0,1-11.19-7.69,11.71,11.71,0,0,1-.8-3.92c0-.13,0-.26,0-.39V646.64L280.85,499.48l-198.62,60a2.68,2.68,0,0,1-2.12-4.89l143.62-83.42L98.32,408.93a3.16,3.16,0,0,1,2.07-5.91l169.2,36.66a2.53,2.53,0,0,1-.86-2.15l7.61-78.31L282,300.71a2.54,2.54,0,0,1,5-.13l8.83,58.64,13.42,89.07L506.64,491,422.18,359.22,246.35,84.78a2.89,2.89,0,0,1,4.44-3.65l175,168.41L524.55,99a2.6,2.6,0,0,1,4.62,2.32L462.56,285l23,22.13.58.56,16.63,16,36.91,35.53,93.14,89.66L644.54,406l-25.45-46.81L544,221a2,2,0,0,1,3.18-2.24l47.29,52.75,17.39-84.07a2.18,2.18,0,0,1,4.31.39l2.58,110.75Z"/><path d="M32.29,17.62q-.36,3.49-4.55,8.4,5,4.25,5.05,9.7T27.84,46.47q-4.5,4.61-8.45,4.85-1.61.1-6.55-3.9T8,42.52a2.53,2.53,0,0,1,1.1-2.1,3.28,3.28,0,0,1,2.2-.9c.46,0,1.21.65,2.25,1.85a5.54,5.54,0,0,0,2.85,2.05q2,.45,5.55-4.15,3.35-4.35,3.35-6.45c0-.6-.39-.9-1.15-.9a3.43,3.43,0,0,0-1.9.8c-.54.37-1.06.74-1.58,1.13a2,2,0,0,1-1.52.47,6.92,6.92,0,0,1-2.73-1.6,17.23,17.23,0,0,1-3.07-3.1,1.31,1.31,0,0,1-.25-.8,2.06,2.06,0,0,1,1.35-2,17,17,0,0,0,4.6-3.6,17.69,17.69,0,0,0,4.85-8.6q-2,.45-4.45,3.73c-1.64,2.18-2.65,3.34-3.05,3.47-.64.23-1.84-.17-3.63-1.2a10.69,10.69,0,0,1-3.47-2.75.8.8,0,0,1-.15-.5,4.26,4.26,0,0,1,1.35-2.3,70.45,70.45,0,0,1,5.7-6q3.24-2.74,6.2-2.6,3.3.2,6.77,4.05T32.29,17.62Z"/><path d="M60.79,9.32q2.45.55,3.9,5.2A38.52,38.52,0,0,1,66,25.32a54.77,54.77,0,0,1-2,14.8q-3,10.46-8.6,10.45a6.92,6.92,0,0,1-2.2-.45c-1.4-.53-2.17-.82-2.3-.85-.9-.37-2.39-.92-4.45-1.65-1.67-.57-3-2.93-4.1-7.1a53.93,53.93,0,0,1-1.5-13.35,45,45,0,0,1,1.55-12.7q1.69-5.9,4.95-7a1.75,1.75,0,0,1,.4,0,1.78,1.78,0,0,1,.85.3c.33.2.58.27.75.2a9.17,9.17,0,0,1,3-.5,15.78,15.78,0,0,1,4.3.75Q60.34,9.22,60.79,9.32Zm-6.3,3.2q-2.4,0-3.75,5.4a44,44,0,0,0-1.05,10.15A51.06,51.06,0,0,0,50.74,38q1,5.3,2,5.3c1.3,0,2.36-2,3.2-6.1a66.09,66.09,0,0,0,1-12.5,49.06,49.06,0,0,0-.6-8.5C56,13.74,55.32,12.52,54.49,12.52Z"/></svg>
