<svg id="Layer_1" data-name="Layer 1" xmlns="http://www.w3.org/2000/svg" width="70" height="90" viewBox="0 0 70 90"><title>5_point</title><path d="M32.19,12.87a1.73,1.73,0,0,1-.6,1.35,2.72,2.72,0,0,1-1.5.95,3.82,3.82,0,0,1-1.8-.35,13.85,13.85,0,0,0-2.15-.6,12,12,0,0,0-4.45.55,15.38,15.38,0,0,0-5.75,2.9v5.45a9.86,9.86,0,0,1,4-.95q2.85,0,7,3.2t4.15,5.7A27.44,27.44,0,0,1,27.21,45.4Q23.3,52,18.49,52c-1.63,0-4.17-1.2-7.6-3.6s-5.22-4.3-5.35-5.7a2.88,2.88,0,0,1,.6-2,2.19,2.19,0,0,1,1.7-1c1-.07,2.47.73,4.3,2.4a37.82,37.82,0,0,0,3.2,2.9q2.6-1.45,5.3-6.4,2.59-4.76,2.6-7.45a1.44,1.44,0,0,0-1.6-1.65q-1.5,0-4.1,2.15a26,26,0,0,1-2.75,2.15A10.06,10.06,0,0,1,11,32.47,12,12,0,0,1,7.24,30a1.6,1.6,0,0,1-.35-1A6.3,6.3,0,0,1,7,28.05,5.73,5.73,0,0,0,7.14,27v-15a2,2,0,0,1,.92-1.5,4.46,4.46,0,0,1,2-.95,1.71,1.71,0,0,1,.8.13,2.67,2.67,0,0,0,.75.17,1.23,1.23,0,0,0,.55-.15A38.86,38.86,0,0,1,20.54,7a24,24,0,0,1,4.65-.65l1-.2a1.52,1.52,0,0,1,1,.25,16.34,16.34,0,0,1,3,3.05A9.62,9.62,0,0,1,32.19,12.87Z"/></svg>
