<svg id="Layer_1" data-name="Layer 1" xmlns="http://www.w3.org/2000/svg" width="70" height="90" viewBox="0 0 70 90"><title>1_liv</title><path d="M25,47.37a3.57,3.57,0,0,1-.75,2.23,2.17,2.17,0,0,1-1.9.92q-.8,0-3.9-2.12t-3.15-2.88a3.83,3.83,0,0,1,.15-.92,3.88,3.88,0,0,0,.15-.88v-21q0-1.16-2.25-1.65-2.5-.6-2.85-1.65a3.18,3.18,0,0,1-.2-1.05,4.7,4.7,0,0,1,1.1-2.6,26.81,26.81,0,0,0,1.8-2.65l1.2-3.9A3,3,0,0,1,17.34,7a8.22,8.22,0,0,1,4.3,1.3Q24,9.77,24,11.62V44.77a2.73,2.73,0,0,0,.47,1.28A2.61,2.61,0,0,1,25,47.37Z"/></svg>
