<svg id="Layer_1" data-name="Layer 1" xmlns="http://www.w3.org/2000/svg" width="70" height="90" viewBox="0 0 70 90"><title>2_liv</title><path d="M32.49,43.52c.1,1-.52,1.65-1.85,2a7.39,7.39,0,0,0-1.9,0,33.14,33.14,0,0,0-5.65,1.45,47.35,47.35,0,0,0-7.95,2.8,4.76,4.76,0,0,0-1.28.93q-.57.57-.72.57-.75.1-4.35-2.6c-.67-.4-1.33-.83-2-1.3a2.14,2.14,0,0,1-1-1.65,62.79,62.79,0,0,1,4.35-6.55q5.36-7.6,8.3-12.7,4.55-8.05,4.9-12.75-3.9,1.61-7.8,7.2a1.39,1.39,0,0,0-.38.93,1.93,1.93,0,0,1-.27.92,1.73,1.73,0,0,1-1.45.65,7.56,7.56,0,0,1-4-1.6l-2-1.1c-.8-.43-1.22-.82-1.25-1.15-.07-.77.77-2.25,2.5-4.45a31.61,31.61,0,0,1,6.2-6q4.05-3,7.2-3a3.78,3.78,0,0,1,2.27.78c.72.51,1.41,1,2.08,1.57,2.7,1.87,4.42,3.63,5.15,5.3a3.62,3.62,0,0,1,.2,1.3q0,3.49-3.7,11.4a78.93,78.93,0,0,1-7.5,13c1-.33,2.47-.83,4.3-1.5a8.61,8.61,0,0,0,1.05-.7,1.42,1.42,0,0,1,.95-.3q1.2.15,3.37,2.83C31.66,41.68,32.42,42.89,32.49,43.52Z"/></svg>
