<svg id="Layer_1" data-name="Layer 1" xmlns="http://www.w3.org/2000/svg" width="70" height="90" viewBox="0 0 70 90"><title>3_liv</title><path d="M30.39,17.62Q30,21.12,25.84,26q5.06,4.25,5.05,9.7T25.94,46.47q-4.5,4.61-8.45,4.85-1.6.1-6.55-3.9t-4.85-4.9a2.55,2.55,0,0,1,1.1-2.1,3.3,3.3,0,0,1,2.2-.9c.47,0,1.22.65,2.25,1.85a5.54,5.54,0,0,0,2.85,2.05q2.05.45,5.55-4.15,3.34-4.35,3.35-6.45c0-.6-.38-.9-1.15-.9a3.46,3.46,0,0,0-1.9.8c-.53.37-1.06.74-1.58,1.13a2,2,0,0,1-1.52.47,6.92,6.92,0,0,1-2.73-1.6,17.23,17.23,0,0,1-3.07-3.1,1.31,1.31,0,0,1-.25-.8,2.06,2.06,0,0,1,1.35-2,16.82,16.82,0,0,0,4.6-3.6A17.61,17.61,0,0,0,22,14.62c-1.33.3-2.82,1.54-4.45,3.73s-2.65,3.34-3,3.47q-.95.34-3.63-1.2a10.69,10.69,0,0,1-3.47-2.75.8.8,0,0,1-.15-.5,4.26,4.26,0,0,1,1.35-2.3,74,74,0,0,1,5.7-6c2.17-1.83,4.23-2.7,6.2-2.6q3.3.2,6.77,4.05T30.39,17.62Z"/></svg>
